%TF.GenerationSoftware,KiCad,Pcbnew,7.0.10*%
%TF.CreationDate,2024-03-23T21:36:50+11:00*%
%TF.ProjectId,cptibp1a-pcb,63707469-6270-4316-912d-7063622e6b69,rev?*%
%TF.SameCoordinates,Original*%
%TF.FileFunction,Legend,Bot*%
%TF.FilePolarity,Positive*%
%FSLAX46Y46*%
G04 Gerber Fmt 4.6, Leading zero omitted, Abs format (unit mm)*
G04 Created by KiCad (PCBNEW 7.0.10) date 2024-03-23 21:36:50*
%MOMM*%
%LPD*%
G01*
G04 APERTURE LIST*
%ADD10C,0.150000*%
%ADD11C,1.000000*%
%ADD12C,0.120000*%
%ADD13C,0.250000*%
%ADD14C,0.010000*%
G04 APERTURE END LIST*
D10*
X-18500000Y-15000000D02*
X-15500000Y-15000000D01*
X-15500000Y-28100000D01*
X-18500000Y-28100000D01*
X-18500000Y-15000000D01*
G36*
X-18500000Y-15000000D02*
G01*
X-15500000Y-15000000D01*
X-15500000Y-28100000D01*
X-18500000Y-28100000D01*
X-18500000Y-15000000D01*
G37*
D11*
X11856333Y-27595238D02*
X11856333Y-31404762D01*
X13761095Y-29500000D02*
X9951571Y-29500000D01*
D10*
X15703152Y-11132017D02*
X16512676Y-11132017D01*
X16512676Y-11132017D02*
X16607914Y-11093922D01*
X16607914Y-11093922D02*
X16655533Y-11055826D01*
X16655533Y-11055826D02*
X16703152Y-10979636D01*
X16703152Y-10979636D02*
X16703152Y-10865350D01*
X16703152Y-10865350D02*
X16655533Y-10789160D01*
X16322200Y-11132017D02*
X16369819Y-11055826D01*
X16369819Y-11055826D02*
X16369819Y-10903445D01*
X16369819Y-10903445D02*
X16322200Y-10827255D01*
X16322200Y-10827255D02*
X16274580Y-10789160D01*
X16274580Y-10789160D02*
X16179342Y-10751064D01*
X16179342Y-10751064D02*
X15893628Y-10751064D01*
X15893628Y-10751064D02*
X15798390Y-10789160D01*
X15798390Y-10789160D02*
X15750771Y-10827255D01*
X15750771Y-10827255D02*
X15703152Y-10903445D01*
X15703152Y-10903445D02*
X15703152Y-11055826D01*
X15703152Y-11055826D02*
X15750771Y-11132017D01*
X16369819Y-11512970D02*
X15703152Y-11512970D01*
X15369819Y-11512970D02*
X15417438Y-11474874D01*
X15417438Y-11474874D02*
X15465057Y-11512970D01*
X15465057Y-11512970D02*
X15417438Y-11551065D01*
X15417438Y-11551065D02*
X15369819Y-11512970D01*
X15369819Y-11512970D02*
X15465057Y-11512970D01*
X15703152Y-11779636D02*
X15703152Y-12084398D01*
X15369819Y-11893922D02*
X16226961Y-11893922D01*
X16226961Y-11893922D02*
X16322200Y-11932017D01*
X16322200Y-11932017D02*
X16369819Y-12008207D01*
X16369819Y-12008207D02*
X16369819Y-12084398D01*
X16369819Y-12351065D02*
X15369819Y-12351065D01*
X16369819Y-12693922D02*
X15846009Y-12693922D01*
X15846009Y-12693922D02*
X15750771Y-12655827D01*
X15750771Y-12655827D02*
X15703152Y-12579636D01*
X15703152Y-12579636D02*
X15703152Y-12465350D01*
X15703152Y-12465350D02*
X15750771Y-12389160D01*
X15750771Y-12389160D02*
X15798390Y-12351065D01*
X15703152Y-13417732D02*
X16369819Y-13417732D01*
X15703152Y-13074875D02*
X16226961Y-13074875D01*
X16226961Y-13074875D02*
X16322200Y-13112970D01*
X16322200Y-13112970D02*
X16369819Y-13189160D01*
X16369819Y-13189160D02*
X16369819Y-13303446D01*
X16369819Y-13303446D02*
X16322200Y-13379637D01*
X16322200Y-13379637D02*
X16274580Y-13417732D01*
X16369819Y-13798685D02*
X15369819Y-13798685D01*
X15750771Y-13798685D02*
X15703152Y-13874875D01*
X15703152Y-13874875D02*
X15703152Y-14027256D01*
X15703152Y-14027256D02*
X15750771Y-14103447D01*
X15750771Y-14103447D02*
X15798390Y-14141542D01*
X15798390Y-14141542D02*
X15893628Y-14179637D01*
X15893628Y-14179637D02*
X16179342Y-14179637D01*
X16179342Y-14179637D02*
X16274580Y-14141542D01*
X16274580Y-14141542D02*
X16322200Y-14103447D01*
X16322200Y-14103447D02*
X16369819Y-14027256D01*
X16369819Y-14027256D02*
X16369819Y-13874875D01*
X16369819Y-13874875D02*
X16322200Y-13798685D01*
X16274580Y-14522495D02*
X16322200Y-14560590D01*
X16322200Y-14560590D02*
X16369819Y-14522495D01*
X16369819Y-14522495D02*
X16322200Y-14484399D01*
X16322200Y-14484399D02*
X16274580Y-14522495D01*
X16274580Y-14522495D02*
X16369819Y-14522495D01*
X16322200Y-15246304D02*
X16369819Y-15170113D01*
X16369819Y-15170113D02*
X16369819Y-15017732D01*
X16369819Y-15017732D02*
X16322200Y-14941542D01*
X16322200Y-14941542D02*
X16274580Y-14903447D01*
X16274580Y-14903447D02*
X16179342Y-14865351D01*
X16179342Y-14865351D02*
X15893628Y-14865351D01*
X15893628Y-14865351D02*
X15798390Y-14903447D01*
X15798390Y-14903447D02*
X15750771Y-14941542D01*
X15750771Y-14941542D02*
X15703152Y-15017732D01*
X15703152Y-15017732D02*
X15703152Y-15170113D01*
X15703152Y-15170113D02*
X15750771Y-15246304D01*
X16369819Y-15703446D02*
X16322200Y-15627256D01*
X16322200Y-15627256D02*
X16274580Y-15589161D01*
X16274580Y-15589161D02*
X16179342Y-15551065D01*
X16179342Y-15551065D02*
X15893628Y-15551065D01*
X15893628Y-15551065D02*
X15798390Y-15589161D01*
X15798390Y-15589161D02*
X15750771Y-15627256D01*
X15750771Y-15627256D02*
X15703152Y-15703446D01*
X15703152Y-15703446D02*
X15703152Y-15817732D01*
X15703152Y-15817732D02*
X15750771Y-15893923D01*
X15750771Y-15893923D02*
X15798390Y-15932018D01*
X15798390Y-15932018D02*
X15893628Y-15970113D01*
X15893628Y-15970113D02*
X16179342Y-15970113D01*
X16179342Y-15970113D02*
X16274580Y-15932018D01*
X16274580Y-15932018D02*
X16322200Y-15893923D01*
X16322200Y-15893923D02*
X16369819Y-15817732D01*
X16369819Y-15817732D02*
X16369819Y-15703446D01*
X16369819Y-16312971D02*
X15703152Y-16312971D01*
X15798390Y-16312971D02*
X15750771Y-16351066D01*
X15750771Y-16351066D02*
X15703152Y-16427256D01*
X15703152Y-16427256D02*
X15703152Y-16541542D01*
X15703152Y-16541542D02*
X15750771Y-16617733D01*
X15750771Y-16617733D02*
X15846009Y-16655828D01*
X15846009Y-16655828D02*
X16369819Y-16655828D01*
X15846009Y-16655828D02*
X15750771Y-16693923D01*
X15750771Y-16693923D02*
X15703152Y-16770114D01*
X15703152Y-16770114D02*
X15703152Y-16884399D01*
X15703152Y-16884399D02*
X15750771Y-16960590D01*
X15750771Y-16960590D02*
X15846009Y-16998685D01*
X15846009Y-16998685D02*
X16369819Y-16998685D01*
X15322200Y-17951066D02*
X16607914Y-17265352D01*
X16322200Y-18560590D02*
X16369819Y-18484399D01*
X16369819Y-18484399D02*
X16369819Y-18332018D01*
X16369819Y-18332018D02*
X16322200Y-18255828D01*
X16322200Y-18255828D02*
X16274580Y-18217733D01*
X16274580Y-18217733D02*
X16179342Y-18179637D01*
X16179342Y-18179637D02*
X15893628Y-18179637D01*
X15893628Y-18179637D02*
X15798390Y-18217733D01*
X15798390Y-18217733D02*
X15750771Y-18255828D01*
X15750771Y-18255828D02*
X15703152Y-18332018D01*
X15703152Y-18332018D02*
X15703152Y-18484399D01*
X15703152Y-18484399D02*
X15750771Y-18560590D01*
X16369819Y-19246304D02*
X15846009Y-19246304D01*
X15846009Y-19246304D02*
X15750771Y-19208209D01*
X15750771Y-19208209D02*
X15703152Y-19132018D01*
X15703152Y-19132018D02*
X15703152Y-18979637D01*
X15703152Y-18979637D02*
X15750771Y-18903447D01*
X16322200Y-19246304D02*
X16369819Y-19170113D01*
X16369819Y-19170113D02*
X16369819Y-18979637D01*
X16369819Y-18979637D02*
X16322200Y-18903447D01*
X16322200Y-18903447D02*
X16226961Y-18865351D01*
X16226961Y-18865351D02*
X16131723Y-18865351D01*
X16131723Y-18865351D02*
X16036485Y-18903447D01*
X16036485Y-18903447D02*
X15988866Y-18979637D01*
X15988866Y-18979637D02*
X15988866Y-19170113D01*
X15988866Y-19170113D02*
X15941247Y-19246304D01*
X16369819Y-19741542D02*
X16322200Y-19665352D01*
X16322200Y-19665352D02*
X16226961Y-19627257D01*
X16226961Y-19627257D02*
X15369819Y-19627257D01*
X16322200Y-20389162D02*
X16369819Y-20312971D01*
X16369819Y-20312971D02*
X16369819Y-20160590D01*
X16369819Y-20160590D02*
X16322200Y-20084400D01*
X16322200Y-20084400D02*
X16274580Y-20046305D01*
X16274580Y-20046305D02*
X16179342Y-20008209D01*
X16179342Y-20008209D02*
X15893628Y-20008209D01*
X15893628Y-20008209D02*
X15798390Y-20046305D01*
X15798390Y-20046305D02*
X15750771Y-20084400D01*
X15750771Y-20084400D02*
X15703152Y-20160590D01*
X15703152Y-20160590D02*
X15703152Y-20312971D01*
X15703152Y-20312971D02*
X15750771Y-20389162D01*
X15703152Y-20732019D02*
X16703152Y-20732019D01*
X15750771Y-20732019D02*
X15703152Y-20808209D01*
X15703152Y-20808209D02*
X15703152Y-20960590D01*
X15703152Y-20960590D02*
X15750771Y-21036781D01*
X15750771Y-21036781D02*
X15798390Y-21074876D01*
X15798390Y-21074876D02*
X15893628Y-21112971D01*
X15893628Y-21112971D02*
X16179342Y-21112971D01*
X16179342Y-21112971D02*
X16274580Y-21074876D01*
X16274580Y-21074876D02*
X16322200Y-21036781D01*
X16322200Y-21036781D02*
X16369819Y-20960590D01*
X16369819Y-20960590D02*
X16369819Y-20808209D01*
X16369819Y-20808209D02*
X16322200Y-20732019D01*
X16322200Y-21417733D02*
X16369819Y-21493924D01*
X16369819Y-21493924D02*
X16369819Y-21646305D01*
X16369819Y-21646305D02*
X16322200Y-21722495D01*
X16322200Y-21722495D02*
X16226961Y-21760591D01*
X16226961Y-21760591D02*
X16179342Y-21760591D01*
X16179342Y-21760591D02*
X16084104Y-21722495D01*
X16084104Y-21722495D02*
X16036485Y-21646305D01*
X16036485Y-21646305D02*
X16036485Y-21532019D01*
X16036485Y-21532019D02*
X15988866Y-21455829D01*
X15988866Y-21455829D02*
X15893628Y-21417733D01*
X15893628Y-21417733D02*
X15846009Y-21417733D01*
X15846009Y-21417733D02*
X15750771Y-21455829D01*
X15750771Y-21455829D02*
X15703152Y-21532019D01*
X15703152Y-21532019D02*
X15703152Y-21646305D01*
X15703152Y-21646305D02*
X15750771Y-21722495D01*
X15703152Y-22446305D02*
X16369819Y-22446305D01*
X15703152Y-22103448D02*
X16226961Y-22103448D01*
X16226961Y-22103448D02*
X16322200Y-22141543D01*
X16322200Y-22141543D02*
X16369819Y-22217733D01*
X16369819Y-22217733D02*
X16369819Y-22332019D01*
X16369819Y-22332019D02*
X16322200Y-22408210D01*
X16322200Y-22408210D02*
X16274580Y-22446305D01*
X15322200Y-23398686D02*
X16607914Y-22712972D01*
X16322200Y-24008210D02*
X16369819Y-23932019D01*
X16369819Y-23932019D02*
X16369819Y-23779638D01*
X16369819Y-23779638D02*
X16322200Y-23703448D01*
X16322200Y-23703448D02*
X16274580Y-23665353D01*
X16274580Y-23665353D02*
X16179342Y-23627257D01*
X16179342Y-23627257D02*
X15893628Y-23627257D01*
X15893628Y-23627257D02*
X15798390Y-23665353D01*
X15798390Y-23665353D02*
X15750771Y-23703448D01*
X15750771Y-23703448D02*
X15703152Y-23779638D01*
X15703152Y-23779638D02*
X15703152Y-23932019D01*
X15703152Y-23932019D02*
X15750771Y-24008210D01*
X15703152Y-24351067D02*
X16703152Y-24351067D01*
X15750771Y-24351067D02*
X15703152Y-24427257D01*
X15703152Y-24427257D02*
X15703152Y-24579638D01*
X15703152Y-24579638D02*
X15750771Y-24655829D01*
X15750771Y-24655829D02*
X15798390Y-24693924D01*
X15798390Y-24693924D02*
X15893628Y-24732019D01*
X15893628Y-24732019D02*
X16179342Y-24732019D01*
X16179342Y-24732019D02*
X16274580Y-24693924D01*
X16274580Y-24693924D02*
X16322200Y-24655829D01*
X16322200Y-24655829D02*
X16369819Y-24579638D01*
X16369819Y-24579638D02*
X16369819Y-24427257D01*
X16369819Y-24427257D02*
X16322200Y-24351067D01*
X15703152Y-24960591D02*
X15703152Y-25265353D01*
X15369819Y-25074877D02*
X16226961Y-25074877D01*
X16226961Y-25074877D02*
X16322200Y-25112972D01*
X16322200Y-25112972D02*
X16369819Y-25189162D01*
X16369819Y-25189162D02*
X16369819Y-25265353D01*
X16369819Y-25532020D02*
X15703152Y-25532020D01*
X15369819Y-25532020D02*
X15417438Y-25493924D01*
X15417438Y-25493924D02*
X15465057Y-25532020D01*
X15465057Y-25532020D02*
X15417438Y-25570115D01*
X15417438Y-25570115D02*
X15369819Y-25532020D01*
X15369819Y-25532020D02*
X15465057Y-25532020D01*
X16369819Y-25912972D02*
X15369819Y-25912972D01*
X15750771Y-25912972D02*
X15703152Y-25989162D01*
X15703152Y-25989162D02*
X15703152Y-26141543D01*
X15703152Y-26141543D02*
X15750771Y-26217734D01*
X15750771Y-26217734D02*
X15798390Y-26255829D01*
X15798390Y-26255829D02*
X15893628Y-26293924D01*
X15893628Y-26293924D02*
X16179342Y-26293924D01*
X16179342Y-26293924D02*
X16274580Y-26255829D01*
X16274580Y-26255829D02*
X16322200Y-26217734D01*
X16322200Y-26217734D02*
X16369819Y-26141543D01*
X16369819Y-26141543D02*
X16369819Y-25989162D01*
X16369819Y-25989162D02*
X16322200Y-25912972D01*
X15703152Y-26636782D02*
X16703152Y-26636782D01*
X15750771Y-26636782D02*
X15703152Y-26712972D01*
X15703152Y-26712972D02*
X15703152Y-26865353D01*
X15703152Y-26865353D02*
X15750771Y-26941544D01*
X15750771Y-26941544D02*
X15798390Y-26979639D01*
X15798390Y-26979639D02*
X15893628Y-27017734D01*
X15893628Y-27017734D02*
X16179342Y-27017734D01*
X16179342Y-27017734D02*
X16274580Y-26979639D01*
X16274580Y-26979639D02*
X16322200Y-26941544D01*
X16322200Y-26941544D02*
X16369819Y-26865353D01*
X16369819Y-26865353D02*
X16369819Y-26712972D01*
X16369819Y-26712972D02*
X16322200Y-26636782D01*
X16369819Y-27779639D02*
X16369819Y-27322496D01*
X16369819Y-27551068D02*
X15369819Y-27551068D01*
X15369819Y-27551068D02*
X15512676Y-27474877D01*
X15512676Y-27474877D02*
X15607914Y-27398687D01*
X15607914Y-27398687D02*
X15655533Y-27322496D01*
X16369819Y-28465354D02*
X15846009Y-28465354D01*
X15846009Y-28465354D02*
X15750771Y-28427259D01*
X15750771Y-28427259D02*
X15703152Y-28351068D01*
X15703152Y-28351068D02*
X15703152Y-28198687D01*
X15703152Y-28198687D02*
X15750771Y-28122497D01*
X16322200Y-28465354D02*
X16369819Y-28389163D01*
X16369819Y-28389163D02*
X16369819Y-28198687D01*
X16369819Y-28198687D02*
X16322200Y-28122497D01*
X16322200Y-28122497D02*
X16226961Y-28084401D01*
X16226961Y-28084401D02*
X16131723Y-28084401D01*
X16131723Y-28084401D02*
X16036485Y-28122497D01*
X16036485Y-28122497D02*
X15988866Y-28198687D01*
X15988866Y-28198687D02*
X15988866Y-28389163D01*
X15988866Y-28389163D02*
X15941247Y-28465354D01*
D12*
X-19168144Y-6119423D02*
X-19968144Y-6119423D01*
X-19968144Y-6119423D02*
X-19396716Y-6386089D01*
X-19396716Y-6386089D02*
X-19968144Y-6652756D01*
X-19968144Y-6652756D02*
X-19168144Y-6652756D01*
X-19968144Y-7186090D02*
X-19968144Y-7338471D01*
X-19968144Y-7338471D02*
X-19930049Y-7414661D01*
X-19930049Y-7414661D02*
X-19853859Y-7490852D01*
X-19853859Y-7490852D02*
X-19701478Y-7528947D01*
X-19701478Y-7528947D02*
X-19434811Y-7528947D01*
X-19434811Y-7528947D02*
X-19282430Y-7490852D01*
X-19282430Y-7490852D02*
X-19206240Y-7414661D01*
X-19206240Y-7414661D02*
X-19168144Y-7338471D01*
X-19168144Y-7338471D02*
X-19168144Y-7186090D01*
X-19168144Y-7186090D02*
X-19206240Y-7109899D01*
X-19206240Y-7109899D02*
X-19282430Y-7033709D01*
X-19282430Y-7033709D02*
X-19434811Y-6995613D01*
X-19434811Y-6995613D02*
X-19701478Y-6995613D01*
X-19701478Y-6995613D02*
X-19853859Y-7033709D01*
X-19853859Y-7033709D02*
X-19930049Y-7109899D01*
X-19930049Y-7109899D02*
X-19968144Y-7186090D01*
X-19168144Y-7871804D02*
X-19968144Y-7871804D01*
X-19968144Y-7871804D02*
X-19968144Y-8062280D01*
X-19968144Y-8062280D02*
X-19930049Y-8176566D01*
X-19930049Y-8176566D02*
X-19853859Y-8252756D01*
X-19853859Y-8252756D02*
X-19777668Y-8290851D01*
X-19777668Y-8290851D02*
X-19625287Y-8328947D01*
X-19625287Y-8328947D02*
X-19511001Y-8328947D01*
X-19511001Y-8328947D02*
X-19358620Y-8290851D01*
X-19358620Y-8290851D02*
X-19282430Y-8252756D01*
X-19282430Y-8252756D02*
X-19206240Y-8176566D01*
X-19206240Y-8176566D02*
X-19168144Y-8062280D01*
X-19168144Y-8062280D02*
X-19168144Y-7871804D01*
X-19587192Y-8671804D02*
X-19587192Y-8938470D01*
X-19168144Y-9052756D02*
X-19168144Y-8671804D01*
X-19168144Y-8671804D02*
X-19968144Y-8671804D01*
X-19968144Y-8671804D02*
X-19968144Y-9052756D01*
X-19168144Y-9776566D02*
X-19168144Y-9395614D01*
X-19168144Y-9395614D02*
X-19968144Y-9395614D01*
X-19244335Y-10043233D02*
X-19206240Y-10081328D01*
X-19206240Y-10081328D02*
X-19168144Y-10043233D01*
X-19168144Y-10043233D02*
X-19206240Y-10005137D01*
X-19206240Y-10005137D02*
X-19244335Y-10043233D01*
X-19244335Y-10043233D02*
X-19168144Y-10043233D01*
X-19663382Y-10043233D02*
X-19625287Y-10081328D01*
X-19625287Y-10081328D02*
X-19587192Y-10043233D01*
X-19587192Y-10043233D02*
X-19625287Y-10005137D01*
X-19625287Y-10005137D02*
X-19663382Y-10043233D01*
X-19663382Y-10043233D02*
X-19587192Y-10043233D01*
X-16630240Y-6081327D02*
X-16592144Y-6195613D01*
X-16592144Y-6195613D02*
X-16592144Y-6386089D01*
X-16592144Y-6386089D02*
X-16630240Y-6462280D01*
X-16630240Y-6462280D02*
X-16668335Y-6500375D01*
X-16668335Y-6500375D02*
X-16744525Y-6538470D01*
X-16744525Y-6538470D02*
X-16820716Y-6538470D01*
X-16820716Y-6538470D02*
X-16896906Y-6500375D01*
X-16896906Y-6500375D02*
X-16935001Y-6462280D01*
X-16935001Y-6462280D02*
X-16973097Y-6386089D01*
X-16973097Y-6386089D02*
X-17011192Y-6233708D01*
X-17011192Y-6233708D02*
X-17049287Y-6157518D01*
X-17049287Y-6157518D02*
X-17087382Y-6119423D01*
X-17087382Y-6119423D02*
X-17163573Y-6081327D01*
X-17163573Y-6081327D02*
X-17239763Y-6081327D01*
X-17239763Y-6081327D02*
X-17315954Y-6119423D01*
X-17315954Y-6119423D02*
X-17354049Y-6157518D01*
X-17354049Y-6157518D02*
X-17392144Y-6233708D01*
X-17392144Y-6233708D02*
X-17392144Y-6424185D01*
X-17392144Y-6424185D02*
X-17354049Y-6538470D01*
X-17011192Y-6881328D02*
X-17011192Y-7147994D01*
X-16592144Y-7262280D02*
X-16592144Y-6881328D01*
X-16592144Y-6881328D02*
X-17392144Y-6881328D01*
X-17392144Y-6881328D02*
X-17392144Y-7262280D01*
X-16592144Y-8062281D02*
X-16973097Y-7795614D01*
X-16592144Y-7605138D02*
X-17392144Y-7605138D01*
X-17392144Y-7605138D02*
X-17392144Y-7909900D01*
X-17392144Y-7909900D02*
X-17354049Y-7986090D01*
X-17354049Y-7986090D02*
X-17315954Y-8024185D01*
X-17315954Y-8024185D02*
X-17239763Y-8062281D01*
X-17239763Y-8062281D02*
X-17125478Y-8062281D01*
X-17125478Y-8062281D02*
X-17049287Y-8024185D01*
X-17049287Y-8024185D02*
X-17011192Y-7986090D01*
X-17011192Y-7986090D02*
X-16973097Y-7909900D01*
X-16973097Y-7909900D02*
X-16973097Y-7605138D01*
X-16592144Y-8405138D02*
X-17392144Y-8405138D01*
X-16820716Y-8747994D02*
X-16820716Y-9128947D01*
X-16592144Y-8671804D02*
X-17392144Y-8938471D01*
X-17392144Y-8938471D02*
X-16592144Y-9205137D01*
X-16592144Y-9852756D02*
X-16592144Y-9471804D01*
X-16592144Y-9471804D02*
X-17392144Y-9471804D01*
X-16668335Y-10119423D02*
X-16630240Y-10157518D01*
X-16630240Y-10157518D02*
X-16592144Y-10119423D01*
X-16592144Y-10119423D02*
X-16630240Y-10081327D01*
X-16630240Y-10081327D02*
X-16668335Y-10119423D01*
X-16668335Y-10119423D02*
X-16592144Y-10119423D01*
X-17087382Y-10119423D02*
X-17049287Y-10157518D01*
X-17049287Y-10157518D02*
X-17011192Y-10119423D01*
X-17011192Y-10119423D02*
X-17049287Y-10081327D01*
X-17049287Y-10081327D02*
X-17087382Y-10119423D01*
X-17087382Y-10119423D02*
X-17011192Y-10119423D01*
X-14016144Y-6119423D02*
X-14816144Y-6119423D01*
X-14016144Y-6500375D02*
X-14816144Y-6500375D01*
X-14816144Y-6500375D02*
X-14016144Y-6957518D01*
X-14016144Y-6957518D02*
X-14816144Y-6957518D01*
X-14016144Y-7338470D02*
X-14816144Y-7338470D01*
X-14816144Y-7338470D02*
X-14816144Y-7643232D01*
X-14816144Y-7643232D02*
X-14778049Y-7719422D01*
X-14778049Y-7719422D02*
X-14739954Y-7757517D01*
X-14739954Y-7757517D02*
X-14663763Y-7795613D01*
X-14663763Y-7795613D02*
X-14549478Y-7795613D01*
X-14549478Y-7795613D02*
X-14473287Y-7757517D01*
X-14473287Y-7757517D02*
X-14435192Y-7719422D01*
X-14435192Y-7719422D02*
X-14397097Y-7643232D01*
X-14397097Y-7643232D02*
X-14397097Y-7338470D01*
X-14816144Y-8138470D02*
X-14168525Y-8138470D01*
X-14168525Y-8138470D02*
X-14092335Y-8176565D01*
X-14092335Y-8176565D02*
X-14054240Y-8214660D01*
X-14054240Y-8214660D02*
X-14016144Y-8290851D01*
X-14016144Y-8290851D02*
X-14016144Y-8443232D01*
X-14016144Y-8443232D02*
X-14054240Y-8519422D01*
X-14054240Y-8519422D02*
X-14092335Y-8557517D01*
X-14092335Y-8557517D02*
X-14168525Y-8595613D01*
X-14168525Y-8595613D02*
X-14816144Y-8595613D01*
X-14816144Y-8862279D02*
X-14816144Y-9319422D01*
X-14016144Y-9090850D02*
X-14816144Y-9090850D01*
X-13711382Y-10424184D02*
X-13749478Y-10386089D01*
X-13749478Y-10386089D02*
X-13863763Y-10309898D01*
X-13863763Y-10309898D02*
X-13939954Y-10271803D01*
X-13939954Y-10271803D02*
X-14054240Y-10233708D01*
X-14054240Y-10233708D02*
X-14244716Y-10195613D01*
X-14244716Y-10195613D02*
X-14397097Y-10195613D01*
X-14397097Y-10195613D02*
X-14587573Y-10233708D01*
X-14587573Y-10233708D02*
X-14701859Y-10271803D01*
X-14701859Y-10271803D02*
X-14778049Y-10309898D01*
X-14778049Y-10309898D02*
X-14892335Y-10386089D01*
X-14892335Y-10386089D02*
X-14930430Y-10424184D01*
X-14016144Y-10728946D02*
X-14816144Y-10728946D01*
X-14816144Y-10728946D02*
X-14816144Y-11033708D01*
X-14816144Y-11033708D02*
X-14778049Y-11109898D01*
X-14778049Y-11109898D02*
X-14739954Y-11147993D01*
X-14739954Y-11147993D02*
X-14663763Y-11186089D01*
X-14663763Y-11186089D02*
X-14549478Y-11186089D01*
X-14549478Y-11186089D02*
X-14473287Y-11147993D01*
X-14473287Y-11147993D02*
X-14435192Y-11109898D01*
X-14435192Y-11109898D02*
X-14397097Y-11033708D01*
X-14397097Y-11033708D02*
X-14397097Y-10728946D01*
X-14244716Y-11490850D02*
X-14244716Y-11871803D01*
X-14016144Y-11414660D02*
X-14816144Y-11681327D01*
X-14816144Y-11681327D02*
X-14016144Y-11947993D01*
X-14016144Y-12214660D02*
X-14816144Y-12214660D01*
X-14816144Y-12214660D02*
X-14816144Y-12405136D01*
X-14816144Y-12405136D02*
X-14778049Y-12519422D01*
X-14778049Y-12519422D02*
X-14701859Y-12595612D01*
X-14701859Y-12595612D02*
X-14625668Y-12633707D01*
X-14625668Y-12633707D02*
X-14473287Y-12671803D01*
X-14473287Y-12671803D02*
X-14359001Y-12671803D01*
X-14359001Y-12671803D02*
X-14206620Y-12633707D01*
X-14206620Y-12633707D02*
X-14130430Y-12595612D01*
X-14130430Y-12595612D02*
X-14054240Y-12519422D01*
X-14054240Y-12519422D02*
X-14016144Y-12405136D01*
X-14016144Y-12405136D02*
X-14016144Y-12214660D01*
X-14054240Y-12976564D02*
X-14016144Y-13090850D01*
X-14016144Y-13090850D02*
X-14016144Y-13281326D01*
X-14016144Y-13281326D02*
X-14054240Y-13357517D01*
X-14054240Y-13357517D02*
X-14092335Y-13395612D01*
X-14092335Y-13395612D02*
X-14168525Y-13433707D01*
X-14168525Y-13433707D02*
X-14244716Y-13433707D01*
X-14244716Y-13433707D02*
X-14320906Y-13395612D01*
X-14320906Y-13395612D02*
X-14359001Y-13357517D01*
X-14359001Y-13357517D02*
X-14397097Y-13281326D01*
X-14397097Y-13281326D02*
X-14435192Y-13128945D01*
X-14435192Y-13128945D02*
X-14473287Y-13052755D01*
X-14473287Y-13052755D02*
X-14511382Y-13014660D01*
X-14511382Y-13014660D02*
X-14587573Y-12976564D01*
X-14587573Y-12976564D02*
X-14663763Y-12976564D01*
X-14663763Y-12976564D02*
X-14739954Y-13014660D01*
X-14739954Y-13014660D02*
X-14778049Y-13052755D01*
X-14778049Y-13052755D02*
X-14816144Y-13128945D01*
X-14816144Y-13128945D02*
X-14816144Y-13319422D01*
X-14816144Y-13319422D02*
X-14778049Y-13433707D01*
X-13711382Y-13700374D02*
X-13749478Y-13738469D01*
X-13749478Y-13738469D02*
X-13863763Y-13814660D01*
X-13863763Y-13814660D02*
X-13939954Y-13852755D01*
X-13939954Y-13852755D02*
X-14054240Y-13890850D01*
X-14054240Y-13890850D02*
X-14244716Y-13928946D01*
X-14244716Y-13928946D02*
X-14397097Y-13928946D01*
X-14397097Y-13928946D02*
X-14587573Y-13890850D01*
X-14587573Y-13890850D02*
X-14701859Y-13852755D01*
X-14701859Y-13852755D02*
X-14778049Y-13814660D01*
X-14778049Y-13814660D02*
X-14892335Y-13738469D01*
X-14892335Y-13738469D02*
X-14930430Y-13700374D01*
X-14092335Y-14309898D02*
X-14054240Y-14347993D01*
X-14054240Y-14347993D02*
X-14016144Y-14309898D01*
X-14016144Y-14309898D02*
X-14054240Y-14271802D01*
X-14054240Y-14271802D02*
X-14092335Y-14309898D01*
X-14092335Y-14309898D02*
X-14016144Y-14309898D01*
X-14511382Y-14309898D02*
X-14473287Y-14347993D01*
X-14473287Y-14347993D02*
X-14435192Y-14309898D01*
X-14435192Y-14309898D02*
X-14473287Y-14271802D01*
X-14473287Y-14271802D02*
X-14511382Y-14309898D01*
X-14511382Y-14309898D02*
X-14435192Y-14309898D01*
X-12728144Y-6119423D02*
X-13528144Y-6119423D01*
X-12728144Y-6500375D02*
X-13528144Y-6500375D01*
X-13528144Y-6500375D02*
X-12728144Y-6957518D01*
X-12728144Y-6957518D02*
X-13528144Y-6957518D01*
X-12728144Y-7338470D02*
X-13528144Y-7338470D01*
X-13528144Y-7338470D02*
X-13528144Y-7643232D01*
X-13528144Y-7643232D02*
X-13490049Y-7719422D01*
X-13490049Y-7719422D02*
X-13451954Y-7757517D01*
X-13451954Y-7757517D02*
X-13375763Y-7795613D01*
X-13375763Y-7795613D02*
X-13261478Y-7795613D01*
X-13261478Y-7795613D02*
X-13185287Y-7757517D01*
X-13185287Y-7757517D02*
X-13147192Y-7719422D01*
X-13147192Y-7719422D02*
X-13109097Y-7643232D01*
X-13109097Y-7643232D02*
X-13109097Y-7338470D01*
X-13528144Y-8138470D02*
X-12880525Y-8138470D01*
X-12880525Y-8138470D02*
X-12804335Y-8176565D01*
X-12804335Y-8176565D02*
X-12766240Y-8214660D01*
X-12766240Y-8214660D02*
X-12728144Y-8290851D01*
X-12728144Y-8290851D02*
X-12728144Y-8443232D01*
X-12728144Y-8443232D02*
X-12766240Y-8519422D01*
X-12766240Y-8519422D02*
X-12804335Y-8557517D01*
X-12804335Y-8557517D02*
X-12880525Y-8595613D01*
X-12880525Y-8595613D02*
X-13528144Y-8595613D01*
X-13528144Y-8862279D02*
X-13528144Y-9319422D01*
X-12728144Y-9090850D02*
X-13528144Y-9090850D01*
X-12423382Y-10424184D02*
X-12461478Y-10386089D01*
X-12461478Y-10386089D02*
X-12575763Y-10309898D01*
X-12575763Y-10309898D02*
X-12651954Y-10271803D01*
X-12651954Y-10271803D02*
X-12766240Y-10233708D01*
X-12766240Y-10233708D02*
X-12956716Y-10195613D01*
X-12956716Y-10195613D02*
X-13109097Y-10195613D01*
X-13109097Y-10195613D02*
X-13299573Y-10233708D01*
X-13299573Y-10233708D02*
X-13413859Y-10271803D01*
X-13413859Y-10271803D02*
X-13490049Y-10309898D01*
X-13490049Y-10309898D02*
X-13604335Y-10386089D01*
X-13604335Y-10386089D02*
X-13642430Y-10424184D01*
X-13528144Y-10728946D02*
X-12880525Y-10728946D01*
X-12880525Y-10728946D02*
X-12804335Y-10767041D01*
X-12804335Y-10767041D02*
X-12766240Y-10805136D01*
X-12766240Y-10805136D02*
X-12728144Y-10881327D01*
X-12728144Y-10881327D02*
X-12728144Y-11033708D01*
X-12728144Y-11033708D02*
X-12766240Y-11109898D01*
X-12766240Y-11109898D02*
X-12804335Y-11147993D01*
X-12804335Y-11147993D02*
X-12880525Y-11186089D01*
X-12880525Y-11186089D02*
X-13528144Y-11186089D01*
X-12766240Y-11528945D02*
X-12728144Y-11643231D01*
X-12728144Y-11643231D02*
X-12728144Y-11833707D01*
X-12728144Y-11833707D02*
X-12766240Y-11909898D01*
X-12766240Y-11909898D02*
X-12804335Y-11947993D01*
X-12804335Y-11947993D02*
X-12880525Y-11986088D01*
X-12880525Y-11986088D02*
X-12956716Y-11986088D01*
X-12956716Y-11986088D02*
X-13032906Y-11947993D01*
X-13032906Y-11947993D02*
X-13071001Y-11909898D01*
X-13071001Y-11909898D02*
X-13109097Y-11833707D01*
X-13109097Y-11833707D02*
X-13147192Y-11681326D01*
X-13147192Y-11681326D02*
X-13185287Y-11605136D01*
X-13185287Y-11605136D02*
X-13223382Y-11567041D01*
X-13223382Y-11567041D02*
X-13299573Y-11528945D01*
X-13299573Y-11528945D02*
X-13375763Y-11528945D01*
X-13375763Y-11528945D02*
X-13451954Y-11567041D01*
X-13451954Y-11567041D02*
X-13490049Y-11605136D01*
X-13490049Y-11605136D02*
X-13528144Y-11681326D01*
X-13528144Y-11681326D02*
X-13528144Y-11871803D01*
X-13528144Y-11871803D02*
X-13490049Y-11986088D01*
X-13147192Y-12595612D02*
X-13109097Y-12709898D01*
X-13109097Y-12709898D02*
X-13071001Y-12747993D01*
X-13071001Y-12747993D02*
X-12994811Y-12786089D01*
X-12994811Y-12786089D02*
X-12880525Y-12786089D01*
X-12880525Y-12786089D02*
X-12804335Y-12747993D01*
X-12804335Y-12747993D02*
X-12766240Y-12709898D01*
X-12766240Y-12709898D02*
X-12728144Y-12633708D01*
X-12728144Y-12633708D02*
X-12728144Y-12328946D01*
X-12728144Y-12328946D02*
X-13528144Y-12328946D01*
X-13528144Y-12328946D02*
X-13528144Y-12595612D01*
X-13528144Y-12595612D02*
X-13490049Y-12671803D01*
X-13490049Y-12671803D02*
X-13451954Y-12709898D01*
X-13451954Y-12709898D02*
X-13375763Y-12747993D01*
X-13375763Y-12747993D02*
X-13299573Y-12747993D01*
X-13299573Y-12747993D02*
X-13223382Y-12709898D01*
X-13223382Y-12709898D02*
X-13185287Y-12671803D01*
X-13185287Y-12671803D02*
X-13147192Y-12595612D01*
X-13147192Y-12595612D02*
X-13147192Y-12328946D01*
X-12423382Y-13052755D02*
X-12461478Y-13090850D01*
X-12461478Y-13090850D02*
X-12575763Y-13167041D01*
X-12575763Y-13167041D02*
X-12651954Y-13205136D01*
X-12651954Y-13205136D02*
X-12766240Y-13243231D01*
X-12766240Y-13243231D02*
X-12956716Y-13281327D01*
X-12956716Y-13281327D02*
X-13109097Y-13281327D01*
X-13109097Y-13281327D02*
X-13299573Y-13243231D01*
X-13299573Y-13243231D02*
X-13413859Y-13205136D01*
X-13413859Y-13205136D02*
X-13490049Y-13167041D01*
X-13490049Y-13167041D02*
X-13604335Y-13090850D01*
X-13604335Y-13090850D02*
X-13642430Y-13052755D01*
X-12804335Y-13662279D02*
X-12766240Y-13700374D01*
X-12766240Y-13700374D02*
X-12728144Y-13662279D01*
X-12728144Y-13662279D02*
X-12766240Y-13624183D01*
X-12766240Y-13624183D02*
X-12804335Y-13662279D01*
X-12804335Y-13662279D02*
X-12728144Y-13662279D01*
X-13223382Y-13662279D02*
X-13185287Y-13700374D01*
X-13185287Y-13700374D02*
X-13147192Y-13662279D01*
X-13147192Y-13662279D02*
X-13185287Y-13624183D01*
X-13185287Y-13624183D02*
X-13223382Y-13662279D01*
X-13223382Y-13662279D02*
X-13147192Y-13662279D01*
X-12240144Y-6271804D02*
X-12240144Y-6424185D01*
X-12240144Y-6424185D02*
X-12202049Y-6500375D01*
X-12202049Y-6500375D02*
X-12125859Y-6576566D01*
X-12125859Y-6576566D02*
X-11973478Y-6614661D01*
X-11973478Y-6614661D02*
X-11706811Y-6614661D01*
X-11706811Y-6614661D02*
X-11554430Y-6576566D01*
X-11554430Y-6576566D02*
X-11478240Y-6500375D01*
X-11478240Y-6500375D02*
X-11440144Y-6424185D01*
X-11440144Y-6424185D02*
X-11440144Y-6271804D01*
X-11440144Y-6271804D02*
X-11478240Y-6195613D01*
X-11478240Y-6195613D02*
X-11554430Y-6119423D01*
X-11554430Y-6119423D02*
X-11706811Y-6081327D01*
X-11706811Y-6081327D02*
X-11973478Y-6081327D01*
X-11973478Y-6081327D02*
X-12125859Y-6119423D01*
X-12125859Y-6119423D02*
X-12202049Y-6195613D01*
X-12202049Y-6195613D02*
X-12240144Y-6271804D01*
X-12240144Y-6957518D02*
X-11592525Y-6957518D01*
X-11592525Y-6957518D02*
X-11516335Y-6995613D01*
X-11516335Y-6995613D02*
X-11478240Y-7033708D01*
X-11478240Y-7033708D02*
X-11440144Y-7109899D01*
X-11440144Y-7109899D02*
X-11440144Y-7262280D01*
X-11440144Y-7262280D02*
X-11478240Y-7338470D01*
X-11478240Y-7338470D02*
X-11516335Y-7376565D01*
X-11516335Y-7376565D02*
X-11592525Y-7414661D01*
X-11592525Y-7414661D02*
X-12240144Y-7414661D01*
X-12240144Y-7681327D02*
X-12240144Y-8138470D01*
X-11440144Y-7909898D02*
X-12240144Y-7909898D01*
X-11440144Y-8405137D02*
X-12240144Y-8405137D01*
X-12240144Y-8405137D02*
X-12240144Y-8709899D01*
X-12240144Y-8709899D02*
X-12202049Y-8786089D01*
X-12202049Y-8786089D02*
X-12163954Y-8824184D01*
X-12163954Y-8824184D02*
X-12087763Y-8862280D01*
X-12087763Y-8862280D02*
X-11973478Y-8862280D01*
X-11973478Y-8862280D02*
X-11897287Y-8824184D01*
X-11897287Y-8824184D02*
X-11859192Y-8786089D01*
X-11859192Y-8786089D02*
X-11821097Y-8709899D01*
X-11821097Y-8709899D02*
X-11821097Y-8405137D01*
X-12240144Y-9205137D02*
X-11592525Y-9205137D01*
X-11592525Y-9205137D02*
X-11516335Y-9243232D01*
X-11516335Y-9243232D02*
X-11478240Y-9281327D01*
X-11478240Y-9281327D02*
X-11440144Y-9357518D01*
X-11440144Y-9357518D02*
X-11440144Y-9509899D01*
X-11440144Y-9509899D02*
X-11478240Y-9586089D01*
X-11478240Y-9586089D02*
X-11516335Y-9624184D01*
X-11516335Y-9624184D02*
X-11592525Y-9662280D01*
X-11592525Y-9662280D02*
X-12240144Y-9662280D01*
X-12240144Y-9928946D02*
X-12240144Y-10386089D01*
X-11440144Y-10157517D02*
X-12240144Y-10157517D01*
X-11516335Y-10652756D02*
X-11478240Y-10690851D01*
X-11478240Y-10690851D02*
X-11440144Y-10652756D01*
X-11440144Y-10652756D02*
X-11478240Y-10614660D01*
X-11478240Y-10614660D02*
X-11516335Y-10652756D01*
X-11516335Y-10652756D02*
X-11440144Y-10652756D01*
X-11935382Y-10652756D02*
X-11897287Y-10690851D01*
X-11897287Y-10690851D02*
X-11859192Y-10652756D01*
X-11859192Y-10652756D02*
X-11897287Y-10614660D01*
X-11897287Y-10614660D02*
X-11935382Y-10652756D01*
X-11935382Y-10652756D02*
X-11859192Y-10652756D01*
X-10571192Y-6386089D02*
X-10533097Y-6500375D01*
X-10533097Y-6500375D02*
X-10495001Y-6538470D01*
X-10495001Y-6538470D02*
X-10418811Y-6576566D01*
X-10418811Y-6576566D02*
X-10304525Y-6576566D01*
X-10304525Y-6576566D02*
X-10228335Y-6538470D01*
X-10228335Y-6538470D02*
X-10190240Y-6500375D01*
X-10190240Y-6500375D02*
X-10152144Y-6424185D01*
X-10152144Y-6424185D02*
X-10152144Y-6119423D01*
X-10152144Y-6119423D02*
X-10952144Y-6119423D01*
X-10952144Y-6119423D02*
X-10952144Y-6386089D01*
X-10952144Y-6386089D02*
X-10914049Y-6462280D01*
X-10914049Y-6462280D02*
X-10875954Y-6500375D01*
X-10875954Y-6500375D02*
X-10799763Y-6538470D01*
X-10799763Y-6538470D02*
X-10723573Y-6538470D01*
X-10723573Y-6538470D02*
X-10647382Y-6500375D01*
X-10647382Y-6500375D02*
X-10609287Y-6462280D01*
X-10609287Y-6462280D02*
X-10571192Y-6386089D01*
X-10571192Y-6386089D02*
X-10571192Y-6119423D01*
X-10380716Y-6881327D02*
X-10380716Y-7262280D01*
X-10152144Y-6805137D02*
X-10952144Y-7071804D01*
X-10952144Y-7071804D02*
X-10152144Y-7338470D01*
X-10952144Y-7490851D02*
X-10952144Y-7947994D01*
X-10152144Y-7719422D02*
X-10952144Y-7719422D01*
X-10952144Y-8100375D02*
X-10952144Y-8557518D01*
X-10152144Y-8328946D02*
X-10952144Y-8328946D01*
X-10571192Y-8824185D02*
X-10571192Y-9090851D01*
X-10152144Y-9205137D02*
X-10152144Y-8824185D01*
X-10152144Y-8824185D02*
X-10952144Y-8824185D01*
X-10952144Y-8824185D02*
X-10952144Y-9205137D01*
X-10152144Y-10005138D02*
X-10533097Y-9738471D01*
X-10152144Y-9547995D02*
X-10952144Y-9547995D01*
X-10952144Y-9547995D02*
X-10952144Y-9852757D01*
X-10952144Y-9852757D02*
X-10914049Y-9928947D01*
X-10914049Y-9928947D02*
X-10875954Y-9967042D01*
X-10875954Y-9967042D02*
X-10799763Y-10005138D01*
X-10799763Y-10005138D02*
X-10685478Y-10005138D01*
X-10685478Y-10005138D02*
X-10609287Y-9967042D01*
X-10609287Y-9967042D02*
X-10571192Y-9928947D01*
X-10571192Y-9928947D02*
X-10533097Y-9852757D01*
X-10533097Y-9852757D02*
X-10533097Y-9547995D01*
X-10533097Y-10500376D02*
X-10152144Y-10500376D01*
X-10952144Y-10233709D02*
X-10533097Y-10500376D01*
X-10533097Y-10500376D02*
X-10952144Y-10767042D01*
X-10228335Y-11033709D02*
X-10190240Y-11071804D01*
X-10190240Y-11071804D02*
X-10152144Y-11033709D01*
X-10152144Y-11033709D02*
X-10190240Y-10995613D01*
X-10190240Y-10995613D02*
X-10228335Y-11033709D01*
X-10228335Y-11033709D02*
X-10152144Y-11033709D01*
X-10647382Y-11033709D02*
X-10609287Y-11071804D01*
X-10609287Y-11071804D02*
X-10571192Y-11033709D01*
X-10571192Y-11033709D02*
X-10609287Y-10995613D01*
X-10609287Y-10995613D02*
X-10647382Y-11033709D01*
X-10647382Y-11033709D02*
X-10571192Y-11033709D01*
D13*
X-21961928Y-7378758D02*
X-21890500Y-7307330D01*
X-21890500Y-7307330D02*
X-21819071Y-7093044D01*
X-21819071Y-7093044D02*
X-21819071Y-6950187D01*
X-21819071Y-6950187D02*
X-21890500Y-6735901D01*
X-21890500Y-6735901D02*
X-22033357Y-6593044D01*
X-22033357Y-6593044D02*
X-22176214Y-6521615D01*
X-22176214Y-6521615D02*
X-22461928Y-6450187D01*
X-22461928Y-6450187D02*
X-22676214Y-6450187D01*
X-22676214Y-6450187D02*
X-22961928Y-6521615D01*
X-22961928Y-6521615D02*
X-23104785Y-6593044D01*
X-23104785Y-6593044D02*
X-23247642Y-6735901D01*
X-23247642Y-6735901D02*
X-23319071Y-6950187D01*
X-23319071Y-6950187D02*
X-23319071Y-7093044D01*
X-23319071Y-7093044D02*
X-23247642Y-7307330D01*
X-23247642Y-7307330D02*
X-23176214Y-7378758D01*
X-22247642Y-7950187D02*
X-22247642Y-8664473D01*
X-21819071Y-7807330D02*
X-23319071Y-8307330D01*
X-23319071Y-8307330D02*
X-21819071Y-8807330D01*
X-21819071Y-10021615D02*
X-21819071Y-9307329D01*
X-21819071Y-9307329D02*
X-23319071Y-9307329D01*
X-21961928Y-11378758D02*
X-21890500Y-11307330D01*
X-21890500Y-11307330D02*
X-21819071Y-11093044D01*
X-21819071Y-11093044D02*
X-21819071Y-10950187D01*
X-21819071Y-10950187D02*
X-21890500Y-10735901D01*
X-21890500Y-10735901D02*
X-22033357Y-10593044D01*
X-22033357Y-10593044D02*
X-22176214Y-10521615D01*
X-22176214Y-10521615D02*
X-22461928Y-10450187D01*
X-22461928Y-10450187D02*
X-22676214Y-10450187D01*
X-22676214Y-10450187D02*
X-22961928Y-10521615D01*
X-22961928Y-10521615D02*
X-23104785Y-10593044D01*
X-23104785Y-10593044D02*
X-23247642Y-10735901D01*
X-23247642Y-10735901D02*
X-23319071Y-10950187D01*
X-23319071Y-10950187D02*
X-23319071Y-11093044D01*
X-23319071Y-11093044D02*
X-23247642Y-11307330D01*
X-23247642Y-11307330D02*
X-23176214Y-11378758D01*
X-21819071Y-12021615D02*
X-23319071Y-12021615D01*
X-23319071Y-12021615D02*
X-23319071Y-12593044D01*
X-23319071Y-12593044D02*
X-23247642Y-12735901D01*
X-23247642Y-12735901D02*
X-23176214Y-12807330D01*
X-23176214Y-12807330D02*
X-23033357Y-12878758D01*
X-23033357Y-12878758D02*
X-22819071Y-12878758D01*
X-22819071Y-12878758D02*
X-22676214Y-12807330D01*
X-22676214Y-12807330D02*
X-22604785Y-12735901D01*
X-22604785Y-12735901D02*
X-22533357Y-12593044D01*
X-22533357Y-12593044D02*
X-22533357Y-12021615D01*
X-21890500Y-13450187D02*
X-21819071Y-13664473D01*
X-21819071Y-13664473D02*
X-21819071Y-14021615D01*
X-21819071Y-14021615D02*
X-21890500Y-14164473D01*
X-21890500Y-14164473D02*
X-21961928Y-14235901D01*
X-21961928Y-14235901D02*
X-22104785Y-14307330D01*
X-22104785Y-14307330D02*
X-22247642Y-14307330D01*
X-22247642Y-14307330D02*
X-22390500Y-14235901D01*
X-22390500Y-14235901D02*
X-22461928Y-14164473D01*
X-22461928Y-14164473D02*
X-22533357Y-14021615D01*
X-22533357Y-14021615D02*
X-22604785Y-13735901D01*
X-22604785Y-13735901D02*
X-22676214Y-13593044D01*
X-22676214Y-13593044D02*
X-22747642Y-13521615D01*
X-22747642Y-13521615D02*
X-22890500Y-13450187D01*
X-22890500Y-13450187D02*
X-23033357Y-13450187D01*
X-23033357Y-13450187D02*
X-23176214Y-13521615D01*
X-23176214Y-13521615D02*
X-23247642Y-13593044D01*
X-23247642Y-13593044D02*
X-23319071Y-13735901D01*
X-23319071Y-13735901D02*
X-23319071Y-14093044D01*
X-23319071Y-14093044D02*
X-23247642Y-14307330D01*
X-23319071Y-14950186D02*
X-22104785Y-14950186D01*
X-22104785Y-14950186D02*
X-21961928Y-15021615D01*
X-21961928Y-15021615D02*
X-21890500Y-15093044D01*
X-21890500Y-15093044D02*
X-21819071Y-15235901D01*
X-21819071Y-15235901D02*
X-21819071Y-15521615D01*
X-21819071Y-15521615D02*
X-21890500Y-15664472D01*
X-21890500Y-15664472D02*
X-21961928Y-15735901D01*
X-21961928Y-15735901D02*
X-22104785Y-15807329D01*
X-22104785Y-15807329D02*
X-23319071Y-15807329D01*
D11*
X11856333Y-10095238D02*
X11856333Y-13904762D01*
D12*
X-19244335Y-15576566D02*
X-19206240Y-15538470D01*
X-19206240Y-15538470D02*
X-19168144Y-15424185D01*
X-19168144Y-15424185D02*
X-19168144Y-15347994D01*
X-19168144Y-15347994D02*
X-19206240Y-15233708D01*
X-19206240Y-15233708D02*
X-19282430Y-15157518D01*
X-19282430Y-15157518D02*
X-19358620Y-15119423D01*
X-19358620Y-15119423D02*
X-19511001Y-15081327D01*
X-19511001Y-15081327D02*
X-19625287Y-15081327D01*
X-19625287Y-15081327D02*
X-19777668Y-15119423D01*
X-19777668Y-15119423D02*
X-19853859Y-15157518D01*
X-19853859Y-15157518D02*
X-19930049Y-15233708D01*
X-19930049Y-15233708D02*
X-19968144Y-15347994D01*
X-19968144Y-15347994D02*
X-19968144Y-15424185D01*
X-19968144Y-15424185D02*
X-19930049Y-15538470D01*
X-19930049Y-15538470D02*
X-19891954Y-15576566D01*
X-19168144Y-15919423D02*
X-19968144Y-15919423D01*
X-19968144Y-15919423D02*
X-19968144Y-16224185D01*
X-19968144Y-16224185D02*
X-19930049Y-16300375D01*
X-19930049Y-16300375D02*
X-19891954Y-16338470D01*
X-19891954Y-16338470D02*
X-19815763Y-16376566D01*
X-19815763Y-16376566D02*
X-19701478Y-16376566D01*
X-19701478Y-16376566D02*
X-19625287Y-16338470D01*
X-19625287Y-16338470D02*
X-19587192Y-16300375D01*
X-19587192Y-16300375D02*
X-19549097Y-16224185D01*
X-19549097Y-16224185D02*
X-19549097Y-15919423D01*
X-19968144Y-16605137D02*
X-19968144Y-17062280D01*
X-19168144Y-16833708D02*
X-19968144Y-16833708D01*
X-19168144Y-17328947D02*
X-19968144Y-17328947D01*
X-19587192Y-17976565D02*
X-19549097Y-18090851D01*
X-19549097Y-18090851D02*
X-19511001Y-18128946D01*
X-19511001Y-18128946D02*
X-19434811Y-18167042D01*
X-19434811Y-18167042D02*
X-19320525Y-18167042D01*
X-19320525Y-18167042D02*
X-19244335Y-18128946D01*
X-19244335Y-18128946D02*
X-19206240Y-18090851D01*
X-19206240Y-18090851D02*
X-19168144Y-18014661D01*
X-19168144Y-18014661D02*
X-19168144Y-17709899D01*
X-19168144Y-17709899D02*
X-19968144Y-17709899D01*
X-19968144Y-17709899D02*
X-19968144Y-17976565D01*
X-19968144Y-17976565D02*
X-19930049Y-18052756D01*
X-19930049Y-18052756D02*
X-19891954Y-18090851D01*
X-19891954Y-18090851D02*
X-19815763Y-18128946D01*
X-19815763Y-18128946D02*
X-19739573Y-18128946D01*
X-19739573Y-18128946D02*
X-19663382Y-18090851D01*
X-19663382Y-18090851D02*
X-19625287Y-18052756D01*
X-19625287Y-18052756D02*
X-19587192Y-17976565D01*
X-19587192Y-17976565D02*
X-19587192Y-17709899D01*
X-19168144Y-18509899D02*
X-19968144Y-18509899D01*
X-19968144Y-18509899D02*
X-19968144Y-18814661D01*
X-19968144Y-18814661D02*
X-19930049Y-18890851D01*
X-19930049Y-18890851D02*
X-19891954Y-18928946D01*
X-19891954Y-18928946D02*
X-19815763Y-18967042D01*
X-19815763Y-18967042D02*
X-19701478Y-18967042D01*
X-19701478Y-18967042D02*
X-19625287Y-18928946D01*
X-19625287Y-18928946D02*
X-19587192Y-18890851D01*
X-19587192Y-18890851D02*
X-19549097Y-18814661D01*
X-19549097Y-18814661D02*
X-19549097Y-18509899D01*
X-19168144Y-19728946D02*
X-19168144Y-19271803D01*
X-19168144Y-19500375D02*
X-19968144Y-19500375D01*
X-19968144Y-19500375D02*
X-19853859Y-19424184D01*
X-19853859Y-19424184D02*
X-19777668Y-19347994D01*
X-19777668Y-19347994D02*
X-19739573Y-19271803D01*
X-19396716Y-20033708D02*
X-19396716Y-20414661D01*
X-19168144Y-19957518D02*
X-19968144Y-20224185D01*
X-19968144Y-20224185D02*
X-19168144Y-20490851D01*
X-19968144Y-21252756D02*
X-19168144Y-21519423D01*
X-19168144Y-21519423D02*
X-19968144Y-21786089D01*
X-19168144Y-22471803D02*
X-19168144Y-22014660D01*
X-19168144Y-22243232D02*
X-19968144Y-22243232D01*
X-19968144Y-22243232D02*
X-19853859Y-22167041D01*
X-19853859Y-22167041D02*
X-19777668Y-22090851D01*
X-19777668Y-22090851D02*
X-19739573Y-22014660D01*
X-14816144Y-15500375D02*
X-14816144Y-15119423D01*
X-14816144Y-15119423D02*
X-14435192Y-15081327D01*
X-14435192Y-15081327D02*
X-14473287Y-15119423D01*
X-14473287Y-15119423D02*
X-14511382Y-15195613D01*
X-14511382Y-15195613D02*
X-14511382Y-15386089D01*
X-14511382Y-15386089D02*
X-14473287Y-15462280D01*
X-14473287Y-15462280D02*
X-14435192Y-15500375D01*
X-14435192Y-15500375D02*
X-14359001Y-15538470D01*
X-14359001Y-15538470D02*
X-14168525Y-15538470D01*
X-14168525Y-15538470D02*
X-14092335Y-15500375D01*
X-14092335Y-15500375D02*
X-14054240Y-15462280D01*
X-14054240Y-15462280D02*
X-14016144Y-15386089D01*
X-14016144Y-15386089D02*
X-14016144Y-15195613D01*
X-14016144Y-15195613D02*
X-14054240Y-15119423D01*
X-14054240Y-15119423D02*
X-14092335Y-15081327D01*
X-14816144Y-15767042D02*
X-14016144Y-16033709D01*
X-14016144Y-16033709D02*
X-14816144Y-16300375D01*
X-14016144Y-17176566D02*
X-14816144Y-17176566D01*
X-14816144Y-17176566D02*
X-14816144Y-17367042D01*
X-14816144Y-17367042D02*
X-14778049Y-17481328D01*
X-14778049Y-17481328D02*
X-14701859Y-17557518D01*
X-14701859Y-17557518D02*
X-14625668Y-17595613D01*
X-14625668Y-17595613D02*
X-14473287Y-17633709D01*
X-14473287Y-17633709D02*
X-14359001Y-17633709D01*
X-14359001Y-17633709D02*
X-14206620Y-17595613D01*
X-14206620Y-17595613D02*
X-14130430Y-17557518D01*
X-14130430Y-17557518D02*
X-14054240Y-17481328D01*
X-14054240Y-17481328D02*
X-14016144Y-17367042D01*
X-14016144Y-17367042D02*
X-14016144Y-17176566D01*
X-14092335Y-18433709D02*
X-14054240Y-18395613D01*
X-14054240Y-18395613D02*
X-14016144Y-18281328D01*
X-14016144Y-18281328D02*
X-14016144Y-18205137D01*
X-14016144Y-18205137D02*
X-14054240Y-18090851D01*
X-14054240Y-18090851D02*
X-14130430Y-18014661D01*
X-14130430Y-18014661D02*
X-14206620Y-17976566D01*
X-14206620Y-17976566D02*
X-14359001Y-17938470D01*
X-14359001Y-17938470D02*
X-14473287Y-17938470D01*
X-14473287Y-17938470D02*
X-14625668Y-17976566D01*
X-14625668Y-17976566D02*
X-14701859Y-18014661D01*
X-14701859Y-18014661D02*
X-14778049Y-18090851D01*
X-14778049Y-18090851D02*
X-14816144Y-18205137D01*
X-14816144Y-18205137D02*
X-14816144Y-18281328D01*
X-14816144Y-18281328D02*
X-14778049Y-18395613D01*
X-14778049Y-18395613D02*
X-14739954Y-18433709D01*
X-14816144Y-19767042D02*
X-14816144Y-19386090D01*
X-14816144Y-19386090D02*
X-14435192Y-19347994D01*
X-14435192Y-19347994D02*
X-14473287Y-19386090D01*
X-14473287Y-19386090D02*
X-14511382Y-19462280D01*
X-14511382Y-19462280D02*
X-14511382Y-19652756D01*
X-14511382Y-19652756D02*
X-14473287Y-19728947D01*
X-14473287Y-19728947D02*
X-14435192Y-19767042D01*
X-14435192Y-19767042D02*
X-14359001Y-19805137D01*
X-14359001Y-19805137D02*
X-14168525Y-19805137D01*
X-14168525Y-19805137D02*
X-14092335Y-19767042D01*
X-14092335Y-19767042D02*
X-14054240Y-19728947D01*
X-14054240Y-19728947D02*
X-14016144Y-19652756D01*
X-14016144Y-19652756D02*
X-14016144Y-19462280D01*
X-14016144Y-19462280D02*
X-14054240Y-19386090D01*
X-14054240Y-19386090D02*
X-14092335Y-19347994D01*
X-14816144Y-20300376D02*
X-14816144Y-20376566D01*
X-14816144Y-20376566D02*
X-14778049Y-20452757D01*
X-14778049Y-20452757D02*
X-14739954Y-20490852D01*
X-14739954Y-20490852D02*
X-14663763Y-20528947D01*
X-14663763Y-20528947D02*
X-14511382Y-20567042D01*
X-14511382Y-20567042D02*
X-14320906Y-20567042D01*
X-14320906Y-20567042D02*
X-14168525Y-20528947D01*
X-14168525Y-20528947D02*
X-14092335Y-20490852D01*
X-14092335Y-20490852D02*
X-14054240Y-20452757D01*
X-14054240Y-20452757D02*
X-14016144Y-20376566D01*
X-14016144Y-20376566D02*
X-14016144Y-20300376D01*
X-14016144Y-20300376D02*
X-14054240Y-20224185D01*
X-14054240Y-20224185D02*
X-14092335Y-20186090D01*
X-14092335Y-20186090D02*
X-14168525Y-20147995D01*
X-14168525Y-20147995D02*
X-14320906Y-20109899D01*
X-14320906Y-20109899D02*
X-14511382Y-20109899D01*
X-14511382Y-20109899D02*
X-14663763Y-20147995D01*
X-14663763Y-20147995D02*
X-14739954Y-20186090D01*
X-14739954Y-20186090D02*
X-14778049Y-20224185D01*
X-14778049Y-20224185D02*
X-14816144Y-20300376D01*
X-14016144Y-20909900D02*
X-14549478Y-20909900D01*
X-14473287Y-20909900D02*
X-14511382Y-20947995D01*
X-14511382Y-20947995D02*
X-14549478Y-21024185D01*
X-14549478Y-21024185D02*
X-14549478Y-21138471D01*
X-14549478Y-21138471D02*
X-14511382Y-21214662D01*
X-14511382Y-21214662D02*
X-14435192Y-21252757D01*
X-14435192Y-21252757D02*
X-14016144Y-21252757D01*
X-14435192Y-21252757D02*
X-14511382Y-21290852D01*
X-14511382Y-21290852D02*
X-14549478Y-21367043D01*
X-14549478Y-21367043D02*
X-14549478Y-21481328D01*
X-14549478Y-21481328D02*
X-14511382Y-21557519D01*
X-14511382Y-21557519D02*
X-14435192Y-21595614D01*
X-14435192Y-21595614D02*
X-14016144Y-21595614D01*
X-14244716Y-21938471D02*
X-14244716Y-22319424D01*
X-14016144Y-21862281D02*
X-14816144Y-22128948D01*
X-14816144Y-22128948D02*
X-14016144Y-22395614D01*
X-13528144Y-15500375D02*
X-13528144Y-15119423D01*
X-13528144Y-15119423D02*
X-13147192Y-15081327D01*
X-13147192Y-15081327D02*
X-13185287Y-15119423D01*
X-13185287Y-15119423D02*
X-13223382Y-15195613D01*
X-13223382Y-15195613D02*
X-13223382Y-15386089D01*
X-13223382Y-15386089D02*
X-13185287Y-15462280D01*
X-13185287Y-15462280D02*
X-13147192Y-15500375D01*
X-13147192Y-15500375D02*
X-13071001Y-15538470D01*
X-13071001Y-15538470D02*
X-12880525Y-15538470D01*
X-12880525Y-15538470D02*
X-12804335Y-15500375D01*
X-12804335Y-15500375D02*
X-12766240Y-15462280D01*
X-12766240Y-15462280D02*
X-12728144Y-15386089D01*
X-12728144Y-15386089D02*
X-12728144Y-15195613D01*
X-12728144Y-15195613D02*
X-12766240Y-15119423D01*
X-12766240Y-15119423D02*
X-12804335Y-15081327D01*
X-13528144Y-15767042D02*
X-12728144Y-16033709D01*
X-12728144Y-16033709D02*
X-13528144Y-16300375D01*
X-12728144Y-17176566D02*
X-13528144Y-17176566D01*
X-13528144Y-17176566D02*
X-13528144Y-17367042D01*
X-13528144Y-17367042D02*
X-13490049Y-17481328D01*
X-13490049Y-17481328D02*
X-13413859Y-17557518D01*
X-13413859Y-17557518D02*
X-13337668Y-17595613D01*
X-13337668Y-17595613D02*
X-13185287Y-17633709D01*
X-13185287Y-17633709D02*
X-13071001Y-17633709D01*
X-13071001Y-17633709D02*
X-12918620Y-17595613D01*
X-12918620Y-17595613D02*
X-12842430Y-17557518D01*
X-12842430Y-17557518D02*
X-12766240Y-17481328D01*
X-12766240Y-17481328D02*
X-12728144Y-17367042D01*
X-12728144Y-17367042D02*
X-12728144Y-17176566D01*
X-12804335Y-18433709D02*
X-12766240Y-18395613D01*
X-12766240Y-18395613D02*
X-12728144Y-18281328D01*
X-12728144Y-18281328D02*
X-12728144Y-18205137D01*
X-12728144Y-18205137D02*
X-12766240Y-18090851D01*
X-12766240Y-18090851D02*
X-12842430Y-18014661D01*
X-12842430Y-18014661D02*
X-12918620Y-17976566D01*
X-12918620Y-17976566D02*
X-13071001Y-17938470D01*
X-13071001Y-17938470D02*
X-13185287Y-17938470D01*
X-13185287Y-17938470D02*
X-13337668Y-17976566D01*
X-13337668Y-17976566D02*
X-13413859Y-18014661D01*
X-13413859Y-18014661D02*
X-13490049Y-18090851D01*
X-13490049Y-18090851D02*
X-13528144Y-18205137D01*
X-13528144Y-18205137D02*
X-13528144Y-18281328D01*
X-13528144Y-18281328D02*
X-13490049Y-18395613D01*
X-13490049Y-18395613D02*
X-13451954Y-18433709D01*
X-13528144Y-19309899D02*
X-13528144Y-19805137D01*
X-13528144Y-19805137D02*
X-13223382Y-19538471D01*
X-13223382Y-19538471D02*
X-13223382Y-19652756D01*
X-13223382Y-19652756D02*
X-13185287Y-19728947D01*
X-13185287Y-19728947D02*
X-13147192Y-19767042D01*
X-13147192Y-19767042D02*
X-13071001Y-19805137D01*
X-13071001Y-19805137D02*
X-12880525Y-19805137D01*
X-12880525Y-19805137D02*
X-12804335Y-19767042D01*
X-12804335Y-19767042D02*
X-12766240Y-19728947D01*
X-12766240Y-19728947D02*
X-12728144Y-19652756D01*
X-12728144Y-19652756D02*
X-12728144Y-19424185D01*
X-12728144Y-19424185D02*
X-12766240Y-19347994D01*
X-12766240Y-19347994D02*
X-12804335Y-19309899D01*
X-13528144Y-20528947D02*
X-13528144Y-20147995D01*
X-13528144Y-20147995D02*
X-13147192Y-20109899D01*
X-13147192Y-20109899D02*
X-13185287Y-20147995D01*
X-13185287Y-20147995D02*
X-13223382Y-20224185D01*
X-13223382Y-20224185D02*
X-13223382Y-20414661D01*
X-13223382Y-20414661D02*
X-13185287Y-20490852D01*
X-13185287Y-20490852D02*
X-13147192Y-20528947D01*
X-13147192Y-20528947D02*
X-13071001Y-20567042D01*
X-13071001Y-20567042D02*
X-12880525Y-20567042D01*
X-12880525Y-20567042D02*
X-12804335Y-20528947D01*
X-12804335Y-20528947D02*
X-12766240Y-20490852D01*
X-12766240Y-20490852D02*
X-12728144Y-20414661D01*
X-12728144Y-20414661D02*
X-12728144Y-20224185D01*
X-12728144Y-20224185D02*
X-12766240Y-20147995D01*
X-12766240Y-20147995D02*
X-12804335Y-20109899D01*
X-13528144Y-21062281D02*
X-13528144Y-21138471D01*
X-13528144Y-21138471D02*
X-13490049Y-21214662D01*
X-13490049Y-21214662D02*
X-13451954Y-21252757D01*
X-13451954Y-21252757D02*
X-13375763Y-21290852D01*
X-13375763Y-21290852D02*
X-13223382Y-21328947D01*
X-13223382Y-21328947D02*
X-13032906Y-21328947D01*
X-13032906Y-21328947D02*
X-12880525Y-21290852D01*
X-12880525Y-21290852D02*
X-12804335Y-21252757D01*
X-12804335Y-21252757D02*
X-12766240Y-21214662D01*
X-12766240Y-21214662D02*
X-12728144Y-21138471D01*
X-12728144Y-21138471D02*
X-12728144Y-21062281D01*
X-12728144Y-21062281D02*
X-12766240Y-20986090D01*
X-12766240Y-20986090D02*
X-12804335Y-20947995D01*
X-12804335Y-20947995D02*
X-12880525Y-20909900D01*
X-12880525Y-20909900D02*
X-13032906Y-20871804D01*
X-13032906Y-20871804D02*
X-13223382Y-20871804D01*
X-13223382Y-20871804D02*
X-13375763Y-20909900D01*
X-13375763Y-20909900D02*
X-13451954Y-20947995D01*
X-13451954Y-20947995D02*
X-13490049Y-20986090D01*
X-13490049Y-20986090D02*
X-13528144Y-21062281D01*
X-12728144Y-21671805D02*
X-13261478Y-21671805D01*
X-13185287Y-21671805D02*
X-13223382Y-21709900D01*
X-13223382Y-21709900D02*
X-13261478Y-21786090D01*
X-13261478Y-21786090D02*
X-13261478Y-21900376D01*
X-13261478Y-21900376D02*
X-13223382Y-21976567D01*
X-13223382Y-21976567D02*
X-13147192Y-22014662D01*
X-13147192Y-22014662D02*
X-12728144Y-22014662D01*
X-13147192Y-22014662D02*
X-13223382Y-22052757D01*
X-13223382Y-22052757D02*
X-13261478Y-22128948D01*
X-13261478Y-22128948D02*
X-13261478Y-22243233D01*
X-13261478Y-22243233D02*
X-13223382Y-22319424D01*
X-13223382Y-22319424D02*
X-13147192Y-22357519D01*
X-13147192Y-22357519D02*
X-12728144Y-22357519D01*
X-12956716Y-22700376D02*
X-12956716Y-23081329D01*
X-12728144Y-22624186D02*
X-13528144Y-22890853D01*
X-13528144Y-22890853D02*
X-12728144Y-23157519D01*
X-12240144Y-15043232D02*
X-12240144Y-15538470D01*
X-12240144Y-15538470D02*
X-11935382Y-15271804D01*
X-11935382Y-15271804D02*
X-11935382Y-15386089D01*
X-11935382Y-15386089D02*
X-11897287Y-15462280D01*
X-11897287Y-15462280D02*
X-11859192Y-15500375D01*
X-11859192Y-15500375D02*
X-11783001Y-15538470D01*
X-11783001Y-15538470D02*
X-11592525Y-15538470D01*
X-11592525Y-15538470D02*
X-11516335Y-15500375D01*
X-11516335Y-15500375D02*
X-11478240Y-15462280D01*
X-11478240Y-15462280D02*
X-11440144Y-15386089D01*
X-11440144Y-15386089D02*
X-11440144Y-15157518D01*
X-11440144Y-15157518D02*
X-11478240Y-15081327D01*
X-11478240Y-15081327D02*
X-11516335Y-15043232D01*
X-11516335Y-15881328D02*
X-11478240Y-15919423D01*
X-11478240Y-15919423D02*
X-11440144Y-15881328D01*
X-11440144Y-15881328D02*
X-11478240Y-15843232D01*
X-11478240Y-15843232D02*
X-11516335Y-15881328D01*
X-11516335Y-15881328D02*
X-11440144Y-15881328D01*
X-12240144Y-16186089D02*
X-12240144Y-16719423D01*
X-12240144Y-16719423D02*
X-11440144Y-16376565D01*
X-12240144Y-16909899D02*
X-11440144Y-17176566D01*
X-11440144Y-17176566D02*
X-12240144Y-17443232D01*
X-11440144Y-18319423D02*
X-12240144Y-18319423D01*
X-12240144Y-18319423D02*
X-12240144Y-18509899D01*
X-12240144Y-18509899D02*
X-12202049Y-18624185D01*
X-12202049Y-18624185D02*
X-12125859Y-18700375D01*
X-12125859Y-18700375D02*
X-12049668Y-18738470D01*
X-12049668Y-18738470D02*
X-11897287Y-18776566D01*
X-11897287Y-18776566D02*
X-11783001Y-18776566D01*
X-11783001Y-18776566D02*
X-11630620Y-18738470D01*
X-11630620Y-18738470D02*
X-11554430Y-18700375D01*
X-11554430Y-18700375D02*
X-11478240Y-18624185D01*
X-11478240Y-18624185D02*
X-11440144Y-18509899D01*
X-11440144Y-18509899D02*
X-11440144Y-18319423D01*
X-11516335Y-19576566D02*
X-11478240Y-19538470D01*
X-11478240Y-19538470D02*
X-11440144Y-19424185D01*
X-11440144Y-19424185D02*
X-11440144Y-19347994D01*
X-11440144Y-19347994D02*
X-11478240Y-19233708D01*
X-11478240Y-19233708D02*
X-11554430Y-19157518D01*
X-11554430Y-19157518D02*
X-11630620Y-19119423D01*
X-11630620Y-19119423D02*
X-11783001Y-19081327D01*
X-11783001Y-19081327D02*
X-11897287Y-19081327D01*
X-11897287Y-19081327D02*
X-12049668Y-19119423D01*
X-12049668Y-19119423D02*
X-12125859Y-19157518D01*
X-12125859Y-19157518D02*
X-12202049Y-19233708D01*
X-12202049Y-19233708D02*
X-12240144Y-19347994D01*
X-12240144Y-19347994D02*
X-12240144Y-19424185D01*
X-12240144Y-19424185D02*
X-12202049Y-19538470D01*
X-12202049Y-19538470D02*
X-12163954Y-19576566D01*
X-12240144Y-20452756D02*
X-12240144Y-20947994D01*
X-12240144Y-20947994D02*
X-11935382Y-20681328D01*
X-11935382Y-20681328D02*
X-11935382Y-20795613D01*
X-11935382Y-20795613D02*
X-11897287Y-20871804D01*
X-11897287Y-20871804D02*
X-11859192Y-20909899D01*
X-11859192Y-20909899D02*
X-11783001Y-20947994D01*
X-11783001Y-20947994D02*
X-11592525Y-20947994D01*
X-11592525Y-20947994D02*
X-11516335Y-20909899D01*
X-11516335Y-20909899D02*
X-11478240Y-20871804D01*
X-11478240Y-20871804D02*
X-11440144Y-20795613D01*
X-11440144Y-20795613D02*
X-11440144Y-20567042D01*
X-11440144Y-20567042D02*
X-11478240Y-20490851D01*
X-11478240Y-20490851D02*
X-11516335Y-20452756D01*
X-12240144Y-21671804D02*
X-12240144Y-21290852D01*
X-12240144Y-21290852D02*
X-11859192Y-21252756D01*
X-11859192Y-21252756D02*
X-11897287Y-21290852D01*
X-11897287Y-21290852D02*
X-11935382Y-21367042D01*
X-11935382Y-21367042D02*
X-11935382Y-21557518D01*
X-11935382Y-21557518D02*
X-11897287Y-21633709D01*
X-11897287Y-21633709D02*
X-11859192Y-21671804D01*
X-11859192Y-21671804D02*
X-11783001Y-21709899D01*
X-11783001Y-21709899D02*
X-11592525Y-21709899D01*
X-11592525Y-21709899D02*
X-11516335Y-21671804D01*
X-11516335Y-21671804D02*
X-11478240Y-21633709D01*
X-11478240Y-21633709D02*
X-11440144Y-21557518D01*
X-11440144Y-21557518D02*
X-11440144Y-21367042D01*
X-11440144Y-21367042D02*
X-11478240Y-21290852D01*
X-11478240Y-21290852D02*
X-11516335Y-21252756D01*
X-12240144Y-22205138D02*
X-12240144Y-22281328D01*
X-12240144Y-22281328D02*
X-12202049Y-22357519D01*
X-12202049Y-22357519D02*
X-12163954Y-22395614D01*
X-12163954Y-22395614D02*
X-12087763Y-22433709D01*
X-12087763Y-22433709D02*
X-11935382Y-22471804D01*
X-11935382Y-22471804D02*
X-11744906Y-22471804D01*
X-11744906Y-22471804D02*
X-11592525Y-22433709D01*
X-11592525Y-22433709D02*
X-11516335Y-22395614D01*
X-11516335Y-22395614D02*
X-11478240Y-22357519D01*
X-11478240Y-22357519D02*
X-11440144Y-22281328D01*
X-11440144Y-22281328D02*
X-11440144Y-22205138D01*
X-11440144Y-22205138D02*
X-11478240Y-22128947D01*
X-11478240Y-22128947D02*
X-11516335Y-22090852D01*
X-11516335Y-22090852D02*
X-11592525Y-22052757D01*
X-11592525Y-22052757D02*
X-11744906Y-22014661D01*
X-11744906Y-22014661D02*
X-11935382Y-22014661D01*
X-11935382Y-22014661D02*
X-12087763Y-22052757D01*
X-12087763Y-22052757D02*
X-12163954Y-22090852D01*
X-12163954Y-22090852D02*
X-12202049Y-22128947D01*
X-12202049Y-22128947D02*
X-12240144Y-22205138D01*
X-11440144Y-22814662D02*
X-11973478Y-22814662D01*
X-11897287Y-22814662D02*
X-11935382Y-22852757D01*
X-11935382Y-22852757D02*
X-11973478Y-22928947D01*
X-11973478Y-22928947D02*
X-11973478Y-23043233D01*
X-11973478Y-23043233D02*
X-11935382Y-23119424D01*
X-11935382Y-23119424D02*
X-11859192Y-23157519D01*
X-11859192Y-23157519D02*
X-11440144Y-23157519D01*
X-11859192Y-23157519D02*
X-11935382Y-23195614D01*
X-11935382Y-23195614D02*
X-11973478Y-23271805D01*
X-11973478Y-23271805D02*
X-11973478Y-23386090D01*
X-11973478Y-23386090D02*
X-11935382Y-23462281D01*
X-11935382Y-23462281D02*
X-11859192Y-23500376D01*
X-11859192Y-23500376D02*
X-11440144Y-23500376D01*
X-11668716Y-23843233D02*
X-11668716Y-24224186D01*
X-11440144Y-23767043D02*
X-12240144Y-24033710D01*
X-12240144Y-24033710D02*
X-11440144Y-24300376D01*
X-10952144Y-15043232D02*
X-10952144Y-15538470D01*
X-10952144Y-15538470D02*
X-10647382Y-15271804D01*
X-10647382Y-15271804D02*
X-10647382Y-15386089D01*
X-10647382Y-15386089D02*
X-10609287Y-15462280D01*
X-10609287Y-15462280D02*
X-10571192Y-15500375D01*
X-10571192Y-15500375D02*
X-10495001Y-15538470D01*
X-10495001Y-15538470D02*
X-10304525Y-15538470D01*
X-10304525Y-15538470D02*
X-10228335Y-15500375D01*
X-10228335Y-15500375D02*
X-10190240Y-15462280D01*
X-10190240Y-15462280D02*
X-10152144Y-15386089D01*
X-10152144Y-15386089D02*
X-10152144Y-15157518D01*
X-10152144Y-15157518D02*
X-10190240Y-15081327D01*
X-10190240Y-15081327D02*
X-10228335Y-15043232D01*
X-10228335Y-15881328D02*
X-10190240Y-15919423D01*
X-10190240Y-15919423D02*
X-10152144Y-15881328D01*
X-10152144Y-15881328D02*
X-10190240Y-15843232D01*
X-10190240Y-15843232D02*
X-10228335Y-15881328D01*
X-10228335Y-15881328D02*
X-10152144Y-15881328D01*
X-10952144Y-16186089D02*
X-10952144Y-16719423D01*
X-10952144Y-16719423D02*
X-10152144Y-16376565D01*
X-10952144Y-16909899D02*
X-10152144Y-17176566D01*
X-10152144Y-17176566D02*
X-10952144Y-17443232D01*
X-10152144Y-18738470D02*
X-10152144Y-18281327D01*
X-10152144Y-18509899D02*
X-10952144Y-18509899D01*
X-10952144Y-18509899D02*
X-10837859Y-18433708D01*
X-10837859Y-18433708D02*
X-10761668Y-18357518D01*
X-10761668Y-18357518D02*
X-10723573Y-18281327D01*
X-10952144Y-19424185D02*
X-10952144Y-19271804D01*
X-10952144Y-19271804D02*
X-10914049Y-19195613D01*
X-10914049Y-19195613D02*
X-10875954Y-19157518D01*
X-10875954Y-19157518D02*
X-10761668Y-19081328D01*
X-10761668Y-19081328D02*
X-10609287Y-19043232D01*
X-10609287Y-19043232D02*
X-10304525Y-19043232D01*
X-10304525Y-19043232D02*
X-10228335Y-19081328D01*
X-10228335Y-19081328D02*
X-10190240Y-19119423D01*
X-10190240Y-19119423D02*
X-10152144Y-19195613D01*
X-10152144Y-19195613D02*
X-10152144Y-19347994D01*
X-10152144Y-19347994D02*
X-10190240Y-19424185D01*
X-10190240Y-19424185D02*
X-10228335Y-19462280D01*
X-10228335Y-19462280D02*
X-10304525Y-19500375D01*
X-10304525Y-19500375D02*
X-10495001Y-19500375D01*
X-10495001Y-19500375D02*
X-10571192Y-19462280D01*
X-10571192Y-19462280D02*
X-10609287Y-19424185D01*
X-10609287Y-19424185D02*
X-10647382Y-19347994D01*
X-10647382Y-19347994D02*
X-10647382Y-19195613D01*
X-10647382Y-19195613D02*
X-10609287Y-19119423D01*
X-10609287Y-19119423D02*
X-10571192Y-19081328D01*
X-10571192Y-19081328D02*
X-10495001Y-19043232D01*
X-10952144Y-19995614D02*
X-10952144Y-20071804D01*
X-10952144Y-20071804D02*
X-10914049Y-20147995D01*
X-10914049Y-20147995D02*
X-10875954Y-20186090D01*
X-10875954Y-20186090D02*
X-10799763Y-20224185D01*
X-10799763Y-20224185D02*
X-10647382Y-20262280D01*
X-10647382Y-20262280D02*
X-10456906Y-20262280D01*
X-10456906Y-20262280D02*
X-10304525Y-20224185D01*
X-10304525Y-20224185D02*
X-10228335Y-20186090D01*
X-10228335Y-20186090D02*
X-10190240Y-20147995D01*
X-10190240Y-20147995D02*
X-10152144Y-20071804D01*
X-10152144Y-20071804D02*
X-10152144Y-19995614D01*
X-10152144Y-19995614D02*
X-10190240Y-19919423D01*
X-10190240Y-19919423D02*
X-10228335Y-19881328D01*
X-10228335Y-19881328D02*
X-10304525Y-19843233D01*
X-10304525Y-19843233D02*
X-10456906Y-19805137D01*
X-10456906Y-19805137D02*
X-10647382Y-19805137D01*
X-10647382Y-19805137D02*
X-10799763Y-19843233D01*
X-10799763Y-19843233D02*
X-10875954Y-19881328D01*
X-10875954Y-19881328D02*
X-10914049Y-19919423D01*
X-10914049Y-19919423D02*
X-10952144Y-19995614D01*
X-10952144Y-20757519D02*
X-10952144Y-20833709D01*
X-10952144Y-20833709D02*
X-10914049Y-20909900D01*
X-10914049Y-20909900D02*
X-10875954Y-20947995D01*
X-10875954Y-20947995D02*
X-10799763Y-20986090D01*
X-10799763Y-20986090D02*
X-10647382Y-21024185D01*
X-10647382Y-21024185D02*
X-10456906Y-21024185D01*
X-10456906Y-21024185D02*
X-10304525Y-20986090D01*
X-10304525Y-20986090D02*
X-10228335Y-20947995D01*
X-10228335Y-20947995D02*
X-10190240Y-20909900D01*
X-10190240Y-20909900D02*
X-10152144Y-20833709D01*
X-10152144Y-20833709D02*
X-10152144Y-20757519D01*
X-10152144Y-20757519D02*
X-10190240Y-20681328D01*
X-10190240Y-20681328D02*
X-10228335Y-20643233D01*
X-10228335Y-20643233D02*
X-10304525Y-20605138D01*
X-10304525Y-20605138D02*
X-10456906Y-20567042D01*
X-10456906Y-20567042D02*
X-10647382Y-20567042D01*
X-10647382Y-20567042D02*
X-10799763Y-20605138D01*
X-10799763Y-20605138D02*
X-10875954Y-20643233D01*
X-10875954Y-20643233D02*
X-10914049Y-20681328D01*
X-10914049Y-20681328D02*
X-10952144Y-20757519D01*
X-10152144Y-21367043D02*
X-10685478Y-21367043D01*
X-10609287Y-21367043D02*
X-10647382Y-21405138D01*
X-10647382Y-21405138D02*
X-10685478Y-21481328D01*
X-10685478Y-21481328D02*
X-10685478Y-21595614D01*
X-10685478Y-21595614D02*
X-10647382Y-21671805D01*
X-10647382Y-21671805D02*
X-10571192Y-21709900D01*
X-10571192Y-21709900D02*
X-10152144Y-21709900D01*
X-10571192Y-21709900D02*
X-10647382Y-21747995D01*
X-10647382Y-21747995D02*
X-10685478Y-21824186D01*
X-10685478Y-21824186D02*
X-10685478Y-21938471D01*
X-10685478Y-21938471D02*
X-10647382Y-22014662D01*
X-10647382Y-22014662D02*
X-10571192Y-22052757D01*
X-10571192Y-22052757D02*
X-10152144Y-22052757D01*
X-10380716Y-22395614D02*
X-10380716Y-22776567D01*
X-10152144Y-22319424D02*
X-10952144Y-22586091D01*
X-10952144Y-22586091D02*
X-10152144Y-22852757D01*
X-10152144Y-23119424D02*
X-10952144Y-23119424D01*
X-10152144Y-23462281D02*
X-10571192Y-23462281D01*
X-10571192Y-23462281D02*
X-10647382Y-23424186D01*
X-10647382Y-23424186D02*
X-10685478Y-23347995D01*
X-10685478Y-23347995D02*
X-10685478Y-23233709D01*
X-10685478Y-23233709D02*
X-10647382Y-23157519D01*
X-10647382Y-23157519D02*
X-10609287Y-23119424D01*
X-10152144Y-24833710D02*
X-10152144Y-24452758D01*
X-10152144Y-24452758D02*
X-10952144Y-24452758D01*
X-10152144Y-25100377D02*
X-10685478Y-25100377D01*
X-10952144Y-25100377D02*
X-10914049Y-25062281D01*
X-10914049Y-25062281D02*
X-10875954Y-25100377D01*
X-10875954Y-25100377D02*
X-10914049Y-25138472D01*
X-10914049Y-25138472D02*
X-10952144Y-25100377D01*
X-10952144Y-25100377D02*
X-10875954Y-25100377D01*
X-10152144Y-25481329D02*
X-10952144Y-25481329D01*
X-10952144Y-25481329D02*
X-10952144Y-25786091D01*
X-10952144Y-25786091D02*
X-10914049Y-25862281D01*
X-10914049Y-25862281D02*
X-10875954Y-25900376D01*
X-10875954Y-25900376D02*
X-10799763Y-25938472D01*
X-10799763Y-25938472D02*
X-10685478Y-25938472D01*
X-10685478Y-25938472D02*
X-10609287Y-25900376D01*
X-10609287Y-25900376D02*
X-10571192Y-25862281D01*
X-10571192Y-25862281D02*
X-10533097Y-25786091D01*
X-10533097Y-25786091D02*
X-10533097Y-25481329D01*
X-10152144Y-26395614D02*
X-10190240Y-26319424D01*
X-10190240Y-26319424D02*
X-10228335Y-26281329D01*
X-10228335Y-26281329D02*
X-10304525Y-26243233D01*
X-10304525Y-26243233D02*
X-10533097Y-26243233D01*
X-10533097Y-26243233D02*
X-10609287Y-26281329D01*
X-10609287Y-26281329D02*
X-10647382Y-26319424D01*
X-10647382Y-26319424D02*
X-10685478Y-26395614D01*
X-10685478Y-26395614D02*
X-10685478Y-26509900D01*
X-10685478Y-26509900D02*
X-10647382Y-26586091D01*
X-10647382Y-26586091D02*
X-10609287Y-26624186D01*
X-10609287Y-26624186D02*
X-10533097Y-26662281D01*
X-10533097Y-26662281D02*
X-10304525Y-26662281D01*
X-10304525Y-26662281D02*
X-10228335Y-26624186D01*
X-10228335Y-26624186D02*
X-10190240Y-26586091D01*
X-10190240Y-26586091D02*
X-10152144Y-26509900D01*
X-10152144Y-26509900D02*
X-10152144Y-26395614D01*
%TO.C,J3*%
X-7700000Y-7800000D02*
X7700000Y-7800000D01*
X7700000Y-7800000D02*
X7700000Y-16200000D01*
X7700000Y-16200000D02*
X-7700000Y-16200000D01*
X-7700000Y-16200000D02*
X-7700000Y-7800000D01*
%TO.C,J2*%
X7700000Y-33700000D02*
X-7700000Y-33700000D01*
X-7700000Y-33700000D02*
X-7700000Y-25300000D01*
X-7700000Y-25300000D02*
X7700000Y-25300000D01*
X7700000Y-25300000D02*
X7700000Y-33700000D01*
%TO.C,REF\u002A\u002A*%
G36*
X19235892Y-19059669D02*
G01*
X19288539Y-19087485D01*
X19366599Y-19147304D01*
X19476999Y-19245105D01*
X19626669Y-19386868D01*
X19822538Y-19578574D01*
X20071536Y-19826202D01*
X20286712Y-20042746D01*
X20481970Y-20242334D01*
X20647707Y-20414934D01*
X20775955Y-20552149D01*
X20858747Y-20645581D01*
X20888115Y-20686833D01*
X20884456Y-20697969D01*
X20837343Y-20763683D01*
X20747295Y-20866091D01*
X20628836Y-20988306D01*
X20369556Y-21244880D01*
X19755576Y-20618364D01*
X19617499Y-20477477D01*
X19365693Y-20220339D01*
X19165957Y-20015402D01*
X19012719Y-19856202D01*
X18900409Y-19736276D01*
X18823459Y-19649161D01*
X18776296Y-19588393D01*
X18753353Y-19547510D01*
X18749058Y-19520048D01*
X18757841Y-19499543D01*
X18774133Y-19479533D01*
X18801693Y-19434352D01*
X18801732Y-19427578D01*
X19100855Y-19427578D01*
X19144311Y-19503000D01*
X19180395Y-19556112D01*
X19165967Y-19606074D01*
X19151768Y-19617105D01*
X19120034Y-19680321D01*
X19130997Y-19699797D01*
X19184720Y-19672496D01*
X19245792Y-19640629D01*
X19315134Y-19673361D01*
X19384084Y-19707068D01*
X19413359Y-19679965D01*
X19379642Y-19608852D01*
X19346962Y-19547159D01*
X19378778Y-19478438D01*
X19404456Y-19438133D01*
X19386603Y-19413752D01*
X19371031Y-19416011D01*
X19312355Y-19459685D01*
X19281479Y-19478123D01*
X19209282Y-19438029D01*
X19189468Y-19421597D01*
X19121995Y-19394356D01*
X19100855Y-19427578D01*
X18801732Y-19427578D01*
X18801991Y-19383202D01*
X18798592Y-19376481D01*
X18819860Y-19322782D01*
X18881744Y-19245003D01*
X18961698Y-19165997D01*
X19037176Y-19108617D01*
X19085632Y-19095713D01*
X19118499Y-19099504D01*
X19121995Y-19097797D01*
X19189384Y-19064890D01*
X19201727Y-19057875D01*
X19235892Y-19059669D01*
G37*
G36*
X18936048Y-24732838D02*
G01*
X19008420Y-24757469D01*
X19019722Y-24794946D01*
X18958961Y-24828645D01*
X18945988Y-24832403D01*
X18916533Y-24849033D01*
X18896768Y-24884886D01*
X18885193Y-24953216D01*
X18880309Y-25067278D01*
X18880614Y-25240325D01*
X18884610Y-25485611D01*
X18896465Y-26120034D01*
X19081517Y-26133345D01*
X19200213Y-26135633D01*
X19261697Y-26113781D01*
X19289618Y-26058513D01*
X19310813Y-26006041D01*
X19350442Y-25970371D01*
X19372378Y-25954365D01*
X19388216Y-25884849D01*
X19392092Y-25852191D01*
X19413414Y-25827590D01*
X19465806Y-25812091D01*
X19562882Y-25803607D01*
X19718252Y-25800049D01*
X19773064Y-25799875D01*
X19945528Y-25799327D01*
X20502841Y-25799327D01*
X20863398Y-26173485D01*
X20869669Y-26179994D01*
X21007604Y-26323897D01*
X21120550Y-26443076D01*
X21196999Y-26525299D01*
X21225445Y-26558334D01*
X21219290Y-26559587D01*
X21149140Y-26562602D01*
X21010573Y-26565196D01*
X20815910Y-26567227D01*
X20577471Y-26568551D01*
X20307576Y-26569024D01*
X19388216Y-26569024D01*
X19388216Y-26462121D01*
X19377599Y-26391813D01*
X19345455Y-26355219D01*
X19325783Y-26347983D01*
X19302694Y-26291078D01*
X19302188Y-26283349D01*
X19275089Y-26249324D01*
X19195104Y-26231862D01*
X19046128Y-26226936D01*
X18789562Y-26226936D01*
X18789562Y-26184175D01*
X19559259Y-26184175D01*
X19573064Y-26208042D01*
X19639794Y-26226936D01*
X19695952Y-26246567D01*
X19752125Y-26323148D01*
X19783921Y-26419360D01*
X19802847Y-26323148D01*
X19828109Y-26264287D01*
X19904321Y-26226936D01*
X19951188Y-26219325D01*
X19986869Y-26184175D01*
X19970832Y-26159322D01*
X19901347Y-26141414D01*
X19846062Y-26127359D01*
X19815825Y-26055892D01*
X19807807Y-26006185D01*
X19773064Y-25970371D01*
X19748210Y-25986407D01*
X19730303Y-26055892D01*
X19716248Y-26111178D01*
X19644781Y-26141414D01*
X19595074Y-26149433D01*
X19559259Y-26184175D01*
X18789562Y-26184175D01*
X18789562Y-25478620D01*
X18789562Y-24730303D01*
X18893941Y-24730303D01*
X18936048Y-24732838D01*
G37*
G36*
X20500000Y-23071230D02*
G01*
X20721916Y-23073262D01*
X21116916Y-23143628D01*
X21502807Y-23283765D01*
X21871601Y-23496706D01*
X22215311Y-23785482D01*
X22408143Y-23997287D01*
X22669039Y-24377357D01*
X22850077Y-24786232D01*
X22950306Y-25222054D01*
X22969874Y-25531824D01*
X22928128Y-25959175D01*
X22811442Y-26371318D01*
X22625971Y-26758311D01*
X22377871Y-27110213D01*
X22073297Y-27417085D01*
X21718404Y-27668987D01*
X21319348Y-27855976D01*
X21197952Y-27896466D01*
X21067622Y-27928233D01*
X20923853Y-27947196D01*
X20742646Y-27956367D01*
X20500000Y-27958754D01*
X20487277Y-27958744D01*
X20153283Y-27947482D01*
X19875826Y-27910020D01*
X19628839Y-27838932D01*
X19386259Y-27726792D01*
X19122019Y-27566175D01*
X18815209Y-27324741D01*
X18523433Y-27000109D01*
X18293837Y-26630711D01*
X18132248Y-26228327D01*
X18044495Y-25804736D01*
X18041483Y-25643559D01*
X18369118Y-25643559D01*
X18414832Y-26037932D01*
X18531837Y-26394416D01*
X18724872Y-26725312D01*
X18998682Y-27042924D01*
X19039480Y-27082608D01*
X19371029Y-27341498D01*
X19735846Y-27526988D01*
X20123292Y-27638000D01*
X20522730Y-27673454D01*
X20923521Y-27632270D01*
X21315030Y-27513370D01*
X21686616Y-27315673D01*
X21793227Y-27243248D01*
X21878441Y-27181569D01*
X21911111Y-27152492D01*
X21909525Y-27150224D01*
X21867383Y-27104679D01*
X21772152Y-27005426D01*
X21629507Y-26858283D01*
X21445126Y-26669068D01*
X21224687Y-26443598D01*
X20973866Y-26187691D01*
X20698341Y-25907165D01*
X20403788Y-25607838D01*
X19924279Y-25121006D01*
X20394479Y-25121006D01*
X20398700Y-25132420D01*
X20450492Y-25193539D01*
X20547462Y-25298563D01*
X20680723Y-25437927D01*
X20841390Y-25602067D01*
X21021099Y-25783203D01*
X21156384Y-25915814D01*
X21255680Y-26004819D01*
X21331150Y-26058912D01*
X21394960Y-26086786D01*
X21459273Y-26097136D01*
X21536255Y-26098653D01*
X21740067Y-26098653D01*
X21740067Y-26248317D01*
X21740067Y-26397980D01*
X21975253Y-26397980D01*
X22210438Y-26397980D01*
X22210438Y-25756566D01*
X22210438Y-25115152D01*
X21889731Y-25115152D01*
X21569024Y-25115152D01*
X21569024Y-25435859D01*
X21568906Y-25465829D01*
X21564480Y-25613417D01*
X21554938Y-25717296D01*
X21542040Y-25756566D01*
X21531860Y-25753040D01*
X21460841Y-25717339D01*
X21335437Y-25649296D01*
X21169488Y-25556501D01*
X20976838Y-25446549D01*
X20898594Y-25401584D01*
X20712140Y-25295313D01*
X20556344Y-25207746D01*
X20445644Y-25146953D01*
X20394479Y-25121006D01*
X19924279Y-25121006D01*
X18896465Y-24077495D01*
X18754055Y-24276702D01*
X18697968Y-24358593D01*
X18526270Y-24679576D01*
X18420110Y-25025064D01*
X18372055Y-25417252D01*
X18369118Y-25643559D01*
X18041483Y-25643559D01*
X18036404Y-25371717D01*
X18075116Y-25079349D01*
X18192616Y-24658225D01*
X18372902Y-24279583D01*
X18607987Y-23946454D01*
X18680998Y-23872747D01*
X19181900Y-23872747D01*
X19182056Y-23873131D01*
X19216655Y-23915991D01*
X19301516Y-24009207D01*
X19427061Y-24142601D01*
X19583712Y-24305991D01*
X19761890Y-24489197D01*
X20327988Y-25067399D01*
X20392463Y-25029630D01*
X20732412Y-25029630D01*
X20740601Y-25109285D01*
X20786869Y-25131771D01*
X20885152Y-25093614D01*
X20993377Y-25042786D01*
X21043876Y-25034617D01*
X21034512Y-25072391D01*
X21027132Y-25088321D01*
X21042679Y-25113359D01*
X21051580Y-25111678D01*
X21122446Y-25083619D01*
X21225920Y-25032427D01*
X21374568Y-24953287D01*
X21054877Y-24959387D01*
X20945880Y-24962657D01*
X20818401Y-24973903D01*
X20752296Y-24995127D01*
X20732412Y-25029630D01*
X20392463Y-25029630D01*
X20937816Y-24710165D01*
X21374568Y-24454318D01*
X21547643Y-24352931D01*
X21560063Y-24691281D01*
X21572482Y-25029630D01*
X21955602Y-25029630D01*
X22210438Y-25029630D01*
X22338721Y-25029630D01*
X22338721Y-25754692D01*
X22338721Y-26479755D01*
X22037496Y-26492319D01*
X21736272Y-26504882D01*
X21945672Y-26710872D01*
X22155072Y-26916861D01*
X22293258Y-26701517D01*
X22343984Y-26617417D01*
X22441955Y-26432626D01*
X22519175Y-26260342D01*
X22542684Y-26190096D01*
X22589596Y-25967388D01*
X22617797Y-25703691D01*
X22625921Y-25429690D01*
X22612602Y-25176070D01*
X22576473Y-24973517D01*
X22474855Y-24689909D01*
X22271026Y-24319893D01*
X22007074Y-24003812D01*
X21690496Y-23747373D01*
X21328792Y-23556285D01*
X20929460Y-23436254D01*
X20500000Y-23392989D01*
X20332394Y-23396043D01*
X20086193Y-23423606D01*
X19853944Y-23484622D01*
X19757975Y-23519433D01*
X19586677Y-23593566D01*
X19426260Y-23675874D01*
X19293884Y-23756448D01*
X19206711Y-23825375D01*
X19181900Y-23872747D01*
X18680998Y-23872747D01*
X18889882Y-23661870D01*
X18896465Y-23657087D01*
X19210599Y-23428864D01*
X19562149Y-23250468D01*
X19936544Y-23129714D01*
X20325796Y-23069635D01*
X20500000Y-23071230D01*
G37*
G36*
X21026734Y-17062233D02*
G01*
X21430316Y-17189449D01*
X21805432Y-17381618D01*
X21932055Y-17475850D01*
X22143446Y-17633166D01*
X22435723Y-17938517D01*
X22673627Y-18292097D01*
X22848522Y-18688330D01*
X22951774Y-19121642D01*
X22966526Y-19247471D01*
X22966565Y-19693002D01*
X22888696Y-20123959D01*
X22738949Y-20531208D01*
X22523352Y-20905615D01*
X22247934Y-21238047D01*
X21918723Y-21519370D01*
X21541750Y-21740450D01*
X21123042Y-21892154D01*
X20759731Y-21953908D01*
X20331992Y-21955742D01*
X19903631Y-21889719D01*
X19496355Y-21759370D01*
X19131868Y-21568227D01*
X18888936Y-21388131D01*
X18580717Y-21080962D01*
X18340658Y-20738309D01*
X18167432Y-20368813D01*
X18059710Y-19981119D01*
X18016164Y-19583870D01*
X18021577Y-19472199D01*
X18344315Y-19472199D01*
X18346167Y-19570481D01*
X18399488Y-19997419D01*
X18527838Y-20383435D01*
X18733152Y-20733066D01*
X19017364Y-21050850D01*
X19333680Y-21299437D01*
X19705766Y-21494359D01*
X20099140Y-21611044D01*
X20504361Y-21648689D01*
X20911987Y-21606487D01*
X21312577Y-21483635D01*
X21696689Y-21279326D01*
X21804307Y-21207628D01*
X21890172Y-21148516D01*
X21923090Y-21123126D01*
X21921212Y-21120857D01*
X21877687Y-21075168D01*
X21780815Y-20975273D01*
X21636298Y-20827003D01*
X21449837Y-20636188D01*
X21227132Y-20408657D01*
X20973886Y-20150241D01*
X20695799Y-19866771D01*
X20398572Y-19564077D01*
X18874055Y-18012224D01*
X18694540Y-18289419D01*
X18686532Y-18301860D01*
X18492795Y-18672354D01*
X18380319Y-19057076D01*
X18344315Y-19472199D01*
X18021577Y-19472199D01*
X18035465Y-19185707D01*
X18116285Y-18795276D01*
X18257295Y-18421219D01*
X18457168Y-18072178D01*
X18687116Y-17790441D01*
X19124695Y-17790441D01*
X19852559Y-18548191D01*
X19912268Y-18610242D01*
X20180032Y-18886534D01*
X20481718Y-19195288D01*
X20795332Y-19514128D01*
X21098883Y-19820678D01*
X21370380Y-20092561D01*
X22160336Y-20879180D01*
X22300019Y-20674485D01*
X22359127Y-20578815D01*
X22455354Y-20393018D01*
X22531826Y-20211296D01*
X22563794Y-20107174D01*
X22616319Y-19845460D01*
X22646316Y-19546896D01*
X22647260Y-19529716D01*
X22656139Y-19347654D01*
X22656889Y-19236042D01*
X22647171Y-19180368D01*
X22624645Y-19166122D01*
X22586973Y-19178795D01*
X22540094Y-19193132D01*
X22417025Y-19212393D01*
X22268081Y-19222370D01*
X22177237Y-19226640D01*
X22028182Y-19241743D01*
X21923428Y-19262480D01*
X21869212Y-19278423D01*
X21841462Y-19273768D01*
X21876320Y-19224087D01*
X21910751Y-19164289D01*
X21898181Y-19104476D01*
X21827032Y-19082975D01*
X21712017Y-19110001D01*
X21578225Y-19140678D01*
X21368387Y-19134259D01*
X21345419Y-19131335D01*
X21178571Y-19126293D01*
X21064371Y-19152996D01*
X21052215Y-19159294D01*
X20987159Y-19179181D01*
X20978694Y-19152321D01*
X21022564Y-19091043D01*
X21114516Y-19007678D01*
X21254669Y-18897221D01*
X21069251Y-18896743D01*
X21039243Y-18895839D01*
X20881830Y-18871934D01*
X20747597Y-18825815D01*
X20742470Y-18823218D01*
X20599700Y-18773897D01*
X20447871Y-18751078D01*
X20417338Y-18750022D01*
X20322562Y-18742572D01*
X20284380Y-18732269D01*
X20293975Y-18712822D01*
X20340418Y-18638829D01*
X20412408Y-18531664D01*
X20422324Y-18518930D01*
X21276504Y-18518930D01*
X21278041Y-18523557D01*
X21328990Y-18543272D01*
X21429710Y-18551273D01*
X21450463Y-18551591D01*
X21538317Y-18565053D01*
X21556536Y-18594397D01*
X21556081Y-18595162D01*
X21574284Y-18625595D01*
X21658721Y-18637521D01*
X21762806Y-18654229D01*
X21850190Y-18700154D01*
X21890064Y-18734390D01*
X21928737Y-18749381D01*
X21933828Y-18746727D01*
X21998044Y-18730350D01*
X22106439Y-18711010D01*
X22123964Y-18708342D01*
X22216921Y-18699007D01*
X22244839Y-18715766D01*
X22225030Y-18766757D01*
X22222696Y-18771137D01*
X22185744Y-18856645D01*
X22203239Y-18876543D01*
X22277677Y-18834024D01*
X22357437Y-18790830D01*
X22450173Y-18766893D01*
X22491010Y-18761854D01*
X22526044Y-18734550D01*
X22517106Y-18700817D01*
X22469746Y-18600469D01*
X22392895Y-18463719D01*
X22299338Y-18311838D01*
X22201861Y-18166100D01*
X22113250Y-18047775D01*
X22047796Y-17970098D01*
X21979834Y-17904313D01*
X21932055Y-17890474D01*
X21885944Y-17918012D01*
X21802426Y-17972334D01*
X21685908Y-18024754D01*
X21625085Y-18047597D01*
X21600220Y-18066601D01*
X21650038Y-18073505D01*
X21711499Y-18079720D01*
X21816893Y-18105058D01*
X21847201Y-18128536D01*
X21818763Y-18165088D01*
X21719001Y-18223649D01*
X21572799Y-18303857D01*
X21416574Y-18398608D01*
X21313698Y-18473042D01*
X21276504Y-18518930D01*
X20422324Y-18518930D01*
X20540910Y-18366637D01*
X20748162Y-18181396D01*
X20965718Y-18079238D01*
X20982266Y-18074438D01*
X21108508Y-18018704D01*
X21200517Y-17948732D01*
X21265161Y-17891729D01*
X21340495Y-17861290D01*
X21394706Y-17848177D01*
X21392784Y-17804433D01*
X21319355Y-17741926D01*
X21265829Y-17698654D01*
X21233107Y-17642760D01*
X21236592Y-17627196D01*
X21276617Y-17624347D01*
X21316821Y-17635896D01*
X21393500Y-17626887D01*
X21456306Y-17596566D01*
X21469093Y-17557488D01*
X21414535Y-17513693D01*
X21286511Y-17460961D01*
X21108956Y-17412094D01*
X20901802Y-17371595D01*
X20684985Y-17343968D01*
X20478438Y-17333715D01*
X20332797Y-17337192D01*
X19992795Y-17381389D01*
X19676447Y-17483587D01*
X19351691Y-17652867D01*
X19124695Y-17790441D01*
X18687116Y-17790441D01*
X18714575Y-17756797D01*
X18874055Y-17617930D01*
X19028188Y-17483719D01*
X19396679Y-17261588D01*
X19818718Y-17099045D01*
X20168714Y-17024958D01*
X20478438Y-17011123D01*
X20603321Y-17005544D01*
X21026734Y-17062233D01*
G37*
G36*
X20742473Y-11033886D02*
G01*
X21102115Y-11094945D01*
X21451937Y-11208995D01*
X21587391Y-11276786D01*
X21785944Y-11376157D01*
X21852203Y-11419645D01*
X21985385Y-11521820D01*
X22131234Y-11647599D01*
X22275108Y-11783507D01*
X22402366Y-11916070D01*
X22498368Y-12031814D01*
X22630895Y-12238248D01*
X22766162Y-12511742D01*
X22874158Y-12803318D01*
X22946201Y-13092417D01*
X22954575Y-13167949D01*
X22960503Y-13288529D01*
X22962814Y-13433649D01*
X22960996Y-13586297D01*
X22960578Y-13601352D01*
X22952232Y-13783315D01*
X22937083Y-13930476D01*
X22912186Y-14063927D01*
X22874595Y-14204757D01*
X22847604Y-14290320D01*
X22702402Y-14636922D01*
X22510833Y-14953407D01*
X22277067Y-15235890D01*
X22005271Y-15480488D01*
X21699615Y-15683316D01*
X21364268Y-15840492D01*
X21003397Y-15948129D01*
X20868584Y-15968634D01*
X20685097Y-15981231D01*
X20481756Y-15983959D01*
X20277699Y-15977050D01*
X20092065Y-15960737D01*
X19943993Y-15935252D01*
X19891556Y-15921883D01*
X19533685Y-15798161D01*
X19203601Y-15626590D01*
X18905324Y-15411006D01*
X18642869Y-15155243D01*
X18420255Y-14863135D01*
X18372676Y-14776733D01*
X20079491Y-14776733D01*
X20088685Y-14806886D01*
X20117875Y-14886439D01*
X20160012Y-14992246D01*
X20210185Y-15112930D01*
X20263480Y-15237113D01*
X20314984Y-15353418D01*
X20359786Y-15450468D01*
X20392972Y-15516886D01*
X20409630Y-15541295D01*
X20418301Y-15534571D01*
X20457914Y-15491280D01*
X20522648Y-15414554D01*
X20605974Y-15312212D01*
X20701359Y-15192072D01*
X20751967Y-15127443D01*
X20842375Y-15011179D01*
X20917068Y-14914071D01*
X20969400Y-14844785D01*
X20992729Y-14811989D01*
X20996177Y-14804663D01*
X20991902Y-14743912D01*
X20945279Y-14673558D01*
X20864618Y-14606906D01*
X20835271Y-14585110D01*
X20760459Y-14490077D01*
X20721507Y-14373464D01*
X20727025Y-14257156D01*
X20733244Y-14225745D01*
X20726236Y-14144517D01*
X20685938Y-14037953D01*
X20622019Y-13899916D01*
X20522104Y-14037953D01*
X20481602Y-14094191D01*
X20332718Y-14307047D01*
X20216975Y-14483548D01*
X20135464Y-14621875D01*
X20089273Y-14720210D01*
X20079491Y-14776733D01*
X18372676Y-14776733D01*
X18241498Y-14538518D01*
X18184670Y-14385122D01*
X19349377Y-14385122D01*
X19349733Y-14386551D01*
X19379860Y-14408427D01*
X19448958Y-14442586D01*
X19543544Y-14482281D01*
X19648618Y-14523492D01*
X19777823Y-14574416D01*
X19884229Y-14616605D01*
X20030746Y-14675000D01*
X20294138Y-14289938D01*
X20353612Y-14202365D01*
X20434611Y-14080822D01*
X20499249Y-13981019D01*
X20542047Y-13911467D01*
X20557531Y-13880675D01*
X20541825Y-13864416D01*
X20483089Y-13829948D01*
X20392101Y-13784756D01*
X20280864Y-13733959D01*
X20161379Y-13682677D01*
X20045649Y-13636029D01*
X19945675Y-13599132D01*
X19873460Y-13577107D01*
X19841005Y-13575072D01*
X19833308Y-13585051D01*
X19797685Y-13638193D01*
X19743101Y-13724042D01*
X19675737Y-13832411D01*
X19601775Y-13953114D01*
X19527397Y-14075966D01*
X19458787Y-14190778D01*
X19402125Y-14287366D01*
X19363594Y-14355543D01*
X19349377Y-14385122D01*
X18184670Y-14385122D01*
X18118802Y-14207322D01*
X19274467Y-14207322D01*
X19289936Y-14234564D01*
X19319566Y-14243614D01*
X19361652Y-14215635D01*
X19419626Y-14147076D01*
X19496921Y-14034390D01*
X19596972Y-13874028D01*
X19639005Y-13805707D01*
X19716328Y-13684841D01*
X19782285Y-13587913D01*
X19830943Y-13523474D01*
X19841005Y-13514215D01*
X19856371Y-13500075D01*
X19881803Y-13507020D01*
X19951573Y-13534110D01*
X20051565Y-13576910D01*
X20169519Y-13630322D01*
X20263402Y-13673102D01*
X20362389Y-13716138D01*
X20431539Y-13743692D01*
X20459790Y-13751158D01*
X20457488Y-13746535D01*
X20423871Y-13712339D01*
X20356662Y-13650947D01*
X20263365Y-13569116D01*
X20151486Y-13473602D01*
X20103805Y-13433884D01*
X20241133Y-13433884D01*
X20247391Y-13447565D01*
X20288238Y-13495395D01*
X20358745Y-13564013D01*
X20449063Y-13643493D01*
X20622019Y-13789078D01*
X20657017Y-13818538D01*
X20722336Y-13624900D01*
X20724819Y-13617528D01*
X20756571Y-13521001D01*
X20779095Y-13448463D01*
X20787655Y-13415122D01*
X20782197Y-13408290D01*
X20739426Y-13376126D01*
X20663405Y-13325968D01*
X20565242Y-13265299D01*
X20342828Y-13131618D01*
X20291992Y-13265469D01*
X20275332Y-13311251D01*
X20250794Y-13388285D01*
X20241133Y-13433884D01*
X20103805Y-13433884D01*
X20102731Y-13432989D01*
X19993944Y-13346295D01*
X19903575Y-13279701D01*
X19839921Y-13239131D01*
X19811275Y-13230513D01*
X19777705Y-13276809D01*
X19725064Y-13360728D01*
X19659275Y-13471949D01*
X19585623Y-13600857D01*
X19509392Y-13737838D01*
X19435864Y-13873278D01*
X19370323Y-13997561D01*
X19318055Y-14101072D01*
X19284341Y-14174198D01*
X19274467Y-14207322D01*
X18118802Y-14207322D01*
X18110616Y-14185225D01*
X18081521Y-14058737D01*
X18053615Y-13867457D01*
X18035759Y-13656030D01*
X18028962Y-13443438D01*
X18034229Y-13248664D01*
X18052568Y-13090690D01*
X18088905Y-12924942D01*
X18208032Y-12558891D01*
X18215311Y-12544179D01*
X18861323Y-12544179D01*
X18897003Y-12697157D01*
X18975296Y-12835018D01*
X19096146Y-12946231D01*
X19177587Y-12989780D01*
X19333003Y-13028469D01*
X19492269Y-13020984D01*
X19642726Y-12970499D01*
X19771719Y-12880184D01*
X19811275Y-12827242D01*
X19866589Y-12753209D01*
X19889597Y-12702716D01*
X19928351Y-12542737D01*
X19919326Y-12389831D01*
X19869349Y-12250255D01*
X19812469Y-12169105D01*
X20063192Y-12169105D01*
X20064627Y-12311302D01*
X20071431Y-12464030D01*
X20082840Y-12613682D01*
X20098091Y-12746649D01*
X20116420Y-12849322D01*
X20137065Y-12908093D01*
X20172512Y-12940745D01*
X20249271Y-12997405D01*
X20342828Y-13061169D01*
X20358556Y-13071889D01*
X20491814Y-13158370D01*
X20640494Y-13251024D01*
X20643578Y-13252909D01*
X20789698Y-13343048D01*
X20918415Y-13424049D01*
X21021762Y-13490769D01*
X21091774Y-13538068D01*
X21120482Y-13560804D01*
X21120882Y-13561696D01*
X21111655Y-13598509D01*
X21078202Y-13673467D01*
X21025554Y-13776134D01*
X20958746Y-13896077D01*
X20872270Y-14052032D01*
X20804506Y-14194675D01*
X20768813Y-14306316D01*
X20763713Y-14394851D01*
X20787730Y-14468177D01*
X20839388Y-14534187D01*
X20926291Y-14597355D01*
X21042472Y-14622417D01*
X21168996Y-14591045D01*
X21181545Y-14585344D01*
X21204314Y-14573505D01*
X21226050Y-14556469D01*
X21251037Y-14527875D01*
X21283563Y-14481367D01*
X21327912Y-14410586D01*
X21388371Y-14309172D01*
X21469223Y-14170768D01*
X21574756Y-13989015D01*
X21630889Y-13891624D01*
X21714040Y-13742795D01*
X21772268Y-13629875D01*
X21809390Y-13544599D01*
X21829218Y-13478701D01*
X21835570Y-13423915D01*
X21835674Y-13416275D01*
X21833061Y-13358682D01*
X21819748Y-13308823D01*
X21789436Y-13260256D01*
X21735821Y-13206535D01*
X21652602Y-13141216D01*
X21533478Y-13057855D01*
X21372147Y-12950008D01*
X21304852Y-12904898D01*
X21192619Y-12826896D01*
X21106315Y-12763172D01*
X21053419Y-12719355D01*
X21041406Y-12701072D01*
X21073963Y-12711454D01*
X21144046Y-12748633D01*
X21240757Y-12806752D01*
X21353592Y-12879798D01*
X21635801Y-13068517D01*
X22060312Y-13068517D01*
X22082934Y-13068524D01*
X22245533Y-13068390D01*
X22358858Y-13065368D01*
X22430288Y-13055851D01*
X22467204Y-13036234D01*
X22476986Y-13002910D01*
X22467013Y-12952273D01*
X22444667Y-12880718D01*
X22384878Y-12723269D01*
X22263998Y-12491304D01*
X22112051Y-12266473D01*
X21940761Y-12065525D01*
X21761853Y-11905211D01*
X21587391Y-11774066D01*
X20920651Y-11774066D01*
X20777835Y-11774210D01*
X20579029Y-11775764D01*
X20426437Y-11780310D01*
X20312957Y-11789405D01*
X20231491Y-11804605D01*
X20174938Y-11827469D01*
X20136199Y-11859553D01*
X20108172Y-11902414D01*
X20083760Y-11957610D01*
X20079477Y-11970740D01*
X20067887Y-12051049D01*
X20063192Y-12169105D01*
X19812469Y-12169105D01*
X19785246Y-12130266D01*
X19673844Y-12036118D01*
X19541967Y-11974070D01*
X19396444Y-11950377D01*
X19244100Y-11971295D01*
X19091762Y-12043080D01*
X19010518Y-12109885D01*
X18918024Y-12239010D01*
X18868311Y-12387619D01*
X18861323Y-12544179D01*
X18215311Y-12544179D01*
X18373870Y-12223722D01*
X18584668Y-11922122D01*
X18838676Y-11656777D01*
X19134145Y-11430375D01*
X19325645Y-11317104D01*
X19396444Y-11285840D01*
X19664598Y-11167426D01*
X20017718Y-11070249D01*
X20379009Y-11025695D01*
X20742473Y-11033886D01*
G37*
%TO.C,G\u002A\u002A\u002A*%
G36*
X22721921Y-8842642D02*
G01*
X22721921Y-9229742D01*
X22334821Y-9229742D01*
X21947721Y-9229742D01*
X21947721Y-8842642D01*
X21947721Y-8455542D01*
X22334821Y-8455542D01*
X22721921Y-8455542D01*
X22721921Y-8842642D01*
G37*
G36*
X22721921Y-3165179D02*
G01*
X22721921Y-3552279D01*
X22334821Y-3552279D01*
X21947721Y-3552279D01*
X21947721Y-3165179D01*
X21947721Y-2778079D01*
X22334821Y-2778079D01*
X22721921Y-2778079D01*
X22721921Y-3165179D01*
G37*
G36*
X21689655Y-5487777D02*
G01*
X21689655Y-5616811D01*
X21431588Y-5616811D01*
X21173522Y-5616811D01*
X21173522Y-5487777D01*
X21173522Y-5358744D01*
X21431588Y-5358744D01*
X21689655Y-5358744D01*
X21689655Y-5487777D01*
G37*
G36*
X21173522Y-3810345D02*
G01*
X21173522Y-4068412D01*
X21044489Y-4068412D01*
X20915455Y-4068412D01*
X20915455Y-3810345D01*
X20915455Y-3552279D01*
X21044489Y-3552279D01*
X21173522Y-3552279D01*
X21173522Y-3810345D01*
G37*
G36*
X19625123Y-2907112D02*
G01*
X19625123Y-3036146D01*
X19496090Y-3036146D01*
X19367056Y-3036146D01*
X19367056Y-2907112D01*
X19367056Y-2778079D01*
X19496090Y-2778079D01*
X19625123Y-2778079D01*
X19625123Y-2907112D01*
G37*
G36*
X19367056Y-7552309D02*
G01*
X19367056Y-7681343D01*
X19238023Y-7681343D01*
X19108990Y-7681343D01*
X19108990Y-7552309D01*
X19108990Y-7423276D01*
X19238023Y-7423276D01*
X19367056Y-7423276D01*
X19367056Y-7552309D01*
G37*
G36*
X18850923Y-7552309D02*
G01*
X18850923Y-7681343D01*
X18721890Y-7681343D01*
X18592857Y-7681343D01*
X18592857Y-7552309D01*
X18592857Y-7423276D01*
X18721890Y-7423276D01*
X18850923Y-7423276D01*
X18850923Y-7552309D01*
G37*
G36*
X18850923Y-3165179D02*
G01*
X18850923Y-3294212D01*
X18721890Y-3294212D01*
X18592857Y-3294212D01*
X18592857Y-3165179D01*
X18592857Y-3036146D01*
X18721890Y-3036146D01*
X18850923Y-3036146D01*
X18850923Y-3165179D01*
G37*
G36*
X18334790Y-5229711D02*
G01*
X18334790Y-5358744D01*
X18205757Y-5358744D01*
X18076724Y-5358744D01*
X18076724Y-5229711D01*
X18076724Y-5100678D01*
X18205757Y-5100678D01*
X18334790Y-5100678D01*
X18334790Y-5229711D01*
G37*
G36*
X17560591Y-8068442D02*
G01*
X17560591Y-8197476D01*
X17431558Y-8197476D01*
X17302524Y-8197476D01*
X17302524Y-8068442D01*
X17302524Y-7939409D01*
X17431558Y-7939409D01*
X17560591Y-7939409D01*
X17560591Y-8068442D01*
G37*
G36*
X17044458Y-3165179D02*
G01*
X17044458Y-3552279D01*
X16657358Y-3552279D01*
X16270258Y-3552279D01*
X16270258Y-3165179D01*
X16270258Y-2778079D01*
X16657358Y-2778079D01*
X17044458Y-2778079D01*
X17044458Y-3165179D01*
G37*
G36*
X16270258Y-4455511D02*
G01*
X16270258Y-4584545D01*
X16141225Y-4584545D01*
X16012192Y-4584545D01*
X16012192Y-4455511D01*
X16012192Y-4326478D01*
X16141225Y-4326478D01*
X16270258Y-4326478D01*
X16270258Y-4455511D01*
G37*
G36*
X16012192Y-6778110D02*
G01*
X16012192Y-6907143D01*
X15883159Y-6907143D01*
X15754125Y-6907143D01*
X15754125Y-6778110D01*
X15754125Y-6649077D01*
X15883159Y-6649077D01*
X16012192Y-6649077D01*
X16012192Y-6778110D01*
G37*
G36*
X16012192Y-5745844D02*
G01*
X16012192Y-5874877D01*
X15883159Y-5874877D01*
X15754125Y-5874877D01*
X15754125Y-5745844D01*
X15754125Y-5616811D01*
X15883159Y-5616811D01*
X16012192Y-5616811D01*
X16012192Y-5745844D01*
G37*
G36*
X16012192Y-4713578D02*
G01*
X16012192Y-4842611D01*
X15883159Y-4842611D01*
X15754125Y-4842611D01*
X15754125Y-4713578D01*
X15754125Y-4584545D01*
X15883159Y-4584545D01*
X16012192Y-4584545D01*
X16012192Y-4713578D01*
G37*
G36*
X20786422Y-6391010D02*
G01*
X20915455Y-6391010D01*
X20915455Y-6520043D01*
X20915455Y-6649077D01*
X20786422Y-6649077D01*
X20657389Y-6649077D01*
X20657389Y-6520043D01*
X20657389Y-6391010D01*
X20786422Y-6391010D01*
G37*
G36*
X20657389Y-6261977D02*
G01*
X20657389Y-6391010D01*
X20528356Y-6391010D01*
X20399322Y-6391010D01*
X20399322Y-6261977D01*
X20399322Y-6132944D01*
X20528356Y-6132944D01*
X20657389Y-6132944D01*
X20657389Y-6261977D01*
G37*
G36*
X19496090Y-7165210D02*
G01*
X19625123Y-7165210D01*
X19625123Y-7294243D01*
X19625123Y-7423276D01*
X19496090Y-7423276D01*
X19367056Y-7423276D01*
X19367056Y-7294243D01*
X19367056Y-7165210D01*
X19496090Y-7165210D01*
G37*
G36*
X19367056Y-7036176D02*
G01*
X19367056Y-7165210D01*
X19238023Y-7165210D01*
X19108990Y-7165210D01*
X19108990Y-7036176D01*
X19108990Y-6907143D01*
X19238023Y-6907143D01*
X19367056Y-6907143D01*
X19367056Y-7036176D01*
G37*
G36*
X23238054Y-8842642D02*
G01*
X23238054Y-9745875D01*
X22334821Y-9745875D01*
X21431588Y-9745875D01*
X21431588Y-9487808D01*
X21689655Y-9487808D01*
X22334821Y-9487808D01*
X22979987Y-9487808D01*
X22979987Y-8842642D01*
X22979987Y-8197476D01*
X22334821Y-8197476D01*
X21689655Y-8197476D01*
X21689655Y-8842642D01*
X21689655Y-9487808D01*
X21431588Y-9487808D01*
X21431588Y-8842642D01*
X21431588Y-7939409D01*
X22334821Y-7939409D01*
X23238054Y-7939409D01*
X23238054Y-8197476D01*
X23238054Y-8842642D01*
G37*
G36*
X23238054Y-3165179D02*
G01*
X23238054Y-4068412D01*
X22334821Y-4068412D01*
X21431588Y-4068412D01*
X21431588Y-3810345D01*
X21689655Y-3810345D01*
X22334821Y-3810345D01*
X22979987Y-3810345D01*
X22979987Y-3165179D01*
X22979987Y-2520013D01*
X22334821Y-2520013D01*
X21689655Y-2520013D01*
X21689655Y-3165179D01*
X21689655Y-3810345D01*
X21431588Y-3810345D01*
X21431588Y-3165179D01*
X21431588Y-2261946D01*
X22334821Y-2261946D01*
X23238054Y-2261946D01*
X23238054Y-2520013D01*
X23238054Y-3165179D01*
G37*
G36*
X17560591Y-3165179D02*
G01*
X17560591Y-4068412D01*
X16657358Y-4068412D01*
X15754125Y-4068412D01*
X15754125Y-3810345D01*
X16012192Y-3810345D01*
X16657358Y-3810345D01*
X17302524Y-3810345D01*
X17302524Y-3165179D01*
X17302524Y-2520013D01*
X16657358Y-2520013D01*
X16012192Y-2520013D01*
X16012192Y-3165179D01*
X16012192Y-3810345D01*
X15754125Y-3810345D01*
X15754125Y-3165179D01*
X15754125Y-2261946D01*
X16657358Y-2261946D01*
X17560591Y-2261946D01*
X17560591Y-2520013D01*
X17560591Y-3165179D01*
G37*
G36*
X23238054Y-4971644D02*
G01*
X23238054Y-5616811D01*
X23109021Y-5616811D01*
X22979987Y-5616811D01*
X22979987Y-5229711D01*
X22979987Y-4842611D01*
X22850954Y-4842611D01*
X22721921Y-4842611D01*
X22721921Y-4971644D01*
X22721921Y-5100678D01*
X22592888Y-5100678D01*
X22463854Y-5100678D01*
X22463854Y-4971644D01*
X22463854Y-4842611D01*
X22334821Y-4842611D01*
X22205788Y-4842611D01*
X22205788Y-4713578D01*
X22205788Y-4584545D01*
X22076755Y-4584545D01*
X21947721Y-4584545D01*
X21947721Y-4455511D01*
X21947721Y-4326478D01*
X22592888Y-4326478D01*
X23238054Y-4326478D01*
X23238054Y-4971644D01*
G37*
G36*
X18979957Y-2778079D02*
G01*
X19108990Y-2778079D01*
X19108990Y-2907112D01*
X19108990Y-3036146D01*
X18979957Y-3036146D01*
X18850923Y-3036146D01*
X18850923Y-2907112D01*
X18850923Y-2778079D01*
X18979957Y-2778079D01*
G37*
G36*
X18592857Y-2390979D02*
G01*
X18592857Y-2520013D01*
X18721890Y-2520013D01*
X18850923Y-2520013D01*
X18850923Y-2390979D01*
X18850923Y-2261946D01*
X19108990Y-2261946D01*
X19367056Y-2261946D01*
X19367056Y-2390979D01*
X19367056Y-2520013D01*
X19108990Y-2520013D01*
X18850923Y-2520013D01*
X18850923Y-2649046D01*
X18850923Y-2778079D01*
X18592857Y-2778079D01*
X18334790Y-2778079D01*
X18334790Y-2649046D01*
X18334790Y-2520013D01*
X18076724Y-2520013D01*
X17818657Y-2520013D01*
X17818657Y-2390979D01*
X17818657Y-2261946D01*
X18205757Y-2261946D01*
X18592857Y-2261946D01*
X18592857Y-2390979D01*
G37*
G36*
X21044489Y-8455542D02*
G01*
X21173522Y-8455542D01*
X21173522Y-9100708D01*
X21173522Y-9745875D01*
X20657389Y-9745875D01*
X20141256Y-9745875D01*
X20141256Y-9487808D01*
X20141256Y-9229742D01*
X20012223Y-9229742D01*
X19883189Y-9229742D01*
X19883189Y-9100708D01*
X19883189Y-8971675D01*
X20141256Y-8971675D01*
X20399322Y-8971675D01*
X20399322Y-9100708D01*
X20399322Y-9229742D01*
X20528356Y-9229742D01*
X20657389Y-9229742D01*
X20657389Y-9358775D01*
X20657389Y-9487808D01*
X20786422Y-9487808D01*
X20915455Y-9487808D01*
X20915455Y-9229742D01*
X20915455Y-8971675D01*
X20657389Y-8971675D01*
X20399322Y-8971675D01*
X20399322Y-8842642D01*
X20399322Y-8713609D01*
X20657389Y-8713609D01*
X20915455Y-8713609D01*
X20915455Y-8584575D01*
X20915455Y-8455542D01*
X21044489Y-8455542D01*
G37*
G36*
X20915455Y-8326509D02*
G01*
X20915455Y-8455542D01*
X20786422Y-8455542D01*
X20657389Y-8455542D01*
X20657389Y-8326509D01*
X20657389Y-8197476D01*
X20786422Y-8197476D01*
X20915455Y-8197476D01*
X20915455Y-8326509D01*
G37*
G36*
X21044489Y-3036146D02*
G01*
X21173522Y-3036146D01*
X21173522Y-3165179D01*
X21173522Y-3294212D01*
X20915455Y-3294212D01*
X20657389Y-3294212D01*
X20657389Y-3681312D01*
X20657389Y-4068412D01*
X20528356Y-4068412D01*
X20399322Y-4068412D01*
X20399322Y-3681312D01*
X20399322Y-3294212D01*
X20528356Y-3294212D01*
X20657389Y-3294212D01*
X20657389Y-3165179D01*
X20657389Y-3036146D01*
X20528356Y-3036146D01*
X20399322Y-3036146D01*
X20399322Y-3165179D01*
X20399322Y-3294212D01*
X20270289Y-3294212D01*
X20141256Y-3294212D01*
X20141256Y-3036146D01*
X20141256Y-2778079D01*
X20012223Y-2778079D01*
X19883189Y-2778079D01*
X19883189Y-2649046D01*
X19883189Y-2520013D01*
X20141256Y-2520013D01*
X20399322Y-2520013D01*
X20399322Y-2649046D01*
X20399322Y-2778079D01*
X20528356Y-2778079D01*
X20657389Y-2778079D01*
X20657389Y-2520013D01*
X20657389Y-2261946D01*
X20786422Y-2261946D01*
X20915455Y-2261946D01*
X20915455Y-2390979D01*
X20915455Y-2520013D01*
X21044489Y-2520013D01*
X21173522Y-2520013D01*
X21173522Y-2649046D01*
X21173522Y-2778079D01*
X21044489Y-2778079D01*
X20915455Y-2778079D01*
X20915455Y-2907112D01*
X20915455Y-3036146D01*
X21044489Y-3036146D01*
G37*
G36*
X20657389Y-7165210D02*
G01*
X20657389Y-7423276D01*
X20528356Y-7423276D01*
X20399322Y-7423276D01*
X20399322Y-7552309D01*
X20399322Y-7681343D01*
X20657389Y-7681343D01*
X20915455Y-7681343D01*
X20915455Y-7294243D01*
X20915455Y-6907143D01*
X21044489Y-6907143D01*
X21173522Y-6907143D01*
X21173522Y-7036176D01*
X21173522Y-7165210D01*
X21302555Y-7165210D01*
X21431588Y-7165210D01*
X21431588Y-7036176D01*
X21431588Y-6907143D01*
X21560622Y-6907143D01*
X21689655Y-6907143D01*
X21689655Y-7036176D01*
X21689655Y-7165210D01*
X21560622Y-7165210D01*
X21431588Y-7165210D01*
X21431588Y-7294243D01*
X21431588Y-7423276D01*
X21302555Y-7423276D01*
X21173522Y-7423276D01*
X21173522Y-7810376D01*
X21173522Y-8197476D01*
X21044489Y-8197476D01*
X20915455Y-8197476D01*
X20915455Y-8068442D01*
X20915455Y-7939409D01*
X20657389Y-7939409D01*
X20399322Y-7939409D01*
X20399322Y-7810376D01*
X20399322Y-7681343D01*
X20270289Y-7681343D01*
X20141256Y-7681343D01*
X20141256Y-7423276D01*
X20141256Y-7165210D01*
X20012223Y-7165210D01*
X19883189Y-7165210D01*
X19883189Y-7036176D01*
X19883189Y-6907143D01*
X20270289Y-6907143D01*
X20657389Y-6907143D01*
X20657389Y-7165210D01*
G37*
G36*
X21818688Y-7423276D02*
G01*
X22205788Y-7423276D01*
X22205788Y-7552309D01*
X22205788Y-7681343D01*
X21818688Y-7681343D01*
X21431588Y-7681343D01*
X21431588Y-7552309D01*
X21431588Y-7423276D01*
X21818688Y-7423276D01*
G37*
G36*
X21431588Y-6778110D02*
G01*
X21431588Y-6907143D01*
X21302555Y-6907143D01*
X21173522Y-6907143D01*
X21173522Y-6778110D01*
X21173522Y-6649077D01*
X21302555Y-6649077D01*
X21431588Y-6649077D01*
X21431588Y-6778110D01*
G37*
G36*
X21431588Y-4713578D02*
G01*
X21431588Y-4842611D01*
X21560622Y-4842611D01*
X21689655Y-4842611D01*
X21689655Y-4971644D01*
X21689655Y-5100678D01*
X21818688Y-5100678D01*
X21947721Y-5100678D01*
X21947721Y-4971644D01*
X21947721Y-4842611D01*
X22076755Y-4842611D01*
X22205788Y-4842611D01*
X22205788Y-4971644D01*
X22205788Y-5100678D01*
X22334821Y-5100678D01*
X22463854Y-5100678D01*
X22463854Y-5229711D01*
X22463854Y-5358744D01*
X22334821Y-5358744D01*
X22205788Y-5358744D01*
X22205788Y-5487777D01*
X22205788Y-5616811D01*
X22334821Y-5616811D01*
X22463854Y-5616811D01*
X22463854Y-5745844D01*
X22463854Y-5874877D01*
X22592888Y-5874877D01*
X22721921Y-5874877D01*
X22721921Y-5745844D01*
X22721921Y-5616811D01*
X22850954Y-5616811D01*
X22979987Y-5616811D01*
X22979987Y-5745844D01*
X22979987Y-5874877D01*
X22850954Y-5874877D01*
X22721921Y-5874877D01*
X22721921Y-6132944D01*
X22721921Y-6391010D01*
X22850954Y-6391010D01*
X22979987Y-6391010D01*
X22979987Y-6132944D01*
X22979987Y-5874877D01*
X23109021Y-5874877D01*
X23238054Y-5874877D01*
X23238054Y-6649077D01*
X23238054Y-6778110D01*
X23238054Y-7681343D01*
X23109021Y-7681343D01*
X22979987Y-7681343D01*
X22979987Y-7294243D01*
X22979987Y-6907143D01*
X22850954Y-6907143D01*
X22721921Y-6907143D01*
X22721921Y-7036176D01*
X22721921Y-7165210D01*
X22463854Y-7165210D01*
X22205788Y-7165210D01*
X22205788Y-7036176D01*
X22205788Y-6907143D01*
X22463854Y-6907143D01*
X22592888Y-6907143D01*
X22721921Y-6907143D01*
X22721921Y-6778110D01*
X22721921Y-6649077D01*
X22592888Y-6649077D01*
X22463854Y-6649077D01*
X22463854Y-6778110D01*
X22463854Y-6907143D01*
X22205788Y-6907143D01*
X22076755Y-6907143D01*
X21947721Y-6907143D01*
X21947721Y-6649077D01*
X21947721Y-6391010D01*
X22076755Y-6391010D01*
X22205788Y-6391010D01*
X22205788Y-6520043D01*
X22205788Y-6649077D01*
X22334821Y-6649077D01*
X22463854Y-6649077D01*
X22463854Y-6391010D01*
X22463854Y-6132944D01*
X21947721Y-6132944D01*
X21431588Y-6132944D01*
X21431588Y-6261977D01*
X21431588Y-6391010D01*
X21302555Y-6391010D01*
X21173522Y-6391010D01*
X21173522Y-6261977D01*
X21173522Y-6132944D01*
X20915455Y-6132944D01*
X20657389Y-6132944D01*
X20657389Y-6003910D01*
X20657389Y-5874877D01*
X20528356Y-5874877D01*
X20399322Y-5874877D01*
X20399322Y-5745844D01*
X20399322Y-5616811D01*
X20528356Y-5616811D01*
X20657389Y-5616811D01*
X20657389Y-5487777D01*
X20657389Y-5358744D01*
X20915455Y-5358744D01*
X20915455Y-5487777D01*
X20915455Y-5874877D01*
X21431588Y-5874877D01*
X21947721Y-5874877D01*
X21947721Y-5616811D01*
X21947721Y-5358744D01*
X21818688Y-5358744D01*
X21689655Y-5358744D01*
X21689655Y-5229711D01*
X21689655Y-5100678D01*
X21302555Y-5100678D01*
X20915455Y-5100678D01*
X20915455Y-5358744D01*
X20657389Y-5358744D01*
X20528356Y-5358744D01*
X20399322Y-5358744D01*
X20399322Y-5487777D01*
X20399322Y-5616811D01*
X20270289Y-5616811D01*
X20141256Y-5616811D01*
X20141256Y-5745844D01*
X20141256Y-5874877D01*
X20012223Y-5874877D01*
X19883189Y-5874877D01*
X19883189Y-6003910D01*
X19883189Y-6132944D01*
X20012223Y-6132944D01*
X20141256Y-6132944D01*
X20141256Y-6391010D01*
X20141256Y-6649077D01*
X20012223Y-6649077D01*
X19883189Y-6649077D01*
X19883189Y-6520043D01*
X19883189Y-6391010D01*
X19754156Y-6391010D01*
X19625123Y-6391010D01*
X19625123Y-6520043D01*
X19625123Y-6649077D01*
X19367056Y-6649077D01*
X19108990Y-6649077D01*
X19108990Y-6778110D01*
X19108990Y-6907143D01*
X18979957Y-6907143D01*
X18850923Y-6907143D01*
X18850923Y-7036176D01*
X18850923Y-7165210D01*
X18721890Y-7165210D01*
X18592857Y-7165210D01*
X18592857Y-7036176D01*
X18592857Y-6907143D01*
X18334790Y-6907143D01*
X18076724Y-6907143D01*
X18076724Y-6649077D01*
X18076724Y-6391010D01*
X17947691Y-6391010D01*
X17818657Y-6391010D01*
X17818657Y-6649077D01*
X17818657Y-6907143D01*
X17689624Y-6907143D01*
X17560591Y-6907143D01*
X17560591Y-7036176D01*
X17560591Y-7165210D01*
X17689624Y-7165210D01*
X17818657Y-7165210D01*
X17818657Y-7036176D01*
X17818657Y-6907143D01*
X17947691Y-6907143D01*
X18076724Y-6907143D01*
X18076724Y-7165210D01*
X18076724Y-7423276D01*
X18205757Y-7423276D01*
X18334790Y-7423276D01*
X18334790Y-7552309D01*
X18334790Y-7681343D01*
X18205757Y-7681343D01*
X18076724Y-7681343D01*
X18076724Y-7810376D01*
X18076724Y-7939409D01*
X18205757Y-7939409D01*
X18334790Y-7939409D01*
X18334790Y-7810376D01*
X18334790Y-7681343D01*
X18463824Y-7681343D01*
X18592857Y-7681343D01*
X18592857Y-7810376D01*
X18592857Y-7939409D01*
X18721890Y-7939409D01*
X18850923Y-7939409D01*
X18850923Y-7810376D01*
X18850923Y-7681343D01*
X18979957Y-7681343D01*
X19108990Y-7681343D01*
X19108990Y-7810376D01*
X19108990Y-7939409D01*
X19238023Y-7939409D01*
X19367056Y-7939409D01*
X19367056Y-7810376D01*
X19367056Y-7681343D01*
X19754156Y-7681343D01*
X20141256Y-7681343D01*
X20141256Y-7810376D01*
X20141256Y-7939409D01*
X20012223Y-7939409D01*
X19883189Y-7939409D01*
X19883189Y-8068442D01*
X19883189Y-8197476D01*
X20012223Y-8197476D01*
X20141256Y-8197476D01*
X20141256Y-8455542D01*
X20141256Y-8713609D01*
X20012223Y-8713609D01*
X19883189Y-8713609D01*
X19883189Y-8584575D01*
X19883189Y-8455542D01*
X19754156Y-8455542D01*
X19625123Y-8455542D01*
X19625123Y-8584575D01*
X19625123Y-8713609D01*
X19496090Y-8713609D01*
X19367056Y-8713609D01*
X19367056Y-8584575D01*
X19367056Y-8455542D01*
X19496090Y-8455542D01*
X19625123Y-8455542D01*
X19625123Y-8326509D01*
X19625123Y-8197476D01*
X19496090Y-8197476D01*
X19367056Y-8197476D01*
X19367056Y-8326509D01*
X19367056Y-8455542D01*
X19238023Y-8455542D01*
X19108990Y-8455542D01*
X19108990Y-8326509D01*
X19108990Y-8197476D01*
X18721890Y-8197476D01*
X18334790Y-8197476D01*
X18334790Y-8326509D01*
X18334790Y-8455542D01*
X18205757Y-8455542D01*
X18076724Y-8455542D01*
X18076724Y-8584575D01*
X18076724Y-8713609D01*
X18205757Y-8713609D01*
X18334790Y-8713609D01*
X18334790Y-8842642D01*
X18334790Y-8971675D01*
X18463824Y-8971675D01*
X18592857Y-8971675D01*
X18592857Y-9229742D01*
X18592857Y-9487808D01*
X18721890Y-9487808D01*
X18850923Y-9487808D01*
X18850923Y-9358775D01*
X18850923Y-9229742D01*
X18979957Y-9229742D01*
X19108990Y-9229742D01*
X19108990Y-9100708D01*
X19108990Y-8971675D01*
X19238023Y-8971675D01*
X19367056Y-8971675D01*
X19367056Y-9100708D01*
X19367056Y-9229742D01*
X19496090Y-9229742D01*
X19625123Y-9229742D01*
X19625123Y-9358775D01*
X19625123Y-9487808D01*
X19496090Y-9487808D01*
X19367056Y-9487808D01*
X19367056Y-9616841D01*
X19367056Y-9745875D01*
X18979957Y-9745875D01*
X18592857Y-9745875D01*
X18592857Y-9616841D01*
X18592857Y-9487808D01*
X18463824Y-9487808D01*
X18334790Y-9487808D01*
X18334790Y-9616841D01*
X18334790Y-9745875D01*
X18205757Y-9745875D01*
X18076724Y-9745875D01*
X18076724Y-9616841D01*
X18076724Y-9487808D01*
X17818657Y-9487808D01*
X17560591Y-9487808D01*
X17560591Y-9616841D01*
X17560591Y-9745875D01*
X17173491Y-9745875D01*
X16786391Y-9745875D01*
X16786391Y-9616841D01*
X16786391Y-9487808D01*
X16657358Y-9487808D01*
X16528325Y-9487808D01*
X16528325Y-9616841D01*
X16528325Y-9745875D01*
X16399292Y-9745875D01*
X16270258Y-9745875D01*
X16270258Y-9616841D01*
X16270258Y-9487808D01*
X16399292Y-9487808D01*
X16528325Y-9487808D01*
X16528325Y-9358775D01*
X16528325Y-9229742D01*
X16786391Y-9229742D01*
X16786391Y-9358775D01*
X16786391Y-9487808D01*
X16915425Y-9487808D01*
X17044458Y-9487808D01*
X17044458Y-9358775D01*
X17044458Y-9229742D01*
X17302524Y-9229742D01*
X17302524Y-9358775D01*
X17302524Y-9487808D01*
X17431558Y-9487808D01*
X17560591Y-9487808D01*
X17560591Y-9358775D01*
X17560591Y-9229742D01*
X18076724Y-9229742D01*
X18076724Y-9358775D01*
X18076724Y-9487808D01*
X18205757Y-9487808D01*
X18334790Y-9487808D01*
X18334790Y-9358775D01*
X18334790Y-9229742D01*
X18205757Y-9229742D01*
X18076724Y-9229742D01*
X17560591Y-9229742D01*
X17431558Y-9229742D01*
X17302524Y-9229742D01*
X17044458Y-9229742D01*
X16915425Y-9229742D01*
X16786391Y-9229742D01*
X16528325Y-9229742D01*
X16399292Y-9229742D01*
X16270258Y-9229742D01*
X16270258Y-9358775D01*
X16270258Y-9487808D01*
X16141225Y-9487808D01*
X16012192Y-9487808D01*
X16012192Y-9229742D01*
X16012192Y-8971675D01*
X16786391Y-8971675D01*
X17302524Y-8971675D01*
X17818657Y-8971675D01*
X17818657Y-8842642D01*
X17818657Y-8713609D01*
X17302524Y-8713609D01*
X16786391Y-8713609D01*
X16786391Y-8842642D01*
X16786391Y-8971675D01*
X16012192Y-8971675D01*
X15883159Y-8971675D01*
X15754125Y-8971675D01*
X15754125Y-8842642D01*
X15754125Y-8713609D01*
X15883159Y-8713609D01*
X16012192Y-8713609D01*
X16012192Y-8584575D01*
X16012192Y-8455542D01*
X16270258Y-8455542D01*
X16528325Y-8455542D01*
X16528325Y-8584575D01*
X16528325Y-8713609D01*
X16657358Y-8713609D01*
X16786391Y-8713609D01*
X16786391Y-8455542D01*
X17044458Y-8455542D01*
X17431558Y-8455542D01*
X17818657Y-8455542D01*
X17818657Y-8068442D01*
X17818657Y-7681343D01*
X17431558Y-7681343D01*
X17044458Y-7681343D01*
X17044458Y-8068442D01*
X17044458Y-8455542D01*
X16786391Y-8455542D01*
X16786391Y-8197476D01*
X16528325Y-8197476D01*
X16270258Y-8197476D01*
X16270258Y-8068442D01*
X16270258Y-7939409D01*
X16012192Y-7939409D01*
X15754125Y-7939409D01*
X15754125Y-7681343D01*
X15754125Y-7423276D01*
X15883159Y-7423276D01*
X16012192Y-7423276D01*
X16012192Y-7294243D01*
X16012192Y-7165210D01*
X16141225Y-7165210D01*
X16270258Y-7165210D01*
X16270258Y-7294243D01*
X16270258Y-7423276D01*
X16399292Y-7423276D01*
X16528325Y-7423276D01*
X16528325Y-7552309D01*
X16528325Y-7681343D01*
X16657358Y-7681343D01*
X16786391Y-7681343D01*
X16786391Y-7552309D01*
X16786391Y-7423276D01*
X17044458Y-7423276D01*
X17302524Y-7423276D01*
X17302524Y-7294243D01*
X17302524Y-7165210D01*
X17044458Y-7165210D01*
X16786391Y-7165210D01*
X16786391Y-6907143D01*
X16786391Y-6649077D01*
X16657358Y-6649077D01*
X16528325Y-6649077D01*
X16528325Y-6907143D01*
X16528325Y-7165210D01*
X16399292Y-7165210D01*
X16270258Y-7165210D01*
X16270258Y-6778110D01*
X16270258Y-6391010D01*
X16528325Y-6391010D01*
X16786391Y-6391010D01*
X16786391Y-6520043D01*
X16786391Y-6649077D01*
X16915425Y-6649077D01*
X17044458Y-6649077D01*
X17044458Y-6520043D01*
X17044458Y-6391010D01*
X17302524Y-6391010D01*
X17302524Y-6520043D01*
X17302524Y-6649077D01*
X17431558Y-6649077D01*
X17560591Y-6649077D01*
X17560591Y-6520043D01*
X17560591Y-6391010D01*
X17431558Y-6391010D01*
X17302524Y-6391010D01*
X17044458Y-6391010D01*
X16915425Y-6391010D01*
X16786391Y-6391010D01*
X16786391Y-6261977D01*
X16786391Y-6132944D01*
X17044458Y-6132944D01*
X17302524Y-6132944D01*
X17560591Y-6132944D01*
X17560591Y-6003910D01*
X17560591Y-5874877D01*
X17302524Y-5874877D01*
X17044458Y-5874877D01*
X17044458Y-6003910D01*
X17044458Y-6132944D01*
X16786391Y-6132944D01*
X16528325Y-6132944D01*
X16270258Y-6132944D01*
X16270258Y-6003910D01*
X16270258Y-5874877D01*
X16528325Y-5874877D01*
X16786391Y-5874877D01*
X16786391Y-5745844D01*
X16786391Y-5616811D01*
X17560591Y-5616811D01*
X18334790Y-5616811D01*
X18334790Y-5745844D01*
X18334790Y-5874877D01*
X18205757Y-5874877D01*
X18076724Y-5874877D01*
X18076724Y-6003910D01*
X18076724Y-6132944D01*
X18205757Y-6132944D01*
X18334790Y-6132944D01*
X18334790Y-6261977D01*
X18334790Y-6391010D01*
X18721890Y-6391010D01*
X19108990Y-6391010D01*
X19108990Y-6132944D01*
X19367056Y-6132944D01*
X19367056Y-6261977D01*
X19367056Y-6391010D01*
X19496090Y-6391010D01*
X19625123Y-6391010D01*
X19625123Y-6261977D01*
X19625123Y-6132944D01*
X19496090Y-6132944D01*
X19367056Y-6132944D01*
X19108990Y-6132944D01*
X19108990Y-5874877D01*
X19238023Y-5874877D01*
X19367056Y-5874877D01*
X19367056Y-5745844D01*
X19367056Y-5616811D01*
X18979957Y-5616811D01*
X18592857Y-5616811D01*
X18592857Y-5487777D01*
X18592857Y-5358744D01*
X18850923Y-5358744D01*
X19108990Y-5358744D01*
X19108990Y-5229711D01*
X19108990Y-5100678D01*
X18721890Y-5100678D01*
X18334790Y-5100678D01*
X18334790Y-4971644D01*
X18334790Y-4842611D01*
X18205757Y-4842611D01*
X18076724Y-4842611D01*
X18076724Y-4971644D01*
X18076724Y-5100678D01*
X17947691Y-5100678D01*
X17818657Y-5100678D01*
X17818657Y-4842611D01*
X17818657Y-4584545D01*
X18076724Y-4584545D01*
X18334790Y-4584545D01*
X18334790Y-4713578D01*
X18334790Y-4842611D01*
X18592857Y-4842611D01*
X18850923Y-4842611D01*
X18850923Y-4713578D01*
X18850923Y-4584545D01*
X18721890Y-4584545D01*
X18592857Y-4584545D01*
X18592857Y-4455511D01*
X18592857Y-4326478D01*
X18721890Y-4326478D01*
X18850923Y-4326478D01*
X18850923Y-4455511D01*
X18850923Y-4584545D01*
X18979957Y-4584545D01*
X19108990Y-4584545D01*
X19108990Y-4326478D01*
X19108990Y-4068412D01*
X19238023Y-4068412D01*
X19367056Y-4068412D01*
X19367056Y-4197445D01*
X19367056Y-4326478D01*
X19496090Y-4326478D01*
X19625123Y-4326478D01*
X19625123Y-4197445D01*
X19625123Y-4068412D01*
X19754156Y-4068412D01*
X19883189Y-4068412D01*
X19883189Y-3939378D01*
X19883189Y-3810345D01*
X20012223Y-3810345D01*
X20141256Y-3810345D01*
X20141256Y-4197445D01*
X20141256Y-4584545D01*
X20012223Y-4584545D01*
X19883189Y-4584545D01*
X19883189Y-4455511D01*
X19883189Y-4326478D01*
X19754156Y-4326478D01*
X19625123Y-4326478D01*
X19625123Y-4455511D01*
X19625123Y-4584545D01*
X19367056Y-4584545D01*
X19108990Y-4584545D01*
X19108990Y-4713578D01*
X19108990Y-4842611D01*
X19238023Y-4842611D01*
X19367056Y-4842611D01*
X19367056Y-4971644D01*
X19367056Y-5100678D01*
X19496090Y-5100678D01*
X19625123Y-5100678D01*
X19625123Y-5229711D01*
X19625123Y-5358744D01*
X19496090Y-5358744D01*
X19367056Y-5358744D01*
X19367056Y-5487777D01*
X19367056Y-5616811D01*
X19754156Y-5616811D01*
X20141256Y-5616811D01*
X20141256Y-5358744D01*
X20141256Y-5100678D01*
X20012223Y-5100678D01*
X19883189Y-5100678D01*
X19883189Y-4971644D01*
X19883189Y-4842611D01*
X20141256Y-4842611D01*
X20399322Y-4842611D01*
X20399322Y-4971644D01*
X20399322Y-5100678D01*
X20528356Y-5100678D01*
X20657389Y-5100678D01*
X20657389Y-4842611D01*
X20915455Y-4842611D01*
X21044489Y-4842611D01*
X21173522Y-4842611D01*
X21173522Y-4713578D01*
X21173522Y-4584545D01*
X21044489Y-4584545D01*
X20915455Y-4584545D01*
X20915455Y-4713578D01*
X20915455Y-4842611D01*
X20657389Y-4842611D01*
X20657389Y-4584545D01*
X20528356Y-4584545D01*
X20399322Y-4584545D01*
X20399322Y-4455511D01*
X20399322Y-4326478D01*
X21044489Y-4326478D01*
X21689655Y-4326478D01*
X21689655Y-4455511D01*
X21689655Y-4584545D01*
X21560622Y-4584545D01*
X21431588Y-4584545D01*
X21431588Y-4713578D01*
G37*
G36*
X18979957Y-8713609D02*
G01*
X19108990Y-8713609D01*
X19108990Y-8842642D01*
X19108990Y-8971675D01*
X18979957Y-8971675D01*
X18850923Y-8971675D01*
X18850923Y-8842642D01*
X18850923Y-8713609D01*
X18979957Y-8713609D01*
G37*
G36*
X18850923Y-8584575D02*
G01*
X18850923Y-8713609D01*
X18721890Y-8713609D01*
X18592857Y-8713609D01*
X18592857Y-8584575D01*
X18592857Y-8455542D01*
X18721890Y-8455542D01*
X18850923Y-8455542D01*
X18850923Y-8584575D01*
G37*
G36*
X16012192Y-8326509D02*
G01*
X16012192Y-8455542D01*
X15883159Y-8455542D01*
X15754125Y-8455542D01*
X15754125Y-8326509D01*
X15754125Y-8197476D01*
X15883159Y-8197476D01*
X16012192Y-8197476D01*
X16012192Y-8326509D01*
G37*
G36*
X21560622Y-6391010D02*
G01*
X21689655Y-6391010D01*
X21689655Y-6520043D01*
X21689655Y-6649077D01*
X21560622Y-6649077D01*
X21431588Y-6649077D01*
X21431588Y-6520043D01*
X21431588Y-6391010D01*
X21560622Y-6391010D01*
G37*
G36*
X16270258Y-6261977D02*
G01*
X16270258Y-6391010D01*
X16141225Y-6391010D01*
X16012192Y-6391010D01*
X16012192Y-6261977D01*
X16012192Y-6132944D01*
X16141225Y-6132944D01*
X16270258Y-6132944D01*
X16270258Y-6261977D01*
G37*
G36*
X16270258Y-5229711D02*
G01*
X16270258Y-5358744D01*
X16399292Y-5358744D01*
X16528325Y-5358744D01*
X16528325Y-5229711D01*
X16528325Y-5100678D01*
X16657358Y-5100678D01*
X16786391Y-5100678D01*
X16786391Y-5358744D01*
X16786391Y-5616811D01*
X16528325Y-5616811D01*
X16270258Y-5616811D01*
X16270258Y-5487777D01*
X16270258Y-5358744D01*
X16141225Y-5358744D01*
X16012192Y-5358744D01*
X16012192Y-5229711D01*
X16012192Y-5100678D01*
X16141225Y-5100678D01*
X16270258Y-5100678D01*
X16270258Y-5229711D01*
G37*
G36*
X16786391Y-4455511D02*
G01*
X16786391Y-4584545D01*
X16915425Y-4584545D01*
X17044458Y-4584545D01*
X17044458Y-4455511D01*
X17044458Y-4326478D01*
X17173491Y-4326478D01*
X17302524Y-4326478D01*
X17302524Y-4455511D01*
X17302524Y-4584545D01*
X17431558Y-4584545D01*
X17560591Y-4584545D01*
X17560591Y-4455511D01*
X17560591Y-4326478D01*
X17689624Y-4326478D01*
X17818657Y-4326478D01*
X17818657Y-4455511D01*
X17818657Y-4584545D01*
X17689624Y-4584545D01*
X17560591Y-4584545D01*
X17560591Y-4713578D01*
X17560591Y-4842611D01*
X17302524Y-4842611D01*
X17044458Y-4842611D01*
X17044458Y-4971644D01*
X17044458Y-5100678D01*
X16915425Y-5100678D01*
X16786391Y-5100678D01*
X16786391Y-4842611D01*
X16786391Y-4584545D01*
X16657358Y-4584545D01*
X16528325Y-4584545D01*
X16528325Y-4455511D01*
X16528325Y-4326478D01*
X16657358Y-4326478D01*
X16786391Y-4326478D01*
X16786391Y-4455511D01*
G37*
G36*
X18463824Y-3552279D02*
G01*
X18592857Y-3552279D01*
X18592857Y-3939378D01*
X18592857Y-4326478D01*
X18463824Y-4326478D01*
X18334790Y-4326478D01*
X18334790Y-3939378D01*
X18334790Y-3552279D01*
X18463824Y-3552279D01*
G37*
G36*
X20141256Y-3423245D02*
G01*
X20141256Y-3552279D01*
X20012223Y-3552279D01*
X19883189Y-3552279D01*
X19883189Y-3681312D01*
X19883189Y-3810345D01*
X19754156Y-3810345D01*
X19625123Y-3810345D01*
X19625123Y-3939378D01*
X19625123Y-4068412D01*
X19496090Y-4068412D01*
X19367056Y-4068412D01*
X19367056Y-3939378D01*
X19367056Y-3810345D01*
X19238023Y-3810345D01*
X19108990Y-3810345D01*
X19108990Y-3939378D01*
X19108990Y-4068412D01*
X18979957Y-4068412D01*
X18850923Y-4068412D01*
X18850923Y-3810345D01*
X18850923Y-3552279D01*
X18979957Y-3552279D01*
X19108990Y-3552279D01*
X19108990Y-3423245D01*
X19108990Y-3294212D01*
X19625123Y-3294212D01*
X20141256Y-3294212D01*
X20141256Y-3423245D01*
G37*
G36*
X18205757Y-3036146D02*
G01*
X18334790Y-3036146D01*
X18334790Y-3294212D01*
X18334790Y-3552279D01*
X18205757Y-3552279D01*
X18076724Y-3552279D01*
X18076724Y-3810345D01*
X18076724Y-4068412D01*
X17947691Y-4068412D01*
X17818657Y-4068412D01*
X17818657Y-3681312D01*
X17818657Y-3294212D01*
X17947691Y-3294212D01*
X18076724Y-3294212D01*
X18076724Y-3165179D01*
X18076724Y-3036146D01*
X18205757Y-3036146D01*
G37*
G36*
X18076724Y-2907112D02*
G01*
X18076724Y-3036146D01*
X17947691Y-3036146D01*
X17818657Y-3036146D01*
X17818657Y-2907112D01*
X17818657Y-2778079D01*
X17947691Y-2778079D01*
X18076724Y-2778079D01*
X18076724Y-2907112D01*
G37*
%TO.C,REF\u002A\u002A*%
G36*
X-19574934Y-2456827D02*
G01*
X-19546146Y-2457020D01*
X-19504758Y-2457342D01*
X-19470744Y-2457697D01*
X-19443318Y-2458120D01*
X-19421690Y-2458644D01*
X-19405074Y-2459306D01*
X-19392681Y-2460139D01*
X-19383725Y-2461179D01*
X-19377415Y-2462460D01*
X-19372967Y-2464016D01*
X-19369590Y-2465884D01*
X-19360176Y-2474049D01*
X-19353867Y-2483157D01*
X-19353480Y-2484795D01*
X-19352545Y-2494476D01*
X-19351694Y-2511197D01*
X-19350959Y-2533815D01*
X-19350373Y-2561187D01*
X-19349970Y-2592170D01*
X-19349781Y-2625622D01*
X-19349758Y-2640242D01*
X-19349820Y-2678126D01*
X-19350159Y-2708543D01*
X-19350880Y-2732366D01*
X-19352087Y-2750468D01*
X-19353888Y-2763723D01*
X-19356388Y-2773004D01*
X-19359691Y-2779185D01*
X-19363904Y-2783139D01*
X-19369133Y-2785739D01*
X-19375501Y-2787480D01*
X-19391631Y-2787953D01*
X-19405883Y-2783976D01*
X-19406577Y-2783599D01*
X-19412788Y-2779399D01*
X-19417627Y-2773783D01*
X-19421261Y-2765721D01*
X-19423859Y-2754180D01*
X-19425588Y-2738130D01*
X-19426615Y-2716539D01*
X-19427108Y-2688377D01*
X-19427236Y-2652611D01*
X-19427236Y-2550918D01*
X-19609034Y-2550918D01*
X-19790833Y-2550918D01*
X-19805515Y-2536235D01*
X-19809674Y-2531847D01*
X-19817819Y-2519672D01*
X-19820181Y-2507087D01*
X-19819988Y-2502585D01*
X-19814607Y-2483685D01*
X-19802795Y-2468999D01*
X-19785842Y-2460286D01*
X-19782249Y-2459612D01*
X-19768697Y-2458434D01*
X-19746829Y-2457543D01*
X-19716582Y-2456938D01*
X-19677892Y-2456618D01*
X-19630697Y-2456581D01*
X-19574934Y-2456827D01*
G37*
G36*
X-19743781Y-3297976D02*
G01*
X-19575716Y-3297976D01*
X-19370235Y-3297976D01*
X-19355552Y-3312658D01*
X-19344047Y-3328552D01*
X-19340786Y-3345685D01*
X-19345854Y-3364646D01*
X-19346410Y-3365846D01*
X-19351145Y-3374232D01*
X-19357197Y-3380541D01*
X-19365786Y-3385095D01*
X-19378132Y-3388220D01*
X-19395454Y-3390238D01*
X-19418972Y-3391473D01*
X-19449906Y-3392248D01*
X-19526556Y-3393678D01*
X-19526630Y-3431113D01*
X-19527155Y-3459290D01*
X-19530786Y-3506661D01*
X-19538066Y-3546587D01*
X-19549230Y-3579421D01*
X-19564513Y-3605517D01*
X-19584148Y-3625228D01*
X-19608369Y-3638907D01*
X-19637411Y-3646907D01*
X-19671507Y-3649581D01*
X-19682652Y-3649554D01*
X-19699261Y-3648854D01*
X-19712072Y-3646755D01*
X-19724268Y-3642605D01*
X-19739030Y-3635753D01*
X-19752050Y-3628700D01*
X-19771279Y-3614256D01*
X-19786524Y-3595804D01*
X-19799960Y-3571034D01*
X-19801103Y-3568516D01*
X-19803714Y-3562010D01*
X-19805713Y-3554980D01*
X-19807180Y-3546267D01*
X-19808197Y-3534712D01*
X-19808846Y-3519157D01*
X-19809209Y-3498441D01*
X-19809367Y-3471407D01*
X-19809402Y-3436895D01*
X-19809402Y-3392978D01*
X-19743781Y-3392978D01*
X-19741238Y-3446797D01*
X-19739759Y-3469483D01*
X-19735889Y-3498414D01*
X-19729615Y-3520208D01*
X-19720366Y-3535703D01*
X-19707573Y-3545733D01*
X-19690665Y-3551138D01*
X-19669072Y-3552754D01*
X-19660467Y-3552435D01*
X-19639725Y-3547680D01*
X-19624001Y-3536579D01*
X-19611915Y-3518302D01*
X-19609325Y-3512510D01*
X-19605780Y-3501586D01*
X-19603372Y-3488214D01*
X-19601781Y-3470331D01*
X-19600690Y-3445877D01*
X-19598923Y-3392978D01*
X-19671352Y-3392978D01*
X-19743781Y-3392978D01*
X-19809402Y-3392978D01*
X-19809402Y-3323195D01*
X-19795299Y-3310586D01*
X-19781197Y-3297976D01*
X-19743781Y-3297976D01*
G37*
G36*
X-20669929Y-3342498D02*
G01*
X-20662483Y-3346472D01*
X-20638658Y-3364128D01*
X-20620079Y-3385963D01*
X-20608435Y-3410119D01*
X-20607214Y-3417517D01*
X-20605969Y-3433073D01*
X-20604873Y-3455227D01*
X-20603929Y-3482899D01*
X-20603144Y-3515008D01*
X-20602521Y-3550474D01*
X-20602067Y-3588217D01*
X-20601786Y-3627154D01*
X-20601682Y-3666208D01*
X-20601763Y-3704295D01*
X-20602031Y-3740337D01*
X-20602493Y-3773253D01*
X-20603153Y-3801961D01*
X-20604016Y-3825382D01*
X-20605088Y-3842435D01*
X-20606373Y-3852040D01*
X-20608570Y-3859493D01*
X-20621745Y-3885333D01*
X-20642257Y-3907347D01*
X-20669481Y-3924815D01*
X-20698776Y-3939238D01*
X-20875918Y-3939238D01*
X-20912448Y-3939226D01*
X-20953449Y-3939111D01*
X-20987338Y-3938769D01*
X-21014979Y-3938076D01*
X-21037237Y-3936910D01*
X-21054978Y-3935146D01*
X-21069066Y-3932661D01*
X-21080366Y-3929332D01*
X-21089744Y-3925034D01*
X-21098065Y-3919645D01*
X-21106193Y-3913041D01*
X-21114994Y-3905099D01*
X-21117650Y-3902672D01*
X-21124803Y-3896093D01*
X-21130817Y-3889964D01*
X-21135793Y-3883530D01*
X-21139828Y-3876032D01*
X-21143021Y-3866713D01*
X-21145472Y-3854817D01*
X-21147279Y-3839584D01*
X-21148540Y-3820260D01*
X-21149355Y-3796085D01*
X-21149822Y-3766303D01*
X-21150041Y-3730157D01*
X-21150109Y-3686889D01*
X-21150126Y-3635741D01*
X-21150144Y-3589126D01*
X-21150113Y-3545964D01*
X-21149959Y-3509957D01*
X-21149613Y-3480333D01*
X-21149003Y-3456321D01*
X-21148060Y-3437147D01*
X-21146713Y-3422041D01*
X-21144892Y-3410229D01*
X-21142525Y-3400941D01*
X-21139544Y-3393404D01*
X-21135876Y-3386845D01*
X-21131452Y-3380494D01*
X-21126201Y-3373577D01*
X-21119818Y-3366763D01*
X-21104711Y-3355129D01*
X-21086127Y-3344427D01*
X-21057560Y-3330363D01*
X-20876102Y-3330363D01*
X-20694645Y-3330363D01*
X-20669929Y-3342498D01*
G37*
G36*
X-21691387Y-3330364D02*
G01*
X-21648939Y-3330402D01*
X-21614046Y-3330518D01*
X-21585836Y-3330750D01*
X-21563440Y-3331133D01*
X-21545988Y-3331701D01*
X-21532608Y-3332492D01*
X-21522431Y-3333541D01*
X-21514587Y-3334884D01*
X-21508204Y-3336556D01*
X-21502412Y-3338593D01*
X-21485112Y-3347313D01*
X-21464373Y-3362647D01*
X-21446662Y-3380833D01*
X-21434669Y-3399455D01*
X-21434292Y-3400297D01*
X-21432552Y-3404840D01*
X-21431101Y-3410363D01*
X-21429913Y-3417631D01*
X-21428962Y-3427409D01*
X-21428221Y-3440465D01*
X-21427663Y-3457562D01*
X-21427263Y-3479467D01*
X-21426994Y-3506946D01*
X-21426830Y-3540765D01*
X-21426743Y-3581688D01*
X-21426708Y-3630482D01*
X-21426769Y-3680856D01*
X-21427029Y-3731405D01*
X-21427492Y-3773908D01*
X-21428155Y-3808246D01*
X-21429015Y-3834302D01*
X-21430071Y-3851959D01*
X-21431320Y-3861099D01*
X-21435988Y-3872236D01*
X-21448377Y-3889886D01*
X-21465347Y-3906933D01*
X-21484756Y-3921329D01*
X-21504456Y-3931021D01*
X-21504728Y-3931115D01*
X-21511199Y-3933157D01*
X-21518264Y-3934827D01*
X-21526816Y-3936162D01*
X-21537750Y-3937200D01*
X-21551958Y-3937976D01*
X-21570335Y-3938529D01*
X-21593774Y-3938894D01*
X-21623168Y-3939110D01*
X-21659412Y-3939212D01*
X-21703398Y-3939238D01*
X-21878727Y-3939238D01*
X-21908324Y-3924124D01*
X-21914510Y-3920805D01*
X-21940633Y-3902181D01*
X-21959560Y-3880002D01*
X-21970727Y-3854894D01*
X-21971729Y-3848046D01*
X-21972743Y-3831844D01*
X-21973510Y-3807155D01*
X-21974028Y-3774059D01*
X-21974298Y-3732635D01*
X-21974316Y-3682965D01*
X-21974083Y-3625128D01*
X-21972849Y-3412410D01*
X-21961059Y-3392354D01*
X-21952205Y-3379090D01*
X-21930093Y-3356606D01*
X-21901598Y-3339396D01*
X-21897897Y-3337740D01*
X-21892715Y-3335810D01*
X-21886650Y-3334249D01*
X-21878840Y-3333018D01*
X-21868424Y-3332079D01*
X-21854541Y-3331391D01*
X-21836328Y-3330917D01*
X-21812925Y-3330616D01*
X-21783470Y-3330449D01*
X-21747102Y-3330378D01*
X-21702958Y-3330363D01*
X-21691387Y-3330364D01*
G37*
G36*
X-19536079Y-1500664D02*
G01*
X-19496015Y-1509335D01*
X-19458395Y-1523273D01*
X-19424408Y-1542353D01*
X-19395244Y-1566448D01*
X-19372093Y-1595436D01*
X-19360984Y-1616459D01*
X-19350474Y-1643710D01*
X-19343854Y-1669993D01*
X-19342295Y-1684574D01*
X-19341542Y-1706599D01*
X-19341898Y-1730543D01*
X-19343300Y-1752904D01*
X-19345683Y-1770180D01*
X-19350786Y-1789205D01*
X-19364741Y-1821403D01*
X-19383915Y-1850107D01*
X-19407233Y-1874289D01*
X-19433619Y-1892921D01*
X-19461999Y-1904974D01*
X-19491296Y-1909421D01*
X-19496533Y-1909426D01*
X-19508984Y-1908391D01*
X-19517270Y-1904828D01*
X-19524763Y-1897540D01*
X-19530608Y-1888765D01*
X-19535225Y-1872589D01*
X-19533527Y-1856717D01*
X-19525476Y-1843902D01*
X-19517027Y-1837816D01*
X-19503349Y-1829910D01*
X-19487691Y-1822127D01*
X-19469950Y-1812918D01*
X-19446147Y-1794868D01*
X-19429805Y-1773090D01*
X-19420421Y-1746815D01*
X-19417488Y-1715274D01*
X-19420352Y-1686092D01*
X-19430127Y-1658161D01*
X-19446890Y-1635214D01*
X-19470690Y-1617203D01*
X-19501577Y-1604078D01*
X-19539601Y-1595791D01*
X-19560034Y-1593714D01*
X-19597948Y-1594014D01*
X-19634040Y-1599452D01*
X-19666796Y-1609628D01*
X-19694699Y-1624138D01*
X-19716237Y-1642583D01*
X-19723389Y-1651537D01*
X-19735232Y-1673552D01*
X-19741180Y-1699122D01*
X-19741758Y-1730043D01*
X-19739346Y-1749776D01*
X-19733004Y-1768888D01*
X-19721777Y-1785840D01*
X-19704558Y-1802245D01*
X-19680238Y-1819720D01*
X-19670522Y-1826145D01*
X-19655824Y-1836396D01*
X-19646570Y-1844317D01*
X-19641502Y-1851411D01*
X-19639363Y-1859179D01*
X-19638896Y-1869123D01*
X-19641334Y-1883860D01*
X-19649789Y-1896493D01*
X-19663130Y-1904257D01*
X-19680144Y-1907146D01*
X-19699617Y-1905152D01*
X-19720336Y-1898270D01*
X-19741087Y-1886491D01*
X-19760658Y-1869810D01*
X-19778917Y-1848083D01*
X-19799173Y-1813489D01*
X-19812538Y-1775885D01*
X-19819052Y-1736497D01*
X-19818757Y-1696549D01*
X-19811691Y-1657265D01*
X-19797896Y-1619869D01*
X-19777413Y-1585585D01*
X-19750281Y-1555638D01*
X-19731415Y-1540691D01*
X-19696978Y-1521151D01*
X-19659036Y-1507503D01*
X-19618779Y-1499623D01*
X-19577397Y-1497385D01*
X-19536079Y-1500664D01*
G37*
G36*
X-19557826Y-2801976D02*
G01*
X-19512342Y-2807590D01*
X-19472043Y-2819365D01*
X-19436040Y-2837606D01*
X-19403443Y-2862622D01*
X-19402237Y-2863731D01*
X-19377871Y-2890269D01*
X-19360537Y-2919026D01*
X-19348705Y-2952516D01*
X-19345091Y-2968865D01*
X-19341010Y-3009349D01*
X-19343014Y-3050464D01*
X-19350879Y-3089757D01*
X-19364382Y-3124775D01*
X-19367088Y-3129839D01*
X-19382606Y-3152244D01*
X-19401831Y-3171965D01*
X-19423492Y-3188401D01*
X-19446317Y-3200950D01*
X-19469033Y-3209009D01*
X-19490368Y-3211976D01*
X-19509050Y-3209249D01*
X-19523808Y-3200227D01*
X-19524091Y-3199940D01*
X-19532985Y-3185158D01*
X-19535303Y-3167631D01*
X-19530596Y-3150636D01*
X-19530026Y-3149765D01*
X-19522817Y-3143486D01*
X-19510359Y-3135691D01*
X-19494970Y-3127862D01*
X-19489739Y-3125417D01*
X-19461484Y-3109533D01*
X-19440934Y-3092079D01*
X-19427284Y-3071930D01*
X-19419733Y-3047960D01*
X-19417479Y-3019040D01*
X-19417701Y-3011095D01*
X-19423043Y-2979462D01*
X-19435358Y-2952746D01*
X-19454456Y-2931078D01*
X-19480143Y-2914589D01*
X-19512230Y-2903412D01*
X-19550523Y-2897676D01*
X-19594831Y-2897515D01*
X-19622719Y-2900219D01*
X-19656030Y-2907654D01*
X-19683759Y-2919738D01*
X-19707144Y-2936905D01*
X-19722120Y-2952613D01*
X-19734007Y-2971848D01*
X-19740399Y-2994013D01*
X-19742333Y-3021608D01*
X-19742333Y-3022569D01*
X-19740486Y-3047750D01*
X-19734394Y-3068681D01*
X-19723043Y-3087018D01*
X-19705418Y-3104417D01*
X-19680505Y-3122535D01*
X-19670444Y-3129363D01*
X-19656344Y-3139709D01*
X-19646134Y-3148195D01*
X-19641531Y-3153460D01*
X-19638759Y-3165857D01*
X-19641065Y-3183027D01*
X-19649664Y-3197642D01*
X-19663270Y-3207793D01*
X-19680601Y-3211569D01*
X-19689515Y-3210928D01*
X-19713425Y-3203978D01*
X-19737625Y-3190311D01*
X-19760645Y-3171075D01*
X-19781012Y-3147421D01*
X-19797255Y-3120497D01*
X-19809248Y-3090705D01*
X-19818485Y-3049588D01*
X-19820054Y-3008195D01*
X-19814147Y-2967671D01*
X-19800960Y-2929163D01*
X-19780686Y-2893816D01*
X-19753521Y-2862777D01*
X-19730079Y-2843243D01*
X-19698658Y-2824159D01*
X-19664221Y-2811161D01*
X-19625327Y-2803737D01*
X-19580534Y-2801377D01*
X-19557826Y-2801976D01*
G37*
G36*
X-19620611Y-4161683D02*
G01*
X-19585767Y-4161967D01*
X-19553512Y-4162466D01*
X-19525054Y-4163147D01*
X-19501603Y-4163980D01*
X-19484369Y-4164935D01*
X-19474562Y-4165980D01*
X-19467470Y-4167443D01*
X-19431299Y-4179323D01*
X-19401112Y-4197407D01*
X-19377004Y-4221600D01*
X-19359074Y-4251809D01*
X-19347419Y-4287942D01*
X-19344344Y-4306914D01*
X-19342024Y-4334937D01*
X-19341362Y-4364920D01*
X-19342418Y-4393394D01*
X-19345249Y-4416896D01*
X-19347738Y-4427901D01*
X-19359548Y-4459477D01*
X-19376992Y-4488080D01*
X-19398796Y-4511886D01*
X-19423683Y-4529071D01*
X-19430362Y-4532346D01*
X-19441964Y-4537235D01*
X-19454371Y-4541165D01*
X-19468562Y-4544226D01*
X-19485514Y-4546509D01*
X-19506207Y-4548101D01*
X-19531618Y-4549092D01*
X-19562727Y-4549571D01*
X-19600512Y-4549628D01*
X-19645951Y-4549352D01*
X-19795005Y-4548112D01*
X-19807601Y-4534010D01*
X-19813664Y-4525791D01*
X-19819894Y-4508162D01*
X-19818498Y-4490553D01*
X-19809826Y-4474824D01*
X-19794228Y-4462833D01*
X-19791370Y-4461525D01*
X-19785759Y-4459672D01*
X-19778313Y-4458221D01*
X-19768061Y-4457124D01*
X-19754030Y-4456333D01*
X-19735250Y-4455800D01*
X-19710748Y-4455479D01*
X-19679553Y-4455320D01*
X-19640694Y-4455277D01*
X-19608753Y-4455229D01*
X-19571202Y-4454948D01*
X-19540646Y-4454304D01*
X-19516133Y-4453168D01*
X-19496708Y-4451415D01*
X-19481418Y-4448918D01*
X-19469311Y-4445551D01*
X-19459433Y-4441186D01*
X-19450831Y-4435698D01*
X-19442552Y-4428959D01*
X-19432607Y-4418395D01*
X-19423491Y-4401636D01*
X-19418580Y-4380237D01*
X-19417308Y-4352483D01*
X-19419814Y-4324338D01*
X-19427383Y-4301039D01*
X-19440499Y-4283168D01*
X-19459659Y-4269754D01*
X-19480948Y-4258789D01*
X-19634379Y-4256630D01*
X-19640062Y-4256549D01*
X-19679970Y-4255943D01*
X-19712244Y-4255341D01*
X-19737771Y-4254693D01*
X-19757441Y-4253944D01*
X-19772142Y-4253043D01*
X-19782761Y-4251936D01*
X-19790189Y-4250570D01*
X-19795312Y-4248894D01*
X-19799020Y-4246853D01*
X-19804012Y-4243035D01*
X-19815811Y-4227955D01*
X-19820105Y-4210598D01*
X-19816729Y-4192779D01*
X-19805515Y-4176310D01*
X-19790833Y-4161628D01*
X-19644170Y-4161628D01*
X-19620611Y-4161683D01*
G37*
G36*
X-19364513Y-1966519D02*
G01*
X-19349361Y-1979915D01*
X-19344395Y-1988263D01*
X-19340707Y-2004795D01*
X-19343164Y-2021240D01*
X-19351637Y-2034480D01*
X-19358481Y-2039167D01*
X-19372149Y-2046387D01*
X-19390004Y-2054590D01*
X-19409933Y-2062750D01*
X-19457463Y-2081042D01*
X-19457463Y-2174907D01*
X-19457463Y-2268773D01*
X-19409863Y-2287349D01*
X-19402436Y-2290296D01*
X-19377646Y-2301271D01*
X-19360079Y-2311540D01*
X-19348751Y-2321948D01*
X-19342676Y-2333341D01*
X-19340870Y-2346563D01*
X-19341397Y-2353464D01*
X-19345812Y-2364786D01*
X-19356101Y-2377008D01*
X-19360072Y-2380897D01*
X-19369151Y-2388139D01*
X-19377737Y-2390735D01*
X-19389567Y-2390154D01*
X-19390317Y-2390033D01*
X-19399101Y-2387482D01*
X-19414696Y-2382067D01*
X-19436113Y-2374187D01*
X-19462363Y-2364236D01*
X-19492456Y-2352613D01*
X-19525404Y-2339714D01*
X-19560217Y-2325935D01*
X-19595907Y-2311673D01*
X-19631485Y-2297326D01*
X-19665960Y-2283289D01*
X-19698345Y-2269960D01*
X-19727650Y-2257735D01*
X-19752885Y-2247011D01*
X-19773063Y-2238185D01*
X-19787194Y-2231654D01*
X-19794288Y-2227813D01*
X-19799080Y-2223840D01*
X-19811541Y-2207016D01*
X-19818564Y-2186449D01*
X-19819033Y-2175697D01*
X-19711251Y-2175697D01*
X-19706110Y-2177917D01*
X-19694267Y-2182527D01*
X-19677329Y-2188912D01*
X-19656760Y-2196540D01*
X-19634026Y-2204877D01*
X-19610593Y-2213392D01*
X-19587925Y-2221552D01*
X-19567488Y-2228826D01*
X-19550748Y-2234681D01*
X-19539170Y-2238584D01*
X-19534219Y-2240003D01*
X-19533550Y-2238654D01*
X-19532490Y-2230328D01*
X-19531641Y-2215673D01*
X-19531078Y-2196158D01*
X-19530874Y-2173254D01*
X-19530874Y-2106504D01*
X-19585932Y-2126175D01*
X-19609038Y-2134414D01*
X-19635129Y-2143688D01*
X-19659503Y-2152325D01*
X-19678953Y-2159186D01*
X-19686480Y-2161907D01*
X-19701800Y-2168155D01*
X-19710310Y-2172881D01*
X-19711251Y-2175697D01*
X-19819033Y-2175697D01*
X-19819505Y-2164870D01*
X-19813724Y-2145010D01*
X-19811671Y-2141389D01*
X-19801897Y-2129588D01*
X-19787171Y-2118502D01*
X-19766315Y-2107357D01*
X-19738150Y-2095382D01*
X-19729192Y-2091864D01*
X-19669781Y-2068539D01*
X-19617840Y-2048158D01*
X-19572872Y-2030529D01*
X-19534379Y-2015458D01*
X-19530874Y-2014088D01*
X-19501867Y-2002752D01*
X-19474837Y-1992217D01*
X-19452794Y-1983661D01*
X-19435240Y-1976890D01*
X-19421680Y-1971710D01*
X-19411617Y-1967929D01*
X-19404553Y-1965354D01*
X-19399993Y-1963790D01*
X-19382198Y-1961302D01*
X-19364513Y-1966519D01*
G37*
G36*
X-19468564Y-3713741D02*
G01*
X-19444955Y-3718617D01*
X-19416818Y-3731912D01*
X-19390417Y-3753439D01*
X-19372986Y-3773810D01*
X-19358021Y-3800395D01*
X-19347598Y-3832405D01*
X-19345977Y-3840066D01*
X-19342665Y-3866271D01*
X-19341383Y-3895889D01*
X-19342207Y-3925210D01*
X-19345211Y-3950524D01*
X-19346045Y-3954680D01*
X-19356058Y-3986117D01*
X-19371541Y-4015203D01*
X-19391296Y-4040373D01*
X-19414124Y-4060063D01*
X-19438826Y-4072707D01*
X-19459211Y-4077304D01*
X-19484660Y-4079319D01*
X-19510255Y-4078393D01*
X-19531892Y-4074448D01*
X-19533388Y-4073973D01*
X-19552032Y-4064406D01*
X-19571054Y-4048961D01*
X-19588217Y-4029751D01*
X-19601285Y-4008886D01*
X-19601337Y-4008780D01*
X-19607110Y-3995069D01*
X-19614120Y-3975594D01*
X-19621488Y-3952934D01*
X-19628333Y-3929667D01*
X-19628729Y-3928237D01*
X-19635114Y-3905673D01*
X-19641321Y-3884488D01*
X-19646661Y-3867001D01*
X-19650440Y-3855532D01*
X-19658676Y-3837640D01*
X-19671705Y-3821098D01*
X-19686397Y-3811829D01*
X-19701707Y-3809480D01*
X-19716593Y-3813703D01*
X-19730009Y-3824146D01*
X-19740914Y-3840459D01*
X-19748262Y-3862292D01*
X-19751010Y-3889294D01*
X-19749224Y-3913913D01*
X-19742387Y-3935214D01*
X-19729505Y-3952473D01*
X-19709608Y-3967521D01*
X-19705470Y-3970069D01*
X-19687255Y-3981777D01*
X-19675204Y-3990900D01*
X-19668100Y-3998713D01*
X-19664730Y-4006492D01*
X-19663876Y-4015512D01*
X-19666062Y-4032649D01*
X-19674274Y-4046793D01*
X-19689285Y-4056441D01*
X-19702438Y-4059916D01*
X-19723432Y-4058709D01*
X-19744908Y-4050483D01*
X-19765620Y-4035975D01*
X-19784324Y-4015920D01*
X-19799773Y-3991057D01*
X-19807338Y-3973314D01*
X-19816391Y-3939295D01*
X-19820130Y-3903235D01*
X-19818777Y-3866753D01*
X-19812550Y-3831462D01*
X-19801670Y-3798981D01*
X-19786356Y-3770925D01*
X-19766828Y-3748910D01*
X-19762817Y-3745641D01*
X-19737516Y-3730940D01*
X-19709533Y-3723054D01*
X-19680577Y-3721887D01*
X-19652355Y-3727348D01*
X-19626576Y-3739342D01*
X-19604947Y-3757776D01*
X-19601935Y-3761309D01*
X-19590918Y-3776515D01*
X-19581037Y-3794560D01*
X-19571675Y-3816868D01*
X-19562216Y-3844862D01*
X-19552044Y-3879966D01*
X-19550442Y-3885782D01*
X-19542410Y-3913808D01*
X-19535576Y-3934965D01*
X-19529348Y-3950571D01*
X-19523132Y-3961947D01*
X-19516336Y-3970413D01*
X-19508368Y-3977291D01*
X-19498215Y-3982610D01*
X-19479979Y-3986054D01*
X-19461134Y-3984297D01*
X-19445423Y-3977336D01*
X-19440739Y-3973469D01*
X-19426416Y-3955247D01*
X-19416607Y-3932142D01*
X-19411570Y-3906252D01*
X-19411563Y-3879672D01*
X-19416843Y-3854500D01*
X-19427669Y-3832832D01*
X-19428404Y-3831870D01*
X-19437857Y-3823226D01*
X-19452662Y-3813124D01*
X-19470497Y-3803173D01*
X-19476059Y-3800293D01*
X-19491756Y-3791266D01*
X-19504208Y-3782816D01*
X-19511116Y-3776458D01*
X-19512922Y-3773637D01*
X-19517988Y-3757142D01*
X-19515173Y-3740138D01*
X-19504718Y-3724573D01*
X-19499058Y-3719181D01*
X-19491484Y-3714235D01*
X-19482507Y-3712777D01*
X-19468564Y-3713741D01*
G37*
G36*
X-21625625Y-1497263D02*
G01*
X-21491859Y-1497266D01*
X-21366123Y-1497272D01*
X-21277610Y-1497280D01*
X-21248164Y-1497283D01*
X-21137730Y-1497300D01*
X-21034569Y-1497323D01*
X-20938427Y-1497355D01*
X-20849053Y-1497397D01*
X-20766194Y-1497449D01*
X-20748919Y-1497463D01*
X-20689598Y-1497513D01*
X-20619012Y-1497590D01*
X-20554185Y-1497682D01*
X-20494863Y-1497789D01*
X-20440794Y-1497913D01*
X-20391726Y-1498056D01*
X-20347407Y-1498218D01*
X-20307584Y-1498400D01*
X-20272004Y-1498605D01*
X-20240416Y-1498832D01*
X-20212566Y-1499084D01*
X-20188203Y-1499361D01*
X-20167074Y-1499665D01*
X-20148927Y-1499998D01*
X-20133509Y-1500359D01*
X-20120568Y-1500751D01*
X-20109852Y-1501175D01*
X-20101108Y-1501632D01*
X-20094083Y-1502123D01*
X-20088526Y-1502650D01*
X-20084184Y-1503213D01*
X-20080804Y-1503814D01*
X-20078135Y-1504454D01*
X-20075923Y-1505135D01*
X-20073917Y-1505858D01*
X-20064476Y-1510029D01*
X-20041177Y-1525688D01*
X-20020933Y-1546689D01*
X-20006207Y-1570673D01*
X-20005783Y-1571620D01*
X-20005002Y-1573515D01*
X-20004271Y-1575726D01*
X-20003589Y-1578528D01*
X-20002954Y-1582201D01*
X-20002364Y-1587022D01*
X-20001818Y-1593267D01*
X-20001313Y-1601214D01*
X-20000849Y-1611141D01*
X-20000424Y-1623324D01*
X-20000035Y-1638042D01*
X-19999682Y-1655572D01*
X-19999362Y-1676190D01*
X-19999074Y-1700175D01*
X-19998817Y-1727804D01*
X-19998587Y-1759354D01*
X-19998385Y-1795102D01*
X-19998208Y-1835327D01*
X-19998054Y-1880304D01*
X-19997923Y-1930313D01*
X-19997811Y-1985629D01*
X-19997718Y-2046531D01*
X-19997642Y-2113295D01*
X-19997581Y-2186200D01*
X-19997533Y-2265522D01*
X-19997497Y-2351539D01*
X-19997471Y-2444528D01*
X-19997454Y-2544767D01*
X-19997443Y-2652533D01*
X-19997438Y-2768104D01*
X-19997436Y-2891756D01*
X-19997435Y-3023767D01*
X-19997436Y-3093109D01*
X-19997437Y-3220762D01*
X-19997440Y-3340199D01*
X-19997448Y-3451698D01*
X-19997462Y-3555536D01*
X-19997483Y-3651991D01*
X-19997514Y-3741339D01*
X-19997556Y-3823859D01*
X-19997610Y-3899827D01*
X-19997679Y-3969521D01*
X-19997764Y-4033218D01*
X-19997866Y-4091196D01*
X-19997988Y-4143733D01*
X-19998131Y-4191104D01*
X-19998297Y-4233589D01*
X-19998487Y-4271463D01*
X-19998703Y-4305005D01*
X-19998946Y-4334493D01*
X-19999219Y-4360202D01*
X-19999524Y-4382411D01*
X-19999860Y-4401397D01*
X-20000232Y-4417438D01*
X-20000639Y-4430810D01*
X-20001084Y-4441792D01*
X-20001569Y-4450660D01*
X-20002095Y-4457692D01*
X-20002664Y-4463166D01*
X-20003277Y-4467358D01*
X-20003936Y-4470546D01*
X-20004643Y-4473008D01*
X-20005399Y-4475020D01*
X-20006207Y-4476861D01*
X-20011170Y-4486478D01*
X-20028356Y-4509573D01*
X-20050093Y-4528759D01*
X-20073917Y-4541676D01*
X-20074720Y-4541974D01*
X-20076779Y-4542679D01*
X-20079146Y-4543344D01*
X-20082072Y-4543968D01*
X-20085811Y-4544554D01*
X-20090615Y-4545102D01*
X-20096736Y-4545614D01*
X-20104426Y-4546091D01*
X-20113938Y-4546534D01*
X-20125524Y-4546945D01*
X-20139437Y-4547325D01*
X-20155929Y-4547674D01*
X-20175253Y-4547995D01*
X-20197661Y-4548288D01*
X-20223404Y-4548555D01*
X-20252737Y-4548797D01*
X-20285910Y-4549015D01*
X-20323177Y-4549210D01*
X-20364790Y-4549384D01*
X-20411001Y-4549538D01*
X-20462062Y-4549673D01*
X-20518227Y-4549790D01*
X-20579747Y-4549891D01*
X-20646875Y-4549977D01*
X-20719863Y-4550049D01*
X-20798964Y-4550108D01*
X-20884429Y-4550155D01*
X-20976512Y-4550193D01*
X-21075465Y-4550221D01*
X-21181540Y-4550242D01*
X-21294989Y-4550256D01*
X-21416066Y-4550264D01*
X-21545021Y-4550269D01*
X-21682109Y-4550271D01*
X-21827580Y-4550272D01*
X-21843416Y-4550272D01*
X-21988491Y-4550269D01*
X-22125206Y-4550263D01*
X-22253811Y-4550252D01*
X-22374555Y-4550234D01*
X-22487690Y-4550210D01*
X-22593466Y-4550177D01*
X-22692131Y-4550134D01*
X-22783937Y-4550082D01*
X-22869133Y-4550018D01*
X-22947970Y-4549941D01*
X-23020697Y-4549851D01*
X-23087564Y-4549747D01*
X-23148822Y-4549627D01*
X-23204721Y-4549491D01*
X-23255511Y-4549337D01*
X-23301441Y-4549165D01*
X-23342762Y-4548972D01*
X-23379724Y-4548760D01*
X-23412577Y-4548525D01*
X-23441571Y-4548268D01*
X-23466956Y-4547987D01*
X-23488982Y-4547681D01*
X-23507899Y-4547350D01*
X-23523958Y-4546991D01*
X-23537407Y-4546605D01*
X-23548498Y-4546190D01*
X-23557481Y-4545745D01*
X-23564605Y-4545268D01*
X-23570120Y-4544760D01*
X-23574277Y-4544219D01*
X-23577325Y-4543643D01*
X-23579515Y-4543033D01*
X-23583021Y-4541728D01*
X-23604183Y-4529755D01*
X-23624369Y-4512265D01*
X-23641099Y-4491739D01*
X-23651891Y-4470657D01*
X-23651952Y-4470476D01*
X-23652619Y-4468030D01*
X-23653243Y-4464681D01*
X-23653827Y-4460153D01*
X-23654371Y-4454171D01*
X-23654877Y-4446456D01*
X-23655346Y-4436734D01*
X-23655779Y-4424729D01*
X-23656178Y-4410163D01*
X-23656545Y-4392761D01*
X-23656880Y-4372247D01*
X-23657185Y-4348344D01*
X-23657462Y-4320777D01*
X-23657711Y-4289268D01*
X-23657935Y-4253542D01*
X-23658134Y-4213323D01*
X-23658310Y-4168334D01*
X-23658364Y-4150833D01*
X-23352449Y-4150833D01*
X-23342352Y-4172514D01*
X-23330430Y-4193089D01*
X-23308554Y-4216479D01*
X-23280584Y-4233755D01*
X-23258242Y-4243983D01*
X-23043053Y-4242749D01*
X-23039476Y-4242729D01*
X-22991397Y-4242444D01*
X-22951135Y-4242167D01*
X-22917926Y-4241860D01*
X-22891004Y-4241490D01*
X-22869602Y-4241021D01*
X-22852956Y-4240416D01*
X-22840298Y-4239642D01*
X-22830863Y-4238662D01*
X-22823886Y-4237442D01*
X-22818600Y-4235945D01*
X-22814239Y-4234136D01*
X-22810038Y-4231980D01*
X-22795330Y-4222112D01*
X-22776570Y-4204222D01*
X-22760760Y-4183452D01*
X-22750460Y-4162779D01*
X-22749786Y-4160275D01*
X-22749124Y-4156443D01*
X-22748512Y-4151088D01*
X-22747947Y-4143901D01*
X-22747428Y-4134572D01*
X-22746953Y-4122792D01*
X-22746521Y-4108251D01*
X-22746129Y-4090640D01*
X-22745777Y-4069651D01*
X-22745461Y-4044973D01*
X-22745181Y-4016298D01*
X-22744935Y-3983316D01*
X-22744720Y-3945718D01*
X-22744536Y-3903195D01*
X-22744380Y-3855437D01*
X-22744251Y-3802135D01*
X-22744147Y-3742980D01*
X-22744066Y-3677663D01*
X-22744006Y-3605874D01*
X-22743966Y-3527305D01*
X-22743955Y-3485041D01*
X-22437062Y-3485041D01*
X-22437020Y-3634411D01*
X-22437019Y-3638612D01*
X-22436992Y-3677693D01*
X-22436898Y-3709207D01*
X-22436680Y-3734127D01*
X-22436277Y-3753428D01*
X-22435632Y-3768084D01*
X-22434685Y-3779071D01*
X-22433380Y-3787363D01*
X-22431656Y-3793934D01*
X-22429455Y-3799759D01*
X-22426719Y-3805813D01*
X-22414348Y-3826926D01*
X-22393822Y-3849692D01*
X-22369712Y-3866101D01*
X-22369093Y-3866404D01*
X-22361743Y-3869416D01*
X-22352945Y-3871654D01*
X-22341261Y-3873266D01*
X-22325255Y-3874397D01*
X-22303487Y-3875195D01*
X-22274521Y-3875806D01*
X-22196187Y-3877147D01*
X-22194157Y-3938420D01*
X-22193019Y-3964116D01*
X-22191016Y-3988664D01*
X-22188174Y-4007194D01*
X-22184325Y-4021133D01*
X-22180775Y-4029318D01*
X-22168721Y-4048335D01*
X-22152975Y-4065918D01*
X-22135724Y-4079831D01*
X-22119155Y-4087835D01*
X-22117239Y-4088113D01*
X-22107010Y-4088693D01*
X-22088907Y-4089234D01*
X-22063445Y-4089737D01*
X-22031140Y-4090202D01*
X-21992509Y-4090628D01*
X-21948068Y-4091017D01*
X-21898332Y-4091368D01*
X-21843817Y-4091681D01*
X-21785040Y-4091957D01*
X-21722516Y-4092195D01*
X-21656761Y-4092396D01*
X-21588292Y-4092559D01*
X-21517624Y-4092685D01*
X-21445272Y-4092773D01*
X-21371755Y-4092825D01*
X-21297586Y-4092840D01*
X-21223282Y-4092818D01*
X-21149359Y-4092759D01*
X-21076333Y-4092663D01*
X-21004721Y-4092531D01*
X-20935037Y-4092362D01*
X-20867798Y-4092157D01*
X-20803520Y-4091916D01*
X-20742718Y-4091638D01*
X-20685910Y-4091324D01*
X-20633610Y-4090974D01*
X-20586335Y-4090588D01*
X-20544600Y-4090167D01*
X-20508923Y-4089709D01*
X-20479817Y-4089216D01*
X-20457801Y-4088688D01*
X-20443389Y-4088124D01*
X-20437097Y-4087524D01*
X-20432278Y-4085894D01*
X-20409925Y-4073106D01*
X-20390373Y-4053101D01*
X-20374726Y-4026956D01*
X-20362139Y-3999693D01*
X-20361503Y-3649915D01*
X-20361471Y-3628623D01*
X-20361444Y-3574595D01*
X-20361497Y-3522937D01*
X-20361625Y-3474346D01*
X-20361822Y-3429517D01*
X-20362083Y-3389146D01*
X-20362404Y-3353931D01*
X-20362780Y-3324566D01*
X-20363205Y-3301750D01*
X-20363674Y-3286177D01*
X-20364182Y-3278544D01*
X-20371817Y-3248868D01*
X-20385499Y-3221713D01*
X-20404131Y-3200045D01*
X-20426876Y-3185119D01*
X-20429145Y-3184202D01*
X-20432065Y-3183336D01*
X-20435942Y-3182545D01*
X-20441142Y-3181826D01*
X-20448030Y-3181175D01*
X-20456972Y-3180589D01*
X-20468334Y-3180064D01*
X-20482481Y-3179597D01*
X-20499779Y-3179185D01*
X-20520594Y-3178824D01*
X-20545292Y-3178510D01*
X-20574238Y-3178242D01*
X-20607797Y-3178014D01*
X-20646337Y-3177824D01*
X-20690221Y-3177669D01*
X-20739816Y-3177544D01*
X-20795488Y-3177447D01*
X-20857603Y-3177374D01*
X-20926525Y-3177322D01*
X-21002622Y-3177288D01*
X-21086257Y-3177267D01*
X-21177798Y-3177257D01*
X-21277610Y-3177255D01*
X-21293229Y-3177255D01*
X-21391725Y-3177258D01*
X-21482005Y-3177268D01*
X-21564437Y-3177289D01*
X-21639385Y-3177324D01*
X-21707216Y-3177377D01*
X-21768295Y-3177451D01*
X-21822989Y-3177549D01*
X-21871664Y-3177676D01*
X-21914685Y-3177833D01*
X-21952419Y-3178026D01*
X-21985231Y-3178257D01*
X-22013487Y-3178529D01*
X-22037554Y-3178847D01*
X-22057797Y-3179214D01*
X-22074583Y-3179632D01*
X-22088276Y-3180106D01*
X-22099245Y-3180639D01*
X-22107853Y-3181235D01*
X-22114467Y-3181896D01*
X-22119454Y-3182627D01*
X-22123179Y-3183430D01*
X-22126008Y-3184310D01*
X-22128307Y-3185269D01*
X-22146981Y-3196867D01*
X-22167250Y-3217650D01*
X-22182837Y-3243998D01*
X-22183397Y-3245269D01*
X-22187305Y-3255647D01*
X-22190094Y-3267087D01*
X-22192027Y-3281480D01*
X-22193369Y-3300723D01*
X-22194385Y-3326707D01*
X-22196302Y-3387825D01*
X-22270261Y-3389440D01*
X-22295849Y-3390099D01*
X-22317643Y-3391012D01*
X-22333758Y-3392279D01*
X-22345757Y-3394077D01*
X-22355201Y-3396582D01*
X-22363652Y-3399970D01*
X-22365194Y-3400686D01*
X-22389746Y-3415196D01*
X-22408528Y-3433753D01*
X-22423857Y-3458615D01*
X-22437062Y-3485041D01*
X-22743955Y-3485041D01*
X-22743944Y-3441645D01*
X-22743938Y-3348585D01*
X-22743946Y-3247817D01*
X-22743967Y-3139031D01*
X-22743999Y-3021918D01*
X-22744001Y-3015764D01*
X-22744042Y-2898480D01*
X-22744090Y-2789513D01*
X-22744148Y-2688561D01*
X-22744217Y-2595321D01*
X-22744300Y-2509489D01*
X-22744397Y-2430763D01*
X-22744399Y-2429237D01*
X-22371734Y-2429237D01*
X-22369518Y-2443359D01*
X-22364448Y-2457281D01*
X-22364392Y-2457406D01*
X-22350109Y-2483699D01*
X-22332835Y-2503512D01*
X-22310772Y-2518914D01*
X-22288082Y-2531485D01*
X-22162853Y-2533645D01*
X-22037623Y-2535804D01*
X-22035464Y-2661033D01*
X-22034977Y-2688109D01*
X-22034203Y-2721864D01*
X-22033187Y-2748761D01*
X-22031726Y-2769865D01*
X-22029615Y-2786240D01*
X-22026649Y-2798948D01*
X-22022625Y-2809055D01*
X-22017338Y-2817622D01*
X-22010583Y-2825715D01*
X-22002156Y-2834397D01*
X-21997025Y-2839257D01*
X-21971089Y-2857189D01*
X-21942592Y-2867575D01*
X-21912873Y-2870417D01*
X-21883270Y-2865723D01*
X-21855120Y-2853496D01*
X-21829762Y-2833742D01*
X-21824894Y-2828795D01*
X-21816082Y-2818985D01*
X-21809098Y-2809161D01*
X-21803730Y-2798244D01*
X-21799767Y-2785156D01*
X-21796999Y-2768821D01*
X-21795213Y-2748161D01*
X-21794199Y-2722098D01*
X-21793746Y-2689555D01*
X-21793642Y-2649454D01*
X-21793642Y-2533645D01*
X-21671651Y-2533550D01*
X-21667186Y-2533546D01*
X-21631813Y-2533458D01*
X-21603877Y-2533232D01*
X-21582302Y-2532805D01*
X-21566009Y-2532115D01*
X-21553921Y-2531100D01*
X-21544959Y-2529698D01*
X-21538046Y-2527846D01*
X-21532105Y-2525481D01*
X-21511589Y-2513599D01*
X-21488556Y-2492885D01*
X-21471589Y-2468196D01*
X-21469394Y-2463619D01*
X-21460353Y-2434263D01*
X-21458741Y-2403839D01*
X-21464735Y-2374754D01*
X-21466589Y-2369795D01*
X-21480457Y-2343351D01*
X-21499662Y-2322599D01*
X-21525694Y-2305856D01*
X-21553159Y-2291822D01*
X-21673157Y-2291822D01*
X-21793155Y-2291822D01*
X-21793492Y-2260177D01*
X-20871710Y-2260177D01*
X-20871706Y-2318389D01*
X-20871693Y-2384665D01*
X-20871700Y-2450709D01*
X-20871690Y-2508794D01*
X-20871618Y-2559385D01*
X-20871441Y-2603054D01*
X-20871114Y-2640372D01*
X-20870591Y-2671912D01*
X-20869829Y-2698244D01*
X-20868783Y-2719941D01*
X-20867408Y-2737574D01*
X-20865660Y-2751716D01*
X-20863493Y-2762937D01*
X-20860864Y-2771809D01*
X-20857728Y-2778904D01*
X-20854040Y-2784794D01*
X-20849756Y-2790051D01*
X-20844831Y-2795245D01*
X-20839220Y-2800950D01*
X-20822360Y-2815682D01*
X-20795329Y-2830882D01*
X-20766584Y-2838737D01*
X-20737393Y-2839419D01*
X-20709027Y-2833103D01*
X-20682755Y-2819963D01*
X-20659847Y-2800172D01*
X-20641573Y-2773903D01*
X-20629871Y-2751717D01*
X-20628931Y-2388983D01*
X-20628829Y-2346501D01*
X-20628721Y-2285153D01*
X-20628686Y-2231596D01*
X-20628732Y-2185308D01*
X-20628865Y-2145767D01*
X-20629093Y-2112454D01*
X-20629421Y-2084847D01*
X-20629857Y-2062424D01*
X-20630407Y-2044666D01*
X-20631079Y-2031050D01*
X-20631879Y-2021057D01*
X-20632814Y-2014164D01*
X-20633890Y-2009851D01*
X-20646711Y-1983651D01*
X-20666508Y-1959356D01*
X-20690994Y-1940817D01*
X-20718891Y-1928982D01*
X-20748919Y-1924794D01*
X-20751974Y-1924825D01*
X-20782183Y-1929451D01*
X-20809752Y-1942095D01*
X-20835217Y-1962995D01*
X-20837104Y-1964906D01*
X-20843169Y-1970937D01*
X-20848482Y-1976435D01*
X-20853093Y-1981973D01*
X-20857052Y-1988125D01*
X-20860407Y-1995463D01*
X-20863210Y-2004561D01*
X-20865508Y-2015991D01*
X-20867353Y-2030327D01*
X-20868792Y-2048142D01*
X-20869877Y-2070009D01*
X-20870656Y-2096500D01*
X-20871180Y-2128190D01*
X-20871497Y-2165650D01*
X-20871657Y-2209455D01*
X-20871710Y-2260177D01*
X-21793492Y-2260177D01*
X-21794478Y-2167672D01*
X-21794814Y-2137768D01*
X-21795240Y-2107817D01*
X-21795756Y-2084565D01*
X-21796444Y-2066939D01*
X-21797384Y-2053871D01*
X-21798659Y-2044288D01*
X-21800351Y-2037120D01*
X-21802541Y-2031296D01*
X-21805310Y-2025746D01*
X-21812678Y-2013363D01*
X-21833873Y-1988115D01*
X-21859116Y-1969823D01*
X-21887474Y-1958905D01*
X-21918012Y-1955779D01*
X-21949799Y-1960865D01*
X-21963203Y-1965955D01*
X-21987030Y-1980384D01*
X-22008170Y-1999636D01*
X-22023769Y-2021377D01*
X-22026012Y-2025797D01*
X-22028328Y-2031550D01*
X-22030145Y-2038480D01*
X-22031551Y-2047651D01*
X-22032633Y-2060130D01*
X-22033479Y-2076982D01*
X-22034174Y-2099273D01*
X-22034807Y-2128068D01*
X-22035464Y-2164433D01*
X-22037623Y-2289663D01*
X-22160694Y-2291822D01*
X-22184118Y-2292249D01*
X-22218545Y-2293038D01*
X-22246035Y-2294067D01*
X-22267669Y-2295544D01*
X-22284524Y-2297678D01*
X-22297679Y-2300678D01*
X-22308212Y-2304751D01*
X-22317203Y-2310107D01*
X-22325729Y-2316953D01*
X-22334869Y-2325499D01*
X-22340685Y-2331385D01*
X-22357037Y-2353099D01*
X-22366880Y-2377346D01*
X-22371333Y-2406613D01*
X-22371605Y-2411171D01*
X-22371734Y-2429237D01*
X-22744399Y-2429237D01*
X-22744510Y-2358838D01*
X-22744643Y-2293412D01*
X-22744795Y-2234181D01*
X-22744970Y-2180842D01*
X-22745168Y-2133093D01*
X-22745392Y-2090629D01*
X-22745643Y-2053148D01*
X-22745924Y-2020346D01*
X-22746235Y-1991921D01*
X-22746580Y-1967568D01*
X-22746959Y-1946985D01*
X-22747374Y-1929869D01*
X-22747827Y-1915916D01*
X-22748321Y-1904823D01*
X-22748856Y-1896287D01*
X-22749435Y-1890004D01*
X-22750059Y-1885672D01*
X-22750730Y-1882988D01*
X-22759387Y-1865760D01*
X-22774122Y-1846062D01*
X-22791856Y-1828359D01*
X-22810038Y-1815553D01*
X-22810335Y-1815395D01*
X-22814522Y-1813264D01*
X-22818922Y-1811478D01*
X-22824299Y-1810001D01*
X-22831419Y-1808798D01*
X-22841049Y-1807833D01*
X-22853954Y-1807071D01*
X-22870900Y-1806477D01*
X-22892653Y-1806016D01*
X-22919979Y-1805651D01*
X-22953644Y-1805348D01*
X-22994413Y-1805071D01*
X-23043053Y-1804784D01*
X-23258242Y-1803551D01*
X-23280558Y-1813824D01*
X-23300794Y-1825372D01*
X-23324499Y-1847128D01*
X-23342224Y-1875110D01*
X-23352449Y-1896701D01*
X-23352449Y-3023767D01*
X-23352449Y-4150833D01*
X-23658364Y-4150833D01*
X-23658464Y-4118299D01*
X-23658598Y-4062942D01*
X-23658714Y-4001987D01*
X-23658811Y-3935158D01*
X-23658893Y-3862177D01*
X-23658960Y-3782770D01*
X-23659013Y-3696660D01*
X-23659054Y-3603571D01*
X-23659085Y-3503226D01*
X-23659107Y-3395349D01*
X-23659120Y-3279665D01*
X-23659127Y-3155896D01*
X-23659129Y-3023767D01*
X-23659129Y-3011784D01*
X-23659127Y-2880403D01*
X-23659119Y-2757358D01*
X-23659105Y-2642372D01*
X-23659083Y-2535170D01*
X-23659051Y-2435475D01*
X-23659009Y-2343012D01*
X-23658954Y-2257503D01*
X-23658886Y-2178673D01*
X-23658803Y-2106246D01*
X-23658704Y-2039945D01*
X-23658587Y-1979494D01*
X-23658451Y-1924617D01*
X-23658295Y-1875038D01*
X-23658117Y-1830480D01*
X-23657916Y-1790668D01*
X-23657690Y-1755325D01*
X-23657438Y-1724174D01*
X-23657159Y-1696941D01*
X-23656852Y-1673348D01*
X-23656514Y-1653119D01*
X-23656144Y-1635978D01*
X-23655742Y-1621649D01*
X-23655306Y-1609855D01*
X-23654834Y-1600321D01*
X-23654325Y-1592771D01*
X-23653777Y-1586927D01*
X-23653190Y-1582514D01*
X-23652562Y-1579256D01*
X-23651891Y-1576876D01*
X-23650586Y-1573371D01*
X-23638613Y-1552209D01*
X-23621123Y-1532023D01*
X-23600597Y-1515293D01*
X-23579515Y-1504501D01*
X-23579317Y-1504435D01*
X-23577048Y-1503828D01*
X-23573894Y-1503256D01*
X-23569605Y-1502719D01*
X-23563932Y-1502214D01*
X-23556623Y-1501741D01*
X-23547430Y-1501299D01*
X-23536101Y-1500887D01*
X-23522388Y-1500503D01*
X-23506039Y-1500148D01*
X-23486805Y-1499819D01*
X-23464435Y-1499516D01*
X-23438681Y-1499238D01*
X-23409291Y-1498983D01*
X-23376015Y-1498751D01*
X-23338604Y-1498540D01*
X-23296808Y-1498350D01*
X-23258242Y-1498209D01*
X-23250375Y-1498180D01*
X-23199058Y-1498028D01*
X-23142604Y-1497893D01*
X-23080765Y-1497775D01*
X-23013289Y-1497672D01*
X-22939928Y-1497584D01*
X-22860431Y-1497509D01*
X-22774548Y-1497446D01*
X-22682029Y-1497395D01*
X-22582624Y-1497353D01*
X-22476082Y-1497321D01*
X-22362155Y-1497297D01*
X-22240591Y-1497280D01*
X-22111140Y-1497270D01*
X-21973554Y-1497264D01*
X-21918012Y-1497263D01*
X-21827580Y-1497262D01*
X-21767672Y-1497262D01*
X-21625625Y-1497263D01*
G37*
D14*
X23517822Y-33247822D02*
X22650198Y-33247822D01*
X22650198Y-29727029D01*
X23517822Y-29727029D01*
X23517822Y-33247822D01*
G36*
X23517822Y-33247822D02*
G01*
X22650198Y-33247822D01*
X22650198Y-29727029D01*
X23517822Y-29727029D01*
X23517822Y-33247822D01*
G37*
X18309158Y-29988062D02*
X18940726Y-30588599D01*
X19084674Y-30600604D01*
X19660635Y-30648635D01*
X19762791Y-30657124D01*
X19890612Y-30667657D01*
X20009767Y-30677379D01*
X20117914Y-30686102D01*
X20212713Y-30693642D01*
X20291819Y-30699813D01*
X20352892Y-30704427D01*
X20393590Y-30707300D01*
X20411570Y-30708246D01*
X20419808Y-30705749D01*
X20437599Y-30694529D01*
X20464411Y-30673249D01*
X20476129Y-30662979D01*
X20501466Y-30640775D01*
X20549986Y-30595977D01*
X20611192Y-30537719D01*
X20686307Y-30464871D01*
X20776550Y-30376297D01*
X20883145Y-30270866D01*
X20953093Y-30201508D01*
X21050658Y-30104821D01*
X21147941Y-30008474D01*
X21242014Y-29915362D01*
X21329950Y-29828382D01*
X21408820Y-29750431D01*
X21475699Y-29684404D01*
X21527658Y-29633198D01*
X21731620Y-29432486D01*
X21769671Y-29468942D01*
X21778245Y-29477540D01*
X21799297Y-29502905D01*
X21807723Y-29520305D01*
X21800530Y-29533929D01*
X21778944Y-29559257D01*
X21747995Y-29589621D01*
X21728448Y-29608104D01*
X21692752Y-29642573D01*
X21642684Y-29691288D01*
X21580001Y-29752531D01*
X21506457Y-29824580D01*
X21423810Y-29905715D01*
X21333815Y-29994216D01*
X21238228Y-30088363D01*
X21138805Y-30186435D01*
X20589343Y-30728839D01*
X20874746Y-30750934D01*
X20935662Y-30755750D01*
X21017548Y-30762784D01*
X21079569Y-30769128D01*
X21124987Y-30775252D01*
X21157062Y-30781627D01*
X21179052Y-30788723D01*
X21194219Y-30797009D01*
X21215416Y-30808607D01*
X21254386Y-30818150D01*
X21310531Y-30820990D01*
X21392773Y-30820990D01*
X21392773Y-31047326D01*
X21216733Y-31047326D01*
X21216733Y-31892918D01*
X21272262Y-31941797D01*
X21286722Y-31955164D01*
X21344813Y-32027612D01*
X21380576Y-32109468D01*
X21392773Y-32198100D01*
X21386306Y-32276308D01*
X21359047Y-32364767D01*
X21310328Y-32440493D01*
X21296403Y-32455252D01*
X21251328Y-32492136D01*
X21198819Y-32524497D01*
X21147061Y-32547703D01*
X21104239Y-32557121D01*
X21098023Y-32557303D01*
X21075246Y-32558658D01*
X21059513Y-32562200D01*
X21052068Y-32569610D01*
X21054156Y-32582569D01*
X21067020Y-32602757D01*
X21091905Y-32631855D01*
X21130053Y-32671544D01*
X21182710Y-32723504D01*
X21251119Y-32789416D01*
X21336524Y-32870960D01*
X21382112Y-32914396D01*
X21458441Y-32987000D01*
X21530808Y-33055691D01*
X21596366Y-33117777D01*
X21652274Y-33170566D01*
X21695686Y-33211366D01*
X21723758Y-33237485D01*
X21801436Y-33308881D01*
X21713416Y-33397137D01*
X21141287Y-32851310D01*
X21105188Y-32816895D01*
X20976272Y-32694454D01*
X20864754Y-32589349D01*
X20770288Y-32501264D01*
X20692529Y-32429884D01*
X20631131Y-32374895D01*
X20585748Y-32335981D01*
X20556035Y-32312827D01*
X20541644Y-32305118D01*
X20541559Y-32305117D01*
X20523624Y-32306175D01*
X20483421Y-32309263D01*
X20423687Y-32314142D01*
X20347158Y-32320568D01*
X20256569Y-32328300D01*
X20154657Y-32337095D01*
X20044159Y-32346713D01*
X19927811Y-32356909D01*
X19808348Y-32367444D01*
X19688507Y-32378074D01*
X19571025Y-32388558D01*
X19458637Y-32398654D01*
X19354081Y-32408119D01*
X19260091Y-32416712D01*
X19179405Y-32424191D01*
X19114759Y-32430313D01*
X19068888Y-32434838D01*
X19044530Y-32437522D01*
X18991089Y-32444610D01*
X18991089Y-32719703D01*
X18780471Y-32720032D01*
X18569852Y-32720361D01*
X18110891Y-33172086D01*
X17651931Y-33623811D01*
X17564848Y-33624430D01*
X17477767Y-33625049D01*
X18026952Y-33083231D01*
X18079998Y-33030863D01*
X18189772Y-32922197D01*
X18283114Y-32829291D01*
X18361173Y-32750945D01*
X18425097Y-32685957D01*
X18476035Y-32633128D01*
X18489126Y-32619109D01*
X18671172Y-32619109D01*
X18890495Y-32619109D01*
X18890495Y-32537376D01*
X18890489Y-32530105D01*
X18889613Y-32489050D01*
X18885867Y-32466723D01*
X18877270Y-32457471D01*
X18861840Y-32455643D01*
X18839159Y-32463694D01*
X18801428Y-32491270D01*
X18752179Y-32537376D01*
X18671172Y-32619109D01*
X18489126Y-32619109D01*
X18515135Y-32591257D01*
X18543548Y-32559145D01*
X18562420Y-32535590D01*
X18572901Y-32519392D01*
X18576139Y-32509351D01*
X18575158Y-32492421D01*
X18567996Y-32482916D01*
X18548401Y-32481277D01*
X18510124Y-32485218D01*
X18486025Y-32487935D01*
X18445744Y-32491716D01*
X18418961Y-32493240D01*
X18409728Y-32493985D01*
X18399839Y-32501254D01*
X18396562Y-32521332D01*
X18397992Y-32560311D01*
X18398553Y-32570263D01*
X18397921Y-32610102D01*
X18389167Y-32638440D01*
X18369289Y-32666370D01*
X18365104Y-32671180D01*
X18314427Y-32710518D01*
X18255934Y-32727828D01*
X18194575Y-32722526D01*
X18135297Y-32694025D01*
X18131606Y-32691267D01*
X18099851Y-32653178D01*
X18081067Y-32603524D01*
X18076071Y-32549998D01*
X18085678Y-32500293D01*
X18110704Y-32462100D01*
X18123480Y-32449169D01*
X18126576Y-32436572D01*
X18116998Y-32418533D01*
X18093082Y-32388072D01*
X18085731Y-32378726D01*
X18039339Y-32306570D01*
X17998084Y-32221085D01*
X17964936Y-32130233D01*
X17942868Y-32041973D01*
X17934852Y-31964264D01*
X17934788Y-31956009D01*
X17930321Y-31910121D01*
X17917795Y-31884921D01*
X17895784Y-31877227D01*
X17888849Y-31876324D01*
X17882885Y-31871385D01*
X17878519Y-31859389D01*
X17875503Y-31837320D01*
X17873590Y-31802164D01*
X17872530Y-31750906D01*
X17872077Y-31680529D01*
X17871980Y-31588020D01*
X17872150Y-31501340D01*
X17872834Y-31427668D01*
X17873558Y-31399406D01*
X17972575Y-31399406D01*
X17972575Y-31776633D01*
X18035446Y-31776633D01*
X18035446Y-31399406D01*
X17972575Y-31399406D01*
X17873558Y-31399406D01*
X17874215Y-31373735D01*
X17876470Y-31336712D01*
X17879778Y-31313770D01*
X17884320Y-31302080D01*
X17890272Y-31298812D01*
X18032893Y-31298812D01*
X18136040Y-31298812D01*
X18136040Y-31877227D01*
X18045122Y-31877227D01*
X18053753Y-31949529D01*
X18072249Y-32060002D01*
X18105691Y-32171184D01*
X18152324Y-32263150D01*
X18212786Y-32337458D01*
X18261782Y-32385302D01*
X18261782Y-30970779D01*
X18171095Y-30974474D01*
X18080407Y-30978168D01*
X18065252Y-31053614D01*
X18058379Y-31091449D01*
X18048756Y-31154632D01*
X18041496Y-31213935D01*
X18032893Y-31298812D01*
X17890272Y-31298812D01*
X17904888Y-31288063D01*
X17914215Y-31257945D01*
X17915847Y-31246418D01*
X17921591Y-31207114D01*
X17929378Y-31154812D01*
X17938003Y-31097624D01*
X17942393Y-31066084D01*
X17947148Y-31019926D01*
X17948295Y-30987359D01*
X17945495Y-30973977D01*
X17943671Y-30971692D01*
X17939165Y-30950595D01*
X17936029Y-30912645D01*
X17934852Y-30863952D01*
X17934852Y-30758119D01*
X17972575Y-30758106D01*
X17975718Y-30758106D01*
X17988668Y-30757612D01*
X18010411Y-30751181D01*
X18010967Y-30750629D01*
X18161188Y-30750629D01*
X18162463Y-30752303D01*
X18179976Y-30756456D01*
X18211485Y-30758119D01*
X18261782Y-30758119D01*
X18261782Y-30701092D01*
X18261662Y-30684007D01*
X18259462Y-30658692D01*
X18257856Y-30657045D01*
X18374951Y-30657045D01*
X18374951Y-32375148D01*
X18422104Y-32370987D01*
X18443498Y-32369065D01*
X18501909Y-32363076D01*
X18540381Y-32357174D01*
X18562912Y-32350273D01*
X18573498Y-32341288D01*
X18576139Y-32329130D01*
X18577937Y-32318199D01*
X18583438Y-32313558D01*
X18995703Y-32313558D01*
X19003732Y-32313747D01*
X19034653Y-32312092D01*
X19086653Y-32308451D01*
X19157487Y-32303005D01*
X19244911Y-32295937D01*
X19346681Y-32287430D01*
X19460552Y-32277665D01*
X19584279Y-32266826D01*
X19715618Y-32255093D01*
X19816908Y-32245921D01*
X19942526Y-32234434D01*
X20058762Y-32223678D01*
X20163380Y-32213869D01*
X20254140Y-32205219D01*
X20328804Y-32197943D01*
X20385134Y-32192254D01*
X20420891Y-32188366D01*
X20433837Y-32186494D01*
X20429826Y-32180812D01*
X20410138Y-32159980D01*
X20376322Y-32126128D01*
X20330837Y-32081588D01*
X20276146Y-32028690D01*
X20214710Y-31969764D01*
X20148990Y-31907142D01*
X20081449Y-31843152D01*
X20014547Y-31780126D01*
X19950746Y-31720394D01*
X19892507Y-31666287D01*
X19842292Y-31620135D01*
X19802563Y-31584267D01*
X19775780Y-31561016D01*
X19764406Y-31552710D01*
X19753383Y-31560852D01*
X19726999Y-31584522D01*
X19687527Y-31621522D01*
X19637191Y-31669650D01*
X19578217Y-31726704D01*
X19512830Y-31790480D01*
X19443255Y-31858778D01*
X19371716Y-31929395D01*
X19300438Y-32000129D01*
X19231647Y-32068778D01*
X19167566Y-32133139D01*
X19110422Y-32191011D01*
X19062439Y-32240190D01*
X19025841Y-32278476D01*
X19002854Y-32303666D01*
X18995703Y-32313558D01*
X18583438Y-32313558D01*
X18586530Y-32310950D01*
X18606505Y-32306900D01*
X18642450Y-32305137D01*
X18698952Y-32304752D01*
X18821766Y-32304752D01*
X18861840Y-32264553D01*
X18959654Y-32166435D01*
X19097542Y-32028119D01*
X18991089Y-32028119D01*
X18991089Y-31273663D01*
X19230000Y-31273663D01*
X19230000Y-31892169D01*
X19446906Y-31682408D01*
X19488334Y-31642230D01*
X19545200Y-31586672D01*
X19594082Y-31538430D01*
X19632441Y-31500029D01*
X19657741Y-31473997D01*
X19667442Y-31462860D01*
X19664767Y-31458627D01*
X19662222Y-31455818D01*
X19863046Y-31455818D01*
X19867405Y-31463556D01*
X19887241Y-31486605D01*
X19920375Y-31521291D01*
X19963820Y-31564513D01*
X20014587Y-31613168D01*
X20028051Y-31625860D01*
X20088275Y-31682771D01*
X20159864Y-31750586D01*
X20237437Y-31824200D01*
X20315611Y-31898507D01*
X20389005Y-31968401D01*
X20393409Y-31972599D01*
X20461785Y-32037580D01*
X20514732Y-32087164D01*
X20554767Y-32123312D01*
X20584411Y-32147984D01*
X20606181Y-32163142D01*
X20622595Y-32170744D01*
X20636174Y-32172753D01*
X20649434Y-32171128D01*
X20650819Y-32170844D01*
X20682228Y-32157302D01*
X20696863Y-32130252D01*
X20728063Y-32046871D01*
X20780038Y-31972582D01*
X20848791Y-31914154D01*
X20931315Y-31874110D01*
X21024606Y-31854974D01*
X21103565Y-31848636D01*
X21103565Y-30899162D01*
X21075273Y-30892542D01*
X21068329Y-30891371D01*
X21037281Y-30887732D01*
X20987081Y-30882766D01*
X20921727Y-30876843D01*
X20845219Y-30870331D01*
X20761555Y-30863599D01*
X20476129Y-30841276D01*
X20170565Y-31142174D01*
X20114704Y-31197364D01*
X20046888Y-31264891D01*
X19986643Y-31325471D01*
X19936052Y-31376979D01*
X19897200Y-31417290D01*
X19872170Y-31444278D01*
X19863046Y-31455818D01*
X19662222Y-31455818D01*
X19646782Y-31438776D01*
X19613481Y-31404549D01*
X19566712Y-31357773D01*
X19508325Y-31300276D01*
X19440169Y-31233888D01*
X19364094Y-31160436D01*
X19281950Y-31081749D01*
X19198943Y-31002659D01*
X19117136Y-30925129D01*
X19050083Y-30862254D01*
X18996007Y-30812498D01*
X18953129Y-30774322D01*
X18919673Y-30746189D01*
X18893861Y-30726560D01*
X18890135Y-30724195D01*
X19084674Y-30724195D01*
X19084908Y-30724616D01*
X19096350Y-30736491D01*
X19123198Y-30762870D01*
X19163018Y-30801430D01*
X19213372Y-30849847D01*
X19271828Y-30905797D01*
X19335948Y-30966958D01*
X19403298Y-31031005D01*
X19471443Y-31095615D01*
X19537948Y-31158465D01*
X19600377Y-31217232D01*
X19656295Y-31269591D01*
X19764406Y-31370467D01*
X19766477Y-31372399D01*
X20041968Y-31096695D01*
X20109224Y-31029274D01*
X20172162Y-30965733D01*
X20220100Y-30916510D01*
X20254594Y-30879804D01*
X20277199Y-30853810D01*
X20289471Y-30836724D01*
X20292966Y-30826744D01*
X20289238Y-30822065D01*
X20279844Y-30820884D01*
X20264749Y-30820127D01*
X20225883Y-30817399D01*
X20166895Y-30812892D01*
X20090473Y-30806821D01*
X19999305Y-30799404D01*
X19896080Y-30790858D01*
X19783483Y-30781398D01*
X19664205Y-30771242D01*
X19559077Y-30762277D01*
X19448351Y-30752934D01*
X19347814Y-30744557D01*
X19259943Y-30737347D01*
X19187215Y-30731504D01*
X19132110Y-30727231D01*
X19097104Y-30724727D01*
X19084674Y-30724195D01*
X18890135Y-30724195D01*
X18873914Y-30713899D01*
X18858056Y-30706666D01*
X18844509Y-30703325D01*
X18837910Y-30702439D01*
X18801548Y-30698512D01*
X18748018Y-30693541D01*
X18683421Y-30688073D01*
X18613862Y-30682656D01*
X18589635Y-30680819D01*
X18524178Y-30675512D01*
X18467717Y-30670452D01*
X18425618Y-30666137D01*
X18403243Y-30663066D01*
X18374951Y-30657045D01*
X18257856Y-30657045D01*
X18252334Y-30651384D01*
X18237508Y-30657057D01*
X18234682Y-30658733D01*
X18212944Y-30677552D01*
X18188820Y-30704817D01*
X18169254Y-30732013D01*
X18161188Y-30750629D01*
X18010967Y-30750629D01*
X18028851Y-30732877D01*
X18050801Y-30697170D01*
X18070854Y-30665826D01*
X18109356Y-30618107D01*
X18152579Y-30574862D01*
X18194627Y-30541781D01*
X18229604Y-30524558D01*
X18243081Y-30520338D01*
X18252334Y-30512520D01*
X18255454Y-30509884D01*
X18260696Y-30488338D01*
X18261782Y-30448686D01*
X18261782Y-30380891D01*
X18374951Y-30380891D01*
X18374951Y-30540423D01*
X18552732Y-30555318D01*
X18577037Y-30557318D01*
X18637880Y-30561977D01*
X18687389Y-30565269D01*
X18720992Y-30566908D01*
X18734116Y-30566610D01*
X18730343Y-30562276D01*
X18710676Y-30542504D01*
X18675818Y-30508321D01*
X18627576Y-30461459D01*
X18567757Y-30403646D01*
X18498167Y-30336613D01*
X18420615Y-30262088D01*
X18336907Y-30181803D01*
X18248849Y-30097487D01*
X18158250Y-30010870D01*
X18066915Y-29923681D01*
X17976653Y-29837651D01*
X17889269Y-29754508D01*
X17806572Y-29675984D01*
X17730368Y-29603808D01*
X17662463Y-29539709D01*
X17604666Y-29485417D01*
X17501040Y-29388408D01*
X17589315Y-29387966D01*
X17677589Y-29387525D01*
X18309158Y-29988062D01*
G36*
X18309158Y-29988062D02*
G01*
X18940726Y-30588599D01*
X19084674Y-30600604D01*
X19660635Y-30648635D01*
X19762791Y-30657124D01*
X19890612Y-30667657D01*
X20009767Y-30677379D01*
X20117914Y-30686102D01*
X20212713Y-30693642D01*
X20291819Y-30699813D01*
X20352892Y-30704427D01*
X20393590Y-30707300D01*
X20411570Y-30708246D01*
X20419808Y-30705749D01*
X20437599Y-30694529D01*
X20464411Y-30673249D01*
X20476129Y-30662979D01*
X20501466Y-30640775D01*
X20549986Y-30595977D01*
X20611192Y-30537719D01*
X20686307Y-30464871D01*
X20776550Y-30376297D01*
X20883145Y-30270866D01*
X20953093Y-30201508D01*
X21050658Y-30104821D01*
X21147941Y-30008474D01*
X21242014Y-29915362D01*
X21329950Y-29828382D01*
X21408820Y-29750431D01*
X21475699Y-29684404D01*
X21527658Y-29633198D01*
X21731620Y-29432486D01*
X21769671Y-29468942D01*
X21778245Y-29477540D01*
X21799297Y-29502905D01*
X21807723Y-29520305D01*
X21800530Y-29533929D01*
X21778944Y-29559257D01*
X21747995Y-29589621D01*
X21728448Y-29608104D01*
X21692752Y-29642573D01*
X21642684Y-29691288D01*
X21580001Y-29752531D01*
X21506457Y-29824580D01*
X21423810Y-29905715D01*
X21333815Y-29994216D01*
X21238228Y-30088363D01*
X21138805Y-30186435D01*
X20589343Y-30728839D01*
X20874746Y-30750934D01*
X20935662Y-30755750D01*
X21017548Y-30762784D01*
X21079569Y-30769128D01*
X21124987Y-30775252D01*
X21157062Y-30781627D01*
X21179052Y-30788723D01*
X21194219Y-30797009D01*
X21215416Y-30808607D01*
X21254386Y-30818150D01*
X21310531Y-30820990D01*
X21392773Y-30820990D01*
X21392773Y-31047326D01*
X21216733Y-31047326D01*
X21216733Y-31892918D01*
X21272262Y-31941797D01*
X21286722Y-31955164D01*
X21344813Y-32027612D01*
X21380576Y-32109468D01*
X21392773Y-32198100D01*
X21386306Y-32276308D01*
X21359047Y-32364767D01*
X21310328Y-32440493D01*
X21296403Y-32455252D01*
X21251328Y-32492136D01*
X21198819Y-32524497D01*
X21147061Y-32547703D01*
X21104239Y-32557121D01*
X21098023Y-32557303D01*
X21075246Y-32558658D01*
X21059513Y-32562200D01*
X21052068Y-32569610D01*
X21054156Y-32582569D01*
X21067020Y-32602757D01*
X21091905Y-32631855D01*
X21130053Y-32671544D01*
X21182710Y-32723504D01*
X21251119Y-32789416D01*
X21336524Y-32870960D01*
X21382112Y-32914396D01*
X21458441Y-32987000D01*
X21530808Y-33055691D01*
X21596366Y-33117777D01*
X21652274Y-33170566D01*
X21695686Y-33211366D01*
X21723758Y-33237485D01*
X21801436Y-33308881D01*
X21713416Y-33397137D01*
X21141287Y-32851310D01*
X21105188Y-32816895D01*
X20976272Y-32694454D01*
X20864754Y-32589349D01*
X20770288Y-32501264D01*
X20692529Y-32429884D01*
X20631131Y-32374895D01*
X20585748Y-32335981D01*
X20556035Y-32312827D01*
X20541644Y-32305118D01*
X20541559Y-32305117D01*
X20523624Y-32306175D01*
X20483421Y-32309263D01*
X20423687Y-32314142D01*
X20347158Y-32320568D01*
X20256569Y-32328300D01*
X20154657Y-32337095D01*
X20044159Y-32346713D01*
X19927811Y-32356909D01*
X19808348Y-32367444D01*
X19688507Y-32378074D01*
X19571025Y-32388558D01*
X19458637Y-32398654D01*
X19354081Y-32408119D01*
X19260091Y-32416712D01*
X19179405Y-32424191D01*
X19114759Y-32430313D01*
X19068888Y-32434838D01*
X19044530Y-32437522D01*
X18991089Y-32444610D01*
X18991089Y-32719703D01*
X18780471Y-32720032D01*
X18569852Y-32720361D01*
X18110891Y-33172086D01*
X17651931Y-33623811D01*
X17564848Y-33624430D01*
X17477767Y-33625049D01*
X18026952Y-33083231D01*
X18079998Y-33030863D01*
X18189772Y-32922197D01*
X18283114Y-32829291D01*
X18361173Y-32750945D01*
X18425097Y-32685957D01*
X18476035Y-32633128D01*
X18489126Y-32619109D01*
X18671172Y-32619109D01*
X18890495Y-32619109D01*
X18890495Y-32537376D01*
X18890489Y-32530105D01*
X18889613Y-32489050D01*
X18885867Y-32466723D01*
X18877270Y-32457471D01*
X18861840Y-32455643D01*
X18839159Y-32463694D01*
X18801428Y-32491270D01*
X18752179Y-32537376D01*
X18671172Y-32619109D01*
X18489126Y-32619109D01*
X18515135Y-32591257D01*
X18543548Y-32559145D01*
X18562420Y-32535590D01*
X18572901Y-32519392D01*
X18576139Y-32509351D01*
X18575158Y-32492421D01*
X18567996Y-32482916D01*
X18548401Y-32481277D01*
X18510124Y-32485218D01*
X18486025Y-32487935D01*
X18445744Y-32491716D01*
X18418961Y-32493240D01*
X18409728Y-32493985D01*
X18399839Y-32501254D01*
X18396562Y-32521332D01*
X18397992Y-32560311D01*
X18398553Y-32570263D01*
X18397921Y-32610102D01*
X18389167Y-32638440D01*
X18369289Y-32666370D01*
X18365104Y-32671180D01*
X18314427Y-32710518D01*
X18255934Y-32727828D01*
X18194575Y-32722526D01*
X18135297Y-32694025D01*
X18131606Y-32691267D01*
X18099851Y-32653178D01*
X18081067Y-32603524D01*
X18076071Y-32549998D01*
X18085678Y-32500293D01*
X18110704Y-32462100D01*
X18123480Y-32449169D01*
X18126576Y-32436572D01*
X18116998Y-32418533D01*
X18093082Y-32388072D01*
X18085731Y-32378726D01*
X18039339Y-32306570D01*
X17998084Y-32221085D01*
X17964936Y-32130233D01*
X17942868Y-32041973D01*
X17934852Y-31964264D01*
X17934788Y-31956009D01*
X17930321Y-31910121D01*
X17917795Y-31884921D01*
X17895784Y-31877227D01*
X17888849Y-31876324D01*
X17882885Y-31871385D01*
X17878519Y-31859389D01*
X17875503Y-31837320D01*
X17873590Y-31802164D01*
X17872530Y-31750906D01*
X17872077Y-31680529D01*
X17871980Y-31588020D01*
X17872150Y-31501340D01*
X17872834Y-31427668D01*
X17873558Y-31399406D01*
X17972575Y-31399406D01*
X17972575Y-31776633D01*
X18035446Y-31776633D01*
X18035446Y-31399406D01*
X17972575Y-31399406D01*
X17873558Y-31399406D01*
X17874215Y-31373735D01*
X17876470Y-31336712D01*
X17879778Y-31313770D01*
X17884320Y-31302080D01*
X17890272Y-31298812D01*
X18032893Y-31298812D01*
X18136040Y-31298812D01*
X18136040Y-31877227D01*
X18045122Y-31877227D01*
X18053753Y-31949529D01*
X18072249Y-32060002D01*
X18105691Y-32171184D01*
X18152324Y-32263150D01*
X18212786Y-32337458D01*
X18261782Y-32385302D01*
X18261782Y-30970779D01*
X18171095Y-30974474D01*
X18080407Y-30978168D01*
X18065252Y-31053614D01*
X18058379Y-31091449D01*
X18048756Y-31154632D01*
X18041496Y-31213935D01*
X18032893Y-31298812D01*
X17890272Y-31298812D01*
X17904888Y-31288063D01*
X17914215Y-31257945D01*
X17915847Y-31246418D01*
X17921591Y-31207114D01*
X17929378Y-31154812D01*
X17938003Y-31097624D01*
X17942393Y-31066084D01*
X17947148Y-31019926D01*
X17948295Y-30987359D01*
X17945495Y-30973977D01*
X17943671Y-30971692D01*
X17939165Y-30950595D01*
X17936029Y-30912645D01*
X17934852Y-30863952D01*
X17934852Y-30758119D01*
X17972575Y-30758106D01*
X17975718Y-30758106D01*
X17988668Y-30757612D01*
X18010411Y-30751181D01*
X18010967Y-30750629D01*
X18161188Y-30750629D01*
X18162463Y-30752303D01*
X18179976Y-30756456D01*
X18211485Y-30758119D01*
X18261782Y-30758119D01*
X18261782Y-30701092D01*
X18261662Y-30684007D01*
X18259462Y-30658692D01*
X18257856Y-30657045D01*
X18374951Y-30657045D01*
X18374951Y-32375148D01*
X18422104Y-32370987D01*
X18443498Y-32369065D01*
X18501909Y-32363076D01*
X18540381Y-32357174D01*
X18562912Y-32350273D01*
X18573498Y-32341288D01*
X18576139Y-32329130D01*
X18577937Y-32318199D01*
X18583438Y-32313558D01*
X18995703Y-32313558D01*
X19003732Y-32313747D01*
X19034653Y-32312092D01*
X19086653Y-32308451D01*
X19157487Y-32303005D01*
X19244911Y-32295937D01*
X19346681Y-32287430D01*
X19460552Y-32277665D01*
X19584279Y-32266826D01*
X19715618Y-32255093D01*
X19816908Y-32245921D01*
X19942526Y-32234434D01*
X20058762Y-32223678D01*
X20163380Y-32213869D01*
X20254140Y-32205219D01*
X20328804Y-32197943D01*
X20385134Y-32192254D01*
X20420891Y-32188366D01*
X20433837Y-32186494D01*
X20429826Y-32180812D01*
X20410138Y-32159980D01*
X20376322Y-32126128D01*
X20330837Y-32081588D01*
X20276146Y-32028690D01*
X20214710Y-31969764D01*
X20148990Y-31907142D01*
X20081449Y-31843152D01*
X20014547Y-31780126D01*
X19950746Y-31720394D01*
X19892507Y-31666287D01*
X19842292Y-31620135D01*
X19802563Y-31584267D01*
X19775780Y-31561016D01*
X19764406Y-31552710D01*
X19753383Y-31560852D01*
X19726999Y-31584522D01*
X19687527Y-31621522D01*
X19637191Y-31669650D01*
X19578217Y-31726704D01*
X19512830Y-31790480D01*
X19443255Y-31858778D01*
X19371716Y-31929395D01*
X19300438Y-32000129D01*
X19231647Y-32068778D01*
X19167566Y-32133139D01*
X19110422Y-32191011D01*
X19062439Y-32240190D01*
X19025841Y-32278476D01*
X19002854Y-32303666D01*
X18995703Y-32313558D01*
X18583438Y-32313558D01*
X18586530Y-32310950D01*
X18606505Y-32306900D01*
X18642450Y-32305137D01*
X18698952Y-32304752D01*
X18821766Y-32304752D01*
X18861840Y-32264553D01*
X18959654Y-32166435D01*
X19097542Y-32028119D01*
X18991089Y-32028119D01*
X18991089Y-31273663D01*
X19230000Y-31273663D01*
X19230000Y-31892169D01*
X19446906Y-31682408D01*
X19488334Y-31642230D01*
X19545200Y-31586672D01*
X19594082Y-31538430D01*
X19632441Y-31500029D01*
X19657741Y-31473997D01*
X19667442Y-31462860D01*
X19664767Y-31458627D01*
X19662222Y-31455818D01*
X19863046Y-31455818D01*
X19867405Y-31463556D01*
X19887241Y-31486605D01*
X19920375Y-31521291D01*
X19963820Y-31564513D01*
X20014587Y-31613168D01*
X20028051Y-31625860D01*
X20088275Y-31682771D01*
X20159864Y-31750586D01*
X20237437Y-31824200D01*
X20315611Y-31898507D01*
X20389005Y-31968401D01*
X20393409Y-31972599D01*
X20461785Y-32037580D01*
X20514732Y-32087164D01*
X20554767Y-32123312D01*
X20584411Y-32147984D01*
X20606181Y-32163142D01*
X20622595Y-32170744D01*
X20636174Y-32172753D01*
X20649434Y-32171128D01*
X20650819Y-32170844D01*
X20682228Y-32157302D01*
X20696863Y-32130252D01*
X20728063Y-32046871D01*
X20780038Y-31972582D01*
X20848791Y-31914154D01*
X20931315Y-31874110D01*
X21024606Y-31854974D01*
X21103565Y-31848636D01*
X21103565Y-30899162D01*
X21075273Y-30892542D01*
X21068329Y-30891371D01*
X21037281Y-30887732D01*
X20987081Y-30882766D01*
X20921727Y-30876843D01*
X20845219Y-30870331D01*
X20761555Y-30863599D01*
X20476129Y-30841276D01*
X20170565Y-31142174D01*
X20114704Y-31197364D01*
X20046888Y-31264891D01*
X19986643Y-31325471D01*
X19936052Y-31376979D01*
X19897200Y-31417290D01*
X19872170Y-31444278D01*
X19863046Y-31455818D01*
X19662222Y-31455818D01*
X19646782Y-31438776D01*
X19613481Y-31404549D01*
X19566712Y-31357773D01*
X19508325Y-31300276D01*
X19440169Y-31233888D01*
X19364094Y-31160436D01*
X19281950Y-31081749D01*
X19198943Y-31002659D01*
X19117136Y-30925129D01*
X19050083Y-30862254D01*
X18996007Y-30812498D01*
X18953129Y-30774322D01*
X18919673Y-30746189D01*
X18893861Y-30726560D01*
X18890135Y-30724195D01*
X19084674Y-30724195D01*
X19084908Y-30724616D01*
X19096350Y-30736491D01*
X19123198Y-30762870D01*
X19163018Y-30801430D01*
X19213372Y-30849847D01*
X19271828Y-30905797D01*
X19335948Y-30966958D01*
X19403298Y-31031005D01*
X19471443Y-31095615D01*
X19537948Y-31158465D01*
X19600377Y-31217232D01*
X19656295Y-31269591D01*
X19764406Y-31370467D01*
X19766477Y-31372399D01*
X20041968Y-31096695D01*
X20109224Y-31029274D01*
X20172162Y-30965733D01*
X20220100Y-30916510D01*
X20254594Y-30879804D01*
X20277199Y-30853810D01*
X20289471Y-30836724D01*
X20292966Y-30826744D01*
X20289238Y-30822065D01*
X20279844Y-30820884D01*
X20264749Y-30820127D01*
X20225883Y-30817399D01*
X20166895Y-30812892D01*
X20090473Y-30806821D01*
X19999305Y-30799404D01*
X19896080Y-30790858D01*
X19783483Y-30781398D01*
X19664205Y-30771242D01*
X19559077Y-30762277D01*
X19448351Y-30752934D01*
X19347814Y-30744557D01*
X19259943Y-30737347D01*
X19187215Y-30731504D01*
X19132110Y-30727231D01*
X19097104Y-30724727D01*
X19084674Y-30724195D01*
X18890135Y-30724195D01*
X18873914Y-30713899D01*
X18858056Y-30706666D01*
X18844509Y-30703325D01*
X18837910Y-30702439D01*
X18801548Y-30698512D01*
X18748018Y-30693541D01*
X18683421Y-30688073D01*
X18613862Y-30682656D01*
X18589635Y-30680819D01*
X18524178Y-30675512D01*
X18467717Y-30670452D01*
X18425618Y-30666137D01*
X18403243Y-30663066D01*
X18374951Y-30657045D01*
X18257856Y-30657045D01*
X18252334Y-30651384D01*
X18237508Y-30657057D01*
X18234682Y-30658733D01*
X18212944Y-30677552D01*
X18188820Y-30704817D01*
X18169254Y-30732013D01*
X18161188Y-30750629D01*
X18010967Y-30750629D01*
X18028851Y-30732877D01*
X18050801Y-30697170D01*
X18070854Y-30665826D01*
X18109356Y-30618107D01*
X18152579Y-30574862D01*
X18194627Y-30541781D01*
X18229604Y-30524558D01*
X18243081Y-30520338D01*
X18252334Y-30512520D01*
X18255454Y-30509884D01*
X18260696Y-30488338D01*
X18261782Y-30448686D01*
X18261782Y-30380891D01*
X18374951Y-30380891D01*
X18374951Y-30540423D01*
X18552732Y-30555318D01*
X18577037Y-30557318D01*
X18637880Y-30561977D01*
X18687389Y-30565269D01*
X18720992Y-30566908D01*
X18734116Y-30566610D01*
X18730343Y-30562276D01*
X18710676Y-30542504D01*
X18675818Y-30508321D01*
X18627576Y-30461459D01*
X18567757Y-30403646D01*
X18498167Y-30336613D01*
X18420615Y-30262088D01*
X18336907Y-30181803D01*
X18248849Y-30097487D01*
X18158250Y-30010870D01*
X18066915Y-29923681D01*
X17976653Y-29837651D01*
X17889269Y-29754508D01*
X17806572Y-29675984D01*
X17730368Y-29603808D01*
X17662463Y-29539709D01*
X17604666Y-29485417D01*
X17501040Y-29388408D01*
X17589315Y-29387966D01*
X17677589Y-29387525D01*
X18309158Y-29988062D01*
G37*
%TD*%
M02*
