M48
; DRILL file {KiCad 7.0.10} date Tue Mar  5 22:47:08 2024
; FORMAT={-:-/ absolute / metric / decimal}
; #@! TF.CreationDate,2024-03-05T22:47:08+11:00
; #@! TF.GenerationSoftware,Kicad,Pcbnew,7.0.10
; #@! TF.FileFunction,Plated,1,2,PTH
FMAT,2
METRIC
; #@! TA.AperFunction,Plated,PTH,ViaDrill
T1C0.400
; #@! TA.AperFunction,Plated,PTH,ComponentDrill
T2C0.550
; #@! TA.AperFunction,Plated,PTH,ComponentDrill
T3C0.600
; #@! TA.AperFunction,Plated,PTH,ViaDrill
T4C0.800
%
G90
G05
T1
X-23.8Y-35.3
X-16.8Y-32.9
X-16.255Y-37.505
X-13.75Y-38.75
X-13.0Y-33.1
X-13.0Y-34.2
X-13.0Y-35.3
X-12.75Y-36.55
X-12.0Y-35.3
X-11.7Y-32.9
X-10.4Y-35.3
X-9.3Y-35.3
X-8.9Y-33.225
X-8.4Y-34.8
X-8.4Y-35.9
X-8.4Y-36.9
X-5.95Y-39.9
X-4.9Y-36.3
X-4.8Y-39.9
X3.0Y-37.0
X4.0Y-35.5
X4.0Y-37.0
X5.0Y-37.0
X6.0Y-35.0
X8.8Y-38.7
X13.5Y-38.7
X18.2Y-38.7
X22.9Y-38.7
T4
X8.5Y-30.0
T2
G00X-24.025Y-39.675
M15
G01X-24.025Y-40.325
M16
G05
G00X-16.975Y-40.325
M15
G01X-16.975Y-39.675
M16
G05
T3
G00X-23.15Y-37.3
M15
G01X-22.85Y-37.3
M16
G05
G00X-18.15Y-37.3
M15
G01X-17.85Y-37.3
M16
G05
M30
