%TF.GenerationSoftware,KiCad,Pcbnew,7.0.10*%
%TF.CreationDate,2024-04-16T16:18:53+10:00*%
%TF.ProjectId,cptibp1a-pcb,63707469-6270-4316-912d-7063622e6b69,rev?*%
%TF.SameCoordinates,Original*%
%TF.FileFunction,Profile,NP*%
%FSLAX46Y46*%
G04 Gerber Fmt 4.6, Leading zero omitted, Abs format (unit mm)*
G04 Created by KiCad (PCBNEW 7.0.10) date 2024-04-16 16:18:53*
%MOMM*%
%LPD*%
G01*
G04 APERTURE LIST*
%TA.AperFunction,Profile*%
%ADD10C,0.100000*%
%TD*%
G04 APERTURE END LIST*
D10*
X-7500000Y-1000000D02*
G75*
G03*
X-6500000Y-2000000I999999J-1D01*
G01*
X-10500000Y-41000000D02*
G75*
G03*
X-11500000Y-42000000I-1J-999999D01*
G01*
X-16500000Y0D02*
G75*
G03*
X-15500000Y-1000000I999999J-1D01*
G01*
X-10500000Y-41000000D02*
X15500000Y-41000000D01*
X-11500000Y-42000000D02*
X-24250000Y-42000000D01*
X15500000Y-1000000D02*
G75*
G03*
X16500000Y0I0J1000000D01*
G01*
X16500000Y0D02*
X24250000Y0D01*
X25250000Y-1000000D02*
X25250000Y-41000000D01*
X-24250000Y0D02*
X-16500000Y0D01*
X6500000Y-2000000D02*
G75*
G03*
X7500000Y-1000000I0J1000000D01*
G01*
X7500000Y-1000000D02*
X15500000Y-1000000D01*
X25250000Y-1000000D02*
G75*
G03*
X24250000Y0I-1000000J0D01*
G01*
X-25250000Y-41000000D02*
X-25250000Y-1000000D01*
X-6500000Y-2000000D02*
X6500000Y-2000000D01*
X-15500000Y-1000000D02*
X-7500000Y-1000000D01*
X24250000Y-42000000D02*
G75*
G03*
X25250000Y-41000000I0J1000000D01*
G01*
X-24250000Y0D02*
G75*
G03*
X-25250000Y-1000000I-1J-999999D01*
G01*
X-25250000Y-41000000D02*
G75*
G03*
X-24250000Y-42000000I999999J-1D01*
G01*
X16500000Y-42000000D02*
G75*
G03*
X15500000Y-41000000I-1000000J0D01*
G01*
X16500000Y-42000000D02*
X24250000Y-42000000D01*
M02*
