M48
; DRILL file {KiCad 7.0.10} date Tue Apr 16 15:47:20 2024
; FORMAT={-:-/ absolute / metric / decimal}
; #@! TF.CreationDate,2024-04-16T15:47:20+10:00
; #@! TF.GenerationSoftware,Kicad,Pcbnew,7.0.10
; #@! TF.FileFunction,Plated,1,2,PTH
FMAT,2
METRIC
; #@! TA.AperFunction,Plated,PTH,ViaDrill
T1C0.400
; #@! TA.AperFunction,Plated,PTH,ComponentDrill
T2C0.550
; #@! TA.AperFunction,Plated,PTH,ComponentDrill
T3C0.600
; #@! TA.AperFunction,Plated,PTH,ViaDrill
T4C0.800
%
G90
G05
T1
X-23.8Y-35.3
X-16.8Y-32.9
X-16.255Y-37.505
X-13.75Y-38.75
X-13.0Y-33.1
X-13.0Y-34.2
X-13.0Y-35.3
X-12.75Y-36.55
X-12.0Y-35.3
X-11.7Y-32.9
X-10.4Y-35.3
X-9.75Y-32.35
X-9.3Y-35.3
X-8.8Y-29.1
X-7.9Y-39.0
X-7.15Y-40.0
X-4.9Y-36.3
X-0.9Y-37.6
X0.235Y-37.574
X0.4Y-35.7
X2.5Y-39.0
X2.7Y-34.2
X4.6Y-37.9
X4.6Y-39.0
X7.2Y-37.9
X7.2Y-39.0
X8.7Y-40.0
X9.2Y-38.7
X13.8Y-38.7
X18.2Y-38.7
X22.9Y-38.7
T4
X8.5Y-29.5
T2
G00X-24.025Y-39.675
M15
G01X-24.025Y-40.325
M16
G05
G00X-16.975Y-40.325
M15
G01X-16.975Y-39.675
M16
G05
T3
G00X-23.15Y-37.3
M15
G01X-22.85Y-37.3
M16
G05
G00X-18.15Y-37.3
M15
G01X-17.85Y-37.3
M16
G05
M30
