%TF.GenerationSoftware,KiCad,Pcbnew,7.0.10*%
%TF.CreationDate,2024-03-23T21:36:50+11:00*%
%TF.ProjectId,cptibp1a-pcb,63707469-6270-4316-912d-7063622e6b69,rev?*%
%TF.SameCoordinates,Original*%
%TF.FileFunction,Copper,L1,Top*%
%TF.FilePolarity,Positive*%
%FSLAX46Y46*%
G04 Gerber Fmt 4.6, Leading zero omitted, Abs format (unit mm)*
G04 Created by KiCad (PCBNEW 7.0.10) date 2024-03-23 21:36:50*
%MOMM*%
%LPD*%
G01*
G04 APERTURE LIST*
G04 Aperture macros list*
%AMRoundRect*
0 Rectangle with rounded corners*
0 $1 Rounding radius*
0 $2 $3 $4 $5 $6 $7 $8 $9 X,Y pos of 4 corners*
0 Add a 4 corners polygon primitive as box body*
4,1,4,$2,$3,$4,$5,$6,$7,$8,$9,$2,$3,0*
0 Add four circle primitives for the rounded corners*
1,1,$1+$1,$2,$3*
1,1,$1+$1,$4,$5*
1,1,$1+$1,$6,$7*
1,1,$1+$1,$8,$9*
0 Add four rect primitives between the rounded corners*
20,1,$1+$1,$2,$3,$4,$5,0*
20,1,$1+$1,$4,$5,$6,$7,0*
20,1,$1+$1,$6,$7,$8,$9,0*
20,1,$1+$1,$8,$9,$2,$3,0*%
G04 Aperture macros list end*
%TA.AperFunction,SMDPad,CuDef*%
%ADD10RoundRect,0.250000X-0.450000X0.262500X-0.450000X-0.262500X0.450000X-0.262500X0.450000X0.262500X0*%
%TD*%
%TA.AperFunction,SMDPad,CuDef*%
%ADD11RoundRect,0.050000X-0.500000X-0.250000X0.500000X-0.250000X0.500000X0.250000X-0.500000X0.250000X0*%
%TD*%
%TA.AperFunction,SMDPad,CuDef*%
%ADD12RoundRect,0.050000X0.500000X0.250000X-0.500000X0.250000X-0.500000X-0.250000X0.500000X-0.250000X0*%
%TD*%
%TA.AperFunction,SMDPad,CuDef*%
%ADD13RoundRect,0.150000X-0.587500X-0.150000X0.587500X-0.150000X0.587500X0.150000X-0.587500X0.150000X0*%
%TD*%
%TA.AperFunction,SMDPad,CuDef*%
%ADD14RoundRect,0.250000X-1.000000X1.350000X-1.000000X-1.350000X1.000000X-1.350000X1.000000X1.350000X0*%
%TD*%
%TA.AperFunction,SMDPad,CuDef*%
%ADD15RoundRect,0.243750X-0.243750X-0.456250X0.243750X-0.456250X0.243750X0.456250X-0.243750X0.456250X0*%
%TD*%
%TA.AperFunction,SMDPad,CuDef*%
%ADD16RoundRect,0.250000X-0.475000X0.250000X-0.475000X-0.250000X0.475000X-0.250000X0.475000X0.250000X0*%
%TD*%
%TA.AperFunction,SMDPad,CuDef*%
%ADD17RoundRect,0.250000X0.450000X-0.262500X0.450000X0.262500X-0.450000X0.262500X-0.450000X-0.262500X0*%
%TD*%
%TA.AperFunction,SMDPad,CuDef*%
%ADD18RoundRect,0.250000X-0.250000X-0.475000X0.250000X-0.475000X0.250000X0.475000X-0.250000X0.475000X0*%
%TD*%
%TA.AperFunction,SMDPad,CuDef*%
%ADD19RoundRect,0.050000X-0.250000X0.500000X-0.250000X-0.500000X0.250000X-0.500000X0.250000X0.500000X0*%
%TD*%
%TA.AperFunction,SMDPad,CuDef*%
%ADD20RoundRect,0.225000X0.225000X0.375000X-0.225000X0.375000X-0.225000X-0.375000X0.225000X-0.375000X0*%
%TD*%
%TA.AperFunction,SMDPad,CuDef*%
%ADD21R,0.400000X1.350000*%
%TD*%
%TA.AperFunction,ComponentPad*%
%ADD22O,1.600000X0.800000*%
%TD*%
%TA.AperFunction,ComponentPad*%
%ADD23O,0.750000X1.550000*%
%TD*%
%TA.AperFunction,SMDPad,CuDef*%
%ADD24R,1.300000X1.550000*%
%TD*%
%TA.AperFunction,SMDPad,CuDef*%
%ADD25R,1.500000X1.550000*%
%TD*%
%TA.AperFunction,SMDPad,CuDef*%
%ADD26RoundRect,0.250000X0.475000X-0.250000X0.475000X0.250000X-0.475000X0.250000X-0.475000X-0.250000X0*%
%TD*%
%TA.AperFunction,SMDPad,CuDef*%
%ADD27RoundRect,0.250000X-0.262500X-0.450000X0.262500X-0.450000X0.262500X0.450000X-0.262500X0.450000X0*%
%TD*%
%TA.AperFunction,SMDPad,CuDef*%
%ADD28RoundRect,0.150000X-0.625000X0.150000X-0.625000X-0.150000X0.625000X-0.150000X0.625000X0.150000X0*%
%TD*%
%TA.AperFunction,SMDPad,CuDef*%
%ADD29RoundRect,0.250000X-0.650000X0.350000X-0.650000X-0.350000X0.650000X-0.350000X0.650000X0.350000X0*%
%TD*%
%TA.AperFunction,SMDPad,CuDef*%
%ADD30RoundRect,0.150000X0.512500X0.150000X-0.512500X0.150000X-0.512500X-0.150000X0.512500X-0.150000X0*%
%TD*%
%TA.AperFunction,SMDPad,CuDef*%
%ADD31RoundRect,0.250000X1.000000X0.650000X-1.000000X0.650000X-1.000000X-0.650000X1.000000X-0.650000X0*%
%TD*%
%TA.AperFunction,ViaPad*%
%ADD32C,0.800000*%
%TD*%
%TA.AperFunction,ViaPad*%
%ADD33C,1.200000*%
%TD*%
%TA.AperFunction,Conductor*%
%ADD34C,0.600000*%
%TD*%
%TA.AperFunction,Conductor*%
%ADD35C,0.400000*%
%TD*%
%TA.AperFunction,Conductor*%
%ADD36C,0.250000*%
%TD*%
%TA.AperFunction,Conductor*%
%ADD37C,0.800000*%
%TD*%
G04 APERTURE END LIST*
D10*
%TO.P,R6,1*%
%TO.N,/GND*%
X5800000Y-34637500D03*
%TO.P,R6,2*%
%TO.N,Net-(U6-~{OC})*%
X5800000Y-36462500D03*
%TD*%
D11*
%TO.P,U1,1,IN*%
%TO.N,/VBUS1*%
X-23800000Y-33100000D03*
%TO.P,U1,2,GND*%
%TO.N,/GND*%
X-23800000Y-34050000D03*
%TO.P,U1,3,~{EN}*%
X-23800000Y-35000000D03*
%TO.P,U1,4,~{FLAG}*%
%TO.N,unconnected-(U1-~{FLAG}-Pad4)*%
X-21200000Y-35000000D03*
%TO.P,U1,5,OUT*%
%TO.N,/VBUS*%
X-21200000Y-33100000D03*
%TD*%
D12*
%TO.P,U6,1,OUT*%
%TO.N,/VOUTF*%
X6000000Y-40000000D03*
%TO.P,U6,2,GND*%
%TO.N,/GND*%
X6000000Y-39050000D03*
%TO.P,U6,3,~{OC}*%
%TO.N,Net-(U6-~{OC})*%
X6000000Y-38100000D03*
%TO.P,U6,4,EN*%
%TO.N,/VOUT*%
X3400000Y-38100000D03*
%TO.P,U6,5,IN*%
X3400000Y-40000000D03*
%TD*%
D13*
%TO.P,Q2,1,G*%
%TO.N,/G*%
X-2437500Y-38100000D03*
%TO.P,Q2,2,S*%
%TO.N,/VOUT*%
X-2437500Y-40000000D03*
%TO.P,Q2,3,D*%
%TO.N,/VCC*%
X-562500Y-39050000D03*
%TD*%
D14*
%TO.P,C6,1*%
%TO.N,/VOUTF*%
X11400000Y-31300000D03*
%TO.P,C6,2*%
%TO.N,/GND*%
X11400000Y-38700000D03*
%TD*%
D15*
%TO.P,D2,1,K*%
%TO.N,/CHG*%
X-15387500Y-40250000D03*
%TO.P,D2,2,A*%
%TO.N,/LCHG*%
X-13512500Y-40250000D03*
%TD*%
D13*
%TO.P,Q1,1,G*%
%TO.N,/VBUS*%
X-19375000Y-33100000D03*
%TO.P,Q1,2,S*%
%TO.N,/GND*%
X-19375000Y-35000000D03*
%TO.P,Q1,3,D*%
%TO.N,/PROG2*%
X-17500000Y-34050000D03*
%TD*%
D16*
%TO.P,C4,1*%
%TO.N,/B+*%
X-450000Y-34600000D03*
%TO.P,C4,2*%
%TO.N,/GND*%
X-450000Y-36500000D03*
%TD*%
D10*
%TO.P,R2,1*%
%TO.N,/PROG2*%
X-15200000Y-36637500D03*
%TO.P,R2,2*%
%TO.N,/PROG*%
X-15200000Y-38462500D03*
%TD*%
D17*
%TO.P,R4,1*%
%TO.N,/LCHG*%
X-11500000Y-40012500D03*
%TO.P,R4,2*%
%TO.N,/VCC*%
X-11500000Y-38187500D03*
%TD*%
%TO.P,R5,1*%
%TO.N,/GND*%
X-7950000Y-35762500D03*
%TO.P,R5,2*%
%TO.N,/TS*%
X-7950000Y-33937500D03*
%TD*%
D18*
%TO.P,C1,1*%
%TO.N,/VBUS1*%
X-23850000Y-31250000D03*
%TO.P,C1,2*%
%TO.N,/GND*%
X-21950000Y-31250000D03*
%TD*%
D11*
%TO.P,U5,1,VDD*%
%TO.N,/B+*%
X1400000Y-34600000D03*
%TO.P,U5,2,GND*%
%TO.N,/GND*%
X1400000Y-35550000D03*
%TO.P,U5,3,EN*%
%TO.N,/EN*%
X1400000Y-36500000D03*
%TO.P,U5,4,NC*%
%TO.N,unconnected-(U5-NC-Pad4)*%
X4000000Y-36500000D03*
%TO.P,U5,5,OUT*%
%TO.N,/VOUT*%
X4000000Y-34600000D03*
%TD*%
D19*
%TO.P,U3,1,TS*%
%TO.N,/TS*%
X-9800000Y-33950000D03*
%TO.P,U3,2,VOUT*%
%TO.N,/B+*%
X-10750000Y-33950000D03*
%TO.P,U3,3,~{CHG}*%
%TO.N,/CHG*%
X-11700000Y-33950000D03*
%TO.P,U3,4,ISET*%
%TO.N,/PROG*%
X-11700000Y-36550000D03*
%TO.P,U3,5,GND*%
%TO.N,/GND*%
X-10750000Y-36550000D03*
%TO.P,U3,6,VIN*%
%TO.N,/VCC*%
X-9800000Y-36550000D03*
%TD*%
D20*
%TO.P,D1,1,K*%
%TO.N,/VCC*%
X-12350000Y-31200000D03*
%TO.P,D1,2,A*%
%TO.N,/VBUS*%
X-15650000Y-31200000D03*
%TD*%
D21*
%TO.P,J1,1,1*%
%TO.N,/VBUS1*%
X-21800000Y-37325000D03*
%TO.P,J1,2,2*%
%TO.N,unconnected-(J1-Pad2)*%
X-21150000Y-37325000D03*
%TO.P,J1,3,3*%
%TO.N,unconnected-(J1-Pad3)*%
X-20500000Y-37325000D03*
%TO.P,J1,4,4*%
%TO.N,unconnected-(J1-Pad4)*%
X-19850000Y-37325000D03*
%TO.P,J1,5,5*%
%TO.N,/GND*%
X-19200000Y-37325000D03*
D22*
%TO.P,J1,S1,SHIELD*%
X-23000000Y-37300000D03*
%TO.P,J1,S2,SHIELD__1*%
X-18000000Y-37300000D03*
D23*
%TO.P,J1,S3,SHIELD__2*%
X-24025000Y-40000000D03*
D24*
X-23400000Y-40000000D03*
D25*
%TO.P,J1,S4,SHIELD__3*%
X-21500000Y-40000000D03*
%TO.P,J1,S5,SHIELD__4*%
X-19500000Y-40000000D03*
D24*
%TO.P,J1,S6,SHIELD__5*%
X-17600000Y-40000000D03*
D23*
X-16975000Y-40000000D03*
%TD*%
D14*
%TO.P,C7,1*%
%TO.N,/VOUTF*%
X20500000Y-31300000D03*
%TO.P,C7,2*%
%TO.N,/GND*%
X20500000Y-38700000D03*
%TD*%
D26*
%TO.P,C3,1*%
%TO.N,/VOUT*%
X1500000Y-40050000D03*
%TO.P,C3,2*%
%TO.N,/GND*%
X1500000Y-38150000D03*
%TD*%
D27*
%TO.P,R1,1*%
%TO.N,/GND*%
X-19112500Y-31250000D03*
%TO.P,R1,2*%
%TO.N,/VBUS*%
X-17287500Y-31250000D03*
%TD*%
D16*
%TO.P,C2,1*%
%TO.N,/VCC*%
X-9300000Y-38150000D03*
%TO.P,C2,2*%
%TO.N,/GND*%
X-9300000Y-40050000D03*
%TD*%
D28*
%TO.P,BT1,1,Pin_1*%
%TO.N,/B+*%
X-5525000Y-32700000D03*
%TO.P,BT1,2,Pin_2*%
%TO.N,/TS*%
X-5525000Y-33700000D03*
%TO.P,BT1,3,Pin_3*%
%TO.N,/GND*%
X-5525000Y-34700000D03*
D29*
%TO.P,BT1,MP*%
%TO.N,N/C*%
X-3000000Y-31400000D03*
X-3000000Y-36000000D03*
%TD*%
D30*
%TO.P,U2,1,GND*%
%TO.N,/GND*%
X-8262500Y-32350000D03*
%TO.P,U2,2,~{RESET}*%
%TO.N,/EN*%
X-8262500Y-30450000D03*
%TO.P,U2,3,VCC*%
%TO.N,/B+*%
X-10537500Y-31400000D03*
%TD*%
D10*
%TO.P,R3,1*%
%TO.N,/GND*%
X-15200000Y-33175000D03*
%TO.P,R3,2*%
%TO.N,/PROG2*%
X-15200000Y-35000000D03*
%TD*%
D30*
%TO.P,U4,1,GND*%
%TO.N,/GND*%
X-4450000Y-40000000D03*
%TO.P,U4,2,RESET*%
%TO.N,/G*%
X-4450000Y-38100000D03*
%TO.P,U4,3,VCC*%
%TO.N,/VOUTF*%
X-6725000Y-39050000D03*
%TD*%
D31*
%TO.P,D3,1,K*%
%TO.N,/VOUTF*%
X5000000Y-32000000D03*
%TO.P,D3,2,A*%
%TO.N,/GND*%
X1000000Y-32000000D03*
%TD*%
D32*
%TO.N,/GND*%
X2700000Y-34200000D03*
X-23800000Y-35300000D03*
X-10400000Y-35300000D03*
X-12000000Y-35300000D03*
X-16800000Y-32900000D03*
X22900000Y-38700000D03*
X-9750000Y-32350000D03*
X7200000Y-39000000D03*
X2500000Y-39000000D03*
X4600000Y-39000000D03*
X-9300000Y-35300000D03*
X9200000Y-38700000D03*
X-13000000Y-34200000D03*
X18200000Y-38700000D03*
X7200000Y-37900000D03*
X-900000Y-37600000D03*
X4600000Y-37900000D03*
X400000Y-35700000D03*
X-4900000Y-36300000D03*
X13800000Y-38700000D03*
X-7150000Y-40000000D03*
X-13000000Y-33100000D03*
X-13000000Y-35300000D03*
%TO.N,/CHG*%
X-11700000Y-32900000D03*
X-13750000Y-38750000D03*
%TO.N,/PROG*%
X-16254505Y-37504505D03*
X-12750000Y-36550000D03*
%TO.N,/EN*%
X234641Y-37574142D03*
X-8800000Y-29100000D03*
%TO.N,/VOUTF*%
X-7900000Y-39000000D03*
D33*
X8500000Y-30000000D03*
D32*
X8700000Y-40000000D03*
%TD*%
D34*
%TO.N,/B+*%
X-7626606Y-31400000D02*
X-10537500Y-31400000D01*
X-7100000Y-31926606D02*
X-7626606Y-31400000D01*
X-150000Y-34600000D02*
X-2050000Y-32700000D01*
X1400000Y-34600000D02*
X-450000Y-34600000D01*
X-10750000Y-31612500D02*
X-10537500Y-31400000D01*
X-7100000Y-31950000D02*
X-7100000Y-31926606D01*
X-6350000Y-32700000D02*
X-7100000Y-31950000D01*
X-2050000Y-32700000D02*
X-6350000Y-32700000D01*
X-10750000Y-33950000D02*
X-10750000Y-31612500D01*
D35*
%TO.N,/TS*%
X-5525000Y-33700000D02*
X-6700000Y-33700000D01*
X-9800000Y-33950000D02*
X-7962500Y-33950000D01*
X-6700000Y-33700000D02*
X-6937500Y-33937500D01*
X-7962500Y-33950000D02*
X-7950000Y-33937500D01*
X-6937500Y-33937500D02*
X-7950000Y-33937500D01*
D36*
%TO.N,/GND*%
X2325000Y-37325000D02*
X2325000Y-34575000D01*
X2325000Y-34575000D02*
X2700000Y-34200000D01*
X2700000Y-34200000D02*
X2325000Y-33825000D01*
X1500000Y-38150000D02*
X2325000Y-37325000D01*
D34*
X-8262500Y-32350000D02*
X-9750000Y-32350000D01*
D36*
X2325000Y-33825000D02*
X2325000Y-33325000D01*
X2325000Y-33325000D02*
X1000000Y-32000000D01*
D35*
%TO.N,/VBUS1*%
X-22750000Y-35750000D02*
X-21800000Y-36700000D01*
X-23800000Y-33100000D02*
X-23150000Y-33100000D01*
X-22750000Y-33500000D02*
X-22750000Y-35750000D01*
X-23800000Y-33100000D02*
X-23800000Y-31300000D01*
X-23150000Y-33100000D02*
X-22750000Y-33500000D01*
D34*
%TO.N,/VCC*%
X-9300000Y-38150000D02*
X-9300000Y-38100000D01*
X-9300000Y-38100000D02*
X-9387500Y-38187500D01*
X-9387500Y-38187500D02*
X-10200000Y-38187500D01*
X-13300000Y-31200000D02*
X-14000000Y-31900000D01*
X-12350000Y-31200000D02*
X-13300000Y-31200000D01*
D35*
X-11412500Y-38100000D02*
X-11500000Y-38187500D01*
D34*
X-14000000Y-31900000D02*
X-14000000Y-37000000D01*
X-9300000Y-37050000D02*
X-9800000Y-36550000D01*
X-12812500Y-38187500D02*
X-11500000Y-38187500D01*
X-6035894Y-38100000D02*
X-5085894Y-39050000D01*
X-9300000Y-38150000D02*
X-9300000Y-37050000D01*
X-11500000Y-38187500D02*
X-10200000Y-38187500D01*
X-14000000Y-37000000D02*
X-12812500Y-38187500D01*
X-5085894Y-39050000D02*
X-562500Y-39050000D01*
X-9300000Y-38100000D02*
X-6035894Y-38100000D01*
%TO.N,/VBUS*%
X-21200000Y-33100000D02*
X-19375000Y-33100000D01*
X-19137500Y-33100000D02*
X-17287500Y-31250000D01*
X-17287500Y-31250000D02*
X-15700000Y-31250000D01*
D36*
%TO.N,/CHG*%
X-14500000Y-39500000D02*
X-14500000Y-40250000D01*
X-11700000Y-33950000D02*
X-11700000Y-32900000D01*
X-14500000Y-40250000D02*
X-15387500Y-40250000D01*
X-13750000Y-38750000D02*
X-14500000Y-39500000D01*
%TO.N,/LCHG*%
X-12212500Y-40000000D02*
X-13262500Y-40000000D01*
D34*
%TO.N,/VOUT*%
X2950000Y-35450000D02*
X3800000Y-34600000D01*
X3400000Y-38100000D02*
X3400000Y-37429204D01*
X3400000Y-37429204D02*
X2950000Y-36979204D01*
X2950000Y-36979204D02*
X2950000Y-35450000D01*
X3400000Y-40000000D02*
X1550000Y-40000000D01*
X-2437500Y-40000000D02*
X1450000Y-40000000D01*
X1450000Y-40000000D02*
X1500000Y-40050000D01*
X3400000Y-40000000D02*
X3400000Y-38100000D01*
X1550000Y-40000000D02*
X1500000Y-40050000D01*
X3800000Y-34600000D02*
X4000000Y-34600000D01*
D36*
%TO.N,/PROG2*%
X-17500000Y-34050000D02*
X-15500000Y-34050000D01*
X-15200000Y-35000000D02*
X-15200000Y-36637500D01*
X-15500000Y-34050000D02*
X-15200000Y-34350000D01*
X-15200000Y-34350000D02*
X-15200000Y-35000000D01*
%TO.N,/G*%
X-4450000Y-38100000D02*
X-2437500Y-38100000D01*
%TO.N,/PROG*%
X-12750000Y-36550000D02*
X-11700000Y-36550000D01*
X-15296510Y-38462500D02*
X-16254505Y-37504505D01*
%TO.N,/EN*%
X234641Y-37574142D02*
X234641Y-37465359D01*
X-8262500Y-29637500D02*
X-8262500Y-30450000D01*
X1200000Y-36500000D02*
X1400000Y-36500000D01*
X234641Y-37465359D02*
X1200000Y-36500000D01*
X-8800000Y-29100000D02*
X-8262500Y-29637500D01*
D34*
%TO.N,/VOUTF*%
X8150000Y-32325000D02*
X7825000Y-32000000D01*
X7500000Y-40000000D02*
X8150000Y-39350000D01*
D36*
X8600000Y-40000000D02*
X8150000Y-39550000D01*
D34*
X6000000Y-40000000D02*
X7500000Y-40000000D01*
D36*
X8700000Y-40000000D02*
X8600000Y-40000000D01*
D37*
X11400000Y-31300000D02*
X20500000Y-31300000D01*
D36*
X-7850000Y-39050000D02*
X-7900000Y-39000000D01*
D37*
X5000000Y-32000000D02*
X7825000Y-32000000D01*
X8500000Y-32000000D02*
X10700000Y-32000000D01*
D36*
X8150000Y-39550000D02*
X8150000Y-39350000D01*
X-6725000Y-39050000D02*
X-7850000Y-39050000D01*
D37*
X8500000Y-30000000D02*
X8500000Y-32000000D01*
D34*
X8150000Y-39350000D02*
X8150000Y-32325000D01*
D37*
X10700000Y-32000000D02*
X11400000Y-31300000D01*
X7825000Y-32000000D02*
X8500000Y-32000000D01*
D36*
%TO.N,Net-(U6-~{OC})*%
X6000000Y-38100000D02*
X6000000Y-36662500D01*
X6000000Y-36662500D02*
X5800000Y-36462500D01*
%TD*%
%TA.AperFunction,Conductor*%
%TO.N,/GND*%
G36*
X-22973209Y-31882031D02*
G01*
X-22923804Y-31931437D01*
X-22914930Y-31951860D01*
X-22884359Y-32044117D01*
X-22884356Y-32044124D01*
X-22792315Y-32193345D01*
X-22668345Y-32317315D01*
X-22519124Y-32409356D01*
X-22519119Y-32409358D01*
X-22352697Y-32464505D01*
X-22352690Y-32464506D01*
X-22249980Y-32474999D01*
X-22048917Y-32474999D01*
X-21981877Y-32494683D01*
X-21936122Y-32547487D01*
X-21926178Y-32616645D01*
X-21946616Y-32669076D01*
X-21952201Y-32677230D01*
X-21952206Y-32677235D01*
X-21997585Y-32780009D01*
X-22000500Y-32805135D01*
X-22000499Y-33394864D01*
X-22000497Y-33394879D01*
X-22000497Y-33394882D01*
X-21997586Y-33419987D01*
X-21997585Y-33419988D01*
X-21997585Y-33419991D01*
X-21952206Y-33522765D01*
X-21872765Y-33602206D01*
X-21769991Y-33647585D01*
X-21744865Y-33650500D01*
X-21300331Y-33650499D01*
X-21300328Y-33650500D01*
X-21275665Y-33650500D01*
X-19329746Y-33650500D01*
X-19329730Y-33650499D01*
X-19149043Y-33650499D01*
X-19144810Y-33650571D01*
X-19143524Y-33650614D01*
X-19080674Y-33652762D01*
X-19080666Y-33652760D01*
X-19072236Y-33651894D01*
X-19072185Y-33652383D01*
X-19056498Y-33650499D01*
X-18755983Y-33650499D01*
X-18755982Y-33650499D01*
X-18662196Y-33635646D01*
X-18648225Y-33628527D01*
X-18579559Y-33615632D01*
X-18514819Y-33641908D01*
X-18474561Y-33699014D01*
X-18471731Y-33765039D01*
X-18471620Y-33765057D01*
X-18471706Y-33765605D01*
X-18471569Y-33768820D01*
X-18473019Y-33773893D01*
X-18473146Y-33774696D01*
X-18488000Y-33868481D01*
X-18487999Y-34231518D01*
X-18473146Y-34325304D01*
X-18415550Y-34438342D01*
X-18325842Y-34528050D01*
X-18212804Y-34585646D01*
X-18212802Y-34585646D01*
X-18212801Y-34585647D01*
X-18145647Y-34596282D01*
X-18119019Y-34600500D01*
X-16880982Y-34600499D01*
X-16787196Y-34585646D01*
X-16674158Y-34528050D01*
X-16607925Y-34461817D01*
X-16546605Y-34428334D01*
X-16520246Y-34425500D01*
X-16246405Y-34425500D01*
X-16179366Y-34445185D01*
X-16133611Y-34497989D01*
X-16123667Y-34567147D01*
X-16130223Y-34592832D01*
X-16144089Y-34630011D01*
X-16144091Y-34630017D01*
X-16150500Y-34689627D01*
X-16150499Y-35310372D01*
X-16144091Y-35369983D01*
X-16093796Y-35504831D01*
X-16007546Y-35620046D01*
X-15892331Y-35706296D01*
X-15892325Y-35706297D01*
X-15885700Y-35709917D01*
X-15836294Y-35759322D01*
X-15821441Y-35827594D01*
X-15845857Y-35893059D01*
X-15885700Y-35927583D01*
X-15892333Y-35931205D01*
X-16007544Y-36017452D01*
X-16007547Y-36017455D01*
X-16093793Y-36132664D01*
X-16093797Y-36132671D01*
X-16101054Y-36152128D01*
X-16144091Y-36267517D01*
X-16150500Y-36327127D01*
X-16150499Y-36600000D01*
X-16150499Y-36730005D01*
X-16170183Y-36797044D01*
X-16222987Y-36842799D01*
X-16274499Y-36854005D01*
X-16333491Y-36854005D01*
X-16486870Y-36891808D01*
X-16626742Y-36965220D01*
X-16626743Y-36965221D01*
X-16626745Y-36965222D01*
X-16744988Y-37069975D01*
X-16834725Y-37199982D01*
X-16864800Y-37279284D01*
X-16890742Y-37347686D01*
X-16906953Y-37481201D01*
X-16909783Y-37504505D01*
X-16890742Y-37661323D01*
X-16834725Y-37809028D01*
X-16744988Y-37939035D01*
X-16626745Y-38043788D01*
X-16519514Y-38100068D01*
X-16486870Y-38117201D01*
X-16333490Y-38155005D01*
X-16274500Y-38155005D01*
X-16207461Y-38174690D01*
X-16161706Y-38227494D01*
X-16150500Y-38279005D01*
X-16150499Y-38571950D01*
X-16150499Y-38772872D01*
X-16144091Y-38832483D01*
X-16093796Y-38967331D01*
X-16007546Y-39082546D01*
X-15892331Y-39168796D01*
X-15892327Y-39168797D01*
X-15889345Y-39171030D01*
X-15847474Y-39226964D01*
X-15842490Y-39296655D01*
X-15875975Y-39357979D01*
X-15889342Y-39369561D01*
X-15984331Y-39440669D01*
X-16069503Y-39554446D01*
X-16119171Y-39687609D01*
X-16120017Y-39695476D01*
X-16125499Y-39746462D01*
X-16125499Y-39746469D01*
X-16125500Y-39746479D01*
X-16125499Y-40753520D01*
X-16119171Y-40812391D01*
X-16069503Y-40945554D01*
X-15984331Y-41059331D01*
X-15870554Y-41144503D01*
X-15737391Y-41194171D01*
X-15678521Y-41200500D01*
X-15096480Y-41200499D01*
X-15055428Y-41196086D01*
X-15037608Y-41194171D01*
X-14982352Y-41173561D01*
X-14904446Y-41144503D01*
X-14790669Y-41059331D01*
X-14705497Y-40945554D01*
X-14655829Y-40812391D01*
X-14655828Y-40812389D01*
X-14655828Y-40812387D01*
X-14649500Y-40753537D01*
X-14649500Y-40749500D01*
X-14629815Y-40682461D01*
X-14577011Y-40636706D01*
X-14525500Y-40625500D01*
X-14520655Y-40625500D01*
X-14510414Y-40625924D01*
X-14468565Y-40629392D01*
X-14468564Y-40629391D01*
X-14468563Y-40629392D01*
X-14427820Y-40619074D01*
X-14417838Y-40616981D01*
X-14394905Y-40613154D01*
X-14325544Y-40621536D01*
X-14271722Y-40666089D01*
X-14250531Y-40732667D01*
X-14250499Y-40735463D01*
X-14250499Y-40753520D01*
X-14244171Y-40812391D01*
X-14194503Y-40945554D01*
X-14109331Y-41059331D01*
X-13995554Y-41144503D01*
X-13862391Y-41194171D01*
X-13803521Y-41200500D01*
X-13221480Y-41200499D01*
X-13180428Y-41196086D01*
X-13162608Y-41194171D01*
X-13107352Y-41173561D01*
X-13029446Y-41144503D01*
X-12915669Y-41059331D01*
X-12830497Y-40945554D01*
X-12780829Y-40812391D01*
X-12780828Y-40812389D01*
X-12780828Y-40812387D01*
X-12774500Y-40753537D01*
X-12774500Y-40499500D01*
X-12754815Y-40432461D01*
X-12702011Y-40386706D01*
X-12650500Y-40375500D01*
X-12532791Y-40375500D01*
X-12465752Y-40395185D01*
X-12419997Y-40447989D01*
X-12416609Y-40456167D01*
X-12408447Y-40478050D01*
X-12393796Y-40517331D01*
X-12307546Y-40632546D01*
X-12192331Y-40718796D01*
X-12057483Y-40769091D01*
X-11997873Y-40775500D01*
X-11574859Y-40775499D01*
X-11507822Y-40795183D01*
X-11462067Y-40847987D01*
X-11452123Y-40917146D01*
X-11481148Y-40980702D01*
X-11487180Y-40987180D01*
X-11847801Y-41347801D01*
X-11859996Y-41358496D01*
X-11944157Y-41423075D01*
X-11972191Y-41439260D01*
X-12062616Y-41476715D01*
X-12093882Y-41485093D01*
X-12186024Y-41497224D01*
X-12199048Y-41498939D01*
X-12215233Y-41500000D01*
X-16284767Y-41500000D01*
X-16300951Y-41498939D01*
X-16312291Y-41497446D01*
X-16406117Y-41485093D01*
X-16437383Y-41476715D01*
X-16527808Y-41439260D01*
X-16555842Y-41423075D01*
X-16640003Y-41358496D01*
X-16652198Y-41347801D01*
X-16853547Y-41146451D01*
X-16853554Y-41146445D01*
X-16853558Y-41146441D01*
X-17000000Y-41000000D01*
X-17207107Y-41000000D01*
X-17207114Y-41000000D01*
X-23792886Y-41000000D01*
X-23792893Y-41000000D01*
X-24000000Y-41000000D01*
X-24146445Y-41146445D01*
X-24146451Y-41146450D01*
X-24402975Y-41402975D01*
X-24421765Y-41418396D01*
X-24489007Y-41463326D01*
X-24533702Y-41481840D01*
X-24596644Y-41494359D01*
X-24652960Y-41492507D01*
X-24654466Y-41492103D01*
X-24714116Y-41455721D01*
X-24742112Y-41404435D01*
X-24745774Y-41390770D01*
X-24750000Y-41358673D01*
X-24750000Y-33624333D01*
X-24730315Y-33557294D01*
X-24677511Y-33511539D01*
X-24608353Y-33501595D01*
X-24544797Y-33530620D01*
X-24538319Y-33536652D01*
X-24472765Y-33602206D01*
X-24369991Y-33647585D01*
X-24344865Y-33650500D01*
X-23324499Y-33650499D01*
X-23257461Y-33670183D01*
X-23211706Y-33722987D01*
X-23200500Y-33774499D01*
X-23200500Y-35717738D01*
X-23201279Y-35731620D01*
X-23202722Y-35744421D01*
X-23204815Y-35763000D01*
X-23205270Y-35767035D01*
X-23194635Y-35823236D01*
X-23193872Y-35827726D01*
X-23185348Y-35884287D01*
X-23185346Y-35884291D01*
X-23182830Y-35892447D01*
X-23180024Y-35900469D01*
X-23180023Y-35900472D01*
X-23153270Y-35951088D01*
X-23151248Y-35955093D01*
X-23126425Y-36006642D01*
X-23126423Y-36006643D01*
X-23126423Y-36006645D01*
X-23121616Y-36013695D01*
X-23116567Y-36020534D01*
X-23116566Y-36020538D01*
X-23076128Y-36060974D01*
X-23072962Y-36064260D01*
X-23034055Y-36106194D01*
X-23034050Y-36106196D01*
X-23026790Y-36111987D01*
X-23027313Y-36112643D01*
X-23015070Y-36122032D01*
X-22619003Y-36518100D01*
X-22286819Y-36850284D01*
X-22253334Y-36911607D01*
X-22250500Y-36937965D01*
X-22250500Y-38024674D01*
X-22235966Y-38097740D01*
X-22180601Y-38180601D01*
X-22097740Y-38235966D01*
X-22024677Y-38250499D01*
X-22024676Y-38250500D01*
X-22024674Y-38250500D01*
X-21575323Y-38250500D01*
X-21499192Y-38235356D01*
X-21450808Y-38235356D01*
X-21374676Y-38250500D01*
X-21374674Y-38250500D01*
X-20925323Y-38250500D01*
X-20849192Y-38235356D01*
X-20800808Y-38235356D01*
X-20724676Y-38250500D01*
X-20724674Y-38250500D01*
X-20275323Y-38250500D01*
X-20199192Y-38235356D01*
X-20150808Y-38235356D01*
X-20074676Y-38250500D01*
X-20074674Y-38250500D01*
X-19625324Y-38250500D01*
X-19625321Y-38250499D01*
X-19552264Y-38235967D01*
X-19552260Y-38235966D01*
X-19514472Y-38210717D01*
X-19469399Y-38180601D01*
X-19414034Y-38097740D01*
X-19414033Y-38097739D01*
X-19414032Y-38097735D01*
X-19399500Y-38024678D01*
X-19399500Y-36625321D01*
X-19414032Y-36552264D01*
X-19414033Y-36552260D01*
X-19469399Y-36469399D01*
X-19552260Y-36414033D01*
X-19552264Y-36414032D01*
X-19625323Y-36399500D01*
X-19625326Y-36399500D01*
X-20074674Y-36399500D01*
X-20150810Y-36414644D01*
X-20199190Y-36414644D01*
X-20275326Y-36399500D01*
X-20724674Y-36399500D01*
X-20800810Y-36414644D01*
X-20849190Y-36414644D01*
X-20925326Y-36399500D01*
X-21374674Y-36399500D01*
X-21374681Y-36399500D01*
X-21383675Y-36401289D01*
X-21453267Y-36395059D01*
X-21495542Y-36367352D01*
X-22263181Y-35599714D01*
X-22296666Y-35538391D01*
X-22299500Y-35512033D01*
X-22299500Y-34705135D01*
X-22000500Y-34705135D01*
X-22000499Y-35294864D01*
X-22000497Y-35294879D01*
X-22000497Y-35294882D01*
X-21997586Y-35319987D01*
X-21997585Y-35319988D01*
X-21997585Y-35319991D01*
X-21952206Y-35422765D01*
X-21872765Y-35502206D01*
X-21769991Y-35547585D01*
X-21744865Y-35550500D01*
X-20655136Y-35550499D01*
X-20655122Y-35550497D01*
X-20655117Y-35550497D01*
X-20630012Y-35547586D01*
X-20630010Y-35547585D01*
X-20630009Y-35547585D01*
X-20527235Y-35502206D01*
X-20447794Y-35422765D01*
X-20426407Y-35374328D01*
X-20402415Y-35319993D01*
X-20402415Y-35319991D01*
X-20399500Y-35294868D01*
X-20399500Y-34705143D01*
X-20399502Y-34705117D01*
X-20402413Y-34680012D01*
X-20402415Y-34680008D01*
X-20447793Y-34577235D01*
X-20527234Y-34497794D01*
X-20630007Y-34452415D01*
X-20655134Y-34449500D01*
X-21744856Y-34449500D01*
X-21744882Y-34449502D01*
X-21769987Y-34452413D01*
X-21769991Y-34452415D01*
X-21872764Y-34497793D01*
X-21872765Y-34497794D01*
X-21952206Y-34577235D01*
X-21997585Y-34680009D01*
X-22000500Y-34705135D01*
X-22299500Y-34705135D01*
X-22299500Y-33532261D01*
X-22298720Y-33518376D01*
X-22294729Y-33482964D01*
X-22305354Y-33426810D01*
X-22306131Y-33422241D01*
X-22314651Y-33365715D01*
X-22317175Y-33357532D01*
X-22319976Y-33349529D01*
X-22346689Y-33298985D01*
X-22348777Y-33294848D01*
X-22373573Y-33243358D01*
X-22378359Y-33236338D01*
X-22383435Y-33229460D01*
X-22423837Y-33189058D01*
X-22427051Y-33185722D01*
X-22465946Y-33143804D01*
X-22473208Y-33138013D01*
X-22472688Y-33137362D01*
X-22484928Y-33127967D01*
X-22808632Y-32804263D01*
X-22817895Y-32793898D01*
X-22840117Y-32766033D01*
X-22840121Y-32766030D01*
X-22887357Y-32733823D01*
X-22891132Y-32731144D01*
X-22937118Y-32697206D01*
X-22944667Y-32693216D01*
X-22952325Y-32689528D01*
X-23006967Y-32672673D01*
X-23011368Y-32671225D01*
X-23038574Y-32661706D01*
X-23049926Y-32657733D01*
X-23096654Y-32628373D01*
X-23127231Y-32597796D01*
X-23127233Y-32597795D01*
X-23127238Y-32597793D01*
X-23147618Y-32588794D01*
X-23230007Y-32552415D01*
X-23239792Y-32551280D01*
X-23304116Y-32523999D01*
X-23343480Y-32466273D01*
X-23349500Y-32428106D01*
X-23349500Y-32224749D01*
X-23329815Y-32157710D01*
X-23299810Y-32125482D01*
X-23283377Y-32113181D01*
X-23254689Y-32091705D01*
X-23242455Y-32082547D01*
X-23242452Y-32082543D01*
X-23236431Y-32074500D01*
X-23156204Y-31967331D01*
X-23152621Y-31957724D01*
X-23148818Y-31947529D01*
X-23106946Y-31891596D01*
X-23041482Y-31867179D01*
X-22973209Y-31882031D01*
G37*
%TD.AperFunction*%
%TA.AperFunction,Conductor*%
G36*
X-17199047Y-501061D02*
G01*
X-17093882Y-514906D01*
X-17062616Y-523284D01*
X-16972191Y-560739D01*
X-16944157Y-576924D01*
X-16859996Y-641503D01*
X-16847809Y-652190D01*
X-16000000Y-1500000D01*
X-8215233Y-1500000D01*
X-8199047Y-1501061D01*
X-8093882Y-1514906D01*
X-8062616Y-1523284D01*
X-7972191Y-1560739D01*
X-7944157Y-1576924D01*
X-7859996Y-1641503D01*
X-7847809Y-1652190D01*
X-7000000Y-2500000D01*
X6792886Y-2500000D01*
X6792893Y-2500000D01*
X7000000Y-2500000D01*
X7847809Y-1652190D01*
X7859996Y-1641503D01*
X7944157Y-1576924D01*
X7972191Y-1560739D01*
X8062616Y-1523284D01*
X8093882Y-1514906D01*
X8199048Y-1501061D01*
X8215233Y-1500000D01*
X15793583Y-1500000D01*
X15793588Y-1500000D01*
X16000000Y-1500000D01*
X16502378Y-1000000D01*
X16852725Y-651311D01*
X16864875Y-640702D01*
X16948927Y-576469D01*
X16976889Y-560384D01*
X17067099Y-523144D01*
X17098276Y-514817D01*
X17140963Y-509214D01*
X17203139Y-501054D01*
X17219275Y-500000D01*
X24241874Y-500000D01*
X24258059Y-501061D01*
X24363223Y-514906D01*
X24394491Y-523284D01*
X24484918Y-560740D01*
X24512952Y-576925D01*
X24590602Y-636509D01*
X24613491Y-659398D01*
X24673074Y-737048D01*
X24689259Y-765081D01*
X24726715Y-855508D01*
X24735093Y-886775D01*
X24748939Y-991939D01*
X24750000Y-1008125D01*
X24750000Y-40991874D01*
X24748939Y-41008060D01*
X24735093Y-41113224D01*
X24726715Y-41144491D01*
X24689259Y-41234918D01*
X24673074Y-41262951D01*
X24613491Y-41340601D01*
X24590601Y-41363491D01*
X24512951Y-41423074D01*
X24484918Y-41439259D01*
X24394491Y-41476715D01*
X24363224Y-41485093D01*
X24269398Y-41497446D01*
X24258058Y-41498939D01*
X24241874Y-41500000D01*
X17215233Y-41500000D01*
X17199048Y-41498939D01*
X17186024Y-41497224D01*
X17093882Y-41485093D01*
X17062616Y-41476715D01*
X16972191Y-41439260D01*
X16944157Y-41423075D01*
X16859996Y-41358496D01*
X16847801Y-41347801D01*
X16146452Y-40646451D01*
X16146445Y-40646445D01*
X16000000Y-40500000D01*
X15792893Y-40500000D01*
X15792886Y-40500000D01*
X13212709Y-40500000D01*
X13145670Y-40480315D01*
X13099915Y-40427511D01*
X13089971Y-40358353D01*
X13095003Y-40336996D01*
X13139505Y-40202697D01*
X13139506Y-40202690D01*
X13149999Y-40099986D01*
X13150000Y-40099973D01*
X13150000Y-38950000D01*
X18750001Y-38950000D01*
X18750001Y-40099986D01*
X18760494Y-40202697D01*
X18815641Y-40369119D01*
X18815643Y-40369124D01*
X18907684Y-40518345D01*
X19031654Y-40642315D01*
X19180875Y-40734356D01*
X19180880Y-40734358D01*
X19347302Y-40789505D01*
X19347309Y-40789506D01*
X19450019Y-40799999D01*
X20249999Y-40799999D01*
X20250000Y-40799998D01*
X20250000Y-38950000D01*
X20750000Y-38950000D01*
X20750000Y-40799999D01*
X21549972Y-40799999D01*
X21549986Y-40799998D01*
X21652697Y-40789505D01*
X21819119Y-40734358D01*
X21819124Y-40734356D01*
X21968345Y-40642315D01*
X22092315Y-40518345D01*
X22184356Y-40369124D01*
X22184358Y-40369119D01*
X22239505Y-40202697D01*
X22239506Y-40202690D01*
X22249999Y-40099986D01*
X22250000Y-40099973D01*
X22250000Y-38950000D01*
X20750000Y-38950000D01*
X20250000Y-38950000D01*
X18750001Y-38950000D01*
X13150000Y-38950000D01*
X9650001Y-38950000D01*
X9650001Y-40099986D01*
X9660494Y-40202697D01*
X9704997Y-40336996D01*
X9707399Y-40406824D01*
X9671667Y-40466866D01*
X9609147Y-40498059D01*
X9587291Y-40500000D01*
X9381554Y-40500000D01*
X9314515Y-40480315D01*
X9268760Y-40427511D01*
X9258816Y-40358353D01*
X9277209Y-40311417D01*
X9276733Y-40311167D01*
X9279001Y-40306844D01*
X9279506Y-40305557D01*
X9280220Y-40304523D01*
X9336237Y-40156818D01*
X9355278Y-40000000D01*
X9336237Y-39843182D01*
X9280220Y-39695477D01*
X9190483Y-39565470D01*
X9072240Y-39460717D01*
X9072238Y-39460716D01*
X9072237Y-39460715D01*
X8932366Y-39387304D01*
X8794825Y-39353404D01*
X8734445Y-39318248D01*
X8702656Y-39256029D01*
X8700500Y-39233007D01*
X8700500Y-38450000D01*
X9650000Y-38450000D01*
X11150000Y-38450000D01*
X11150000Y-36600000D01*
X11650000Y-36600000D01*
X11650000Y-38450000D01*
X13149999Y-38450000D01*
X18750000Y-38450000D01*
X20250000Y-38450000D01*
X20250000Y-36600000D01*
X20750000Y-36600000D01*
X20750000Y-38450000D01*
X22249999Y-38450000D01*
X22249999Y-37300028D01*
X22249998Y-37300013D01*
X22239505Y-37197302D01*
X22184358Y-37030880D01*
X22184356Y-37030875D01*
X22092315Y-36881654D01*
X21968345Y-36757684D01*
X21819124Y-36665643D01*
X21819119Y-36665641D01*
X21652697Y-36610494D01*
X21652690Y-36610493D01*
X21549986Y-36600000D01*
X20750000Y-36600000D01*
X20250000Y-36600000D01*
X19450028Y-36600000D01*
X19450012Y-36600001D01*
X19347302Y-36610494D01*
X19180880Y-36665641D01*
X19180875Y-36665643D01*
X19031654Y-36757684D01*
X18907684Y-36881654D01*
X18815643Y-37030875D01*
X18815641Y-37030880D01*
X18760494Y-37197302D01*
X18760493Y-37197309D01*
X18750000Y-37300013D01*
X18750000Y-38450000D01*
X13149999Y-38450000D01*
X13149999Y-37300028D01*
X13149998Y-37300013D01*
X13139505Y-37197302D01*
X13084358Y-37030880D01*
X13084356Y-37030875D01*
X12992315Y-36881654D01*
X12868345Y-36757684D01*
X12719124Y-36665643D01*
X12719119Y-36665641D01*
X12552697Y-36610494D01*
X12552690Y-36610493D01*
X12449986Y-36600000D01*
X11650000Y-36600000D01*
X11150000Y-36600000D01*
X10350028Y-36600000D01*
X10350012Y-36600001D01*
X10247302Y-36610494D01*
X10080880Y-36665641D01*
X10080875Y-36665643D01*
X9931654Y-36757684D01*
X9807684Y-36881654D01*
X9715643Y-37030875D01*
X9715641Y-37030880D01*
X9660494Y-37197302D01*
X9660493Y-37197309D01*
X9650000Y-37300013D01*
X9650000Y-38450000D01*
X8700500Y-38450000D01*
X8700500Y-32774500D01*
X8720185Y-32707461D01*
X8772989Y-32661706D01*
X8824500Y-32650500D01*
X9783023Y-32650500D01*
X9850062Y-32670185D01*
X9895817Y-32722989D01*
X9903266Y-32750134D01*
X9904124Y-32749932D01*
X9905907Y-32757479D01*
X9956202Y-32892328D01*
X9956206Y-32892335D01*
X10042452Y-33007544D01*
X10042455Y-33007547D01*
X10157664Y-33093793D01*
X10157671Y-33093797D01*
X10292517Y-33144091D01*
X10292516Y-33144091D01*
X10299444Y-33144835D01*
X10352127Y-33150500D01*
X12447872Y-33150499D01*
X12507483Y-33144091D01*
X12642331Y-33093796D01*
X12757546Y-33007546D01*
X12843796Y-32892331D01*
X12894091Y-32757483D01*
X12900500Y-32697873D01*
X12900500Y-32074500D01*
X12920185Y-32007461D01*
X12972989Y-31961706D01*
X13024500Y-31950500D01*
X18875501Y-31950500D01*
X18942540Y-31970185D01*
X18988295Y-32022989D01*
X18999501Y-32074500D01*
X18999501Y-32697876D01*
X19005908Y-32757483D01*
X19056202Y-32892328D01*
X19056206Y-32892335D01*
X19142452Y-33007544D01*
X19142455Y-33007547D01*
X19257664Y-33093793D01*
X19257671Y-33093797D01*
X19392517Y-33144091D01*
X19392516Y-33144091D01*
X19399444Y-33144835D01*
X19452127Y-33150500D01*
X21547872Y-33150499D01*
X21607483Y-33144091D01*
X21742331Y-33093796D01*
X21857546Y-33007546D01*
X21943796Y-32892331D01*
X21994091Y-32757483D01*
X22000500Y-32697873D01*
X22000499Y-29902128D01*
X21994091Y-29842517D01*
X21986510Y-29822192D01*
X21943797Y-29707671D01*
X21943793Y-29707664D01*
X21857547Y-29592455D01*
X21857544Y-29592452D01*
X21742335Y-29506206D01*
X21742328Y-29506202D01*
X21607482Y-29455908D01*
X21607483Y-29455908D01*
X21547883Y-29449501D01*
X21547881Y-29449500D01*
X21547873Y-29449500D01*
X21547864Y-29449500D01*
X19452129Y-29449500D01*
X19452123Y-29449501D01*
X19392516Y-29455908D01*
X19257671Y-29506202D01*
X19257664Y-29506206D01*
X19142455Y-29592452D01*
X19142452Y-29592455D01*
X19056206Y-29707664D01*
X19056202Y-29707671D01*
X19005908Y-29842517D01*
X19001063Y-29887587D01*
X18999501Y-29902123D01*
X18999500Y-29902135D01*
X18999500Y-30525500D01*
X18979815Y-30592539D01*
X18927011Y-30638294D01*
X18875500Y-30649500D01*
X13024499Y-30649500D01*
X12957460Y-30629815D01*
X12911705Y-30577011D01*
X12900499Y-30525500D01*
X12900499Y-29902129D01*
X12900498Y-29902123D01*
X12900497Y-29902116D01*
X12894091Y-29842517D01*
X12886510Y-29822192D01*
X12843797Y-29707671D01*
X12843793Y-29707664D01*
X12757547Y-29592455D01*
X12757544Y-29592452D01*
X12642335Y-29506206D01*
X12642328Y-29506202D01*
X12507482Y-29455908D01*
X12507483Y-29455908D01*
X12447883Y-29449501D01*
X12447881Y-29449500D01*
X12447873Y-29449500D01*
X12447864Y-29449500D01*
X10352129Y-29449500D01*
X10352123Y-29449501D01*
X10292516Y-29455908D01*
X10157671Y-29506202D01*
X10157664Y-29506206D01*
X10042455Y-29592452D01*
X10042452Y-29592455D01*
X9956206Y-29707664D01*
X9956202Y-29707671D01*
X9905908Y-29842517D01*
X9901063Y-29887587D01*
X9899500Y-29902127D01*
X9899500Y-30622302D01*
X9899501Y-31225500D01*
X9879816Y-31292539D01*
X9827013Y-31338294D01*
X9775501Y-31349500D01*
X9274500Y-31349500D01*
X9207461Y-31329815D01*
X9161706Y-31277011D01*
X9150500Y-31225500D01*
X9150500Y-30596197D01*
X9170185Y-30529158D01*
X9182352Y-30513223D01*
X9191859Y-30502665D01*
X9281250Y-30347835D01*
X9336497Y-30177803D01*
X9355185Y-30000000D01*
X9336497Y-29822197D01*
X9299285Y-29707671D01*
X9281252Y-29652170D01*
X9281249Y-29652164D01*
X9273813Y-29639284D01*
X9191859Y-29497335D01*
X9145003Y-29445296D01*
X9072235Y-29364478D01*
X9072232Y-29364476D01*
X9072231Y-29364475D01*
X9072230Y-29364474D01*
X8927593Y-29259388D01*
X8764267Y-29186671D01*
X8764265Y-29186670D01*
X8636594Y-29159533D01*
X8589391Y-29149500D01*
X8410609Y-29149500D01*
X8379954Y-29156015D01*
X8235733Y-29186670D01*
X8235728Y-29186672D01*
X8072408Y-29259387D01*
X7927768Y-29364475D01*
X7808140Y-29497336D01*
X7718750Y-29652164D01*
X7718747Y-29652170D01*
X7663504Y-29822192D01*
X7663503Y-29822194D01*
X7644815Y-30000000D01*
X7663503Y-30177805D01*
X7663504Y-30177807D01*
X7718747Y-30347829D01*
X7718750Y-30347835D01*
X7808141Y-30502665D01*
X7814634Y-30509876D01*
X7817648Y-30513223D01*
X7847879Y-30576213D01*
X7849500Y-30596197D01*
X7849500Y-31225500D01*
X7829815Y-31292539D01*
X7777011Y-31338294D01*
X7725500Y-31349500D01*
X6616977Y-31349500D01*
X6549938Y-31329815D01*
X6504183Y-31277011D01*
X6496733Y-31249865D01*
X6495876Y-31250068D01*
X6494092Y-31242520D01*
X6491091Y-31234475D01*
X6443796Y-31107669D01*
X6443795Y-31107668D01*
X6443793Y-31107664D01*
X6357547Y-30992455D01*
X6357544Y-30992452D01*
X6242335Y-30906206D01*
X6242328Y-30906202D01*
X6107482Y-30855908D01*
X6107483Y-30855908D01*
X6047883Y-30849501D01*
X6047881Y-30849500D01*
X6047873Y-30849500D01*
X6047864Y-30849500D01*
X3952129Y-30849500D01*
X3952123Y-30849501D01*
X3892516Y-30855908D01*
X3757671Y-30906202D01*
X3757664Y-30906206D01*
X3642455Y-30992452D01*
X3642452Y-30992455D01*
X3556206Y-31107664D01*
X3556202Y-31107671D01*
X3505908Y-31242517D01*
X3499501Y-31302116D01*
X3499500Y-31302135D01*
X3499500Y-32697870D01*
X3499501Y-32697876D01*
X3505908Y-32757483D01*
X3556202Y-32892328D01*
X3556206Y-32892335D01*
X3642452Y-33007544D01*
X3642455Y-33007547D01*
X3757664Y-33093793D01*
X3757671Y-33093797D01*
X3892517Y-33144091D01*
X3892516Y-33144091D01*
X3899444Y-33144835D01*
X3952127Y-33150500D01*
X6047872Y-33150499D01*
X6107483Y-33144091D01*
X6242331Y-33093796D01*
X6357546Y-33007546D01*
X6443796Y-32892331D01*
X6494091Y-32757483D01*
X6494091Y-32757481D01*
X6495874Y-32749938D01*
X6498146Y-32750474D01*
X6520429Y-32696688D01*
X6577823Y-32656843D01*
X6616976Y-32650500D01*
X7475500Y-32650500D01*
X7542539Y-32670185D01*
X7588294Y-32722989D01*
X7599500Y-32774500D01*
X7599500Y-39070613D01*
X7579815Y-39137652D01*
X7563181Y-39158294D01*
X7308294Y-39413181D01*
X7246971Y-39446666D01*
X7220613Y-39449500D01*
X5455143Y-39449500D01*
X5455117Y-39449502D01*
X5430012Y-39452413D01*
X5430008Y-39452415D01*
X5327235Y-39497793D01*
X5247794Y-39577234D01*
X5202415Y-39680006D01*
X5202415Y-39680008D01*
X5199500Y-39705131D01*
X5199500Y-40294856D01*
X5199502Y-40294882D01*
X5202413Y-40319987D01*
X5202414Y-40319988D01*
X5202414Y-40319990D01*
X5202415Y-40319991D01*
X5203688Y-40322873D01*
X5205030Y-40325913D01*
X5214102Y-40395192D01*
X5184279Y-40458377D01*
X5125029Y-40495408D01*
X5091596Y-40500000D01*
X4308404Y-40500000D01*
X4241365Y-40480315D01*
X4195610Y-40427511D01*
X4185666Y-40358353D01*
X4194971Y-40325911D01*
X4196312Y-40322873D01*
X4197585Y-40319991D01*
X4200500Y-40294865D01*
X4200499Y-39705136D01*
X4198467Y-39687612D01*
X4197586Y-39680012D01*
X4197585Y-39680010D01*
X4197585Y-39680009D01*
X4152206Y-39577235D01*
X4072765Y-39497794D01*
X4033955Y-39480657D01*
X4024412Y-39476444D01*
X3971037Y-39431357D01*
X3950510Y-39364571D01*
X3950500Y-39363010D01*
X3950500Y-38736989D01*
X3970185Y-38669950D01*
X4022989Y-38624195D01*
X4024295Y-38623607D01*
X4072765Y-38602206D01*
X4152206Y-38522765D01*
X4197585Y-38419991D01*
X4200500Y-38394865D01*
X4200499Y-37805136D01*
X4200497Y-37805117D01*
X4197586Y-37780012D01*
X4197585Y-37780010D01*
X4197585Y-37780009D01*
X4152206Y-37677235D01*
X4072765Y-37597794D01*
X4029179Y-37578549D01*
X4024412Y-37576444D01*
X3971037Y-37531357D01*
X3950510Y-37464571D01*
X3950500Y-37463010D01*
X3950500Y-37440725D01*
X3950572Y-37436493D01*
X3950947Y-37425500D01*
X3952762Y-37372378D01*
X3947956Y-37352657D01*
X3943035Y-37332464D01*
X3940664Y-37319988D01*
X3937919Y-37300013D01*
X3935070Y-37279284D01*
X3927921Y-37262826D01*
X3921180Y-37242782D01*
X3916933Y-37225352D01*
X3916931Y-37225349D01*
X3916931Y-37225347D01*
X3914817Y-37219985D01*
X3908538Y-37150398D01*
X3940877Y-37088463D01*
X4001567Y-37053844D01*
X4030173Y-37050499D01*
X4544856Y-37050499D01*
X4544864Y-37050499D01*
X4544879Y-37050497D01*
X4544882Y-37050497D01*
X4569987Y-37047586D01*
X4569988Y-37047585D01*
X4569991Y-37047585D01*
X4672765Y-37002206D01*
X4720007Y-36954963D01*
X4781328Y-36921479D01*
X4851020Y-36926463D01*
X4906953Y-36968333D01*
X4970585Y-37053333D01*
X4987506Y-37075937D01*
X4992455Y-37082547D01*
X5107664Y-37168793D01*
X5107671Y-37168797D01*
X5145902Y-37183056D01*
X5242517Y-37219091D01*
X5302127Y-37225500D01*
X5500500Y-37225499D01*
X5567539Y-37245183D01*
X5613294Y-37297987D01*
X5624500Y-37349499D01*
X5624500Y-37425500D01*
X5604815Y-37492539D01*
X5552011Y-37538294D01*
X5500503Y-37549500D01*
X5455143Y-37549500D01*
X5455118Y-37549502D01*
X5430011Y-37552414D01*
X5430008Y-37552415D01*
X5327235Y-37597793D01*
X5247794Y-37677234D01*
X5202415Y-37780006D01*
X5202415Y-37780008D01*
X5199500Y-37805131D01*
X5199500Y-38394856D01*
X5199502Y-38394882D01*
X5202413Y-38419987D01*
X5202415Y-38419991D01*
X5247793Y-38522764D01*
X5247794Y-38522765D01*
X5327235Y-38602206D01*
X5430009Y-38647585D01*
X5455135Y-38650500D01*
X6544864Y-38650499D01*
X6544879Y-38650497D01*
X6544882Y-38650497D01*
X6569987Y-38647586D01*
X6569988Y-38647585D01*
X6569991Y-38647585D01*
X6672765Y-38602206D01*
X6752206Y-38522765D01*
X6797585Y-38419991D01*
X6800500Y-38394865D01*
X6800499Y-37805136D01*
X6800497Y-37805117D01*
X6797586Y-37780012D01*
X6797585Y-37780010D01*
X6797585Y-37780009D01*
X6752206Y-37677235D01*
X6672765Y-37597794D01*
X6655854Y-37590327D01*
X6569992Y-37552415D01*
X6544868Y-37549500D01*
X6544865Y-37549500D01*
X6499500Y-37549500D01*
X6432461Y-37529815D01*
X6386706Y-37477011D01*
X6375500Y-37425500D01*
X6375500Y-37298466D01*
X6395185Y-37231427D01*
X6447989Y-37185672D01*
X6456156Y-37182288D01*
X6492331Y-37168796D01*
X6607546Y-37082546D01*
X6693796Y-36967331D01*
X6744091Y-36832483D01*
X6750500Y-36772873D01*
X6750499Y-36152128D01*
X6744091Y-36092517D01*
X6738391Y-36077235D01*
X6693797Y-35957671D01*
X6693793Y-35957664D01*
X6607547Y-35842455D01*
X6587695Y-35827594D01*
X6546157Y-35796498D01*
X6504287Y-35740564D01*
X6499303Y-35670872D01*
X6532789Y-35609550D01*
X6563090Y-35588335D01*
X6562975Y-35588149D01*
X6566189Y-35586166D01*
X6568081Y-35584842D01*
X6569126Y-35584354D01*
X6718345Y-35492315D01*
X6842315Y-35368345D01*
X6934356Y-35219124D01*
X6934358Y-35219119D01*
X6989505Y-35052697D01*
X6989506Y-35052690D01*
X6999999Y-34949986D01*
X7000000Y-34949973D01*
X7000000Y-34887500D01*
X5674000Y-34887500D01*
X5606961Y-34867815D01*
X5561206Y-34815011D01*
X5550000Y-34763500D01*
X5550000Y-33625000D01*
X6050000Y-33625000D01*
X6050000Y-34387500D01*
X6999999Y-34387500D01*
X6999999Y-34325028D01*
X6999998Y-34325013D01*
X6989505Y-34222302D01*
X6934358Y-34055880D01*
X6934356Y-34055875D01*
X6842315Y-33906654D01*
X6718345Y-33782684D01*
X6569124Y-33690643D01*
X6569119Y-33690641D01*
X6402697Y-33635494D01*
X6402690Y-33635493D01*
X6299986Y-33625000D01*
X6050000Y-33625000D01*
X5550000Y-33625000D01*
X5300029Y-33625000D01*
X5300012Y-33625001D01*
X5197302Y-33635494D01*
X5030880Y-33690641D01*
X5030875Y-33690643D01*
X4881654Y-33782684D01*
X4757683Y-33906655D01*
X4757680Y-33906659D01*
X4702383Y-33996310D01*
X4650435Y-34043035D01*
X4581473Y-34054256D01*
X4575218Y-34053021D01*
X4544868Y-34049500D01*
X4544865Y-34049500D01*
X4075666Y-34049500D01*
X4075665Y-34049500D01*
X3811552Y-34049500D01*
X3807320Y-34049428D01*
X3787155Y-34048739D01*
X3743174Y-34047237D01*
X3743173Y-34047237D01*
X3743172Y-34047237D01*
X3734736Y-34048104D01*
X3734685Y-34047616D01*
X3718997Y-34049500D01*
X3455143Y-34049500D01*
X3455117Y-34049502D01*
X3430012Y-34052413D01*
X3430008Y-34052415D01*
X3327235Y-34097793D01*
X3247794Y-34177234D01*
X3202415Y-34280006D01*
X3202415Y-34280008D01*
X3199500Y-34305131D01*
X3199500Y-34370612D01*
X3179815Y-34437651D01*
X3163181Y-34458293D01*
X2568894Y-35052579D01*
X2565852Y-35055519D01*
X2518958Y-35099316D01*
X2497606Y-35134427D01*
X2490470Y-35144911D01*
X2482132Y-35155908D01*
X2465639Y-35177658D01*
X2465636Y-35177663D01*
X2459055Y-35194352D01*
X2449653Y-35213283D01*
X2440327Y-35228619D01*
X2429242Y-35268181D01*
X2425198Y-35280208D01*
X2410122Y-35318440D01*
X2408288Y-35336284D01*
X2404342Y-35357048D01*
X2399501Y-35374328D01*
X2399500Y-35374337D01*
X2399500Y-35415418D01*
X2398850Y-35428098D01*
X2394648Y-35468970D01*
X2394648Y-35468975D01*
X2397697Y-35486656D01*
X2399500Y-35507724D01*
X2399500Y-36049479D01*
X2379815Y-36116518D01*
X2327011Y-36162273D01*
X2257853Y-36172217D01*
X2194297Y-36143192D01*
X2162066Y-36099566D01*
X2159302Y-36093307D01*
X2152206Y-36077235D01*
X2072765Y-35997794D01*
X2060587Y-35992417D01*
X1969992Y-35952415D01*
X1944865Y-35949500D01*
X855143Y-35949500D01*
X855117Y-35949502D01*
X830012Y-35952413D01*
X830008Y-35952415D01*
X727235Y-35997793D01*
X647794Y-36077234D01*
X602415Y-36180006D01*
X602415Y-36180008D01*
X599500Y-36205131D01*
X599500Y-36518100D01*
X579815Y-36585139D01*
X563181Y-36605781D01*
X281639Y-36887323D01*
X220316Y-36920808D01*
X193958Y-36923642D01*
X155655Y-36923642D01*
X2275Y-36961445D01*
X-137596Y-37034857D01*
X-137597Y-37034858D01*
X-137599Y-37034859D01*
X-255842Y-37139612D01*
X-345579Y-37269619D01*
X-375181Y-37347673D01*
X-401596Y-37417323D01*
X-416789Y-37542454D01*
X-420637Y-37574142D01*
X-401596Y-37730960D01*
X-345579Y-37878665D01*
X-255842Y-38008672D01*
X-137599Y-38113425D01*
X-64499Y-38151791D01*
X2275Y-38186838D01*
X155655Y-38224642D01*
X155656Y-38224642D01*
X313626Y-38224642D01*
X467006Y-38186838D01*
X490152Y-38174690D01*
X606881Y-38113425D01*
X725124Y-38008672D01*
X814861Y-37878665D01*
X870878Y-37730960D01*
X889919Y-37574142D01*
X871965Y-37426280D01*
X883425Y-37357360D01*
X907374Y-37323661D01*
X1144220Y-37086815D01*
X1205542Y-37053333D01*
X1231900Y-37050499D01*
X1944856Y-37050499D01*
X1944864Y-37050499D01*
X1944879Y-37050497D01*
X1944882Y-37050497D01*
X1969987Y-37047586D01*
X1969988Y-37047585D01*
X1969991Y-37047585D01*
X2072765Y-37002206D01*
X2152206Y-36922765D01*
X2162067Y-36900431D01*
X2207151Y-36847058D01*
X2273937Y-36826530D01*
X2341219Y-36845368D01*
X2387636Y-36897591D01*
X2399500Y-36950520D01*
X2399500Y-36967681D01*
X2399428Y-36971913D01*
X2397238Y-37036033D01*
X2406963Y-37075937D01*
X2409334Y-37088412D01*
X2414930Y-37129124D01*
X2422079Y-37145583D01*
X2428819Y-37165624D01*
X2433067Y-37183056D01*
X2433067Y-37183057D01*
X2453206Y-37218875D01*
X2458846Y-37230229D01*
X2464295Y-37242773D01*
X2475221Y-37267927D01*
X2486541Y-37281840D01*
X2498439Y-37299321D01*
X2507234Y-37314964D01*
X2507236Y-37314965D01*
X2536284Y-37344013D01*
X2544792Y-37353440D01*
X2570719Y-37385309D01*
X2570722Y-37385312D01*
X2585381Y-37395659D01*
X2601552Y-37409281D01*
X2670968Y-37478697D01*
X2704453Y-37540020D01*
X2699469Y-37609712D01*
X2670971Y-37654056D01*
X2647795Y-37677232D01*
X2647794Y-37677234D01*
X2602415Y-37780006D01*
X2602415Y-37780008D01*
X2599500Y-37805131D01*
X2599500Y-38394856D01*
X2599502Y-38394882D01*
X2602413Y-38419987D01*
X2602415Y-38419991D01*
X2647793Y-38522764D01*
X2647794Y-38522765D01*
X2727235Y-38602206D01*
X2775588Y-38623556D01*
X2828962Y-38668640D01*
X2849490Y-38735426D01*
X2849500Y-38736989D01*
X2849500Y-39325500D01*
X2829815Y-39392539D01*
X2777011Y-39438294D01*
X2725500Y-39449500D01*
X2383231Y-39449500D01*
X2316192Y-39429815D01*
X2308920Y-39424767D01*
X2217331Y-39356204D01*
X2217328Y-39356202D01*
X2082482Y-39305908D01*
X2082483Y-39305908D01*
X2022883Y-39299501D01*
X2022881Y-39299500D01*
X2022873Y-39299500D01*
X2022864Y-39299500D01*
X977129Y-39299500D01*
X977123Y-39299501D01*
X917516Y-39305908D01*
X782671Y-39356202D01*
X782668Y-39356204D01*
X691080Y-39424767D01*
X625615Y-39449184D01*
X616769Y-39449500D01*
X536161Y-39449500D01*
X469122Y-39429815D01*
X423367Y-39377011D01*
X413423Y-39307853D01*
X413688Y-39306102D01*
X425499Y-39231524D01*
X425500Y-39231519D01*
X425499Y-38868482D01*
X410646Y-38774696D01*
X353050Y-38661658D01*
X353046Y-38661654D01*
X353045Y-38661652D01*
X263347Y-38571954D01*
X263344Y-38571952D01*
X263342Y-38571950D01*
X186517Y-38532805D01*
X150301Y-38514352D01*
X56524Y-38499500D01*
X56519Y-38499500D01*
X-486833Y-38499500D01*
X-486835Y-38499500D01*
X-1338839Y-38499500D01*
X-1405878Y-38479815D01*
X-1451633Y-38427011D01*
X-1461577Y-38357853D01*
X-1461312Y-38356102D01*
X-1449500Y-38281524D01*
X-1449500Y-37918482D01*
X-1464354Y-37824697D01*
X-1464353Y-37824697D01*
X-1464354Y-37824696D01*
X-1521950Y-37711658D01*
X-1521951Y-37711657D01*
X-1521954Y-37711652D01*
X-1611652Y-37621954D01*
X-1611657Y-37621951D01*
X-1611658Y-37621950D01*
X-1649337Y-37602751D01*
X-1724698Y-37564352D01*
X-1818475Y-37549500D01*
X-3056517Y-37549500D01*
X-3123582Y-37560122D01*
X-3150304Y-37564354D01*
X-3263342Y-37621950D01*
X-3329574Y-37688182D01*
X-3390895Y-37721666D01*
X-3417254Y-37724500D01*
X-3545246Y-37724500D01*
X-3612285Y-37704815D01*
X-3632922Y-37688185D01*
X-3680642Y-37640466D01*
X-3699156Y-37621951D01*
X-3812198Y-37564352D01*
X-3905975Y-37549500D01*
X-4994017Y-37549500D01*
X-5061082Y-37560122D01*
X-5087804Y-37564354D01*
X-5200842Y-37621950D01*
X-5200844Y-37621952D01*
X-5200847Y-37621954D01*
X-5290545Y-37711652D01*
X-5290546Y-37711654D01*
X-5290550Y-37711658D01*
X-5332948Y-37794869D01*
X-5380922Y-37845664D01*
X-5448743Y-37862459D01*
X-5514878Y-37839922D01*
X-5531113Y-37826254D01*
X-5638473Y-37718894D01*
X-5641413Y-37715852D01*
X-5685210Y-37668958D01*
X-5720321Y-37647606D01*
X-5730805Y-37640470D01*
X-5763552Y-37615639D01*
X-5763557Y-37615636D01*
X-5780246Y-37609055D01*
X-5799177Y-37599653D01*
X-5802236Y-37597793D01*
X-5805816Y-37595615D01*
X-5814513Y-37590327D01*
X-5854075Y-37579242D01*
X-5866102Y-37575198D01*
X-5904334Y-37560122D01*
X-5922178Y-37558288D01*
X-5942942Y-37554342D01*
X-5960222Y-37549501D01*
X-5960227Y-37549500D01*
X-5960229Y-37549500D01*
X-5960231Y-37549500D01*
X-6001312Y-37549500D01*
X-6013992Y-37548850D01*
X-6054864Y-37544648D01*
X-6054869Y-37544648D01*
X-6072550Y-37547697D01*
X-6093618Y-37549500D01*
X-8416769Y-37549500D01*
X-8483808Y-37529815D01*
X-8491080Y-37524767D01*
X-8582668Y-37456204D01*
X-8582669Y-37456203D01*
X-8668834Y-37424066D01*
X-8724767Y-37382194D01*
X-8749184Y-37316730D01*
X-8749500Y-37307884D01*
X-8749500Y-37061521D01*
X-8749428Y-37057289D01*
X-8749097Y-37047585D01*
X-8747238Y-36993174D01*
X-8747238Y-36993173D01*
X-8747238Y-36993171D01*
X-8756965Y-36953255D01*
X-8759335Y-36940784D01*
X-8764930Y-36900079D01*
X-8772081Y-36883616D01*
X-8778820Y-36863575D01*
X-8783066Y-36846150D01*
X-8783069Y-36846143D01*
X-8803203Y-36810334D01*
X-8808849Y-36798967D01*
X-8825220Y-36761279D01*
X-8825221Y-36761276D01*
X-8836546Y-36747356D01*
X-8848436Y-36729886D01*
X-8857233Y-36714241D01*
X-8857235Y-36714239D01*
X-8886294Y-36685178D01*
X-8894795Y-36675758D01*
X-8920717Y-36643896D01*
X-8920722Y-36643891D01*
X-8935383Y-36633542D01*
X-8951550Y-36619923D01*
X-9213181Y-36358292D01*
X-9246666Y-36296969D01*
X-9249500Y-36270611D01*
X-9249500Y-36005143D01*
X-9249502Y-36005117D01*
X-9252413Y-35980012D01*
X-9252415Y-35980008D01*
X-9297793Y-35877235D01*
X-9377234Y-35797794D01*
X-9480007Y-35752415D01*
X-9505134Y-35749500D01*
X-10094856Y-35749500D01*
X-10094882Y-35749502D01*
X-10119987Y-35752413D01*
X-10119991Y-35752415D01*
X-10222764Y-35797793D01*
X-10222765Y-35797794D01*
X-10302206Y-35877235D01*
X-10328729Y-35937304D01*
X-10336610Y-35955154D01*
X-10347585Y-35980009D01*
X-10350500Y-36005135D01*
X-10350499Y-36296969D01*
X-10350499Y-36538462D01*
X-10350571Y-36542695D01*
X-10352762Y-36606826D01*
X-10352761Y-36606829D01*
X-10351894Y-36615269D01*
X-10352383Y-36615319D01*
X-10350499Y-36631005D01*
X-10350499Y-37094864D01*
X-10350497Y-37094879D01*
X-10350497Y-37094882D01*
X-10347586Y-37119987D01*
X-10347585Y-37119988D01*
X-10347585Y-37119991D01*
X-10302206Y-37222765D01*
X-10222765Y-37302206D01*
X-10158105Y-37330755D01*
X-10104732Y-37375838D01*
X-10084204Y-37442624D01*
X-10103041Y-37509907D01*
X-10126755Y-37535702D01*
X-10126275Y-37536183D01*
X-10132544Y-37542452D01*
X-10132544Y-37542453D01*
X-10132546Y-37542454D01*
X-10141445Y-37554342D01*
X-10166127Y-37587312D01*
X-10222061Y-37629182D01*
X-10265393Y-37637000D01*
X-10578323Y-37637000D01*
X-10645362Y-37617315D01*
X-10677590Y-37587310D01*
X-10692454Y-37567453D01*
X-10692455Y-37567452D01*
X-10807664Y-37481206D01*
X-10807671Y-37481202D01*
X-10942517Y-37430908D01*
X-10942516Y-37430908D01*
X-11002116Y-37424501D01*
X-11002119Y-37424500D01*
X-11002127Y-37424500D01*
X-11002134Y-37424500D01*
X-11002135Y-37424500D01*
X-11100740Y-37424500D01*
X-11167779Y-37404815D01*
X-11213534Y-37352011D01*
X-11223478Y-37282853D01*
X-11203042Y-37230426D01*
X-11197796Y-37222767D01*
X-11197794Y-37222765D01*
X-11180261Y-37183056D01*
X-11152415Y-37119993D01*
X-11152415Y-37119991D01*
X-11149500Y-37094868D01*
X-11149500Y-36005143D01*
X-11149502Y-36005117D01*
X-11152413Y-35980012D01*
X-11152415Y-35980008D01*
X-11197793Y-35877235D01*
X-11277234Y-35797794D01*
X-11380007Y-35752415D01*
X-11405134Y-35749500D01*
X-11994856Y-35749500D01*
X-11994882Y-35749502D01*
X-12019987Y-35752413D01*
X-12019991Y-35752415D01*
X-12122764Y-35797793D01*
X-12202206Y-35877235D01*
X-12229496Y-35939041D01*
X-12274581Y-35992417D01*
X-12341368Y-36012945D01*
X-12400555Y-35998752D01*
X-12517635Y-35937303D01*
X-12671014Y-35899500D01*
X-12671015Y-35899500D01*
X-12828985Y-35899500D01*
X-12828986Y-35899500D01*
X-12982365Y-35937303D01*
X-13122237Y-36010715D01*
X-13122238Y-36010716D01*
X-13122240Y-36010717D01*
X-13236551Y-36111987D01*
X-13243273Y-36117942D01*
X-13306507Y-36147663D01*
X-13375770Y-36138479D01*
X-13429073Y-36093307D01*
X-13449493Y-36026487D01*
X-13449500Y-36025126D01*
X-13449500Y-35602127D01*
X-4150500Y-35602127D01*
X-4150499Y-36397872D01*
X-4144091Y-36457483D01*
X-4093796Y-36592331D01*
X-4007546Y-36707546D01*
X-3892331Y-36793796D01*
X-3757483Y-36844091D01*
X-3697873Y-36850500D01*
X-2302128Y-36850499D01*
X-2253757Y-36845299D01*
X-2242516Y-36844091D01*
X-2107671Y-36793797D01*
X-2107664Y-36793793D01*
X-1992455Y-36707547D01*
X-1992452Y-36707544D01*
X-1906206Y-36592335D01*
X-1906202Y-36592328D01*
X-1855908Y-36457482D01*
X-1849501Y-36397883D01*
X-1849500Y-36397881D01*
X-1849500Y-36397873D01*
X-1849500Y-36005117D01*
X-1849500Y-35602129D01*
X-1849501Y-35602123D01*
X-1855908Y-35542516D01*
X-1906202Y-35407671D01*
X-1906206Y-35407664D01*
X-1992452Y-35292455D01*
X-1992455Y-35292452D01*
X-2107664Y-35206206D01*
X-2107671Y-35206202D01*
X-2242517Y-35155908D01*
X-2242516Y-35155908D01*
X-2302116Y-35149501D01*
X-2302119Y-35149500D01*
X-2302127Y-35149500D01*
X-2302134Y-35149500D01*
X-2302135Y-35149500D01*
X-3697870Y-35149500D01*
X-3697876Y-35149501D01*
X-3757483Y-35155908D01*
X-3892328Y-35206202D01*
X-3892335Y-35206206D01*
X-4007544Y-35292452D01*
X-4007547Y-35292455D01*
X-4093793Y-35407664D01*
X-4093797Y-35407671D01*
X-4128233Y-35499999D01*
X-4144091Y-35542517D01*
X-4150500Y-35602127D01*
X-13449500Y-35602127D01*
X-13449500Y-34950000D01*
X-6797295Y-34950000D01*
X-6797295Y-34950001D01*
X-6797100Y-34952486D01*
X-6751281Y-35110198D01*
X-6667685Y-35251552D01*
X-6667678Y-35251561D01*
X-6551561Y-35367678D01*
X-6551552Y-35367685D01*
X-6410196Y-35451282D01*
X-6410193Y-35451283D01*
X-6252495Y-35497099D01*
X-6252489Y-35497100D01*
X-6215649Y-35499999D01*
X-6215634Y-35500000D01*
X-5775000Y-35500000D01*
X-5775000Y-34950000D01*
X-5275000Y-34950000D01*
X-5275000Y-35500000D01*
X-4834366Y-35500000D01*
X-4834350Y-35499999D01*
X-4797510Y-35497100D01*
X-4797504Y-35497099D01*
X-4639806Y-35451283D01*
X-4639803Y-35451282D01*
X-4498447Y-35367685D01*
X-4498438Y-35367678D01*
X-4382321Y-35251561D01*
X-4382314Y-35251552D01*
X-4298718Y-35110198D01*
X-4252899Y-34952486D01*
X-4252704Y-34950001D01*
X-4252705Y-34950000D01*
X-5275000Y-34950000D01*
X-5775000Y-34950000D01*
X-6797295Y-34950000D01*
X-13449500Y-34950000D01*
X-13449500Y-32179386D01*
X-13429815Y-32112347D01*
X-13413181Y-32091705D01*
X-13153503Y-31832027D01*
X-13092180Y-31798542D01*
X-13022488Y-31803526D01*
X-12966556Y-31845396D01*
X-12914687Y-31914687D01*
X-12805226Y-31996628D01*
X-12677114Y-32044412D01*
X-12620485Y-32050500D01*
X-12079516Y-32050499D01*
X-12040025Y-32046254D01*
X-12022885Y-32044412D01*
X-11965450Y-32022989D01*
X-11894774Y-31996628D01*
X-11785313Y-31914687D01*
X-11703372Y-31805226D01*
X-11697076Y-31788346D01*
X-11660830Y-31691169D01*
X-11618959Y-31635236D01*
X-11553494Y-31610820D01*
X-11485221Y-31625672D01*
X-11435816Y-31675078D01*
X-11434202Y-31678136D01*
X-11378050Y-31788342D01*
X-11378046Y-31788346D01*
X-11336820Y-31829572D01*
X-11303334Y-31890895D01*
X-11300500Y-31917254D01*
X-11300500Y-32171044D01*
X-11320185Y-32238083D01*
X-11372989Y-32283838D01*
X-11442147Y-32293782D01*
X-11460347Y-32289084D01*
X-11460351Y-32289099D01*
X-11621014Y-32249500D01*
X-11621015Y-32249500D01*
X-11778985Y-32249500D01*
X-11778986Y-32249500D01*
X-11932365Y-32287303D01*
X-12072237Y-32360715D01*
X-12072238Y-32360716D01*
X-12072240Y-32360717D01*
X-12190483Y-32465470D01*
X-12280220Y-32595477D01*
X-12311227Y-32677235D01*
X-12336237Y-32743181D01*
X-12354346Y-32892328D01*
X-12355278Y-32900000D01*
X-12336237Y-33056818D01*
X-12280220Y-33204523D01*
X-12253414Y-33243358D01*
X-12252461Y-33244738D01*
X-12230577Y-33311092D01*
X-12241075Y-33365264D01*
X-12241273Y-33365713D01*
X-12247585Y-33380009D01*
X-12250500Y-33405135D01*
X-12250499Y-34494864D01*
X-12250497Y-34494879D01*
X-12250497Y-34494882D01*
X-12247586Y-34519987D01*
X-12247585Y-34519988D01*
X-12247585Y-34519991D01*
X-12202206Y-34622765D01*
X-12122765Y-34702206D01*
X-12019991Y-34747585D01*
X-11994865Y-34750500D01*
X-11405136Y-34750499D01*
X-11405122Y-34750497D01*
X-11405117Y-34750497D01*
X-11380012Y-34747586D01*
X-11380008Y-34747585D01*
X-11275086Y-34701257D01*
X-11205808Y-34692185D01*
X-11174913Y-34701257D01*
X-11172766Y-34702204D01*
X-11172765Y-34702206D01*
X-11069991Y-34747585D01*
X-11044865Y-34750500D01*
X-10455136Y-34750499D01*
X-10455122Y-34750497D01*
X-10455117Y-34750497D01*
X-10430012Y-34747586D01*
X-10430008Y-34747585D01*
X-10325086Y-34701257D01*
X-10255808Y-34692185D01*
X-10224913Y-34701257D01*
X-10222766Y-34702204D01*
X-10222765Y-34702206D01*
X-10119991Y-34747585D01*
X-10094865Y-34750500D01*
X-9505136Y-34750499D01*
X-9505122Y-34750497D01*
X-9505117Y-34750497D01*
X-9480012Y-34747586D01*
X-9480010Y-34747585D01*
X-9480009Y-34747585D01*
X-9377235Y-34702206D01*
X-9297794Y-34622765D01*
X-9287963Y-34600500D01*
X-9252415Y-34519993D01*
X-9252415Y-34519991D01*
X-9251280Y-34510208D01*
X-9223999Y-34445884D01*
X-9166273Y-34406520D01*
X-9128106Y-34400500D01*
X-8937180Y-34400500D01*
X-8870141Y-34420185D01*
X-8837914Y-34450187D01*
X-8757546Y-34557546D01*
X-8642331Y-34643796D01*
X-8507483Y-34694091D01*
X-8447873Y-34700500D01*
X-7452128Y-34700499D01*
X-7403757Y-34695299D01*
X-7392516Y-34694091D01*
X-7257671Y-34643797D01*
X-7257664Y-34643793D01*
X-7179991Y-34585646D01*
X-7142454Y-34557546D01*
X-7056204Y-34442331D01*
X-7056203Y-34442329D01*
X-7053997Y-34439382D01*
X-6998063Y-34397511D01*
X-6940846Y-34390473D01*
X-6920465Y-34392770D01*
X-6920462Y-34392769D01*
X-6920459Y-34392770D01*
X-6911178Y-34392423D01*
X-6911046Y-34395924D01*
X-6858679Y-34401075D01*
X-6814036Y-34431890D01*
X-6797295Y-34450000D01*
X-4252705Y-34450000D01*
X-4252704Y-34449998D01*
X-4252899Y-34447513D01*
X-4298718Y-34289801D01*
X-4382314Y-34148447D01*
X-4382321Y-34148438D01*
X-4475297Y-34055463D01*
X-4508782Y-33994140D01*
X-4510089Y-33948385D01*
X-4499500Y-33881525D01*
X-4499500Y-33518482D01*
X-4514354Y-33424694D01*
X-4517369Y-33415418D01*
X-4514321Y-33414427D01*
X-4524142Y-33362117D01*
X-4497861Y-33297378D01*
X-4440752Y-33257125D01*
X-4400762Y-33250500D01*
X-2329387Y-33250500D01*
X-2262348Y-33270185D01*
X-2241705Y-33286819D01*
X-1439285Y-34089238D01*
X-1405802Y-34150559D01*
X-1410786Y-34220250D01*
X-1419091Y-34242517D01*
X-1425500Y-34302127D01*
X-1425499Y-34897872D01*
X-1419091Y-34957483D01*
X-1368796Y-35092331D01*
X-1282546Y-35207546D01*
X-1167331Y-35293796D01*
X-1032483Y-35344091D01*
X-972873Y-35350500D01*
X72872Y-35350499D01*
X132483Y-35344091D01*
X267331Y-35293796D01*
X382546Y-35207546D01*
X388052Y-35200191D01*
X443985Y-35158319D01*
X487320Y-35150500D01*
X1447648Y-35150500D01*
X1447660Y-35150499D01*
X1944856Y-35150499D01*
X1944864Y-35150499D01*
X1944879Y-35150497D01*
X1944882Y-35150497D01*
X1969987Y-35147586D01*
X1969988Y-35147585D01*
X1969991Y-35147585D01*
X2072765Y-35102206D01*
X2152206Y-35022765D01*
X2197585Y-34919991D01*
X2200500Y-34894865D01*
X2200499Y-34305136D01*
X2198721Y-34289801D01*
X2197586Y-34280012D01*
X2197585Y-34280010D01*
X2197585Y-34280009D01*
X2152206Y-34177235D01*
X2072765Y-34097794D01*
X1977839Y-34055880D01*
X1969992Y-34052415D01*
X1944868Y-34049500D01*
X1944865Y-34049500D01*
X1475666Y-34049500D01*
X1475665Y-34049500D01*
X487320Y-34049500D01*
X420281Y-34029815D01*
X388052Y-33999809D01*
X382548Y-33992457D01*
X382546Y-33992454D01*
X359637Y-33975304D01*
X267335Y-33906206D01*
X267328Y-33906202D01*
X132482Y-33855908D01*
X132483Y-33855908D01*
X72883Y-33849501D01*
X72881Y-33849500D01*
X72873Y-33849500D01*
X72865Y-33849500D01*
X-70612Y-33849500D01*
X-137651Y-33829815D01*
X-158293Y-33813181D01*
X-1652579Y-32318894D01*
X-1655519Y-32315852D01*
X-1699316Y-32268958D01*
X-1734427Y-32247606D01*
X-1744911Y-32240470D01*
X-1777658Y-32215639D01*
X-1777663Y-32215636D01*
X-1794352Y-32209055D01*
X-1813283Y-32199653D01*
X-1828620Y-32190326D01*
X-1841006Y-32186856D01*
X-1900247Y-32149812D01*
X-1930056Y-32086621D01*
X-1920969Y-32017345D01*
X-1906815Y-31993148D01*
X-1906205Y-31992334D01*
X-1906202Y-31992328D01*
X-1855908Y-31857482D01*
X-1849501Y-31797883D01*
X-1849500Y-31797881D01*
X-1849500Y-31797873D01*
X-1849500Y-31427511D01*
X-1849500Y-31002129D01*
X-1849501Y-31002123D01*
X-1855908Y-30942516D01*
X-1906202Y-30807671D01*
X-1906206Y-30807664D01*
X-1992452Y-30692455D01*
X-1992455Y-30692452D01*
X-2107664Y-30606206D01*
X-2107671Y-30606202D01*
X-2242517Y-30555908D01*
X-2242516Y-30555908D01*
X-2302116Y-30549501D01*
X-2302119Y-30549500D01*
X-2302127Y-30549500D01*
X-2302134Y-30549500D01*
X-2302135Y-30549500D01*
X-3697870Y-30549500D01*
X-3697876Y-30549501D01*
X-3757483Y-30555908D01*
X-3892328Y-30606202D01*
X-3892335Y-30606206D01*
X-4007544Y-30692452D01*
X-4007547Y-30692455D01*
X-4093793Y-30807664D01*
X-4093797Y-30807671D01*
X-4136420Y-30921950D01*
X-4144091Y-30942517D01*
X-4150500Y-31002127D01*
X-4150499Y-31797872D01*
X-4147091Y-31829572D01*
X-4144091Y-31857483D01*
X-4097587Y-31982167D01*
X-4092603Y-32051859D01*
X-4126088Y-32113182D01*
X-4187411Y-32146666D01*
X-4213769Y-32149500D01*
X-6070614Y-32149500D01*
X-6137653Y-32129815D01*
X-6158295Y-32113181D01*
X-6602128Y-31669346D01*
X-6619257Y-31644191D01*
X-6620811Y-31645136D01*
X-6625219Y-31637887D01*
X-6636546Y-31623964D01*
X-6648439Y-31606488D01*
X-6657231Y-31590851D01*
X-6657236Y-31590845D01*
X-6686290Y-31561790D01*
X-6694793Y-31552368D01*
X-6720722Y-31520497D01*
X-6735385Y-31510147D01*
X-6751554Y-31496526D01*
X-7229199Y-31018880D01*
X-7232140Y-31015837D01*
X-7275923Y-30968958D01*
X-7311033Y-30947606D01*
X-7321525Y-30940464D01*
X-7348841Y-30919750D01*
X-7390365Y-30863558D01*
X-7394917Y-30793837D01*
X-7384402Y-30764652D01*
X-7364354Y-30725304D01*
X-7364352Y-30725301D01*
X-7349500Y-30631524D01*
X-7349500Y-30268482D01*
X-7364354Y-30174697D01*
X-7364353Y-30174697D01*
X-7364354Y-30174696D01*
X-7421950Y-30061658D01*
X-7421951Y-30061657D01*
X-7421954Y-30061652D01*
X-7511652Y-29971954D01*
X-7511657Y-29971951D01*
X-7511658Y-29971950D01*
X-7551664Y-29951566D01*
X-7624698Y-29914352D01*
X-7718476Y-29899500D01*
X-7718481Y-29899500D01*
X-7763000Y-29899500D01*
X-7830039Y-29879815D01*
X-7875794Y-29827011D01*
X-7887000Y-29775500D01*
X-7887000Y-29689303D01*
X-7884361Y-29663858D01*
X-7882133Y-29653232D01*
X-7882133Y-29653230D01*
X-7886048Y-29621823D01*
X-7887000Y-29606485D01*
X-7887000Y-29606385D01*
X-7890418Y-29585900D01*
X-7891157Y-29580833D01*
X-7897634Y-29528870D01*
X-7899871Y-29521357D01*
X-7902436Y-29513886D01*
X-7927337Y-29467871D01*
X-7929680Y-29463320D01*
X-7952671Y-29416292D01*
X-7957253Y-29409875D01*
X-7962079Y-29403674D01*
X-8000594Y-29368218D01*
X-8004289Y-29364672D01*
X-8115481Y-29253480D01*
X-8148966Y-29192157D01*
X-8150896Y-29150854D01*
X-8144722Y-29100001D01*
X-8144722Y-29099999D01*
X-8163762Y-28943181D01*
X-8219780Y-28795476D01*
X-8219781Y-28795475D01*
X-8309516Y-28665471D01*
X-8427762Y-28560715D01*
X-8567634Y-28487303D01*
X-8721014Y-28449500D01*
X-8721015Y-28449500D01*
X-8878985Y-28449500D01*
X-8878986Y-28449500D01*
X-9032365Y-28487303D01*
X-9172237Y-28560715D01*
X-9172238Y-28560716D01*
X-9172240Y-28560717D01*
X-9290483Y-28665470D01*
X-9380220Y-28795477D01*
X-9436237Y-28943182D01*
X-9455278Y-29100000D01*
X-9436237Y-29256818D01*
X-9380220Y-29404523D01*
X-9290483Y-29534530D01*
X-9172240Y-29639283D01*
X-9041943Y-29707669D01*
X-9032365Y-29712696D01*
X-8999956Y-29720684D01*
X-8939575Y-29755839D01*
X-8907786Y-29818059D01*
X-8914681Y-29887587D01*
X-8958072Y-29942350D01*
X-8973327Y-29951561D01*
X-9013342Y-29971950D01*
X-9013344Y-29971952D01*
X-9013347Y-29971954D01*
X-9103045Y-30061652D01*
X-9103046Y-30061654D01*
X-9103050Y-30061658D01*
X-9160646Y-30174696D01*
X-9160647Y-30174698D01*
X-9165871Y-30207684D01*
X-9175500Y-30268481D01*
X-9175499Y-30455875D01*
X-9175499Y-30631518D01*
X-9163687Y-30706104D01*
X-9172643Y-30775397D01*
X-9217640Y-30828849D01*
X-9284392Y-30849487D01*
X-9286161Y-30849500D01*
X-10525978Y-30849500D01*
X-10530210Y-30849428D01*
X-10544929Y-30848925D01*
X-10594326Y-30847238D01*
X-10594329Y-30847238D01*
X-10602763Y-30848105D01*
X-10602813Y-30847616D01*
X-10618498Y-30849500D01*
X-11081517Y-30849500D01*
X-11149657Y-30860292D01*
X-11175304Y-30864354D01*
X-11288342Y-30921950D01*
X-11288344Y-30921952D01*
X-11288347Y-30921954D01*
X-11378045Y-31011652D01*
X-11378046Y-31011654D01*
X-11378050Y-31011658D01*
X-11415016Y-31084208D01*
X-11462990Y-31135003D01*
X-11530811Y-31151798D01*
X-11596946Y-31129261D01*
X-11640397Y-31074545D01*
X-11649500Y-31027912D01*
X-11649500Y-30779519D01*
X-11649501Y-30779509D01*
X-11655587Y-30722885D01*
X-11703372Y-30594773D01*
X-11785313Y-30485313D01*
X-11894771Y-30403373D01*
X-12021229Y-30356206D01*
X-12022886Y-30355588D01*
X-12022886Y-30355587D01*
X-12022889Y-30355587D01*
X-12079506Y-30349500D01*
X-12620481Y-30349500D01*
X-12620490Y-30349501D01*
X-12677114Y-30355587D01*
X-12805226Y-30403372D01*
X-12914687Y-30485313D01*
X-12968848Y-30557664D01*
X-13000399Y-30599811D01*
X-13056333Y-30641682D01*
X-13099666Y-30649500D01*
X-13288478Y-30649500D01*
X-13292710Y-30649428D01*
X-13307429Y-30648925D01*
X-13356826Y-30647238D01*
X-13356829Y-30647238D01*
X-13396733Y-30656963D01*
X-13409208Y-30659334D01*
X-13449920Y-30664930D01*
X-13466379Y-30672079D01*
X-13486420Y-30678819D01*
X-13503852Y-30683067D01*
X-13539663Y-30703202D01*
X-13551030Y-30708848D01*
X-13588721Y-30725220D01*
X-13602641Y-30736545D01*
X-13620118Y-30748440D01*
X-13635756Y-30757233D01*
X-13635761Y-30757237D01*
X-13664806Y-30786282D01*
X-13674222Y-30794781D01*
X-13706108Y-30820722D01*
X-13716458Y-30835384D01*
X-13730079Y-30851555D01*
X-14381116Y-31502591D01*
X-14384131Y-31505506D01*
X-14431044Y-31549320D01*
X-14452394Y-31584429D01*
X-14459532Y-31594916D01*
X-14484359Y-31627655D01*
X-14484361Y-31627659D01*
X-14490945Y-31644353D01*
X-14500351Y-31663290D01*
X-14509672Y-31678618D01*
X-14515785Y-31700436D01*
X-14520758Y-31718183D01*
X-14524803Y-31730213D01*
X-14539876Y-31768436D01*
X-14541711Y-31786287D01*
X-14545657Y-31807052D01*
X-14550500Y-31824335D01*
X-14550500Y-31824336D01*
X-14550500Y-31865418D01*
X-14551150Y-31878098D01*
X-14555352Y-31918972D01*
X-14555351Y-31918975D01*
X-14552303Y-31936656D01*
X-14550500Y-31957724D01*
X-14550500Y-34115256D01*
X-14570185Y-34182295D01*
X-14622989Y-34228050D01*
X-14687752Y-34238545D01*
X-14702127Y-34237000D01*
X-14702135Y-34237000D01*
X-14759867Y-34237000D01*
X-14826906Y-34217315D01*
X-14871266Y-34167463D01*
X-14890171Y-34128792D01*
X-14894753Y-34122375D01*
X-14899579Y-34116175D01*
X-14938081Y-34080731D01*
X-14941777Y-34077184D01*
X-15197852Y-33821108D01*
X-15213976Y-33801254D01*
X-15219914Y-33792165D01*
X-15219915Y-33792164D01*
X-15244896Y-33772720D01*
X-15256388Y-33762574D01*
X-15256479Y-33762483D01*
X-15256489Y-33762474D01*
X-15273397Y-33750402D01*
X-15277503Y-33747341D01*
X-15318808Y-33715192D01*
X-15325729Y-33711447D01*
X-15332804Y-33707988D01*
X-15382955Y-33693057D01*
X-15387831Y-33691495D01*
X-15437338Y-33674500D01*
X-15445080Y-33673208D01*
X-15452914Y-33672231D01*
X-15503746Y-33674334D01*
X-15505193Y-33674394D01*
X-15510316Y-33674500D01*
X-16520246Y-33674500D01*
X-16587285Y-33654815D01*
X-16607922Y-33638185D01*
X-16643903Y-33602205D01*
X-16674156Y-33571951D01*
X-16787198Y-33514352D01*
X-16880975Y-33499500D01*
X-18119017Y-33499500D01*
X-18195029Y-33511539D01*
X-18212804Y-33514354D01*
X-18226774Y-33521472D01*
X-18295442Y-33534367D01*
X-18360182Y-33508090D01*
X-18400438Y-33450983D01*
X-18403267Y-33384960D01*
X-18403380Y-33384943D01*
X-18403292Y-33384389D01*
X-18403430Y-33381177D01*
X-18401980Y-33376109D01*
X-18387000Y-33281524D01*
X-18387000Y-33179386D01*
X-18367315Y-33112347D01*
X-18350684Y-33091709D01*
X-17495793Y-32236817D01*
X-17434471Y-32203333D01*
X-17408113Y-32200499D01*
X-16977129Y-32200499D01*
X-16977128Y-32200499D01*
X-16928757Y-32195299D01*
X-16917516Y-32194091D01*
X-16782671Y-32143797D01*
X-16782664Y-32143793D01*
X-16667455Y-32057547D01*
X-16667452Y-32057544D01*
X-16581206Y-31942335D01*
X-16581202Y-31942328D01*
X-16558391Y-31881167D01*
X-16516520Y-31825233D01*
X-16451056Y-31800816D01*
X-16442209Y-31800500D01*
X-16362236Y-31800500D01*
X-16295197Y-31820185D01*
X-16262970Y-31850188D01*
X-16214687Y-31914687D01*
X-16105226Y-31996628D01*
X-15977114Y-32044412D01*
X-15920485Y-32050500D01*
X-15379516Y-32050499D01*
X-15340025Y-32046254D01*
X-15322885Y-32044412D01*
X-15265450Y-32022989D01*
X-15194774Y-31996628D01*
X-15085313Y-31914687D01*
X-15017677Y-31824336D01*
X-15003373Y-31805228D01*
X-15001727Y-31800816D01*
X-14955588Y-31677114D01*
X-14955587Y-31677112D01*
X-14955587Y-31677110D01*
X-14949500Y-31620501D01*
X-14949500Y-30779518D01*
X-14949501Y-30779509D01*
X-14955587Y-30722885D01*
X-15003372Y-30594773D01*
X-15085313Y-30485313D01*
X-15194771Y-30403373D01*
X-15321229Y-30356206D01*
X-15322886Y-30355588D01*
X-15322886Y-30355587D01*
X-15322889Y-30355587D01*
X-15379506Y-30349500D01*
X-15920481Y-30349500D01*
X-15920490Y-30349501D01*
X-15977114Y-30355587D01*
X-16105226Y-30403372D01*
X-16214687Y-30485313D01*
X-16268848Y-30557664D01*
X-16282733Y-30576213D01*
X-16296628Y-30594774D01*
X-16305602Y-30618836D01*
X-16347473Y-30674767D01*
X-16412937Y-30699184D01*
X-16421783Y-30699500D01*
X-16442209Y-30699500D01*
X-16509248Y-30679815D01*
X-16555003Y-30627011D01*
X-16558391Y-30618833D01*
X-16581202Y-30557671D01*
X-16581206Y-30557664D01*
X-16667452Y-30442455D01*
X-16667455Y-30442452D01*
X-16782664Y-30356206D01*
X-16782671Y-30356202D01*
X-16917513Y-30305910D01*
X-16917514Y-30305909D01*
X-16917517Y-30305909D01*
X-16977127Y-30299500D01*
X-16977135Y-30299500D01*
X-16977136Y-30299500D01*
X-17597870Y-30299500D01*
X-17597876Y-30299501D01*
X-17657483Y-30305908D01*
X-17792328Y-30356202D01*
X-17792335Y-30356206D01*
X-17907544Y-30442452D01*
X-17907547Y-30442455D01*
X-17953501Y-30503841D01*
X-18009435Y-30545712D01*
X-18079126Y-30550696D01*
X-18140449Y-30517210D01*
X-18161664Y-30486910D01*
X-18161851Y-30487025D01*
X-18163820Y-30483831D01*
X-18165148Y-30481936D01*
X-18165637Y-30480885D01*
X-18257684Y-30331654D01*
X-18381654Y-30207684D01*
X-18530875Y-30115643D01*
X-18530880Y-30115641D01*
X-18697302Y-30060494D01*
X-18697309Y-30060493D01*
X-18800013Y-30050000D01*
X-18862500Y-30050000D01*
X-18862500Y-31376000D01*
X-18882185Y-31443039D01*
X-18934989Y-31488794D01*
X-18986500Y-31500000D01*
X-20124999Y-31500000D01*
X-20124999Y-31749971D01*
X-20124998Y-31749986D01*
X-20114505Y-31852697D01*
X-20059358Y-32019119D01*
X-20059356Y-32019124D01*
X-19967315Y-32168345D01*
X-19843345Y-32292315D01*
X-19798525Y-32319961D01*
X-19751801Y-32371909D01*
X-19740578Y-32440872D01*
X-19768422Y-32504954D01*
X-19826490Y-32543810D01*
X-19863622Y-32549500D01*
X-21170846Y-32549500D01*
X-21237885Y-32529815D01*
X-21283640Y-32477011D01*
X-21293584Y-32407853D01*
X-21264559Y-32344297D01*
X-21235945Y-32319962D01*
X-21231654Y-32317315D01*
X-21107684Y-32193345D01*
X-21015643Y-32044124D01*
X-21015641Y-32044119D01*
X-20960494Y-31877697D01*
X-20960493Y-31877690D01*
X-20950000Y-31774986D01*
X-20950000Y-31500000D01*
X-22076000Y-31500000D01*
X-22143039Y-31480315D01*
X-22188794Y-31427511D01*
X-22200000Y-31376000D01*
X-22200000Y-30025000D01*
X-21700000Y-30025000D01*
X-21700000Y-31000000D01*
X-20950001Y-31000000D01*
X-20125000Y-31000000D01*
X-19362500Y-31000000D01*
X-19362500Y-30049999D01*
X-19424971Y-30050000D01*
X-19424988Y-30050001D01*
X-19527697Y-30060494D01*
X-19694119Y-30115641D01*
X-19694124Y-30115643D01*
X-19843345Y-30207684D01*
X-19967315Y-30331654D01*
X-20059356Y-30480875D01*
X-20059358Y-30480880D01*
X-20114505Y-30647302D01*
X-20114506Y-30647309D01*
X-20124999Y-30750013D01*
X-20125000Y-30750026D01*
X-20125000Y-31000000D01*
X-20950001Y-31000000D01*
X-20950001Y-30725013D01*
X-20960494Y-30622302D01*
X-21015641Y-30455880D01*
X-21015643Y-30455875D01*
X-21107684Y-30306654D01*
X-21231654Y-30182684D01*
X-21380875Y-30090643D01*
X-21380880Y-30090641D01*
X-21547302Y-30035494D01*
X-21547309Y-30035493D01*
X-21650013Y-30025000D01*
X-21700000Y-30025000D01*
X-22200000Y-30025000D01*
X-22200000Y-30024999D01*
X-22249970Y-30025000D01*
X-22249988Y-30025001D01*
X-22352697Y-30035494D01*
X-22519119Y-30090641D01*
X-22519124Y-30090643D01*
X-22668345Y-30182684D01*
X-22792315Y-30306654D01*
X-22884356Y-30455875D01*
X-22884358Y-30455880D01*
X-22914930Y-30548140D01*
X-22954702Y-30605585D01*
X-23019218Y-30632408D01*
X-23087994Y-30620093D01*
X-23139194Y-30572550D01*
X-23148817Y-30552471D01*
X-23156201Y-30532674D01*
X-23156206Y-30532664D01*
X-23242452Y-30417455D01*
X-23242455Y-30417452D01*
X-23357664Y-30331206D01*
X-23357671Y-30331202D01*
X-23492513Y-30280910D01*
X-23492514Y-30280909D01*
X-23492517Y-30280909D01*
X-23552127Y-30274500D01*
X-23552135Y-30274500D01*
X-23552136Y-30274500D01*
X-24147870Y-30274500D01*
X-24147876Y-30274501D01*
X-24207483Y-30280908D01*
X-24342328Y-30331202D01*
X-24342335Y-30331206D01*
X-24457544Y-30417452D01*
X-24457547Y-30417455D01*
X-24526734Y-30509876D01*
X-24582668Y-30551747D01*
X-24652359Y-30556731D01*
X-24713682Y-30523245D01*
X-24747166Y-30461922D01*
X-24750000Y-30435565D01*
X-24750000Y-1008125D01*
X-24748939Y-991939D01*
X-24735093Y-886775D01*
X-24726715Y-855508D01*
X-24689259Y-765081D01*
X-24673074Y-737048D01*
X-24613491Y-659398D01*
X-24590602Y-636509D01*
X-24512951Y-576925D01*
X-24484918Y-560740D01*
X-24394491Y-523284D01*
X-24363223Y-514906D01*
X-24258059Y-501061D01*
X-24241874Y-500000D01*
X-17215233Y-500000D01*
X-17199047Y-501061D01*
G37*
%TD.AperFunction*%
%TA.AperFunction,Conductor*%
G36*
X-5642159Y-39274826D02*
G01*
X-5625930Y-39288487D01*
X-5542913Y-39371504D01*
X-5509430Y-39432825D01*
X-5514414Y-39502517D01*
X-5523864Y-39522304D01*
X-5563781Y-39589801D01*
X-5609600Y-39747513D01*
X-5609795Y-39749998D01*
X-5609795Y-39750000D01*
X-4324000Y-39750000D01*
X-4256961Y-39769685D01*
X-4211206Y-39822489D01*
X-4200000Y-39874000D01*
X-4200000Y-40126000D01*
X-4219685Y-40193039D01*
X-4272489Y-40238794D01*
X-4324000Y-40250000D01*
X-5609795Y-40250000D01*
X-5609795Y-40250001D01*
X-5609600Y-40252488D01*
X-5583768Y-40341406D01*
X-5583968Y-40411275D01*
X-5621911Y-40469945D01*
X-5685549Y-40498788D01*
X-5702845Y-40500000D01*
X-7953013Y-40500000D01*
X-8020052Y-40480315D01*
X-8065807Y-40427511D01*
X-8076371Y-40363395D01*
X-8075000Y-40349981D01*
X-8075000Y-40300000D01*
X-9426000Y-40300000D01*
X-9493039Y-40280315D01*
X-9538794Y-40227511D01*
X-9550000Y-40176000D01*
X-9550000Y-39924000D01*
X-9530315Y-39856961D01*
X-9477511Y-39811206D01*
X-9426000Y-39800000D01*
X-8075001Y-39800000D01*
X-8075001Y-39774500D01*
X-8055316Y-39707461D01*
X-8002512Y-39661706D01*
X-7951001Y-39650500D01*
X-7821014Y-39650500D01*
X-7667634Y-39612696D01*
X-7548107Y-39549963D01*
X-7479599Y-39536237D01*
X-7434186Y-39549274D01*
X-7362804Y-39585646D01*
X-7362802Y-39585646D01*
X-7362801Y-39585647D01*
X-7295647Y-39596282D01*
X-7269019Y-39600500D01*
X-6180982Y-39600499D01*
X-6087196Y-39585646D01*
X-5974158Y-39528050D01*
X-5974154Y-39528046D01*
X-5974152Y-39528045D01*
X-5884454Y-39438347D01*
X-5884452Y-39438344D01*
X-5884450Y-39438342D01*
X-5826854Y-39325304D01*
X-5826853Y-39325303D01*
X-5824090Y-39319879D01*
X-5776115Y-39269083D01*
X-5708294Y-39252288D01*
X-5642159Y-39274826D01*
G37*
%TD.AperFunction*%
%TA.AperFunction,Conductor*%
G36*
X-9476910Y-31970185D02*
G01*
X-9431155Y-32022989D01*
X-9421211Y-32092147D01*
X-9421967Y-32096777D01*
X-9422099Y-32097503D01*
X-9422295Y-32099998D01*
X-9422295Y-32100000D01*
X-8136500Y-32100000D01*
X-8069461Y-32119685D01*
X-8023706Y-32172489D01*
X-8012500Y-32224000D01*
X-8012500Y-32476000D01*
X-8032185Y-32543039D01*
X-8084989Y-32588794D01*
X-8136500Y-32600000D01*
X-9422295Y-32600000D01*
X-9422295Y-32600001D01*
X-9422100Y-32602486D01*
X-9376281Y-32760198D01*
X-9292685Y-32901552D01*
X-9292678Y-32901561D01*
X-9176561Y-33017678D01*
X-9176552Y-33017685D01*
X-9035196Y-33101282D01*
X-9035193Y-33101283D01*
X-8877495Y-33147099D01*
X-8877487Y-33147100D01*
X-8868276Y-33147825D01*
X-8802986Y-33172705D01*
X-8761512Y-33228934D01*
X-8757022Y-33298659D01*
X-8778732Y-33345754D01*
X-8843792Y-33432663D01*
X-8843796Y-33432669D01*
X-8843797Y-33432673D01*
X-8845027Y-33434924D01*
X-8846849Y-33436746D01*
X-8849112Y-33439769D01*
X-8849546Y-33439443D01*
X-8894431Y-33484331D01*
X-8953861Y-33499500D01*
X-9128107Y-33499500D01*
X-9195146Y-33479815D01*
X-9240901Y-33427011D01*
X-9251282Y-33389783D01*
X-9252415Y-33380007D01*
X-9297793Y-33277235D01*
X-9377234Y-33197794D01*
X-9480007Y-33152415D01*
X-9505131Y-33149500D01*
X-10075500Y-33149500D01*
X-10142539Y-33129815D01*
X-10188294Y-33077011D01*
X-10199500Y-33025500D01*
X-10199500Y-32074500D01*
X-10179815Y-32007461D01*
X-10127011Y-31961706D01*
X-10075500Y-31950500D01*
X-9543949Y-31950500D01*
X-9476910Y-31970185D01*
G37*
%TD.AperFunction*%
%TD*%
M02*
