%TF.GenerationSoftware,KiCad,Pcbnew,7.0.10*%
%TF.CreationDate,2024-03-23T21:36:50+11:00*%
%TF.ProjectId,cptibp1a-pcb,63707469-6270-4316-912d-7063622e6b69,rev?*%
%TF.SameCoordinates,Original*%
%TF.FileFunction,Soldermask,Top*%
%TF.FilePolarity,Negative*%
%FSLAX46Y46*%
G04 Gerber Fmt 4.6, Leading zero omitted, Abs format (unit mm)*
G04 Created by KiCad (PCBNEW 7.0.10) date 2024-03-23 21:36:50*
%MOMM*%
%LPD*%
G01*
G04 APERTURE LIST*
G04 Aperture macros list*
%AMRoundRect*
0 Rectangle with rounded corners*
0 $1 Rounding radius*
0 $2 $3 $4 $5 $6 $7 $8 $9 X,Y pos of 4 corners*
0 Add a 4 corners polygon primitive as box body*
4,1,4,$2,$3,$4,$5,$6,$7,$8,$9,$2,$3,0*
0 Add four circle primitives for the rounded corners*
1,1,$1+$1,$2,$3*
1,1,$1+$1,$4,$5*
1,1,$1+$1,$6,$7*
1,1,$1+$1,$8,$9*
0 Add four rect primitives between the rounded corners*
20,1,$1+$1,$2,$3,$4,$5,0*
20,1,$1+$1,$4,$5,$6,$7,0*
20,1,$1+$1,$6,$7,$8,$9,0*
20,1,$1+$1,$8,$9,$2,$3,0*%
G04 Aperture macros list end*
%ADD10RoundRect,0.250000X-0.450000X0.262500X-0.450000X-0.262500X0.450000X-0.262500X0.450000X0.262500X0*%
%ADD11RoundRect,0.050000X-0.500000X-0.250000X0.500000X-0.250000X0.500000X0.250000X-0.500000X0.250000X0*%
%ADD12RoundRect,0.050000X0.500000X0.250000X-0.500000X0.250000X-0.500000X-0.250000X0.500000X-0.250000X0*%
%ADD13RoundRect,0.150000X-0.587500X-0.150000X0.587500X-0.150000X0.587500X0.150000X-0.587500X0.150000X0*%
%ADD14RoundRect,0.250000X-1.000000X1.350000X-1.000000X-1.350000X1.000000X-1.350000X1.000000X1.350000X0*%
%ADD15RoundRect,0.243750X-0.243750X-0.456250X0.243750X-0.456250X0.243750X0.456250X-0.243750X0.456250X0*%
%ADD16RoundRect,0.250000X-0.475000X0.250000X-0.475000X-0.250000X0.475000X-0.250000X0.475000X0.250000X0*%
%ADD17RoundRect,0.250000X0.450000X-0.262500X0.450000X0.262500X-0.450000X0.262500X-0.450000X-0.262500X0*%
%ADD18RoundRect,0.250000X-0.250000X-0.475000X0.250000X-0.475000X0.250000X0.475000X-0.250000X0.475000X0*%
%ADD19RoundRect,0.050000X-0.250000X0.500000X-0.250000X-0.500000X0.250000X-0.500000X0.250000X0.500000X0*%
%ADD20RoundRect,0.225000X0.225000X0.375000X-0.225000X0.375000X-0.225000X-0.375000X0.225000X-0.375000X0*%
%ADD21R,0.400000X1.350000*%
%ADD22O,1.600000X0.800000*%
%ADD23O,0.750000X1.550000*%
%ADD24R,1.300000X1.550000*%
%ADD25R,1.500000X1.550000*%
%ADD26RoundRect,0.250000X0.475000X-0.250000X0.475000X0.250000X-0.475000X0.250000X-0.475000X-0.250000X0*%
%ADD27RoundRect,0.250000X-0.262500X-0.450000X0.262500X-0.450000X0.262500X0.450000X-0.262500X0.450000X0*%
%ADD28RoundRect,0.150000X-0.625000X0.150000X-0.625000X-0.150000X0.625000X-0.150000X0.625000X0.150000X0*%
%ADD29RoundRect,0.250000X-0.650000X0.350000X-0.650000X-0.350000X0.650000X-0.350000X0.650000X0.350000X0*%
%ADD30RoundRect,0.150000X0.512500X0.150000X-0.512500X0.150000X-0.512500X-0.150000X0.512500X-0.150000X0*%
%ADD31RoundRect,0.250000X1.000000X0.650000X-1.000000X0.650000X-1.000000X-0.650000X1.000000X-0.650000X0*%
G04 APERTURE END LIST*
D10*
%TO.C,R6*%
X5800000Y-34637500D03*
X5800000Y-36462500D03*
%TD*%
D11*
%TO.C,U1*%
X-23800000Y-33100000D03*
X-23800000Y-34050000D03*
X-23800000Y-35000000D03*
X-21200000Y-35000000D03*
X-21200000Y-33100000D03*
%TD*%
D12*
%TO.C,U6*%
X6000000Y-40000000D03*
X6000000Y-39050000D03*
X6000000Y-38100000D03*
X3400000Y-38100000D03*
X3400000Y-40000000D03*
%TD*%
D13*
%TO.C,Q2*%
X-2437500Y-38100000D03*
X-2437500Y-40000000D03*
X-562500Y-39050000D03*
%TD*%
D14*
%TO.C,C6*%
X11400000Y-31300000D03*
X11400000Y-38700000D03*
%TD*%
D15*
%TO.C,D2*%
X-15387500Y-40250000D03*
X-13512500Y-40250000D03*
%TD*%
D13*
%TO.C,Q1*%
X-19375000Y-33100000D03*
X-19375000Y-35000000D03*
X-17500000Y-34050000D03*
%TD*%
D16*
%TO.C,C4*%
X-450000Y-34600000D03*
X-450000Y-36500000D03*
%TD*%
D10*
%TO.C,R2*%
X-15200000Y-36637500D03*
X-15200000Y-38462500D03*
%TD*%
D17*
%TO.C,R4*%
X-11500000Y-40012500D03*
X-11500000Y-38187500D03*
%TD*%
%TO.C,R5*%
X-7950000Y-35762500D03*
X-7950000Y-33937500D03*
%TD*%
D18*
%TO.C,C1*%
X-23850000Y-31250000D03*
X-21950000Y-31250000D03*
%TD*%
D11*
%TO.C,U5*%
X1400000Y-34600000D03*
X1400000Y-35550000D03*
X1400000Y-36500000D03*
X4000000Y-36500000D03*
X4000000Y-34600000D03*
%TD*%
D19*
%TO.C,U3*%
X-9800000Y-33950000D03*
X-10750000Y-33950000D03*
X-11700000Y-33950000D03*
X-11700000Y-36550000D03*
X-10750000Y-36550000D03*
X-9800000Y-36550000D03*
%TD*%
D20*
%TO.C,D1*%
X-12350000Y-31200000D03*
X-15650000Y-31200000D03*
%TD*%
D21*
%TO.C,J1*%
X-21800000Y-37325000D03*
X-21150000Y-37325000D03*
X-20500000Y-37325000D03*
X-19850000Y-37325000D03*
X-19200000Y-37325000D03*
D22*
X-23000000Y-37300000D03*
X-18000000Y-37300000D03*
D23*
X-24025000Y-40000000D03*
D24*
X-23400000Y-40000000D03*
D25*
X-21500000Y-40000000D03*
X-19500000Y-40000000D03*
D24*
X-17600000Y-40000000D03*
D23*
X-16975000Y-40000000D03*
%TD*%
D14*
%TO.C,C7*%
X20500000Y-31300000D03*
X20500000Y-38700000D03*
%TD*%
D26*
%TO.C,C3*%
X1500000Y-40050000D03*
X1500000Y-38150000D03*
%TD*%
D27*
%TO.C,R1*%
X-19112500Y-31250000D03*
X-17287500Y-31250000D03*
%TD*%
D16*
%TO.C,C2*%
X-9300000Y-38150000D03*
X-9300000Y-40050000D03*
%TD*%
D28*
%TO.C,BT1*%
X-5525000Y-32700000D03*
X-5525000Y-33700000D03*
X-5525000Y-34700000D03*
D29*
X-3000000Y-31400000D03*
X-3000000Y-36000000D03*
%TD*%
D30*
%TO.C,U2*%
X-8262500Y-32350000D03*
X-8262500Y-30450000D03*
X-10537500Y-31400000D03*
%TD*%
D10*
%TO.C,R3*%
X-15200000Y-33175000D03*
X-15200000Y-35000000D03*
%TD*%
D30*
%TO.C,U4*%
X-4450000Y-40000000D03*
X-4450000Y-38100000D03*
X-6725000Y-39050000D03*
%TD*%
D31*
%TO.C,D3*%
X5000000Y-32000000D03*
X1000000Y-32000000D03*
%TD*%
M02*
