%TF.GenerationSoftware,KiCad,Pcbnew,7.0.10*%
%TF.CreationDate,2024-04-16T15:47:17+10:00*%
%TF.ProjectId,cptibp1a-pcb,63707469-6270-4316-912d-7063622e6b69,rev?*%
%TF.SameCoordinates,Original*%
%TF.FileFunction,Copper,L2,Bot*%
%TF.FilePolarity,Positive*%
%FSLAX46Y46*%
G04 Gerber Fmt 4.6, Leading zero omitted, Abs format (unit mm)*
G04 Created by KiCad (PCBNEW 7.0.10) date 2024-04-16 15:47:17*
%MOMM*%
%LPD*%
G01*
G04 APERTURE LIST*
G04 Aperture macros list*
%AMRoundRect*
0 Rectangle with rounded corners*
0 $1 Rounding radius*
0 $2 $3 $4 $5 $6 $7 $8 $9 X,Y pos of 4 corners*
0 Add a 4 corners polygon primitive as box body*
4,1,4,$2,$3,$4,$5,$6,$7,$8,$9,$2,$3,0*
0 Add four circle primitives for the rounded corners*
1,1,$1+$1,$2,$3*
1,1,$1+$1,$4,$5*
1,1,$1+$1,$6,$7*
1,1,$1+$1,$8,$9*
0 Add four rect primitives between the rounded corners*
20,1,$1+$1,$2,$3,$4,$5,0*
20,1,$1+$1,$4,$5,$6,$7,0*
20,1,$1+$1,$6,$7,$8,$9,0*
20,1,$1+$1,$8,$9,$2,$3,0*%
G04 Aperture macros list end*
%TA.AperFunction,ComponentPad*%
%ADD10O,1.600000X0.800000*%
%TD*%
%TA.AperFunction,ComponentPad*%
%ADD11O,0.750000X1.550000*%
%TD*%
%TA.AperFunction,SMDPad,CuDef*%
%ADD12RoundRect,0.800000X-6.700000X3.200000X-6.700000X-3.200000X6.700000X-3.200000X6.700000X3.200000X0*%
%TD*%
%TA.AperFunction,SMDPad,CuDef*%
%ADD13RoundRect,0.800000X6.700000X-3.200000X6.700000X3.200000X-6.700000X3.200000X-6.700000X-3.200000X0*%
%TD*%
%TA.AperFunction,ViaPad*%
%ADD14C,0.800000*%
%TD*%
%TA.AperFunction,ViaPad*%
%ADD15C,1.200000*%
%TD*%
%TA.AperFunction,Conductor*%
%ADD16C,0.800000*%
%TD*%
%TA.AperFunction,Conductor*%
%ADD17C,0.250000*%
%TD*%
G04 APERTURE END LIST*
D10*
%TO.P,J1,S1,SHIELD*%
%TO.N,/GND*%
X-23000000Y-37300000D03*
%TO.P,J1,S2,SHIELD__1*%
X-18000000Y-37300000D03*
D11*
%TO.P,J1,S3,SHIELD__2*%
X-24025000Y-40000000D03*
%TO.P,J1,S6,SHIELD__5*%
X-16975000Y-40000000D03*
%TD*%
D12*
%TO.P,J3,1,Pin_1*%
%TO.N,/GND*%
X0Y-12500000D03*
%TD*%
D13*
%TO.P,J2,1,Pin_1*%
%TO.N,/VOUTF*%
X0Y-29500000D03*
%TD*%
D14*
%TO.N,/GND*%
X2700000Y-34200000D03*
X-23800000Y-35300000D03*
X-10400000Y-35300000D03*
X-12000000Y-35300000D03*
X-16800000Y-32900000D03*
X22900000Y-38700000D03*
X-9750000Y-32350000D03*
X7200000Y-39000000D03*
X2500000Y-39000000D03*
X4600000Y-39000000D03*
X-9300000Y-35300000D03*
X9200000Y-38700000D03*
X-13000000Y-34200000D03*
X18200000Y-38700000D03*
X7200000Y-37900000D03*
X-900000Y-37600000D03*
X4600000Y-37900000D03*
X400000Y-35700000D03*
X-4900000Y-36300000D03*
X13800000Y-38700000D03*
X-7150000Y-40000000D03*
X-13000000Y-33100000D03*
X-13000000Y-35300000D03*
%TO.N,/CHG*%
X-11700000Y-32900000D03*
X-13750000Y-38750000D03*
%TO.N,/PROG*%
X-16254505Y-37504505D03*
X-12750000Y-36550000D03*
%TO.N,/EN*%
X234641Y-37574142D03*
X-8800000Y-29100000D03*
%TO.N,/VOUTF*%
X-7900000Y-39000000D03*
D15*
X8500000Y-29500000D03*
D14*
X8700000Y-40000000D03*
%TD*%
D16*
%TO.N,/GND*%
X0Y-7000000D02*
X0Y-12000000D01*
X0Y-12500000D02*
X9500000Y-12500000D01*
X-10000000Y-12500000D02*
X0Y-12500000D01*
X0Y-12500000D02*
X0Y-18000000D01*
D17*
%TO.N,/CHG*%
X-11200000Y-33400000D02*
X-11700000Y-32900000D01*
X-13750000Y-38750000D02*
X-13750000Y-38650000D01*
X-13750000Y-38650000D02*
X-11200000Y-36100000D01*
X-11200000Y-36100000D02*
X-11200000Y-33400000D01*
%TO.N,/PROG*%
X-12750000Y-36550000D02*
X-13704505Y-37504505D01*
X-13704505Y-37504505D02*
X-16254505Y-37504505D01*
%TO.N,/EN*%
X-8800000Y-33325000D02*
X-8800000Y-29100000D01*
X-7150000Y-34975000D02*
X-8800000Y-33325000D01*
X234641Y-37574142D02*
X-2364501Y-34975000D01*
X-2364501Y-34975000D02*
X-7150000Y-34975000D01*
%TO.N,/VOUTF*%
X-5200000Y-40300000D02*
X7600000Y-40300000D01*
X7900000Y-40000000D02*
X8700000Y-40000000D01*
X-7900000Y-39000000D02*
X-6500000Y-39000000D01*
X7600000Y-40300000D02*
X7900000Y-40000000D01*
D16*
X8500000Y-29500000D02*
X0Y-29500000D01*
D17*
X-6500000Y-39000000D02*
X-5200000Y-40300000D01*
%TD*%
%TA.AperFunction,Conductor*%
%TO.N,/GND*%
G36*
X-17199047Y-501061D02*
G01*
X-17093882Y-514906D01*
X-17062616Y-523284D01*
X-16972191Y-560739D01*
X-16944157Y-576924D01*
X-16859996Y-641503D01*
X-16847809Y-652190D01*
X-16000000Y-1500000D01*
X-8215233Y-1500000D01*
X-8199047Y-1501061D01*
X-8093882Y-1514906D01*
X-8062616Y-1523284D01*
X-7972191Y-1560739D01*
X-7944157Y-1576924D01*
X-7859996Y-1641503D01*
X-7847809Y-1652190D01*
X-7000000Y-2500000D01*
X6792886Y-2500000D01*
X6792893Y-2500000D01*
X7000000Y-2500000D01*
X7847809Y-1652190D01*
X7859996Y-1641503D01*
X7944157Y-1576924D01*
X7972191Y-1560739D01*
X8062616Y-1523284D01*
X8093882Y-1514906D01*
X8199048Y-1501061D01*
X8215233Y-1500000D01*
X15793583Y-1500000D01*
X15793588Y-1500000D01*
X16000000Y-1500000D01*
X16502378Y-1000000D01*
X16852725Y-651311D01*
X16864875Y-640702D01*
X16948927Y-576469D01*
X16976889Y-560384D01*
X17067099Y-523144D01*
X17098276Y-514817D01*
X17140963Y-509214D01*
X17203139Y-501054D01*
X17219275Y-500000D01*
X24241874Y-500000D01*
X24258059Y-501061D01*
X24363223Y-514906D01*
X24394491Y-523284D01*
X24484918Y-560740D01*
X24512952Y-576925D01*
X24590602Y-636509D01*
X24613491Y-659398D01*
X24673074Y-737048D01*
X24689259Y-765081D01*
X24726715Y-855508D01*
X24735093Y-886775D01*
X24748939Y-991939D01*
X24750000Y-1008125D01*
X24750000Y-40991874D01*
X24748939Y-41008060D01*
X24735093Y-41113224D01*
X24726715Y-41144491D01*
X24689259Y-41234918D01*
X24673074Y-41262951D01*
X24613491Y-41340601D01*
X24590601Y-41363491D01*
X24512951Y-41423074D01*
X24484918Y-41439259D01*
X24394491Y-41476715D01*
X24363224Y-41485093D01*
X24269398Y-41497446D01*
X24258058Y-41498939D01*
X24241874Y-41500000D01*
X17215233Y-41500000D01*
X17199048Y-41498939D01*
X17186024Y-41497224D01*
X17093882Y-41485093D01*
X17062616Y-41476715D01*
X16972191Y-41439260D01*
X16944157Y-41423075D01*
X16859996Y-41358496D01*
X16847801Y-41347801D01*
X16146452Y-40646451D01*
X16146445Y-40646445D01*
X16000000Y-40500000D01*
X15792893Y-40500000D01*
X15792886Y-40500000D01*
X9381554Y-40500000D01*
X9314515Y-40480315D01*
X9268760Y-40427511D01*
X9258816Y-40358353D01*
X9277209Y-40311417D01*
X9276733Y-40311167D01*
X9279001Y-40306844D01*
X9279506Y-40305557D01*
X9280220Y-40304523D01*
X9336237Y-40156818D01*
X9355278Y-40000000D01*
X9336237Y-39843182D01*
X9280220Y-39695477D01*
X9190483Y-39565470D01*
X9072240Y-39460717D01*
X9072238Y-39460716D01*
X9072237Y-39460715D01*
X8932365Y-39387303D01*
X8778986Y-39349500D01*
X8778985Y-39349500D01*
X8621015Y-39349500D01*
X8621014Y-39349500D01*
X8467634Y-39387303D01*
X8327762Y-39460715D01*
X8209516Y-39565470D01*
X8207089Y-39568987D01*
X8205742Y-39570938D01*
X8151463Y-39614929D01*
X8103692Y-39624500D01*
X7951804Y-39624500D01*
X7926359Y-39621861D01*
X7915732Y-39619633D01*
X7884324Y-39623548D01*
X7868986Y-39624500D01*
X7868886Y-39624500D01*
X7848400Y-39627918D01*
X7843338Y-39628656D01*
X7833699Y-39629857D01*
X7791370Y-39635134D01*
X7783857Y-39637371D01*
X7776386Y-39639936D01*
X7730371Y-39664837D01*
X7725820Y-39667180D01*
X7678792Y-39690171D01*
X7672375Y-39694753D01*
X7666175Y-39699579D01*
X7630731Y-39738081D01*
X7627185Y-39741777D01*
X7480779Y-39888182D01*
X7419459Y-39921666D01*
X7393100Y-39924500D01*
X-4993101Y-39924500D01*
X-5060140Y-39904815D01*
X-5080782Y-39888181D01*
X-6197852Y-38771108D01*
X-6213976Y-38751254D01*
X-6219914Y-38742165D01*
X-6219915Y-38742164D01*
X-6244896Y-38722720D01*
X-6256388Y-38712574D01*
X-6256479Y-38712483D01*
X-6256489Y-38712474D01*
X-6273397Y-38700402D01*
X-6277503Y-38697341D01*
X-6318808Y-38665192D01*
X-6325729Y-38661447D01*
X-6332804Y-38657988D01*
X-6382955Y-38643057D01*
X-6387831Y-38641495D01*
X-6437338Y-38624500D01*
X-6445080Y-38623208D01*
X-6452914Y-38622231D01*
X-6503746Y-38624334D01*
X-6505193Y-38624394D01*
X-6510316Y-38624500D01*
X-7303692Y-38624500D01*
X-7370731Y-38604815D01*
X-7405742Y-38570938D01*
X-7407089Y-38568987D01*
X-7409516Y-38565470D01*
X-7527762Y-38460715D01*
X-7667634Y-38387303D01*
X-7821014Y-38349500D01*
X-7821015Y-38349500D01*
X-7978985Y-38349500D01*
X-7978986Y-38349500D01*
X-8132365Y-38387303D01*
X-8272237Y-38460715D01*
X-8272238Y-38460716D01*
X-8272240Y-38460717D01*
X-8390483Y-38565470D01*
X-8480220Y-38695477D01*
X-8536237Y-38843182D01*
X-8555278Y-39000000D01*
X-8536237Y-39156818D01*
X-8480220Y-39304523D01*
X-8390483Y-39434530D01*
X-8272240Y-39539283D01*
X-8132365Y-39612696D01*
X-7978985Y-39650500D01*
X-7821014Y-39650500D01*
X-7667634Y-39612696D01*
X-7527762Y-39539284D01*
X-7527760Y-39539283D01*
X-7409517Y-39434530D01*
X-7409515Y-39434528D01*
X-7408163Y-39432569D01*
X-7405742Y-39429061D01*
X-7351463Y-39385071D01*
X-7303692Y-39375500D01*
X-6706899Y-39375500D01*
X-6639860Y-39395185D01*
X-6619217Y-39411819D01*
X-6106537Y-39924500D01*
X-5742717Y-40288319D01*
X-5709232Y-40349642D01*
X-5714216Y-40419333D01*
X-5756088Y-40475267D01*
X-5821552Y-40499684D01*
X-5830398Y-40500000D01*
X-10792886Y-40500000D01*
X-10792893Y-40500000D01*
X-11000000Y-40500000D01*
X-11146445Y-40646445D01*
X-11146452Y-40646451D01*
X-11847801Y-41347801D01*
X-11859996Y-41358496D01*
X-11944157Y-41423075D01*
X-11972191Y-41439260D01*
X-12062616Y-41476715D01*
X-12093882Y-41485093D01*
X-12186024Y-41497224D01*
X-12199048Y-41498939D01*
X-12215233Y-41500000D01*
X-16284767Y-41500000D01*
X-16300951Y-41498939D01*
X-16312291Y-41497446D01*
X-16406117Y-41485093D01*
X-16437383Y-41476715D01*
X-16527808Y-41439260D01*
X-16555842Y-41423075D01*
X-16640003Y-41358496D01*
X-16652198Y-41347801D01*
X-16853547Y-41146451D01*
X-16853554Y-41146445D01*
X-16853558Y-41146441D01*
X-17000000Y-41000000D01*
X-17207107Y-41000000D01*
X-17207114Y-41000000D01*
X-23792886Y-41000000D01*
X-23792893Y-41000000D01*
X-24000000Y-41000000D01*
X-24146445Y-41146445D01*
X-24146451Y-41146450D01*
X-24402975Y-41402975D01*
X-24421765Y-41418396D01*
X-24489007Y-41463326D01*
X-24533702Y-41481840D01*
X-24596644Y-41494359D01*
X-24652960Y-41492507D01*
X-24654466Y-41492103D01*
X-24714116Y-41455721D01*
X-24742112Y-41404435D01*
X-24745774Y-41390770D01*
X-24750000Y-41358673D01*
X-24750000Y-37504505D01*
X-16909783Y-37504505D01*
X-16890742Y-37661323D01*
X-16834725Y-37809028D01*
X-16744988Y-37939035D01*
X-16626745Y-38043788D01*
X-16486870Y-38117201D01*
X-16333490Y-38155005D01*
X-16175519Y-38155005D01*
X-16022139Y-38117201D01*
X-15882267Y-38043789D01*
X-15882265Y-38043788D01*
X-15764022Y-37939035D01*
X-15764020Y-37939033D01*
X-15762668Y-37937074D01*
X-15760247Y-37933566D01*
X-15705968Y-37889576D01*
X-15658197Y-37880005D01*
X-13959694Y-37880005D01*
X-13892655Y-37899690D01*
X-13846900Y-37952494D01*
X-13836956Y-38021652D01*
X-13865981Y-38085208D01*
X-13924759Y-38122982D01*
X-13930019Y-38124402D01*
X-13982366Y-38137304D01*
X-14122237Y-38210715D01*
X-14122238Y-38210716D01*
X-14122240Y-38210717D01*
X-14240483Y-38315470D01*
X-14330220Y-38445477D01*
X-14353684Y-38507346D01*
X-14386237Y-38593181D01*
X-14401392Y-38717999D01*
X-14405278Y-38750000D01*
X-14386237Y-38906818D01*
X-14330220Y-39054523D01*
X-14240483Y-39184530D01*
X-14122240Y-39289283D01*
X-13982365Y-39362696D01*
X-13828985Y-39400500D01*
X-13671014Y-39400500D01*
X-13517634Y-39362696D01*
X-13377762Y-39289284D01*
X-13377760Y-39289283D01*
X-13259517Y-39184530D01*
X-13169780Y-39054523D01*
X-13149102Y-39000000D01*
X-13113762Y-38906818D01*
X-13094722Y-38750000D01*
X-13094722Y-38749999D01*
X-13111724Y-38609973D01*
X-13100263Y-38541050D01*
X-13076309Y-38507346D01*
X-10971112Y-36402149D01*
X-10951255Y-36386023D01*
X-10942164Y-36380084D01*
X-10922718Y-36355100D01*
X-10912553Y-36343590D01*
X-10912476Y-36343513D01*
X-10900403Y-36326604D01*
X-10897342Y-36322499D01*
X-10865192Y-36281192D01*
X-10861459Y-36274294D01*
X-10857987Y-36267192D01*
X-10843056Y-36217042D01*
X-10841494Y-36212165D01*
X-10824499Y-36162660D01*
X-10823203Y-36154894D01*
X-10822230Y-36147086D01*
X-10824394Y-36094793D01*
X-10824500Y-36089668D01*
X-10824500Y-33451803D01*
X-10821861Y-33426358D01*
X-10819633Y-33415732D01*
X-10819633Y-33415730D01*
X-10823548Y-33384323D01*
X-10824500Y-33368985D01*
X-10824500Y-33368885D01*
X-10827918Y-33348400D01*
X-10828657Y-33343333D01*
X-10835134Y-33291370D01*
X-10837371Y-33283857D01*
X-10839936Y-33276386D01*
X-10864837Y-33230371D01*
X-10867180Y-33225820D01*
X-10890171Y-33178792D01*
X-10894753Y-33172375D01*
X-10899579Y-33166174D01*
X-10938094Y-33130718D01*
X-10941789Y-33127172D01*
X-11015481Y-33053480D01*
X-11048966Y-32992157D01*
X-11050896Y-32950854D01*
X-11044722Y-32900001D01*
X-11044722Y-32899999D01*
X-11063762Y-32743181D01*
X-11119780Y-32595476D01*
X-11119781Y-32595475D01*
X-11209516Y-32465471D01*
X-11327762Y-32360715D01*
X-11467634Y-32287303D01*
X-11621014Y-32249500D01*
X-11621015Y-32249500D01*
X-11778985Y-32249500D01*
X-11778986Y-32249500D01*
X-11932365Y-32287303D01*
X-12072237Y-32360715D01*
X-12072238Y-32360716D01*
X-12072240Y-32360717D01*
X-12190483Y-32465470D01*
X-12280220Y-32595477D01*
X-12336237Y-32743182D01*
X-12355278Y-32900000D01*
X-12336237Y-33056818D01*
X-12280220Y-33204523D01*
X-12190483Y-33334530D01*
X-12072240Y-33439283D01*
X-12048385Y-33451803D01*
X-11932365Y-33512696D01*
X-11778985Y-33550500D01*
X-11699500Y-33550500D01*
X-11632461Y-33570185D01*
X-11586706Y-33622989D01*
X-11575500Y-33674500D01*
X-11575500Y-35893100D01*
X-11595185Y-35960139D01*
X-11611819Y-35980781D01*
X-11953527Y-36322489D01*
X-12014850Y-36355974D01*
X-12084542Y-36350990D01*
X-12140475Y-36309118D01*
X-12157150Y-36278780D01*
X-12169781Y-36245474D01*
X-12259516Y-36115471D01*
X-12377762Y-36010715D01*
X-12517634Y-35937303D01*
X-12671014Y-35899500D01*
X-12671015Y-35899500D01*
X-12828985Y-35899500D01*
X-12828986Y-35899500D01*
X-12982365Y-35937303D01*
X-13122237Y-36010715D01*
X-13122238Y-36010716D01*
X-13122240Y-36010717D01*
X-13240483Y-36115470D01*
X-13330220Y-36245477D01*
X-13386237Y-36393182D01*
X-13405278Y-36550000D01*
X-13399102Y-36600854D01*
X-13410561Y-36669773D01*
X-13434517Y-36703480D01*
X-13823724Y-37092686D01*
X-13885047Y-37126171D01*
X-13911405Y-37129005D01*
X-15658197Y-37129005D01*
X-15725236Y-37109320D01*
X-15760247Y-37075443D01*
X-15761594Y-37073492D01*
X-15764021Y-37069975D01*
X-15882267Y-36965220D01*
X-16022139Y-36891808D01*
X-16175519Y-36854005D01*
X-16175520Y-36854005D01*
X-16333490Y-36854005D01*
X-16333491Y-36854005D01*
X-16486870Y-36891808D01*
X-16626742Y-36965220D01*
X-16626743Y-36965221D01*
X-16626745Y-36965222D01*
X-16744988Y-37069975D01*
X-16834725Y-37199982D01*
X-16861134Y-37269617D01*
X-16890742Y-37347686D01*
X-16899602Y-37420660D01*
X-16909783Y-37504505D01*
X-24750000Y-37504505D01*
X-24750000Y-29100000D01*
X-9455278Y-29100000D01*
X-9436237Y-29256818D01*
X-9380220Y-29404523D01*
X-9314317Y-29500000D01*
X-9290482Y-29534531D01*
X-9217274Y-29599386D01*
X-9180147Y-29658574D01*
X-9175500Y-29692202D01*
X-9175500Y-33273196D01*
X-9178137Y-33298634D01*
X-9180367Y-33309268D01*
X-9177218Y-33334528D01*
X-9176452Y-33340675D01*
X-9175500Y-33356013D01*
X-9175500Y-33356114D01*
X-9172073Y-33376643D01*
X-9171341Y-33381673D01*
X-9164866Y-33433626D01*
X-9164865Y-33433628D01*
X-9162628Y-33441141D01*
X-9160066Y-33448606D01*
X-9160065Y-33448610D01*
X-9139143Y-33487270D01*
X-9135157Y-33494636D01*
X-9132812Y-33499193D01*
X-9109826Y-33546211D01*
X-9109823Y-33546213D01*
X-9105268Y-33552594D01*
X-9100421Y-33558820D01*
X-9100419Y-33558826D01*
X-9061890Y-33594293D01*
X-9058240Y-33597795D01*
X-7452146Y-35203889D01*
X-7436022Y-35223746D01*
X-7430084Y-35232836D01*
X-7405114Y-35252270D01*
X-7393580Y-35262456D01*
X-7393518Y-35262519D01*
X-7376553Y-35274630D01*
X-7372534Y-35277627D01*
X-7331189Y-35309809D01*
X-7331181Y-35309811D01*
X-7324278Y-35313547D01*
X-7317203Y-35317006D01*
X-7317199Y-35317010D01*
X-7267041Y-35331942D01*
X-7262218Y-35333486D01*
X-7212660Y-35350500D01*
X-7212659Y-35350500D01*
X-7212656Y-35350501D01*
X-7204924Y-35351791D01*
X-7197091Y-35352767D01*
X-7197089Y-35352768D01*
X-7197086Y-35352767D01*
X-7197086Y-35352768D01*
X-7155200Y-35351035D01*
X-7144807Y-35350605D01*
X-7139685Y-35350500D01*
X-2571400Y-35350500D01*
X-2504361Y-35370185D01*
X-2483718Y-35386819D01*
X-449874Y-37420662D01*
X-416391Y-37481983D01*
X-414461Y-37523283D01*
X-420637Y-37574142D01*
X-401596Y-37730960D01*
X-345579Y-37878665D01*
X-255842Y-38008672D01*
X-137599Y-38113425D01*
X-116684Y-38124402D01*
X2275Y-38186838D01*
X155655Y-38224642D01*
X155656Y-38224642D01*
X313626Y-38224642D01*
X467006Y-38186838D01*
X606881Y-38113425D01*
X725124Y-38008672D01*
X814861Y-37878665D01*
X870878Y-37730960D01*
X889919Y-37574142D01*
X883745Y-37523290D01*
X870878Y-37417323D01*
X844468Y-37347686D01*
X814861Y-37269619D01*
X725124Y-37139612D01*
X606881Y-37034859D01*
X606879Y-37034858D01*
X606878Y-37034857D01*
X467006Y-36961445D01*
X313627Y-36923642D01*
X313626Y-36923642D01*
X166541Y-36923642D01*
X99502Y-36903957D01*
X78860Y-36887323D01*
X-2062353Y-34746108D01*
X-2078477Y-34726254D01*
X-2084415Y-34717165D01*
X-2084416Y-34717164D01*
X-2109397Y-34697720D01*
X-2120889Y-34687574D01*
X-2120980Y-34687483D01*
X-2120990Y-34687474D01*
X-2137898Y-34675402D01*
X-2142004Y-34672341D01*
X-2183309Y-34640192D01*
X-2190230Y-34636447D01*
X-2197305Y-34632988D01*
X-2247456Y-34618057D01*
X-2252332Y-34616495D01*
X-2301839Y-34599500D01*
X-2309581Y-34598208D01*
X-2317415Y-34597231D01*
X-2368247Y-34599334D01*
X-2369694Y-34599394D01*
X-2374817Y-34599500D01*
X-6943100Y-34599500D01*
X-7010139Y-34579815D01*
X-7030781Y-34563181D01*
X-8388181Y-33205781D01*
X-8421666Y-33144458D01*
X-8424500Y-33118100D01*
X-8424500Y-32751608D01*
X-7750500Y-32751608D01*
X-7735300Y-32905934D01*
X-7675232Y-33103954D01*
X-7577685Y-33286450D01*
X-7446410Y-33446410D01*
X-7286450Y-33577685D01*
X-7103954Y-33675232D01*
X-6905934Y-33735300D01*
X-6751608Y-33750500D01*
X-6751605Y-33750500D01*
X6751605Y-33750500D01*
X6751608Y-33750500D01*
X6905934Y-33735300D01*
X7103954Y-33675232D01*
X7286450Y-33577685D01*
X7446410Y-33446410D01*
X7577685Y-33286450D01*
X7675232Y-33103954D01*
X7735300Y-32905934D01*
X7750500Y-32751608D01*
X7750500Y-30274500D01*
X7770185Y-30207461D01*
X7822989Y-30161706D01*
X7874500Y-30150500D01*
X7908089Y-30150500D01*
X7975128Y-30170185D01*
X7980976Y-30174182D01*
X8072407Y-30240612D01*
X8235733Y-30313329D01*
X8410609Y-30350500D01*
X8410610Y-30350500D01*
X8589389Y-30350500D01*
X8589391Y-30350500D01*
X8764267Y-30313329D01*
X8927593Y-30240612D01*
X9072230Y-30135526D01*
X9191859Y-30002665D01*
X9281250Y-29847835D01*
X9336497Y-29677803D01*
X9355185Y-29500000D01*
X9336497Y-29322197D01*
X9281250Y-29152165D01*
X9191859Y-28997335D01*
X9143098Y-28943181D01*
X9072235Y-28864478D01*
X9072232Y-28864476D01*
X9072231Y-28864475D01*
X9072230Y-28864474D01*
X8927593Y-28759388D01*
X8764267Y-28686671D01*
X8764265Y-28686670D01*
X8636594Y-28659533D01*
X8589391Y-28649500D01*
X8410609Y-28649500D01*
X8379954Y-28656015D01*
X8235733Y-28686670D01*
X8235728Y-28686672D01*
X8072408Y-28759388D01*
X8072403Y-28759390D01*
X7980974Y-28825818D01*
X7915168Y-28849298D01*
X7908089Y-28849500D01*
X7874500Y-28849500D01*
X7807461Y-28829815D01*
X7761706Y-28777011D01*
X7750500Y-28725500D01*
X7750500Y-26248395D01*
X7735300Y-26094067D01*
X7735300Y-26094066D01*
X7675232Y-25896046D01*
X7577685Y-25713550D01*
X7525702Y-25650209D01*
X7446410Y-25553589D01*
X7286452Y-25422317D01*
X7286453Y-25422317D01*
X7286450Y-25422315D01*
X7103954Y-25324768D01*
X6905934Y-25264700D01*
X6905932Y-25264699D01*
X6905934Y-25264699D01*
X6786805Y-25252966D01*
X6751608Y-25249500D01*
X-6751608Y-25249500D01*
X-6793116Y-25253588D01*
X-6905932Y-25264699D01*
X-7004944Y-25294734D01*
X-7103954Y-25324768D01*
X-7286450Y-25422315D01*
X-7286452Y-25422317D01*
X-7446410Y-25553589D01*
X-7525702Y-25650209D01*
X-7577685Y-25713550D01*
X-7675232Y-25896046D01*
X-7735300Y-26094066D01*
X-7750500Y-26248392D01*
X-7750500Y-32751608D01*
X-8424500Y-32751608D01*
X-8424500Y-29692202D01*
X-8404815Y-29625163D01*
X-8382726Y-29599386D01*
X-8309517Y-29534531D01*
X-8219781Y-29404524D01*
X-8219780Y-29404523D01*
X-8163762Y-29256818D01*
X-8144722Y-29100000D01*
X-8144722Y-29099999D01*
X-8163762Y-28943181D01*
X-8219780Y-28795476D01*
X-8219781Y-28795475D01*
X-8309516Y-28665471D01*
X-8427762Y-28560715D01*
X-8567634Y-28487303D01*
X-8721014Y-28449500D01*
X-8721015Y-28449500D01*
X-8878985Y-28449500D01*
X-8878986Y-28449500D01*
X-9032365Y-28487303D01*
X-9172237Y-28560715D01*
X-9172238Y-28560716D01*
X-9172240Y-28560717D01*
X-9290483Y-28665470D01*
X-9380220Y-28795477D01*
X-9414992Y-28887164D01*
X-9436237Y-28943181D01*
X-9442812Y-28997336D01*
X-9455278Y-29100000D01*
X-24750000Y-29100000D01*
X-24750000Y-15751584D01*
X-7750000Y-15751584D01*
X-7734808Y-15905834D01*
X-7674766Y-16103766D01*
X-7577271Y-16286166D01*
X-7577267Y-16286173D01*
X-7446055Y-16446055D01*
X-7286173Y-16577267D01*
X-7286166Y-16577271D01*
X-7103766Y-16674766D01*
X-6905834Y-16734808D01*
X-6751585Y-16750000D01*
X6751585Y-16750000D01*
X6905834Y-16734808D01*
X7103766Y-16674766D01*
X7286166Y-16577271D01*
X7286173Y-16577267D01*
X7446055Y-16446055D01*
X7577267Y-16286173D01*
X7577271Y-16286166D01*
X7674766Y-16103766D01*
X7734808Y-15905834D01*
X7750000Y-15751584D01*
X7750000Y-9248415D01*
X7734808Y-9094165D01*
X7674766Y-8896233D01*
X7577271Y-8713833D01*
X7577267Y-8713826D01*
X7446055Y-8553944D01*
X7286173Y-8422732D01*
X7286166Y-8422728D01*
X7103766Y-8325233D01*
X6905834Y-8265191D01*
X6751585Y-8250000D01*
X-6751585Y-8250000D01*
X-6905834Y-8265191D01*
X-7103766Y-8325233D01*
X-7286166Y-8422728D01*
X-7286173Y-8422732D01*
X-7446055Y-8553944D01*
X-7577267Y-8713826D01*
X-7577271Y-8713833D01*
X-7674766Y-8896233D01*
X-7734808Y-9094165D01*
X-7750000Y-9248415D01*
X-7750000Y-15751584D01*
X-24750000Y-15751584D01*
X-24750000Y-1008125D01*
X-24748939Y-991939D01*
X-24735093Y-886775D01*
X-24726715Y-855508D01*
X-24689259Y-765081D01*
X-24673074Y-737048D01*
X-24613491Y-659398D01*
X-24590602Y-636509D01*
X-24512951Y-576925D01*
X-24484918Y-560740D01*
X-24394491Y-523284D01*
X-24363223Y-514906D01*
X-24258059Y-501061D01*
X-24241874Y-500000D01*
X-17215233Y-500000D01*
X-17199047Y-501061D01*
G37*
%TD.AperFunction*%
%TD*%
M02*
