%TF.GenerationSoftware,KiCad,Pcbnew,7.0.10*%
%TF.CreationDate,2024-03-05T22:47:06+11:00*%
%TF.ProjectId,cptibp1a-pcb,63707469-6270-4316-912d-7063622e6b69,rev?*%
%TF.SameCoordinates,Original*%
%TF.FileFunction,Copper,L2,Bot*%
%TF.FilePolarity,Positive*%
%FSLAX46Y46*%
G04 Gerber Fmt 4.6, Leading zero omitted, Abs format (unit mm)*
G04 Created by KiCad (PCBNEW 7.0.10) date 2024-03-05 22:47:06*
%MOMM*%
%LPD*%
G01*
G04 APERTURE LIST*
G04 Aperture macros list*
%AMRoundRect*
0 Rectangle with rounded corners*
0 $1 Rounding radius*
0 $2 $3 $4 $5 $6 $7 $8 $9 X,Y pos of 4 corners*
0 Add a 4 corners polygon primitive as box body*
4,1,4,$2,$3,$4,$5,$6,$7,$8,$9,$2,$3,0*
0 Add four circle primitives for the rounded corners*
1,1,$1+$1,$2,$3*
1,1,$1+$1,$4,$5*
1,1,$1+$1,$6,$7*
1,1,$1+$1,$8,$9*
0 Add four rect primitives between the rounded corners*
20,1,$1+$1,$2,$3,$4,$5,0*
20,1,$1+$1,$4,$5,$6,$7,0*
20,1,$1+$1,$6,$7,$8,$9,0*
20,1,$1+$1,$8,$9,$2,$3,0*%
G04 Aperture macros list end*
%TA.AperFunction,ComponentPad*%
%ADD10O,1.600000X0.800000*%
%TD*%
%TA.AperFunction,ComponentPad*%
%ADD11O,0.750000X1.550000*%
%TD*%
%TA.AperFunction,SMDPad,CuDef*%
%ADD12RoundRect,0.800000X-6.700000X3.200000X-6.700000X-3.200000X6.700000X-3.200000X6.700000X3.200000X0*%
%TD*%
%TA.AperFunction,SMDPad,CuDef*%
%ADD13RoundRect,0.800000X6.700000X-3.200000X6.700000X3.200000X-6.700000X3.200000X-6.700000X-3.200000X0*%
%TD*%
%TA.AperFunction,ViaPad*%
%ADD14C,0.800000*%
%TD*%
%TA.AperFunction,ViaPad*%
%ADD15C,1.200000*%
%TD*%
%TA.AperFunction,Conductor*%
%ADD16C,0.250000*%
%TD*%
%TA.AperFunction,Conductor*%
%ADD17C,0.800000*%
%TD*%
G04 APERTURE END LIST*
D10*
%TO.P,J1,S1,SHIELD*%
%TO.N,/GND*%
X-23000000Y-37300000D03*
%TO.P,J1,S2,SHIELD__1*%
X-18000000Y-37300000D03*
D11*
%TO.P,J1,S3,SHIELD__2*%
X-24025000Y-40000000D03*
%TO.P,J1,S6,SHIELD__5*%
X-16975000Y-40000000D03*
%TD*%
D12*
%TO.P,J3,1,Pin_1*%
%TO.N,/GND*%
X0Y-12000000D03*
%TD*%
D13*
%TO.P,J2,1,Pin_1*%
%TO.N,/VOUT*%
X0Y-29500000D03*
%TD*%
D14*
%TO.N,/GND*%
X4000000Y-35500000D03*
X5000000Y-37000000D03*
X3000000Y-37000000D03*
X4000000Y-37000000D03*
%TO.N,/EN*%
X6000000Y-35000000D03*
%TO.N,/GND*%
X-23800000Y-35300000D03*
X-8400000Y-34800000D03*
X-10400000Y-35300000D03*
X-12000000Y-35300000D03*
X-8400000Y-36900000D03*
X-16800000Y-32900000D03*
X22900000Y-38700000D03*
X-9300000Y-35300000D03*
X8800000Y-38700000D03*
X-13000000Y-34200000D03*
X18200000Y-38700000D03*
X-4800000Y-39900000D03*
X-8400000Y-35900000D03*
X-4900000Y-36300000D03*
X13500000Y-38700000D03*
X-5950000Y-39900000D03*
X-13000000Y-33100000D03*
X-13000000Y-35300000D03*
D15*
%TO.N,/VOUT*%
X8500000Y-30000000D03*
D14*
%TO.N,/CHG*%
X-11700000Y-32900000D03*
X-13750000Y-38750000D03*
%TO.N,/PROG*%
X-16254505Y-37504505D03*
X-12750000Y-36550000D03*
%TO.N,/EN*%
X-8900000Y-33225000D03*
%TD*%
D16*
%TO.N,/EN*%
X6000000Y-35000000D02*
X5500000Y-34500000D01*
X-7625000Y-34500000D02*
X-8900000Y-33225000D01*
X5500000Y-34500000D02*
X-7625000Y-34500000D01*
D17*
%TO.N,/GND*%
X0Y-12000000D02*
X0Y-17000000D01*
X0Y-12000000D02*
X0Y-7000000D01*
X0Y-12000000D02*
X-9000000Y-12000000D01*
X0Y-12000000D02*
X9500000Y-12000000D01*
%TO.N,/VOUT*%
X8500000Y-30000000D02*
X0Y-30000000D01*
D16*
%TO.N,/CHG*%
X-11200000Y-33400000D02*
X-11700000Y-32900000D01*
X-13750000Y-38750000D02*
X-13750000Y-38650000D01*
X-13750000Y-38650000D02*
X-11200000Y-36100000D01*
X-11200000Y-36100000D02*
X-11200000Y-33400000D01*
%TO.N,/PROG*%
X-12750000Y-36550000D02*
X-13704505Y-37504505D01*
X-13704505Y-37504505D02*
X-16254505Y-37504505D01*
%TD*%
%TA.AperFunction,Conductor*%
%TO.N,/GND*%
G36*
X-17199047Y-501061D02*
G01*
X-17093882Y-514906D01*
X-17062616Y-523284D01*
X-16972191Y-560739D01*
X-16944157Y-576924D01*
X-16859996Y-641503D01*
X-16847809Y-652190D01*
X-16000000Y-1500000D01*
X-8215233Y-1500000D01*
X-8199047Y-1501061D01*
X-8093882Y-1514906D01*
X-8062616Y-1523284D01*
X-7972191Y-1560739D01*
X-7944157Y-1576924D01*
X-7859996Y-1641503D01*
X-7847809Y-1652190D01*
X-7000000Y-2500000D01*
X6792886Y-2500000D01*
X6792893Y-2500000D01*
X7000000Y-2500000D01*
X7847809Y-1652190D01*
X7859996Y-1641503D01*
X7944157Y-1576924D01*
X7972191Y-1560739D01*
X8062616Y-1523284D01*
X8093882Y-1514906D01*
X8199048Y-1501061D01*
X8215233Y-1500000D01*
X15793583Y-1500000D01*
X15793588Y-1500000D01*
X16000000Y-1500000D01*
X16502378Y-1000000D01*
X16852725Y-651311D01*
X16864875Y-640702D01*
X16948927Y-576469D01*
X16976889Y-560384D01*
X17067099Y-523144D01*
X17098276Y-514817D01*
X17140963Y-509214D01*
X17203139Y-501054D01*
X17219275Y-500000D01*
X24241874Y-500000D01*
X24258059Y-501061D01*
X24363223Y-514906D01*
X24394491Y-523284D01*
X24484918Y-560740D01*
X24512952Y-576925D01*
X24590602Y-636509D01*
X24613491Y-659398D01*
X24673074Y-737048D01*
X24689259Y-765081D01*
X24726715Y-855508D01*
X24735093Y-886775D01*
X24748939Y-991939D01*
X24750000Y-1008125D01*
X24750000Y-40991874D01*
X24748939Y-41008060D01*
X24735093Y-41113224D01*
X24726715Y-41144491D01*
X24689259Y-41234918D01*
X24673074Y-41262951D01*
X24613491Y-41340601D01*
X24590601Y-41363491D01*
X24512951Y-41423074D01*
X24484918Y-41439259D01*
X24394491Y-41476715D01*
X24363224Y-41485093D01*
X24269398Y-41497446D01*
X24258058Y-41498939D01*
X24241874Y-41500000D01*
X17215233Y-41500000D01*
X17199048Y-41498939D01*
X17186024Y-41497224D01*
X17093882Y-41485093D01*
X17062616Y-41476715D01*
X16972191Y-41439260D01*
X16944157Y-41423075D01*
X16859996Y-41358496D01*
X16847801Y-41347801D01*
X16146452Y-40646451D01*
X16146445Y-40646445D01*
X16000000Y-40500000D01*
X15792893Y-40500000D01*
X15792886Y-40500000D01*
X-10792886Y-40500000D01*
X-10792893Y-40500000D01*
X-11000000Y-40500000D01*
X-11146445Y-40646445D01*
X-11146452Y-40646451D01*
X-11847801Y-41347801D01*
X-11859996Y-41358496D01*
X-11944157Y-41423075D01*
X-11972191Y-41439260D01*
X-12062616Y-41476715D01*
X-12093882Y-41485093D01*
X-12186024Y-41497224D01*
X-12199048Y-41498939D01*
X-12215233Y-41500000D01*
X-16284767Y-41500000D01*
X-16300951Y-41498939D01*
X-16312291Y-41497446D01*
X-16406117Y-41485093D01*
X-16437383Y-41476715D01*
X-16527808Y-41439260D01*
X-16555842Y-41423075D01*
X-16640003Y-41358496D01*
X-16652198Y-41347801D01*
X-16853547Y-41146451D01*
X-16853554Y-41146445D01*
X-16853558Y-41146441D01*
X-17000000Y-41000000D01*
X-17207107Y-41000000D01*
X-17207114Y-41000000D01*
X-23792886Y-41000000D01*
X-23792893Y-41000000D01*
X-24000000Y-41000000D01*
X-24146445Y-41146445D01*
X-24146451Y-41146450D01*
X-24402975Y-41402975D01*
X-24421765Y-41418396D01*
X-24489007Y-41463326D01*
X-24533702Y-41481840D01*
X-24596644Y-41494359D01*
X-24652960Y-41492507D01*
X-24654466Y-41492103D01*
X-24714116Y-41455721D01*
X-24742112Y-41404435D01*
X-24745774Y-41390770D01*
X-24750000Y-41358673D01*
X-24750000Y-37504505D01*
X-16909783Y-37504505D01*
X-16890742Y-37661323D01*
X-16834725Y-37809028D01*
X-16744988Y-37939035D01*
X-16626745Y-38043788D01*
X-16486870Y-38117201D01*
X-16333490Y-38155005D01*
X-16175519Y-38155005D01*
X-16022139Y-38117201D01*
X-15882267Y-38043789D01*
X-15882265Y-38043788D01*
X-15764022Y-37939035D01*
X-15764020Y-37939033D01*
X-15762668Y-37937074D01*
X-15760247Y-37933566D01*
X-15705968Y-37889576D01*
X-15658197Y-37880005D01*
X-13959694Y-37880005D01*
X-13892655Y-37899690D01*
X-13846900Y-37952494D01*
X-13836956Y-38021652D01*
X-13865981Y-38085208D01*
X-13924759Y-38122982D01*
X-13930019Y-38124402D01*
X-13982366Y-38137304D01*
X-14122237Y-38210715D01*
X-14122238Y-38210716D01*
X-14122240Y-38210717D01*
X-14240483Y-38315470D01*
X-14330220Y-38445477D01*
X-14386237Y-38593182D01*
X-14405278Y-38750000D01*
X-14386237Y-38906818D01*
X-14330220Y-39054523D01*
X-14240483Y-39184530D01*
X-14122240Y-39289283D01*
X-13982365Y-39362696D01*
X-13828985Y-39400500D01*
X-13671014Y-39400500D01*
X-13517634Y-39362696D01*
X-13377762Y-39289284D01*
X-13377760Y-39289283D01*
X-13259517Y-39184530D01*
X-13169780Y-39054523D01*
X-13113762Y-38906818D01*
X-13094722Y-38750000D01*
X-13094722Y-38749999D01*
X-13111724Y-38609973D01*
X-13100263Y-38541050D01*
X-13076309Y-38507346D01*
X-10971112Y-36402149D01*
X-10951255Y-36386023D01*
X-10942164Y-36380084D01*
X-10922718Y-36355100D01*
X-10912553Y-36343590D01*
X-10912476Y-36343513D01*
X-10900403Y-36326604D01*
X-10897342Y-36322499D01*
X-10865192Y-36281192D01*
X-10861459Y-36274294D01*
X-10857987Y-36267192D01*
X-10843056Y-36217042D01*
X-10841494Y-36212165D01*
X-10824499Y-36162660D01*
X-10823203Y-36154894D01*
X-10822230Y-36147086D01*
X-10824394Y-36094793D01*
X-10824500Y-36089668D01*
X-10824500Y-33451803D01*
X-10821861Y-33426358D01*
X-10819633Y-33415732D01*
X-10819633Y-33415730D01*
X-10823548Y-33384323D01*
X-10824500Y-33368985D01*
X-10824500Y-33368885D01*
X-10827918Y-33348400D01*
X-10828657Y-33343333D01*
X-10835134Y-33291370D01*
X-10837371Y-33283857D01*
X-10839936Y-33276386D01*
X-10864837Y-33230371D01*
X-10867180Y-33225820D01*
X-10867581Y-33225000D01*
X-9555278Y-33225000D01*
X-9536237Y-33381818D01*
X-9480220Y-33529523D01*
X-9390483Y-33659530D01*
X-9272240Y-33764283D01*
X-9132365Y-33837696D01*
X-8978985Y-33875500D01*
X-8831898Y-33875500D01*
X-8764859Y-33895185D01*
X-8744217Y-33911819D01*
X-7927146Y-34728889D01*
X-7911022Y-34748746D01*
X-7905084Y-34757836D01*
X-7880114Y-34777270D01*
X-7868580Y-34787456D01*
X-7868518Y-34787519D01*
X-7851553Y-34799630D01*
X-7847534Y-34802627D01*
X-7806189Y-34834809D01*
X-7806181Y-34834811D01*
X-7799278Y-34838547D01*
X-7792203Y-34842006D01*
X-7792199Y-34842010D01*
X-7742041Y-34856942D01*
X-7737218Y-34858486D01*
X-7687660Y-34875500D01*
X-7687659Y-34875500D01*
X-7687656Y-34875501D01*
X-7679924Y-34876791D01*
X-7672091Y-34877767D01*
X-7672089Y-34877768D01*
X-7672086Y-34877767D01*
X-7672086Y-34877768D01*
X-7630200Y-34876035D01*
X-7619807Y-34875605D01*
X-7614685Y-34875500D01*
X5220722Y-34875500D01*
X5287761Y-34895185D01*
X5333516Y-34947989D01*
X5343226Y-34992626D01*
X5343818Y-34992555D01*
X5344584Y-34998868D01*
X5344722Y-34999500D01*
X5344722Y-35000000D01*
X5363762Y-35156818D01*
X5419780Y-35304523D01*
X5509517Y-35434530D01*
X5627760Y-35539283D01*
X5627762Y-35539284D01*
X5767634Y-35612696D01*
X5921014Y-35650500D01*
X5921015Y-35650500D01*
X6078985Y-35650500D01*
X6232365Y-35612696D01*
X6372240Y-35539283D01*
X6490483Y-35434530D01*
X6580220Y-35304523D01*
X6636237Y-35156818D01*
X6655278Y-35000000D01*
X6640437Y-34877768D01*
X6636237Y-34843181D01*
X6611240Y-34777270D01*
X6580220Y-34695477D01*
X6490483Y-34565470D01*
X6372240Y-34460717D01*
X6372238Y-34460716D01*
X6372237Y-34460715D01*
X6232365Y-34387303D01*
X6078986Y-34349500D01*
X6078985Y-34349500D01*
X5931900Y-34349500D01*
X5864861Y-34329815D01*
X5844219Y-34313181D01*
X5802149Y-34271111D01*
X5786022Y-34251252D01*
X5780086Y-34242167D01*
X5780085Y-34242166D01*
X5780084Y-34242164D01*
X5755109Y-34222725D01*
X5743591Y-34212553D01*
X5743515Y-34212477D01*
X5726595Y-34200398D01*
X5722479Y-34197329D01*
X5681189Y-34165190D01*
X5674274Y-34161448D01*
X5667197Y-34157988D01*
X5617043Y-34143056D01*
X5612167Y-34141494D01*
X5562662Y-34124500D01*
X5554923Y-34123208D01*
X5547085Y-34122231D01*
X5496201Y-34124336D01*
X5494806Y-34124394D01*
X5489684Y-34124500D01*
X-7418101Y-34124500D01*
X-7485140Y-34104815D01*
X-7505782Y-34088181D01*
X-8215481Y-33378480D01*
X-8248966Y-33317157D01*
X-8250896Y-33275854D01*
X-8244722Y-33225001D01*
X-8244722Y-33224999D01*
X-8263762Y-33068181D01*
X-8319780Y-32920476D01*
X-8319781Y-32920475D01*
X-8409516Y-32790471D01*
X-8453384Y-32751608D01*
X-7750500Y-32751608D01*
X-7735300Y-32905934D01*
X-7675232Y-33103954D01*
X-7577685Y-33286450D01*
X-7446410Y-33446410D01*
X-7286450Y-33577685D01*
X-7103954Y-33675232D01*
X-6905934Y-33735300D01*
X-6751608Y-33750500D01*
X-6751605Y-33750500D01*
X6751605Y-33750500D01*
X6751608Y-33750500D01*
X6905934Y-33735300D01*
X7103954Y-33675232D01*
X7286450Y-33577685D01*
X7446410Y-33446410D01*
X7577685Y-33286450D01*
X7675232Y-33103954D01*
X7735300Y-32905934D01*
X7750500Y-32751608D01*
X7750500Y-30774500D01*
X7770185Y-30707461D01*
X7822989Y-30661706D01*
X7874500Y-30650500D01*
X7908089Y-30650500D01*
X7975128Y-30670185D01*
X7980976Y-30674182D01*
X8072407Y-30740612D01*
X8235733Y-30813329D01*
X8410609Y-30850500D01*
X8410610Y-30850500D01*
X8589389Y-30850500D01*
X8589391Y-30850500D01*
X8764267Y-30813329D01*
X8927593Y-30740612D01*
X9072230Y-30635526D01*
X9191859Y-30502665D01*
X9281250Y-30347835D01*
X9336497Y-30177803D01*
X9355185Y-30000000D01*
X9336497Y-29822197D01*
X9281250Y-29652165D01*
X9191859Y-29497335D01*
X9145003Y-29445296D01*
X9072235Y-29364478D01*
X9072232Y-29364476D01*
X9072231Y-29364475D01*
X9072230Y-29364474D01*
X8927593Y-29259388D01*
X8764267Y-29186671D01*
X8764265Y-29186670D01*
X8636594Y-29159533D01*
X8589391Y-29149500D01*
X8410609Y-29149500D01*
X8379954Y-29156015D01*
X8235733Y-29186670D01*
X8235728Y-29186672D01*
X8072408Y-29259388D01*
X8072403Y-29259390D01*
X7980974Y-29325818D01*
X7915168Y-29349298D01*
X7908089Y-29349500D01*
X7874500Y-29349500D01*
X7807461Y-29329815D01*
X7761706Y-29277011D01*
X7750500Y-29225500D01*
X7750500Y-26248395D01*
X7735300Y-26094067D01*
X7735300Y-26094066D01*
X7675232Y-25896046D01*
X7577685Y-25713550D01*
X7525702Y-25650209D01*
X7446410Y-25553589D01*
X7286452Y-25422317D01*
X7286453Y-25422317D01*
X7286450Y-25422315D01*
X7103954Y-25324768D01*
X6905934Y-25264700D01*
X6905932Y-25264699D01*
X6905934Y-25264699D01*
X6786805Y-25252966D01*
X6751608Y-25249500D01*
X-6751608Y-25249500D01*
X-6793116Y-25253588D01*
X-6905932Y-25264699D01*
X-7004944Y-25294734D01*
X-7103954Y-25324768D01*
X-7286450Y-25422315D01*
X-7286452Y-25422317D01*
X-7446410Y-25553589D01*
X-7525702Y-25650209D01*
X-7577685Y-25713550D01*
X-7675232Y-25896046D01*
X-7735300Y-26094066D01*
X-7750500Y-26248392D01*
X-7750500Y-32751608D01*
X-8453384Y-32751608D01*
X-8527762Y-32685715D01*
X-8667634Y-32612303D01*
X-8821014Y-32574500D01*
X-8821015Y-32574500D01*
X-8978985Y-32574500D01*
X-8978986Y-32574500D01*
X-9132365Y-32612303D01*
X-9272237Y-32685715D01*
X-9272238Y-32685716D01*
X-9272240Y-32685717D01*
X-9390483Y-32790470D01*
X-9480220Y-32920477D01*
X-9514470Y-33010788D01*
X-9536237Y-33068181D01*
X-9540580Y-33103954D01*
X-9555278Y-33225000D01*
X-10867581Y-33225000D01*
X-10890171Y-33178792D01*
X-10894753Y-33172375D01*
X-10899579Y-33166174D01*
X-10938094Y-33130718D01*
X-10941789Y-33127172D01*
X-11015481Y-33053480D01*
X-11048966Y-32992157D01*
X-11050896Y-32950854D01*
X-11044722Y-32900001D01*
X-11044722Y-32899999D01*
X-11063762Y-32743181D01*
X-11119780Y-32595476D01*
X-11119781Y-32595475D01*
X-11209516Y-32465471D01*
X-11327762Y-32360715D01*
X-11467634Y-32287303D01*
X-11621014Y-32249500D01*
X-11621015Y-32249500D01*
X-11778985Y-32249500D01*
X-11778986Y-32249500D01*
X-11932365Y-32287303D01*
X-12072237Y-32360715D01*
X-12072238Y-32360716D01*
X-12072240Y-32360717D01*
X-12190483Y-32465470D01*
X-12280220Y-32595477D01*
X-12336237Y-32743182D01*
X-12355278Y-32900000D01*
X-12336237Y-33056818D01*
X-12280220Y-33204523D01*
X-12190483Y-33334530D01*
X-12072240Y-33439283D01*
X-12048385Y-33451803D01*
X-11932365Y-33512696D01*
X-11778985Y-33550500D01*
X-11699500Y-33550500D01*
X-11632461Y-33570185D01*
X-11586706Y-33622989D01*
X-11575500Y-33674500D01*
X-11575500Y-35893100D01*
X-11595185Y-35960139D01*
X-11611819Y-35980781D01*
X-11953527Y-36322489D01*
X-12014850Y-36355974D01*
X-12084542Y-36350990D01*
X-12140475Y-36309118D01*
X-12157150Y-36278780D01*
X-12169781Y-36245474D01*
X-12259516Y-36115471D01*
X-12377762Y-36010715D01*
X-12517634Y-35937303D01*
X-12671014Y-35899500D01*
X-12671015Y-35899500D01*
X-12828985Y-35899500D01*
X-12828986Y-35899500D01*
X-12982365Y-35937303D01*
X-13122237Y-36010715D01*
X-13122238Y-36010716D01*
X-13122240Y-36010717D01*
X-13240483Y-36115470D01*
X-13330220Y-36245477D01*
X-13386237Y-36393182D01*
X-13405278Y-36550000D01*
X-13399102Y-36600854D01*
X-13410561Y-36669773D01*
X-13434517Y-36703480D01*
X-13823724Y-37092686D01*
X-13885047Y-37126171D01*
X-13911405Y-37129005D01*
X-15658197Y-37129005D01*
X-15725236Y-37109320D01*
X-15760247Y-37075443D01*
X-15761594Y-37073492D01*
X-15764021Y-37069975D01*
X-15882267Y-36965220D01*
X-16022139Y-36891808D01*
X-16175519Y-36854005D01*
X-16175520Y-36854005D01*
X-16333490Y-36854005D01*
X-16333491Y-36854005D01*
X-16486870Y-36891808D01*
X-16626742Y-36965220D01*
X-16626743Y-36965221D01*
X-16626745Y-36965222D01*
X-16744988Y-37069975D01*
X-16834725Y-37199982D01*
X-16890742Y-37347687D01*
X-16909783Y-37504505D01*
X-24750000Y-37504505D01*
X-24750000Y-15251584D01*
X-7750000Y-15251584D01*
X-7734808Y-15405834D01*
X-7674766Y-15603766D01*
X-7577271Y-15786166D01*
X-7577267Y-15786173D01*
X-7446055Y-15946055D01*
X-7286173Y-16077267D01*
X-7286166Y-16077271D01*
X-7103766Y-16174766D01*
X-6905834Y-16234808D01*
X-6751585Y-16250000D01*
X6751585Y-16250000D01*
X6905834Y-16234808D01*
X7103766Y-16174766D01*
X7286166Y-16077271D01*
X7286173Y-16077267D01*
X7446055Y-15946055D01*
X7577267Y-15786173D01*
X7577271Y-15786166D01*
X7674766Y-15603766D01*
X7734808Y-15405834D01*
X7750000Y-15251584D01*
X7750000Y-8748415D01*
X7734808Y-8594165D01*
X7674766Y-8396233D01*
X7577271Y-8213833D01*
X7577267Y-8213826D01*
X7446055Y-8053944D01*
X7286173Y-7922732D01*
X7286166Y-7922728D01*
X7103766Y-7825233D01*
X6905834Y-7765191D01*
X6751585Y-7750000D01*
X-6751585Y-7750000D01*
X-6905834Y-7765191D01*
X-7103766Y-7825233D01*
X-7286166Y-7922728D01*
X-7286173Y-7922732D01*
X-7446055Y-8053944D01*
X-7577267Y-8213826D01*
X-7577271Y-8213833D01*
X-7674766Y-8396233D01*
X-7734808Y-8594165D01*
X-7750000Y-8748415D01*
X-7750000Y-15251584D01*
X-24750000Y-15251584D01*
X-24750000Y-1008125D01*
X-24748939Y-991939D01*
X-24735093Y-886775D01*
X-24726715Y-855508D01*
X-24689259Y-765081D01*
X-24673074Y-737048D01*
X-24613491Y-659398D01*
X-24590602Y-636509D01*
X-24512951Y-576925D01*
X-24484918Y-560740D01*
X-24394491Y-523284D01*
X-24363223Y-514906D01*
X-24258059Y-501061D01*
X-24241874Y-500000D01*
X-17215233Y-500000D01*
X-17199047Y-501061D01*
G37*
%TD.AperFunction*%
%TD*%
M02*
