%TF.GenerationSoftware,KiCad,Pcbnew,7.0.10*%
%TF.CreationDate,2024-03-05T22:47:06+11:00*%
%TF.ProjectId,cptibp1a-pcb,63707469-6270-4316-912d-7063622e6b69,rev?*%
%TF.SameCoordinates,Original*%
%TF.FileFunction,Copper,L1,Top*%
%TF.FilePolarity,Positive*%
%FSLAX46Y46*%
G04 Gerber Fmt 4.6, Leading zero omitted, Abs format (unit mm)*
G04 Created by KiCad (PCBNEW 7.0.10) date 2024-03-05 22:47:06*
%MOMM*%
%LPD*%
G01*
G04 APERTURE LIST*
G04 Aperture macros list*
%AMRoundRect*
0 Rectangle with rounded corners*
0 $1 Rounding radius*
0 $2 $3 $4 $5 $6 $7 $8 $9 X,Y pos of 4 corners*
0 Add a 4 corners polygon primitive as box body*
4,1,4,$2,$3,$4,$5,$6,$7,$8,$9,$2,$3,0*
0 Add four circle primitives for the rounded corners*
1,1,$1+$1,$2,$3*
1,1,$1+$1,$4,$5*
1,1,$1+$1,$6,$7*
1,1,$1+$1,$8,$9*
0 Add four rect primitives between the rounded corners*
20,1,$1+$1,$2,$3,$4,$5,0*
20,1,$1+$1,$4,$5,$6,$7,0*
20,1,$1+$1,$6,$7,$8,$9,0*
20,1,$1+$1,$8,$9,$2,$3,0*%
G04 Aperture macros list end*
%TA.AperFunction,SMDPad,CuDef*%
%ADD10RoundRect,0.250000X-0.475000X0.250000X-0.475000X-0.250000X0.475000X-0.250000X0.475000X0.250000X0*%
%TD*%
%TA.AperFunction,SMDPad,CuDef*%
%ADD11RoundRect,0.050000X-0.500000X-0.250000X0.500000X-0.250000X0.500000X0.250000X-0.500000X0.250000X0*%
%TD*%
%TA.AperFunction,SMDPad,CuDef*%
%ADD12RoundRect,0.150000X-0.587500X-0.150000X0.587500X-0.150000X0.587500X0.150000X-0.587500X0.150000X0*%
%TD*%
%TA.AperFunction,SMDPad,CuDef*%
%ADD13RoundRect,0.250000X-1.000000X1.350000X-1.000000X-1.350000X1.000000X-1.350000X1.000000X1.350000X0*%
%TD*%
%TA.AperFunction,SMDPad,CuDef*%
%ADD14RoundRect,0.243750X-0.243750X-0.456250X0.243750X-0.456250X0.243750X0.456250X-0.243750X0.456250X0*%
%TD*%
%TA.AperFunction,SMDPad,CuDef*%
%ADD15RoundRect,0.250000X-0.450000X0.262500X-0.450000X-0.262500X0.450000X-0.262500X0.450000X0.262500X0*%
%TD*%
%TA.AperFunction,SMDPad,CuDef*%
%ADD16RoundRect,0.250000X-0.262500X-0.450000X0.262500X-0.450000X0.262500X0.450000X-0.262500X0.450000X0*%
%TD*%
%TA.AperFunction,SMDPad,CuDef*%
%ADD17RoundRect,0.250000X0.450000X-0.262500X0.450000X0.262500X-0.450000X0.262500X-0.450000X-0.262500X0*%
%TD*%
%TA.AperFunction,SMDPad,CuDef*%
%ADD18RoundRect,0.250000X-0.250000X-0.475000X0.250000X-0.475000X0.250000X0.475000X-0.250000X0.475000X0*%
%TD*%
%TA.AperFunction,SMDPad,CuDef*%
%ADD19RoundRect,0.050000X0.250000X-0.500000X0.250000X0.500000X-0.250000X0.500000X-0.250000X-0.500000X0*%
%TD*%
%TA.AperFunction,SMDPad,CuDef*%
%ADD20RoundRect,0.050000X-0.250000X0.500000X-0.250000X-0.500000X0.250000X-0.500000X0.250000X0.500000X0*%
%TD*%
%TA.AperFunction,SMDPad,CuDef*%
%ADD21RoundRect,0.225000X0.225000X0.375000X-0.225000X0.375000X-0.225000X-0.375000X0.225000X-0.375000X0*%
%TD*%
%TA.AperFunction,SMDPad,CuDef*%
%ADD22R,0.400000X1.350000*%
%TD*%
%TA.AperFunction,ComponentPad*%
%ADD23O,1.600000X0.800000*%
%TD*%
%TA.AperFunction,ComponentPad*%
%ADD24O,0.750000X1.550000*%
%TD*%
%TA.AperFunction,SMDPad,CuDef*%
%ADD25R,1.300000X1.550000*%
%TD*%
%TA.AperFunction,SMDPad,CuDef*%
%ADD26R,1.500000X1.550000*%
%TD*%
%TA.AperFunction,SMDPad,CuDef*%
%ADD27RoundRect,0.150000X-0.625000X0.150000X-0.625000X-0.150000X0.625000X-0.150000X0.625000X0.150000X0*%
%TD*%
%TA.AperFunction,SMDPad,CuDef*%
%ADD28RoundRect,0.250000X-0.650000X0.350000X-0.650000X-0.350000X0.650000X-0.350000X0.650000X0.350000X0*%
%TD*%
%TA.AperFunction,SMDPad,CuDef*%
%ADD29RoundRect,0.150000X-0.512500X-0.150000X0.512500X-0.150000X0.512500X0.150000X-0.512500X0.150000X0*%
%TD*%
%TA.AperFunction,SMDPad,CuDef*%
%ADD30RoundRect,0.150000X0.512500X0.150000X-0.512500X0.150000X-0.512500X-0.150000X0.512500X-0.150000X0*%
%TD*%
%TA.AperFunction,SMDPad,CuDef*%
%ADD31RoundRect,0.250000X1.000000X0.650000X-1.000000X0.650000X-1.000000X-0.650000X1.000000X-0.650000X0*%
%TD*%
%TA.AperFunction,ViaPad*%
%ADD32C,0.800000*%
%TD*%
%TA.AperFunction,ViaPad*%
%ADD33C,1.200000*%
%TD*%
%TA.AperFunction,Conductor*%
%ADD34C,0.250000*%
%TD*%
%TA.AperFunction,Conductor*%
%ADD35C,0.600000*%
%TD*%
%TA.AperFunction,Conductor*%
%ADD36C,0.800000*%
%TD*%
%TA.AperFunction,Conductor*%
%ADD37C,0.400000*%
%TD*%
G04 APERTURE END LIST*
D10*
%TO.P,C4,1*%
%TO.N,/B+*%
X500000Y-34550000D03*
%TO.P,C4,2*%
%TO.N,/GND*%
X500000Y-36450000D03*
%TD*%
D11*
%TO.P,U1,1,IN*%
%TO.N,/VBUS1*%
X-23800000Y-33100000D03*
%TO.P,U1,2,GND*%
%TO.N,/GND*%
X-23800000Y-34050000D03*
%TO.P,U1,3,~{EN}*%
X-23800000Y-35000000D03*
%TO.P,U1,4,~{FLAG}*%
%TO.N,unconnected-(U1-~{FLAG}-Pad4)*%
X-21200000Y-35000000D03*
%TO.P,U1,5,OUT*%
%TO.N,/VBUS*%
X-21200000Y-33100000D03*
%TD*%
D12*
%TO.P,Q2,1,G*%
%TO.N,/G*%
X-1237500Y-38000000D03*
%TO.P,Q2,2,S*%
%TO.N,/VOUT*%
X-1237500Y-39900000D03*
%TO.P,Q2,3,D*%
%TO.N,/VCC*%
X637500Y-38950000D03*
%TD*%
D13*
%TO.P,C6,2*%
%TO.N,/GND*%
X11150000Y-38700000D03*
%TO.P,C6,1*%
%TO.N,/VOUT*%
X11150000Y-31300000D03*
%TD*%
D14*
%TO.P,D2,1,K*%
%TO.N,/CHG*%
X-15387500Y-40250000D03*
%TO.P,D2,2,A*%
%TO.N,/LCHG*%
X-13512500Y-40250000D03*
%TD*%
D12*
%TO.P,Q1,1,G*%
%TO.N,/VBUS*%
X-19375000Y-33100000D03*
%TO.P,Q1,2,S*%
%TO.N,/GND*%
X-19375000Y-35000000D03*
%TO.P,Q1,3,D*%
%TO.N,/PROG2*%
X-17500000Y-34050000D03*
%TD*%
D15*
%TO.P,R2,1*%
%TO.N,/PROG2*%
X-15200000Y-36637500D03*
%TO.P,R2,2*%
%TO.N,/PROG*%
X-15200000Y-38462500D03*
%TD*%
D16*
%TO.P,R4,1*%
%TO.N,/LCHG*%
X-11862500Y-39650000D03*
%TO.P,R4,2*%
%TO.N,/VCC*%
X-10037500Y-39650000D03*
%TD*%
D17*
%TO.P,R5,1*%
%TO.N,/GND*%
X-7200000Y-35775000D03*
%TO.P,R5,2*%
%TO.N,/TS*%
X-7200000Y-33950000D03*
%TD*%
D18*
%TO.P,C1,1*%
%TO.N,/VBUS1*%
X-23850000Y-31250000D03*
%TO.P,C1,2*%
%TO.N,/GND*%
X-21950000Y-31250000D03*
%TD*%
D19*
%TO.P,U5,5,IN*%
%TO.N,/B+*%
X3050000Y-35700000D03*
%TO.P,U5,4,EN*%
%TO.N,/EN*%
X4950000Y-35700000D03*
%TO.P,U5,3,~{OC}*%
%TO.N,unconnected-(U5-~{OC}-Pad3)*%
X4950000Y-38300000D03*
%TO.P,U5,2,GND*%
%TO.N,/GND*%
X4000000Y-38300000D03*
%TO.P,U5,1,OUT*%
%TO.N,/VOUT*%
X3050000Y-38300000D03*
%TD*%
D20*
%TO.P,U3,1,TS*%
%TO.N,/TS*%
X-9800000Y-33950000D03*
%TO.P,U3,2,VOUT*%
%TO.N,/B+*%
X-10750000Y-33950000D03*
%TO.P,U3,3,~{CHG}*%
%TO.N,/CHG*%
X-11700000Y-33950000D03*
%TO.P,U3,4,ISET*%
%TO.N,/PROG*%
X-11700000Y-36550000D03*
%TO.P,U3,5,GND*%
%TO.N,/GND*%
X-10750000Y-36550000D03*
%TO.P,U3,6,VIN*%
%TO.N,/VCC*%
X-9800000Y-36550000D03*
%TD*%
D21*
%TO.P,D1,1,K*%
%TO.N,/VCC*%
X-12350000Y-31200000D03*
%TO.P,D1,2,A*%
%TO.N,/VBUS*%
X-15650000Y-31200000D03*
%TD*%
D22*
%TO.P,J1,1,1*%
%TO.N,/VBUS1*%
X-21800000Y-37325000D03*
%TO.P,J1,2,2*%
%TO.N,unconnected-(J1-Pad2)*%
X-21150000Y-37325000D03*
%TO.P,J1,3,3*%
%TO.N,unconnected-(J1-Pad3)*%
X-20500000Y-37325000D03*
%TO.P,J1,4,4*%
%TO.N,unconnected-(J1-Pad4)*%
X-19850000Y-37325000D03*
%TO.P,J1,5,5*%
%TO.N,/GND*%
X-19200000Y-37325000D03*
D23*
%TO.P,J1,S1,SHIELD*%
X-23000000Y-37300000D03*
%TO.P,J1,S2,SHIELD__1*%
X-18000000Y-37300000D03*
D24*
%TO.P,J1,S3,SHIELD__2*%
X-24025000Y-40000000D03*
D25*
X-23400000Y-40000000D03*
D26*
%TO.P,J1,S4,SHIELD__3*%
X-21500000Y-40000000D03*
%TO.P,J1,S5,SHIELD__4*%
X-19500000Y-40000000D03*
D25*
%TO.P,J1,S6,SHIELD__5*%
X-17600000Y-40000000D03*
D24*
X-16975000Y-40000000D03*
%TD*%
D13*
%TO.P,C7,1*%
%TO.N,/VOUT*%
X20500000Y-31300000D03*
%TO.P,C7,2*%
%TO.N,/GND*%
X20500000Y-38700000D03*
%TD*%
D16*
%TO.P,R1,1*%
%TO.N,/GND*%
X-19112500Y-31250000D03*
%TO.P,R1,2*%
%TO.N,/VBUS*%
X-17287500Y-31250000D03*
%TD*%
D10*
%TO.P,C2,1*%
%TO.N,/VCC*%
X-7550000Y-38000000D03*
%TO.P,C2,2*%
%TO.N,/GND*%
X-7550000Y-39900000D03*
%TD*%
D27*
%TO.P,BT1,1,Pin_1*%
%TO.N,/B+*%
X-4850000Y-32700000D03*
%TO.P,BT1,2,Pin_2*%
%TO.N,/TS*%
X-4850000Y-33700000D03*
%TO.P,BT1,3,Pin_3*%
%TO.N,/GND*%
X-4850000Y-34700000D03*
D28*
%TO.P,BT1,MP*%
%TO.N,N/C*%
X-2325000Y-31400000D03*
X-2325000Y-36000000D03*
%TD*%
D29*
%TO.P,U2,1,GND*%
%TO.N,/GND*%
X-9450000Y-30450000D03*
%TO.P,U2,2,~{RESET}*%
%TO.N,/EN*%
X-9450000Y-32350000D03*
%TO.P,U2,3,VCC*%
%TO.N,/B+*%
X-7175000Y-31400000D03*
%TD*%
D15*
%TO.P,R3,1*%
%TO.N,/GND*%
X-15200000Y-33175000D03*
%TO.P,R3,2*%
%TO.N,/PROG2*%
X-15200000Y-35000000D03*
%TD*%
D30*
%TO.P,U4,1,GND*%
%TO.N,/GND*%
X-3250000Y-39900000D03*
%TO.P,U4,2,RESET*%
%TO.N,/G*%
X-3250000Y-38000000D03*
%TO.P,U4,3,VCC*%
%TO.N,/VOUT*%
X-5525000Y-38950000D03*
%TD*%
D31*
%TO.P,D3,1,K*%
%TO.N,/VOUT*%
X5000000Y-32000000D03*
%TO.P,D3,2,A*%
%TO.N,/GND*%
X1000000Y-32000000D03*
%TD*%
D32*
%TO.N,/GND*%
X4000000Y-35500000D03*
X5000000Y-37000000D03*
X3000000Y-37000000D03*
X4000000Y-37000000D03*
%TO.N,/EN*%
X6000000Y-35000000D03*
%TO.N,/GND*%
X-23800000Y-35300000D03*
X-8400000Y-34800000D03*
X-10400000Y-35300000D03*
X-12000000Y-35300000D03*
X-8400000Y-36900000D03*
X-16800000Y-32900000D03*
X22900000Y-38700000D03*
X-9300000Y-35300000D03*
X8800000Y-38700000D03*
X-13000000Y-34200000D03*
X18200000Y-38700000D03*
X-4800000Y-39900000D03*
X-8400000Y-35900000D03*
X-4900000Y-36300000D03*
X13500000Y-38700000D03*
X-5950000Y-39900000D03*
X-13000000Y-33100000D03*
X-13000000Y-35300000D03*
D33*
%TO.N,/VOUT*%
X8500000Y-30000000D03*
D32*
%TO.N,/CHG*%
X-11700000Y-32900000D03*
X-13750000Y-38750000D03*
%TO.N,/PROG*%
X-16254505Y-37504505D03*
X-12750000Y-36550000D03*
%TO.N,/EN*%
X-8900000Y-33225000D03*
%TD*%
D34*
%TO.N,/EN*%
X5375000Y-35700000D02*
X4950000Y-35700000D01*
X6000000Y-35075000D02*
X5375000Y-35700000D01*
X6000000Y-35000000D02*
X6000000Y-35075000D01*
X-9050000Y-32350000D02*
X-9450000Y-32350000D01*
X-8900000Y-32500000D02*
X-9050000Y-32350000D01*
X-8900000Y-33225000D02*
X-8900000Y-32500000D01*
D35*
%TO.N,/VOUT*%
X3050000Y-39850000D02*
X3050000Y-38300000D01*
X3000000Y-39900000D02*
X3050000Y-39850000D01*
X7800000Y-38700000D02*
X7800000Y-32000000D01*
X6600000Y-39900000D02*
X7800000Y-38700000D01*
X2600000Y-39900000D02*
X6600000Y-39900000D01*
%TO.N,/B+*%
X1650000Y-35700000D02*
X3050000Y-35700000D01*
X500000Y-34550000D02*
X1650000Y-35700000D01*
X-1350000Y-32700000D02*
X500000Y-34550000D01*
X-4366117Y-32700000D02*
X-1350000Y-32700000D01*
D36*
%TO.N,/VOUT*%
X7800000Y-32000000D02*
X5000000Y-32000000D01*
X8500000Y-31300000D02*
X7800000Y-32000000D01*
X8500000Y-31300000D02*
X11150000Y-31300000D01*
X8500000Y-30000000D02*
X8500000Y-31300000D01*
D35*
X-1237500Y-39900000D02*
X2600000Y-39900000D01*
%TO.N,/B+*%
X-6700000Y-31400000D02*
X-5400000Y-32700000D01*
X-10385894Y-31400000D02*
X-10750000Y-31764106D01*
X-10385894Y-31400000D02*
X-7175000Y-31400000D01*
X-10750000Y-31764106D02*
X-10750000Y-33950000D01*
X-7175000Y-31400000D02*
X-6700000Y-31400000D01*
X-5400000Y-32700000D02*
X-4850000Y-32700000D01*
D34*
%TO.N,/TS*%
X-4850000Y-33700000D02*
X-6950000Y-33700000D01*
X-9800000Y-33950000D02*
X-7200000Y-33950000D01*
D37*
%TO.N,/VBUS1*%
X-22750000Y-35750000D02*
X-21800000Y-36700000D01*
X-23800000Y-33100000D02*
X-23150000Y-33100000D01*
X-22750000Y-33500000D02*
X-22750000Y-35750000D01*
X-23800000Y-33100000D02*
X-23800000Y-31300000D01*
X-23150000Y-33100000D02*
X-22750000Y-33500000D01*
D35*
%TO.N,/VCC*%
X-10037500Y-38462500D02*
X-10100000Y-38400000D01*
D37*
X-4000000Y-38700000D02*
X-4700000Y-38000000D01*
D35*
X-10100000Y-38400000D02*
X-9800000Y-38400000D01*
X-13527207Y-37450000D02*
X-12577207Y-38400000D01*
X-8700000Y-38000000D02*
X-7550000Y-38000000D01*
D37*
X-4700000Y-38000000D02*
X-7550000Y-38000000D01*
D35*
X-13300000Y-31200000D02*
X-14000000Y-31900000D01*
X-9800000Y-38400000D02*
X-9100000Y-38400000D01*
X-13550000Y-37450000D02*
X-13527207Y-37450000D01*
X-12350000Y-31200000D02*
X-13300000Y-31200000D01*
X-9100000Y-38400000D02*
X-8700000Y-38000000D01*
X-14000000Y-37000000D02*
X-13550000Y-37450000D01*
D37*
X637500Y-38950000D02*
X-700000Y-38950000D01*
D35*
X-14000000Y-31900000D02*
X-14000000Y-37000000D01*
X-12577207Y-38400000D02*
X-10100000Y-38400000D01*
X-10037500Y-39650000D02*
X-10037500Y-38462500D01*
D37*
X-700000Y-38950000D02*
X-950000Y-38700000D01*
X-950000Y-38700000D02*
X-4000000Y-38700000D01*
D35*
X-9800000Y-36550000D02*
X-9800000Y-38400000D01*
D36*
%TO.N,/VOUT*%
X11150000Y-31300000D02*
X20500000Y-31300000D01*
D35*
%TO.N,/VBUS*%
X-21200000Y-33100000D02*
X-19375000Y-33100000D01*
X-19137500Y-33100000D02*
X-17287500Y-31250000D01*
X-17287500Y-31250000D02*
X-15700000Y-31250000D01*
D34*
%TO.N,/CHG*%
X-14500000Y-39500000D02*
X-14500000Y-40250000D01*
X-11700000Y-33950000D02*
X-11700000Y-32900000D01*
X-14500000Y-40250000D02*
X-15387500Y-40250000D01*
X-13750000Y-38750000D02*
X-14500000Y-39500000D01*
%TO.N,/LCHG*%
X-12212500Y-40000000D02*
X-13262500Y-40000000D01*
%TO.N,/VOUT*%
X-4600000Y-38950000D02*
X-4300000Y-39250000D01*
X-5525000Y-38950000D02*
X-4600000Y-38950000D01*
X-2300000Y-39250000D02*
X-1650000Y-39900000D01*
X-4300000Y-39250000D02*
X-2300000Y-39250000D01*
%TO.N,/PROG2*%
X-17500000Y-34050000D02*
X-15500000Y-34050000D01*
X-15200000Y-35000000D02*
X-15200000Y-36637500D01*
X-15500000Y-34050000D02*
X-15200000Y-34350000D01*
X-15200000Y-34350000D02*
X-15200000Y-35000000D01*
%TO.N,/G*%
X-3250000Y-38000000D02*
X-1237500Y-38000000D01*
%TO.N,/PROG*%
X-12750000Y-36550000D02*
X-11700000Y-36550000D01*
X-15296510Y-38462500D02*
X-16254505Y-37504505D01*
%TD*%
%TA.AperFunction,Conductor*%
%TO.N,/GND*%
G36*
X-22973209Y-31882031D02*
G01*
X-22923804Y-31931437D01*
X-22914930Y-31951860D01*
X-22884359Y-32044117D01*
X-22884356Y-32044124D01*
X-22792315Y-32193345D01*
X-22668345Y-32317315D01*
X-22519124Y-32409356D01*
X-22519119Y-32409358D01*
X-22352697Y-32464505D01*
X-22352690Y-32464506D01*
X-22249980Y-32474999D01*
X-22048917Y-32474999D01*
X-21981877Y-32494683D01*
X-21936122Y-32547487D01*
X-21926178Y-32616645D01*
X-21946616Y-32669076D01*
X-21952201Y-32677230D01*
X-21952206Y-32677235D01*
X-21997585Y-32780009D01*
X-22000500Y-32805135D01*
X-22000499Y-33394864D01*
X-22000497Y-33394879D01*
X-22000497Y-33394882D01*
X-21997586Y-33419987D01*
X-21997585Y-33419988D01*
X-21997585Y-33419991D01*
X-21952206Y-33522765D01*
X-21872765Y-33602206D01*
X-21769991Y-33647585D01*
X-21744865Y-33650500D01*
X-21300331Y-33650499D01*
X-21300328Y-33650500D01*
X-21275665Y-33650500D01*
X-19329746Y-33650500D01*
X-19329730Y-33650499D01*
X-19149043Y-33650499D01*
X-19144810Y-33650571D01*
X-19143524Y-33650614D01*
X-19080674Y-33652762D01*
X-19080666Y-33652760D01*
X-19072236Y-33651894D01*
X-19072185Y-33652383D01*
X-19056498Y-33650499D01*
X-18755983Y-33650499D01*
X-18755982Y-33650499D01*
X-18662196Y-33635646D01*
X-18648225Y-33628527D01*
X-18579559Y-33615632D01*
X-18514819Y-33641908D01*
X-18474561Y-33699014D01*
X-18471731Y-33765039D01*
X-18471620Y-33765057D01*
X-18471706Y-33765605D01*
X-18471569Y-33768820D01*
X-18473019Y-33773893D01*
X-18478090Y-33805909D01*
X-18488000Y-33868481D01*
X-18487999Y-34231518D01*
X-18473146Y-34325304D01*
X-18415550Y-34438342D01*
X-18325842Y-34528050D01*
X-18212804Y-34585646D01*
X-18212802Y-34585646D01*
X-18212801Y-34585647D01*
X-18145647Y-34596282D01*
X-18119019Y-34600500D01*
X-16880982Y-34600499D01*
X-16787196Y-34585646D01*
X-16674158Y-34528050D01*
X-16607925Y-34461817D01*
X-16546605Y-34428334D01*
X-16520246Y-34425500D01*
X-16246405Y-34425500D01*
X-16179366Y-34445185D01*
X-16133611Y-34497989D01*
X-16123667Y-34567147D01*
X-16130223Y-34592832D01*
X-16144089Y-34630011D01*
X-16144091Y-34630017D01*
X-16150500Y-34689627D01*
X-16150499Y-35310372D01*
X-16144091Y-35369983D01*
X-16093796Y-35504831D01*
X-16007546Y-35620046D01*
X-15892331Y-35706296D01*
X-15892325Y-35706297D01*
X-15885700Y-35709917D01*
X-15836294Y-35759322D01*
X-15821441Y-35827594D01*
X-15845857Y-35893059D01*
X-15885700Y-35927583D01*
X-15892333Y-35931205D01*
X-16007544Y-36017452D01*
X-16007547Y-36017455D01*
X-16093793Y-36132664D01*
X-16093797Y-36132671D01*
X-16100265Y-36150013D01*
X-16144091Y-36267517D01*
X-16150500Y-36327127D01*
X-16150499Y-36600000D01*
X-16150499Y-36730005D01*
X-16170183Y-36797044D01*
X-16222987Y-36842799D01*
X-16274499Y-36854005D01*
X-16333491Y-36854005D01*
X-16486870Y-36891808D01*
X-16626742Y-36965220D01*
X-16626743Y-36965221D01*
X-16626745Y-36965222D01*
X-16744988Y-37069975D01*
X-16834725Y-37199982D01*
X-16853505Y-37249501D01*
X-16890742Y-37347686D01*
X-16909175Y-37499501D01*
X-16909783Y-37504505D01*
X-16890742Y-37661323D01*
X-16834725Y-37809028D01*
X-16744988Y-37939035D01*
X-16626745Y-38043788D01*
X-16519514Y-38100068D01*
X-16486870Y-38117201D01*
X-16333490Y-38155005D01*
X-16274500Y-38155005D01*
X-16207461Y-38174690D01*
X-16161706Y-38227494D01*
X-16150500Y-38279005D01*
X-16150499Y-38550500D01*
X-16150499Y-38772872D01*
X-16144091Y-38832483D01*
X-16093796Y-38967331D01*
X-16007546Y-39082546D01*
X-15892331Y-39168796D01*
X-15892327Y-39168797D01*
X-15889345Y-39171030D01*
X-15847474Y-39226964D01*
X-15842490Y-39296655D01*
X-15875975Y-39357979D01*
X-15889342Y-39369561D01*
X-15984331Y-39440669D01*
X-16034611Y-39507836D01*
X-16068165Y-39552659D01*
X-16069503Y-39554446D01*
X-16119171Y-39687609D01*
X-16119171Y-39687612D01*
X-16125499Y-39746462D01*
X-16125499Y-39746469D01*
X-16125500Y-39746479D01*
X-16125499Y-40753520D01*
X-16119171Y-40812391D01*
X-16069503Y-40945554D01*
X-15984331Y-41059331D01*
X-15870554Y-41144503D01*
X-15737391Y-41194171D01*
X-15678521Y-41200500D01*
X-15096480Y-41200499D01*
X-15055428Y-41196086D01*
X-15037608Y-41194171D01*
X-14982352Y-41173561D01*
X-14904446Y-41144503D01*
X-14790669Y-41059331D01*
X-14705497Y-40945554D01*
X-14655829Y-40812391D01*
X-14655828Y-40812389D01*
X-14655828Y-40812387D01*
X-14649500Y-40753537D01*
X-14649500Y-40749500D01*
X-14629815Y-40682461D01*
X-14577011Y-40636706D01*
X-14525500Y-40625500D01*
X-14520655Y-40625500D01*
X-14510414Y-40625924D01*
X-14468565Y-40629392D01*
X-14468564Y-40629391D01*
X-14468563Y-40629392D01*
X-14427820Y-40619074D01*
X-14417838Y-40616981D01*
X-14394905Y-40613154D01*
X-14325544Y-40621536D01*
X-14271722Y-40666089D01*
X-14250531Y-40732667D01*
X-14250499Y-40735463D01*
X-14250499Y-40753520D01*
X-14244171Y-40812391D01*
X-14194503Y-40945554D01*
X-14109331Y-41059331D01*
X-13995554Y-41144503D01*
X-13862391Y-41194171D01*
X-13803521Y-41200500D01*
X-13221480Y-41200499D01*
X-13180428Y-41196086D01*
X-13162608Y-41194171D01*
X-13107352Y-41173561D01*
X-13029446Y-41144503D01*
X-12915669Y-41059331D01*
X-12830497Y-40945554D01*
X-12780829Y-40812391D01*
X-12780828Y-40812389D01*
X-12780828Y-40812387D01*
X-12774500Y-40753537D01*
X-12774500Y-40499500D01*
X-12754815Y-40432461D01*
X-12702011Y-40386706D01*
X-12650500Y-40375500D01*
X-12606035Y-40375500D01*
X-12538996Y-40395185D01*
X-12506768Y-40425190D01*
X-12486128Y-40452762D01*
X-12482546Y-40457546D01*
X-12367331Y-40543796D01*
X-12232483Y-40594091D01*
X-12172873Y-40600500D01*
X-11552128Y-40600499D01*
X-11492517Y-40594091D01*
X-11391166Y-40556289D01*
X-11321477Y-40551306D01*
X-11260154Y-40584791D01*
X-11226669Y-40646114D01*
X-11231653Y-40715806D01*
X-11260154Y-40760153D01*
X-11847801Y-41347801D01*
X-11859996Y-41358496D01*
X-11944157Y-41423075D01*
X-11972191Y-41439260D01*
X-12062616Y-41476715D01*
X-12093882Y-41485093D01*
X-12186024Y-41497224D01*
X-12199048Y-41498939D01*
X-12215233Y-41500000D01*
X-16284767Y-41500000D01*
X-16300951Y-41498939D01*
X-16312291Y-41497446D01*
X-16406117Y-41485093D01*
X-16437383Y-41476715D01*
X-16527808Y-41439260D01*
X-16555842Y-41423075D01*
X-16640003Y-41358496D01*
X-16652198Y-41347801D01*
X-16853547Y-41146451D01*
X-16853554Y-41146445D01*
X-16853558Y-41146441D01*
X-17000000Y-41000000D01*
X-17207107Y-41000000D01*
X-17207114Y-41000000D01*
X-23792886Y-41000000D01*
X-23792893Y-41000000D01*
X-24000000Y-41000000D01*
X-24146445Y-41146445D01*
X-24146451Y-41146450D01*
X-24402975Y-41402975D01*
X-24421765Y-41418396D01*
X-24489007Y-41463326D01*
X-24533702Y-41481840D01*
X-24596644Y-41494359D01*
X-24652960Y-41492507D01*
X-24654466Y-41492103D01*
X-24714116Y-41455721D01*
X-24742112Y-41404435D01*
X-24745774Y-41390770D01*
X-24750000Y-41358673D01*
X-24750000Y-33624333D01*
X-24730315Y-33557294D01*
X-24677511Y-33511539D01*
X-24608353Y-33501595D01*
X-24544797Y-33530620D01*
X-24538319Y-33536652D01*
X-24472765Y-33602206D01*
X-24369991Y-33647585D01*
X-24344865Y-33650500D01*
X-23324499Y-33650499D01*
X-23257461Y-33670183D01*
X-23211706Y-33722987D01*
X-23200500Y-33774499D01*
X-23200500Y-35717738D01*
X-23201279Y-35731620D01*
X-23202722Y-35744421D01*
X-23204815Y-35763000D01*
X-23205270Y-35767035D01*
X-23194635Y-35823236D01*
X-23193872Y-35827726D01*
X-23185348Y-35884287D01*
X-23185346Y-35884291D01*
X-23182830Y-35892447D01*
X-23180024Y-35900469D01*
X-23180023Y-35900472D01*
X-23153270Y-35951088D01*
X-23151248Y-35955093D01*
X-23126425Y-36006642D01*
X-23126423Y-36006643D01*
X-23126423Y-36006645D01*
X-23121616Y-36013695D01*
X-23116567Y-36020534D01*
X-23116566Y-36020538D01*
X-23076128Y-36060974D01*
X-23072962Y-36064260D01*
X-23034055Y-36106194D01*
X-23034050Y-36106196D01*
X-23026790Y-36111987D01*
X-23027313Y-36112643D01*
X-23015070Y-36122032D01*
X-22639519Y-36497584D01*
X-22286819Y-36850284D01*
X-22253334Y-36911607D01*
X-22250500Y-36937965D01*
X-22250500Y-38024674D01*
X-22235966Y-38097740D01*
X-22180601Y-38180601D01*
X-22097740Y-38235966D01*
X-22024677Y-38250499D01*
X-22024676Y-38250500D01*
X-22024674Y-38250500D01*
X-21575323Y-38250500D01*
X-21499192Y-38235356D01*
X-21450808Y-38235356D01*
X-21374676Y-38250500D01*
X-21374674Y-38250500D01*
X-20925323Y-38250500D01*
X-20849192Y-38235356D01*
X-20800808Y-38235356D01*
X-20724676Y-38250500D01*
X-20724674Y-38250500D01*
X-20275323Y-38250500D01*
X-20199192Y-38235356D01*
X-20150808Y-38235356D01*
X-20074676Y-38250500D01*
X-20074674Y-38250500D01*
X-19625324Y-38250500D01*
X-19625321Y-38250499D01*
X-19552264Y-38235967D01*
X-19552260Y-38235966D01*
X-19514472Y-38210717D01*
X-19469399Y-38180601D01*
X-19427037Y-38117201D01*
X-19414033Y-38097739D01*
X-19414032Y-38097735D01*
X-19399500Y-38024678D01*
X-19399500Y-36625321D01*
X-19414032Y-36552264D01*
X-19414033Y-36552260D01*
X-19469399Y-36469399D01*
X-19552260Y-36414033D01*
X-19552264Y-36414032D01*
X-19625323Y-36399500D01*
X-19625326Y-36399500D01*
X-20074674Y-36399500D01*
X-20150810Y-36414644D01*
X-20199190Y-36414644D01*
X-20275326Y-36399500D01*
X-20724674Y-36399500D01*
X-20800810Y-36414644D01*
X-20849190Y-36414644D01*
X-20925326Y-36399500D01*
X-21374674Y-36399500D01*
X-21374681Y-36399500D01*
X-21383675Y-36401289D01*
X-21453267Y-36395059D01*
X-21495542Y-36367352D01*
X-22263181Y-35599714D01*
X-22296666Y-35538391D01*
X-22299500Y-35512033D01*
X-22299500Y-34705135D01*
X-22000500Y-34705135D01*
X-22000499Y-35294864D01*
X-22000497Y-35294879D01*
X-22000497Y-35294882D01*
X-21997586Y-35319987D01*
X-21997585Y-35319988D01*
X-21997585Y-35319991D01*
X-21952206Y-35422765D01*
X-21872765Y-35502206D01*
X-21769991Y-35547585D01*
X-21744865Y-35550500D01*
X-20655136Y-35550499D01*
X-20655122Y-35550497D01*
X-20655117Y-35550497D01*
X-20630012Y-35547586D01*
X-20630010Y-35547585D01*
X-20630009Y-35547585D01*
X-20527235Y-35502206D01*
X-20447794Y-35422765D01*
X-20441126Y-35407664D01*
X-20402415Y-35319993D01*
X-20402415Y-35319991D01*
X-20399500Y-35294868D01*
X-20399500Y-34705143D01*
X-20399502Y-34705117D01*
X-20402413Y-34680012D01*
X-20402415Y-34680008D01*
X-20447793Y-34577235D01*
X-20527234Y-34497794D01*
X-20630007Y-34452415D01*
X-20655134Y-34449500D01*
X-21744856Y-34449500D01*
X-21744882Y-34449502D01*
X-21769987Y-34452413D01*
X-21769991Y-34452415D01*
X-21872764Y-34497793D01*
X-21872765Y-34497794D01*
X-21952206Y-34577235D01*
X-21962478Y-34600499D01*
X-21987113Y-34656293D01*
X-21997585Y-34680009D01*
X-22000500Y-34705135D01*
X-22299500Y-34705135D01*
X-22299500Y-33532261D01*
X-22298720Y-33518376D01*
X-22294729Y-33482964D01*
X-22305354Y-33426810D01*
X-22306131Y-33422241D01*
X-22314651Y-33365715D01*
X-22317175Y-33357532D01*
X-22319976Y-33349529D01*
X-22346689Y-33298985D01*
X-22348777Y-33294848D01*
X-22373573Y-33243358D01*
X-22378359Y-33236338D01*
X-22383435Y-33229460D01*
X-22423837Y-33189058D01*
X-22427051Y-33185722D01*
X-22465946Y-33143804D01*
X-22473208Y-33138013D01*
X-22472688Y-33137362D01*
X-22484928Y-33127967D01*
X-22808632Y-32804263D01*
X-22817895Y-32793898D01*
X-22840117Y-32766033D01*
X-22840121Y-32766030D01*
X-22887357Y-32733823D01*
X-22891132Y-32731144D01*
X-22937118Y-32697206D01*
X-22944667Y-32693216D01*
X-22952325Y-32689528D01*
X-23006967Y-32672673D01*
X-23011368Y-32671225D01*
X-23034942Y-32662976D01*
X-23049926Y-32657733D01*
X-23096654Y-32628373D01*
X-23127231Y-32597796D01*
X-23127233Y-32597795D01*
X-23127238Y-32597793D01*
X-23139249Y-32592489D01*
X-23230007Y-32552415D01*
X-23239792Y-32551280D01*
X-23304116Y-32523999D01*
X-23343480Y-32466273D01*
X-23349500Y-32428106D01*
X-23349500Y-32224749D01*
X-23329815Y-32157710D01*
X-23299810Y-32125482D01*
X-23283377Y-32113181D01*
X-23242454Y-32082546D01*
X-23156204Y-31967331D01*
X-23152621Y-31957724D01*
X-23148818Y-31947529D01*
X-23106946Y-31891596D01*
X-23041482Y-31867179D01*
X-22973209Y-31882031D01*
G37*
%TD.AperFunction*%
%TA.AperFunction,Conductor*%
G36*
X-17199047Y-501061D02*
G01*
X-17093882Y-514906D01*
X-17062616Y-523284D01*
X-16972191Y-560739D01*
X-16944157Y-576924D01*
X-16859996Y-641503D01*
X-16847809Y-652190D01*
X-16000000Y-1500000D01*
X-8215233Y-1500000D01*
X-8199047Y-1501061D01*
X-8093882Y-1514906D01*
X-8062616Y-1523284D01*
X-7972191Y-1560739D01*
X-7944157Y-1576924D01*
X-7859996Y-1641503D01*
X-7847809Y-1652190D01*
X-7000000Y-2500000D01*
X6792886Y-2500000D01*
X6792893Y-2500000D01*
X7000000Y-2500000D01*
X7847809Y-1652190D01*
X7859996Y-1641503D01*
X7944157Y-1576924D01*
X7972191Y-1560739D01*
X8062616Y-1523284D01*
X8093882Y-1514906D01*
X8199048Y-1501061D01*
X8215233Y-1500000D01*
X15793583Y-1500000D01*
X15793588Y-1500000D01*
X16000000Y-1500000D01*
X16502378Y-1000000D01*
X16852725Y-651311D01*
X16864875Y-640702D01*
X16948927Y-576469D01*
X16976889Y-560384D01*
X17067099Y-523144D01*
X17098276Y-514817D01*
X17140963Y-509214D01*
X17203139Y-501054D01*
X17219275Y-500000D01*
X24241874Y-500000D01*
X24258059Y-501061D01*
X24363223Y-514906D01*
X24394491Y-523284D01*
X24484918Y-560740D01*
X24512952Y-576925D01*
X24590602Y-636509D01*
X24613491Y-659398D01*
X24673074Y-737048D01*
X24689259Y-765081D01*
X24726715Y-855508D01*
X24735093Y-886775D01*
X24748939Y-991939D01*
X24750000Y-1008125D01*
X24750000Y-40991874D01*
X24748939Y-41008060D01*
X24735093Y-41113224D01*
X24726715Y-41144491D01*
X24689259Y-41234918D01*
X24673074Y-41262951D01*
X24613491Y-41340601D01*
X24590601Y-41363491D01*
X24512951Y-41423074D01*
X24484918Y-41439259D01*
X24394491Y-41476715D01*
X24363224Y-41485093D01*
X24269398Y-41497446D01*
X24258058Y-41498939D01*
X24241874Y-41500000D01*
X17215233Y-41500000D01*
X17199048Y-41498939D01*
X17186024Y-41497224D01*
X17093882Y-41485093D01*
X17062616Y-41476715D01*
X16972191Y-41439260D01*
X16944157Y-41423075D01*
X16859996Y-41358496D01*
X16847801Y-41347801D01*
X16146452Y-40646451D01*
X16146445Y-40646445D01*
X16000000Y-40500000D01*
X15792893Y-40500000D01*
X15792886Y-40500000D01*
X12962709Y-40500000D01*
X12895670Y-40480315D01*
X12849915Y-40427511D01*
X12839971Y-40358353D01*
X12845003Y-40336996D01*
X12889505Y-40202697D01*
X12889506Y-40202690D01*
X12899999Y-40099986D01*
X12900000Y-40099973D01*
X12900000Y-38950000D01*
X18750001Y-38950000D01*
X18750001Y-40099986D01*
X18760494Y-40202697D01*
X18815641Y-40369119D01*
X18815643Y-40369124D01*
X18907684Y-40518345D01*
X19031654Y-40642315D01*
X19180875Y-40734356D01*
X19180880Y-40734358D01*
X19347302Y-40789505D01*
X19347309Y-40789506D01*
X19450019Y-40799999D01*
X20249999Y-40799999D01*
X20250000Y-40799998D01*
X20250000Y-38950000D01*
X20750000Y-38950000D01*
X20750000Y-40799999D01*
X21549972Y-40799999D01*
X21549986Y-40799998D01*
X21652697Y-40789505D01*
X21819119Y-40734358D01*
X21819124Y-40734356D01*
X21968345Y-40642315D01*
X22092315Y-40518345D01*
X22184356Y-40369124D01*
X22184358Y-40369119D01*
X22239505Y-40202697D01*
X22239506Y-40202690D01*
X22249999Y-40099986D01*
X22250000Y-40099973D01*
X22250000Y-38950000D01*
X20750000Y-38950000D01*
X20250000Y-38950000D01*
X18750001Y-38950000D01*
X12900000Y-38950000D01*
X9400001Y-38950000D01*
X9400001Y-40099986D01*
X9410494Y-40202697D01*
X9454997Y-40336996D01*
X9457399Y-40406824D01*
X9421667Y-40466866D01*
X9359147Y-40498059D01*
X9337291Y-40500000D01*
X7083707Y-40500000D01*
X7016668Y-40480315D01*
X6970913Y-40427511D01*
X6960969Y-40358353D01*
X6989994Y-40294797D01*
X7005453Y-40279811D01*
X7005546Y-40279734D01*
X7006108Y-40279278D01*
X7016456Y-40264616D01*
X7030074Y-40248449D01*
X8181130Y-39097392D01*
X8184115Y-39094507D01*
X8231044Y-39050680D01*
X8252391Y-39015572D01*
X8259539Y-39005072D01*
X8284359Y-38972345D01*
X8284359Y-38972344D01*
X8284361Y-38972342D01*
X8290945Y-38955643D01*
X8300344Y-38936719D01*
X8309672Y-38921382D01*
X8320760Y-38881805D01*
X8324800Y-38869792D01*
X8339876Y-38831564D01*
X8339930Y-38831044D01*
X8341711Y-38813716D01*
X8345658Y-38792944D01*
X8350500Y-38775665D01*
X8350500Y-38734582D01*
X8351150Y-38721902D01*
X8354039Y-38693796D01*
X8355352Y-38681029D01*
X8352303Y-38663344D01*
X8350500Y-38642276D01*
X8350500Y-38450000D01*
X9400000Y-38450000D01*
X10900000Y-38450000D01*
X10900000Y-36600000D01*
X11400000Y-36600000D01*
X11400000Y-38450000D01*
X12899999Y-38450000D01*
X18750000Y-38450000D01*
X20250000Y-38450000D01*
X20250000Y-36600000D01*
X20750000Y-36600000D01*
X20750000Y-38450000D01*
X22249999Y-38450000D01*
X22249999Y-37300028D01*
X22249998Y-37300013D01*
X22239505Y-37197302D01*
X22184358Y-37030880D01*
X22184356Y-37030875D01*
X22092315Y-36881654D01*
X21968345Y-36757684D01*
X21819124Y-36665643D01*
X21819119Y-36665641D01*
X21652697Y-36610494D01*
X21652690Y-36610493D01*
X21549986Y-36600000D01*
X20750000Y-36600000D01*
X20250000Y-36600000D01*
X19450028Y-36600000D01*
X19450012Y-36600001D01*
X19347302Y-36610494D01*
X19180880Y-36665641D01*
X19180875Y-36665643D01*
X19031654Y-36757684D01*
X18907684Y-36881654D01*
X18815643Y-37030875D01*
X18815641Y-37030880D01*
X18760494Y-37197302D01*
X18760493Y-37197309D01*
X18750000Y-37300013D01*
X18750000Y-38450000D01*
X12899999Y-38450000D01*
X12899999Y-37300028D01*
X12899998Y-37300013D01*
X12889505Y-37197302D01*
X12834358Y-37030880D01*
X12834356Y-37030875D01*
X12742315Y-36881654D01*
X12618345Y-36757684D01*
X12469124Y-36665643D01*
X12469119Y-36665641D01*
X12302697Y-36610494D01*
X12302690Y-36610493D01*
X12199986Y-36600000D01*
X11400000Y-36600000D01*
X10900000Y-36600000D01*
X10100028Y-36600000D01*
X10100012Y-36600001D01*
X9997302Y-36610494D01*
X9830880Y-36665641D01*
X9830875Y-36665643D01*
X9681654Y-36757684D01*
X9557684Y-36881654D01*
X9465643Y-37030875D01*
X9465641Y-37030880D01*
X9410494Y-37197302D01*
X9410493Y-37197309D01*
X9400000Y-37300013D01*
X9400000Y-38450000D01*
X8350500Y-38450000D01*
X8350500Y-32420808D01*
X8370185Y-32353769D01*
X8386819Y-32333127D01*
X8733127Y-31986819D01*
X8794450Y-31953334D01*
X8820808Y-31950500D01*
X9525501Y-31950500D01*
X9592540Y-31970185D01*
X9638295Y-32022989D01*
X9649501Y-32074500D01*
X9649501Y-32697876D01*
X9655908Y-32757483D01*
X9706202Y-32892328D01*
X9706206Y-32892335D01*
X9792452Y-33007544D01*
X9792455Y-33007547D01*
X9907664Y-33093793D01*
X9907671Y-33093797D01*
X10042517Y-33144091D01*
X10042516Y-33144091D01*
X10049444Y-33144835D01*
X10102127Y-33150500D01*
X12197872Y-33150499D01*
X12257483Y-33144091D01*
X12392331Y-33093796D01*
X12507546Y-33007546D01*
X12593796Y-32892331D01*
X12644091Y-32757483D01*
X12650500Y-32697873D01*
X12650500Y-32074500D01*
X12670185Y-32007461D01*
X12722989Y-31961706D01*
X12774500Y-31950500D01*
X18875501Y-31950500D01*
X18942540Y-31970185D01*
X18988295Y-32022989D01*
X18999501Y-32074500D01*
X18999501Y-32697876D01*
X19005908Y-32757483D01*
X19056202Y-32892328D01*
X19056206Y-32892335D01*
X19142452Y-33007544D01*
X19142455Y-33007547D01*
X19257664Y-33093793D01*
X19257671Y-33093797D01*
X19392517Y-33144091D01*
X19392516Y-33144091D01*
X19399444Y-33144835D01*
X19452127Y-33150500D01*
X21547872Y-33150499D01*
X21607483Y-33144091D01*
X21742331Y-33093796D01*
X21857546Y-33007546D01*
X21943796Y-32892331D01*
X21994091Y-32757483D01*
X22000500Y-32697873D01*
X22000499Y-29902128D01*
X21994091Y-29842517D01*
X21986510Y-29822192D01*
X21943797Y-29707671D01*
X21943793Y-29707664D01*
X21857547Y-29592455D01*
X21857544Y-29592452D01*
X21742335Y-29506206D01*
X21742328Y-29506202D01*
X21607482Y-29455908D01*
X21607483Y-29455908D01*
X21547883Y-29449501D01*
X21547881Y-29449500D01*
X21547873Y-29449500D01*
X21547864Y-29449500D01*
X19452129Y-29449500D01*
X19452123Y-29449501D01*
X19392516Y-29455908D01*
X19257671Y-29506202D01*
X19257664Y-29506206D01*
X19142455Y-29592452D01*
X19142452Y-29592455D01*
X19056206Y-29707664D01*
X19056202Y-29707671D01*
X19005908Y-29842517D01*
X18999501Y-29902116D01*
X18999501Y-29902123D01*
X18999500Y-29902135D01*
X18999500Y-30525500D01*
X18979815Y-30592539D01*
X18927011Y-30638294D01*
X18875500Y-30649500D01*
X12774499Y-30649500D01*
X12707460Y-30629815D01*
X12661705Y-30577011D01*
X12650499Y-30525500D01*
X12650499Y-29902129D01*
X12650498Y-29902123D01*
X12650497Y-29902116D01*
X12644091Y-29842517D01*
X12636510Y-29822192D01*
X12593797Y-29707671D01*
X12593793Y-29707664D01*
X12507547Y-29592455D01*
X12507544Y-29592452D01*
X12392335Y-29506206D01*
X12392328Y-29506202D01*
X12257482Y-29455908D01*
X12257483Y-29455908D01*
X12197883Y-29449501D01*
X12197881Y-29449500D01*
X12197873Y-29449500D01*
X12197864Y-29449500D01*
X10102129Y-29449500D01*
X10102123Y-29449501D01*
X10042516Y-29455908D01*
X9907671Y-29506202D01*
X9907664Y-29506206D01*
X9792455Y-29592452D01*
X9792452Y-29592455D01*
X9706206Y-29707664D01*
X9706202Y-29707671D01*
X9655908Y-29842517D01*
X9649501Y-29902116D01*
X9649501Y-29902123D01*
X9649500Y-29902135D01*
X9649500Y-30525500D01*
X9629815Y-30592539D01*
X9577011Y-30638294D01*
X9525500Y-30649500D01*
X9321858Y-30649500D01*
X9254819Y-30629815D01*
X9209064Y-30577011D01*
X9199120Y-30507853D01*
X9214471Y-30463500D01*
X9241055Y-30417455D01*
X9281250Y-30347835D01*
X9336497Y-30177803D01*
X9355185Y-30000000D01*
X9336497Y-29822197D01*
X9299285Y-29707671D01*
X9281252Y-29652170D01*
X9281249Y-29652164D01*
X9246776Y-29592455D01*
X9191859Y-29497335D01*
X9145003Y-29445296D01*
X9072235Y-29364478D01*
X9072232Y-29364476D01*
X9072231Y-29364475D01*
X9072230Y-29364474D01*
X8927593Y-29259388D01*
X8764267Y-29186671D01*
X8764265Y-29186670D01*
X8636594Y-29159533D01*
X8589391Y-29149500D01*
X8410609Y-29149500D01*
X8379954Y-29156015D01*
X8235733Y-29186670D01*
X8235728Y-29186672D01*
X8072408Y-29259387D01*
X7927768Y-29364475D01*
X7808140Y-29497336D01*
X7718750Y-29652164D01*
X7718747Y-29652170D01*
X7663504Y-29822192D01*
X7663503Y-29822194D01*
X7644815Y-30000000D01*
X7663503Y-30177805D01*
X7663504Y-30177807D01*
X7718747Y-30347829D01*
X7718750Y-30347835D01*
X7808141Y-30502665D01*
X7814634Y-30509876D01*
X7817648Y-30513223D01*
X7847879Y-30576213D01*
X7849500Y-30596197D01*
X7849500Y-30979192D01*
X7829815Y-31046231D01*
X7813181Y-31066873D01*
X7566873Y-31313181D01*
X7505550Y-31346666D01*
X7479192Y-31349500D01*
X6616977Y-31349500D01*
X6549938Y-31329815D01*
X6504183Y-31277011D01*
X6496733Y-31249865D01*
X6495876Y-31250068D01*
X6494092Y-31242520D01*
X6491091Y-31234475D01*
X6443796Y-31107669D01*
X6443795Y-31107668D01*
X6443793Y-31107664D01*
X6357547Y-30992455D01*
X6357544Y-30992452D01*
X6242335Y-30906206D01*
X6242328Y-30906202D01*
X6107482Y-30855908D01*
X6107483Y-30855908D01*
X6047883Y-30849501D01*
X6047881Y-30849500D01*
X6047873Y-30849500D01*
X6047864Y-30849500D01*
X3952129Y-30849500D01*
X3952123Y-30849501D01*
X3892516Y-30855908D01*
X3757671Y-30906202D01*
X3757664Y-30906206D01*
X3642455Y-30992452D01*
X3642452Y-30992455D01*
X3556206Y-31107664D01*
X3556202Y-31107671D01*
X3505908Y-31242517D01*
X3499501Y-31302116D01*
X3499500Y-31302135D01*
X3499500Y-32697870D01*
X3499501Y-32697876D01*
X3505908Y-32757483D01*
X3556202Y-32892328D01*
X3556206Y-32892335D01*
X3642452Y-33007544D01*
X3642455Y-33007547D01*
X3757664Y-33093793D01*
X3757671Y-33093797D01*
X3892517Y-33144091D01*
X3892516Y-33144091D01*
X3899444Y-33144835D01*
X3952127Y-33150500D01*
X6047872Y-33150499D01*
X6107483Y-33144091D01*
X6242331Y-33093796D01*
X6357546Y-33007546D01*
X6443796Y-32892331D01*
X6494091Y-32757483D01*
X6494091Y-32757481D01*
X6495874Y-32749938D01*
X6498146Y-32750474D01*
X6520429Y-32696688D01*
X6577823Y-32656843D01*
X6616976Y-32650500D01*
X7125500Y-32650500D01*
X7192539Y-32670185D01*
X7238294Y-32722989D01*
X7249500Y-32774500D01*
X7249500Y-38420613D01*
X7229815Y-38487652D01*
X7213181Y-38508294D01*
X6408294Y-39313181D01*
X6346971Y-39346666D01*
X6320613Y-39349500D01*
X3724500Y-39349500D01*
X3657461Y-39329815D01*
X3611706Y-39277011D01*
X3600500Y-39225500D01*
X3600500Y-38844856D01*
X4399500Y-38844856D01*
X4399502Y-38844882D01*
X4402413Y-38869987D01*
X4402415Y-38869991D01*
X4447793Y-38972764D01*
X4447794Y-38972765D01*
X4527235Y-39052206D01*
X4630009Y-39097585D01*
X4655135Y-39100500D01*
X5244864Y-39100499D01*
X5244879Y-39100497D01*
X5244882Y-39100497D01*
X5269987Y-39097586D01*
X5269988Y-39097585D01*
X5269991Y-39097585D01*
X5372765Y-39052206D01*
X5452206Y-38972765D01*
X5497585Y-38869991D01*
X5500500Y-38844865D01*
X5500499Y-37755136D01*
X5500497Y-37755117D01*
X5497586Y-37730012D01*
X5497585Y-37730010D01*
X5497585Y-37730009D01*
X5452206Y-37627235D01*
X5372765Y-37547794D01*
X5368530Y-37545924D01*
X5269992Y-37502415D01*
X5244865Y-37499500D01*
X4655143Y-37499500D01*
X4655117Y-37499502D01*
X4630012Y-37502413D01*
X4630008Y-37502415D01*
X4527235Y-37547793D01*
X4447794Y-37627234D01*
X4402415Y-37730006D01*
X4402415Y-37730008D01*
X4399500Y-37755131D01*
X4399500Y-38844856D01*
X3600500Y-38844856D01*
X3600500Y-38254747D01*
X3600499Y-38254729D01*
X3600499Y-37755143D01*
X3600499Y-37755136D01*
X3600497Y-37755117D01*
X3597586Y-37730012D01*
X3597585Y-37730010D01*
X3597585Y-37730009D01*
X3552206Y-37627235D01*
X3472765Y-37547794D01*
X3468530Y-37545924D01*
X3369992Y-37502415D01*
X3344865Y-37499500D01*
X2755143Y-37499500D01*
X2755117Y-37499502D01*
X2730012Y-37502413D01*
X2730008Y-37502415D01*
X2627235Y-37547793D01*
X2547794Y-37627234D01*
X2502415Y-37730006D01*
X2502415Y-37730008D01*
X2499500Y-37755131D01*
X2499500Y-39225500D01*
X2479815Y-39292539D01*
X2427011Y-39338294D01*
X2375500Y-39349500D01*
X1736161Y-39349500D01*
X1669122Y-39329815D01*
X1623367Y-39277011D01*
X1613423Y-39207853D01*
X1613688Y-39206102D01*
X1625499Y-39131524D01*
X1625500Y-39131519D01*
X1625499Y-38768482D01*
X1610646Y-38674696D01*
X1553050Y-38561658D01*
X1553046Y-38561654D01*
X1553045Y-38561652D01*
X1463347Y-38471954D01*
X1463344Y-38471952D01*
X1463342Y-38471950D01*
X1364274Y-38421472D01*
X1350301Y-38414352D01*
X1256524Y-38399500D01*
X18482Y-38399500D01*
X-62480Y-38412323D01*
X-75304Y-38414354D01*
X-89274Y-38421472D01*
X-157942Y-38434367D01*
X-222682Y-38408090D01*
X-262938Y-38350983D01*
X-265767Y-38284960D01*
X-265880Y-38284943D01*
X-265792Y-38284389D01*
X-265930Y-38281177D01*
X-264480Y-38276109D01*
X-249500Y-38181524D01*
X-249500Y-37818482D01*
X-264354Y-37724697D01*
X-264353Y-37724697D01*
X-264354Y-37724696D01*
X-321950Y-37611658D01*
X-321951Y-37611656D01*
X-326381Y-37602963D01*
X-325162Y-37602342D01*
X-345204Y-37546143D01*
X-329368Y-37478091D01*
X-279254Y-37429404D01*
X-210774Y-37415540D01*
X-182399Y-37421378D01*
X-127699Y-37439504D01*
X-127690Y-37439506D01*
X-24980Y-37449999D01*
X249999Y-37449999D01*
X250000Y-37449998D01*
X250000Y-36700000D01*
X750000Y-36700000D01*
X750000Y-37449999D01*
X1024972Y-37449999D01*
X1024986Y-37449998D01*
X1127697Y-37439505D01*
X1294119Y-37384358D01*
X1294124Y-37384356D01*
X1443345Y-37292315D01*
X1567315Y-37168345D01*
X1659356Y-37019124D01*
X1659358Y-37019119D01*
X1714505Y-36852697D01*
X1714506Y-36852690D01*
X1724999Y-36749986D01*
X1725000Y-36749973D01*
X1725000Y-36700000D01*
X750000Y-36700000D01*
X250000Y-36700000D01*
X-724999Y-36700000D01*
X-724999Y-36749971D01*
X-724998Y-36749986D01*
X-714505Y-36852697D01*
X-659358Y-37019119D01*
X-659356Y-37019124D01*
X-567317Y-37168342D01*
X-493476Y-37242183D01*
X-459991Y-37303506D01*
X-464975Y-37373198D01*
X-506846Y-37429132D01*
X-572310Y-37453549D01*
X-600553Y-37452339D01*
X-618479Y-37449500D01*
X-1856517Y-37449500D01*
X-1924657Y-37460292D01*
X-1950304Y-37464354D01*
X-2063342Y-37521950D01*
X-2129574Y-37588182D01*
X-2190895Y-37621666D01*
X-2217254Y-37624500D01*
X-2345246Y-37624500D01*
X-2412285Y-37604815D01*
X-2432922Y-37588185D01*
X-2477867Y-37543241D01*
X-2499156Y-37521951D01*
X-2612198Y-37464352D01*
X-2705975Y-37449500D01*
X-3794017Y-37449500D01*
X-3862157Y-37460292D01*
X-3887804Y-37464354D01*
X-4000842Y-37521950D01*
X-4000844Y-37521952D01*
X-4000847Y-37521954D01*
X-4090545Y-37611652D01*
X-4090546Y-37611654D01*
X-4090550Y-37611658D01*
X-4134814Y-37698531D01*
X-4182788Y-37749326D01*
X-4250609Y-37766121D01*
X-4316744Y-37743584D01*
X-4332979Y-37729916D01*
X-4358632Y-37704263D01*
X-4367895Y-37693898D01*
X-4390117Y-37666033D01*
X-4390121Y-37666030D01*
X-4437357Y-37633823D01*
X-4441132Y-37631144D01*
X-4487118Y-37597206D01*
X-4494667Y-37593216D01*
X-4502325Y-37589528D01*
X-4556967Y-37572673D01*
X-4561368Y-37571225D01*
X-4615304Y-37552353D01*
X-4623659Y-37550771D01*
X-4632096Y-37549500D01*
X-4632098Y-37549500D01*
X-4632100Y-37549500D01*
X-4689262Y-37549500D01*
X-4693898Y-37549413D01*
X-4695841Y-37549340D01*
X-4751010Y-37547275D01*
X-4760244Y-37548316D01*
X-4760337Y-37547486D01*
X-4775636Y-37549500D01*
X-6537820Y-37549500D01*
X-6604859Y-37529815D01*
X-6637087Y-37499811D01*
X-6637319Y-37499501D01*
X-6717454Y-37392454D01*
X-6717455Y-37392453D01*
X-6717456Y-37392452D01*
X-6832664Y-37306206D01*
X-6832671Y-37306202D01*
X-6967517Y-37255908D01*
X-6967516Y-37255908D01*
X-7027116Y-37249501D01*
X-7027119Y-37249500D01*
X-7027127Y-37249500D01*
X-7027134Y-37249500D01*
X-7027135Y-37249500D01*
X-8072870Y-37249500D01*
X-8072876Y-37249501D01*
X-8132483Y-37255908D01*
X-8267328Y-37306202D01*
X-8267335Y-37306206D01*
X-8371731Y-37384358D01*
X-8382546Y-37392454D01*
X-8382548Y-37392457D01*
X-8388052Y-37399809D01*
X-8443985Y-37441681D01*
X-8487320Y-37449500D01*
X-8688478Y-37449500D01*
X-8692710Y-37449428D01*
X-8707429Y-37448925D01*
X-8756826Y-37447238D01*
X-8756829Y-37447238D01*
X-8796733Y-37456963D01*
X-8809208Y-37459334D01*
X-8849920Y-37464930D01*
X-8866379Y-37472079D01*
X-8886420Y-37478819D01*
X-8903852Y-37483067D01*
X-8939663Y-37503202D01*
X-8951030Y-37508848D01*
X-8988721Y-37525220D01*
X-9002641Y-37536545D01*
X-9020118Y-37548440D01*
X-9035756Y-37557233D01*
X-9035761Y-37557237D01*
X-9037819Y-37559295D01*
X-9040161Y-37560574D01*
X-9042518Y-37562361D01*
X-9042786Y-37562007D01*
X-9099142Y-37592780D01*
X-9168834Y-37587796D01*
X-9224767Y-37545924D01*
X-9249184Y-37480460D01*
X-9249500Y-37471614D01*
X-9249500Y-36005143D01*
X-9249502Y-36005117D01*
X-9252413Y-35980012D01*
X-9252415Y-35980008D01*
X-9297793Y-35877235D01*
X-9377234Y-35797794D01*
X-9480007Y-35752415D01*
X-9505134Y-35749500D01*
X-10094856Y-35749500D01*
X-10094882Y-35749502D01*
X-10119987Y-35752413D01*
X-10119991Y-35752415D01*
X-10222764Y-35797793D01*
X-10222765Y-35797794D01*
X-10302206Y-35877235D01*
X-10328729Y-35937304D01*
X-10336610Y-35955154D01*
X-10347585Y-35980009D01*
X-10350500Y-36005135D01*
X-10350499Y-36239874D01*
X-10350499Y-36459892D01*
X-10350500Y-36459902D01*
X-10350500Y-37725500D01*
X-10370185Y-37792539D01*
X-10422989Y-37838294D01*
X-10474500Y-37849500D01*
X-12297820Y-37849500D01*
X-12364859Y-37829815D01*
X-12385501Y-37813181D01*
X-12786500Y-37412181D01*
X-12819985Y-37350858D01*
X-12815001Y-37281166D01*
X-12773129Y-37225233D01*
X-12707665Y-37200816D01*
X-12698819Y-37200500D01*
X-12671014Y-37200500D01*
X-12517634Y-37162696D01*
X-12400556Y-37101248D01*
X-12332048Y-37087522D01*
X-12266995Y-37113014D01*
X-12229498Y-37160953D01*
X-12202206Y-37222765D01*
X-12122765Y-37302206D01*
X-12019991Y-37347585D01*
X-11994865Y-37350500D01*
X-11405136Y-37350499D01*
X-11405122Y-37350497D01*
X-11405117Y-37350497D01*
X-11380012Y-37347586D01*
X-11380010Y-37347585D01*
X-11380009Y-37347585D01*
X-11277235Y-37302206D01*
X-11197794Y-37222765D01*
X-11152415Y-37119993D01*
X-11152415Y-37119991D01*
X-11149500Y-37094868D01*
X-11149500Y-36005143D01*
X-11149502Y-36005117D01*
X-11152413Y-35980012D01*
X-11152415Y-35980008D01*
X-11197793Y-35877235D01*
X-11277234Y-35797794D01*
X-11380007Y-35752415D01*
X-11405134Y-35749500D01*
X-11994856Y-35749500D01*
X-11994882Y-35749502D01*
X-12019987Y-35752413D01*
X-12019991Y-35752415D01*
X-12122764Y-35797793D01*
X-12202206Y-35877235D01*
X-12229496Y-35939041D01*
X-12274581Y-35992417D01*
X-12341368Y-36012945D01*
X-12400555Y-35998752D01*
X-12517635Y-35937303D01*
X-12671014Y-35899500D01*
X-12671015Y-35899500D01*
X-12828985Y-35899500D01*
X-12828986Y-35899500D01*
X-12982365Y-35937303D01*
X-13122237Y-36010715D01*
X-13122238Y-36010716D01*
X-13122240Y-36010717D01*
X-13236551Y-36111987D01*
X-13243273Y-36117942D01*
X-13306507Y-36147663D01*
X-13375770Y-36138479D01*
X-13429073Y-36093307D01*
X-13449493Y-36026487D01*
X-13449500Y-36025126D01*
X-13449500Y-35602127D01*
X-3475500Y-35602127D01*
X-3475499Y-36397872D01*
X-3469091Y-36457483D01*
X-3418796Y-36592331D01*
X-3332546Y-36707546D01*
X-3217331Y-36793796D01*
X-3082483Y-36844091D01*
X-3022873Y-36850500D01*
X-1627128Y-36850499D01*
X-1578757Y-36845299D01*
X-1567516Y-36844091D01*
X-1432671Y-36793797D01*
X-1432664Y-36793793D01*
X-1317455Y-36707547D01*
X-1317452Y-36707544D01*
X-1231206Y-36592335D01*
X-1231202Y-36592328D01*
X-1180908Y-36457482D01*
X-1174501Y-36397883D01*
X-1174500Y-36397881D01*
X-1174500Y-36397873D01*
X-1174500Y-36000417D01*
X-1174500Y-35602129D01*
X-1174501Y-35602123D01*
X-1180908Y-35542516D01*
X-1231202Y-35407671D01*
X-1231206Y-35407664D01*
X-1317452Y-35292455D01*
X-1317455Y-35292452D01*
X-1432664Y-35206206D01*
X-1432671Y-35206202D01*
X-1567517Y-35155908D01*
X-1567516Y-35155908D01*
X-1627116Y-35149501D01*
X-1627119Y-35149500D01*
X-1627127Y-35149500D01*
X-1627134Y-35149500D01*
X-1627135Y-35149500D01*
X-3022870Y-35149500D01*
X-3022876Y-35149501D01*
X-3082483Y-35155908D01*
X-3217328Y-35206202D01*
X-3217335Y-35206206D01*
X-3332544Y-35292452D01*
X-3332547Y-35292455D01*
X-3418793Y-35407664D01*
X-3418797Y-35407671D01*
X-3435063Y-35451282D01*
X-3469091Y-35542517D01*
X-3475500Y-35602127D01*
X-13449500Y-35602127D01*
X-13449500Y-34950000D01*
X-6122295Y-34950000D01*
X-6122295Y-34950001D01*
X-6122100Y-34952486D01*
X-6076281Y-35110198D01*
X-5992685Y-35251552D01*
X-5992678Y-35251561D01*
X-5876561Y-35367678D01*
X-5876552Y-35367685D01*
X-5735196Y-35451282D01*
X-5735193Y-35451283D01*
X-5577495Y-35497099D01*
X-5577489Y-35497100D01*
X-5540649Y-35499999D01*
X-5540634Y-35500000D01*
X-5100000Y-35500000D01*
X-5100000Y-34950000D01*
X-4600000Y-34950000D01*
X-4600000Y-35500000D01*
X-4159366Y-35500000D01*
X-4159350Y-35499999D01*
X-4122510Y-35497100D01*
X-4122504Y-35497099D01*
X-3964806Y-35451283D01*
X-3964803Y-35451282D01*
X-3823447Y-35367685D01*
X-3823438Y-35367678D01*
X-3707321Y-35251561D01*
X-3707314Y-35251552D01*
X-3623718Y-35110198D01*
X-3577899Y-34952486D01*
X-3577704Y-34950001D01*
X-3577705Y-34950000D01*
X-4600000Y-34950000D01*
X-5100000Y-34950000D01*
X-6122295Y-34950000D01*
X-13449500Y-34950000D01*
X-13449500Y-32900000D01*
X-12355278Y-32900000D01*
X-12336237Y-33056818D01*
X-12280220Y-33204523D01*
X-12252461Y-33244738D01*
X-12230577Y-33311092D01*
X-12241075Y-33365264D01*
X-12245508Y-33375304D01*
X-12247585Y-33380009D01*
X-12250500Y-33405135D01*
X-12250499Y-34494864D01*
X-12250497Y-34494879D01*
X-12250497Y-34494882D01*
X-12247586Y-34519987D01*
X-12247585Y-34519988D01*
X-12247585Y-34519991D01*
X-12202206Y-34622765D01*
X-12122765Y-34702206D01*
X-12019991Y-34747585D01*
X-11994865Y-34750500D01*
X-11405136Y-34750499D01*
X-11405122Y-34750497D01*
X-11405117Y-34750497D01*
X-11380012Y-34747586D01*
X-11380008Y-34747585D01*
X-11275086Y-34701257D01*
X-11205808Y-34692185D01*
X-11174913Y-34701257D01*
X-11172766Y-34702204D01*
X-11172765Y-34702206D01*
X-11069991Y-34747585D01*
X-11044865Y-34750500D01*
X-10455136Y-34750499D01*
X-10455122Y-34750497D01*
X-10455117Y-34750497D01*
X-10430012Y-34747586D01*
X-10430008Y-34747585D01*
X-10325086Y-34701257D01*
X-10255808Y-34692185D01*
X-10224913Y-34701257D01*
X-10222766Y-34702204D01*
X-10222765Y-34702206D01*
X-10119991Y-34747585D01*
X-10094865Y-34750500D01*
X-9505136Y-34750499D01*
X-9505122Y-34750497D01*
X-9505117Y-34750497D01*
X-9480012Y-34747586D01*
X-9480010Y-34747585D01*
X-9480009Y-34747585D01*
X-9377235Y-34702206D01*
X-9297794Y-34622765D01*
X-9287963Y-34600500D01*
X-9252415Y-34519993D01*
X-9252415Y-34519991D01*
X-9249500Y-34494868D01*
X-9249500Y-34449500D01*
X-9229815Y-34382461D01*
X-9177011Y-34336706D01*
X-9125500Y-34325500D01*
X-8228129Y-34325500D01*
X-8161090Y-34345185D01*
X-8115335Y-34397989D01*
X-8111947Y-34406167D01*
X-8104736Y-34425500D01*
X-8093796Y-34454831D01*
X-8007546Y-34570046D01*
X-7892331Y-34656296D01*
X-7757483Y-34706591D01*
X-7697873Y-34713000D01*
X-6702128Y-34712999D01*
X-6653757Y-34707799D01*
X-6642516Y-34706591D01*
X-6507671Y-34656297D01*
X-6507664Y-34656293D01*
X-6392455Y-34570047D01*
X-6389028Y-34565470D01*
X-6336186Y-34494882D01*
X-6311153Y-34461443D01*
X-6255219Y-34419573D01*
X-6185527Y-34414589D01*
X-6124205Y-34448075D01*
X-6122354Y-34450000D01*
X-3577705Y-34450000D01*
X-3577704Y-34449998D01*
X-3577899Y-34447513D01*
X-3623718Y-34289801D01*
X-3707314Y-34148447D01*
X-3707321Y-34148438D01*
X-3800297Y-34055463D01*
X-3833782Y-33994140D01*
X-3835089Y-33948385D01*
X-3824500Y-33881525D01*
X-3824500Y-33518482D01*
X-3839354Y-33424694D01*
X-3842369Y-33415418D01*
X-3839321Y-33414427D01*
X-3849142Y-33362117D01*
X-3822861Y-33297378D01*
X-3765752Y-33257125D01*
X-3725762Y-33250500D01*
X-1629387Y-33250500D01*
X-1562348Y-33270185D01*
X-1541706Y-33286819D01*
X-1271230Y-33557294D01*
X-753024Y-34075500D01*
X-511818Y-34316705D01*
X-478333Y-34378028D01*
X-475499Y-34404386D01*
X-475499Y-34847872D01*
X-469091Y-34907483D01*
X-418796Y-35042331D01*
X-332546Y-35157546D01*
X-217331Y-35243796D01*
X-217328Y-35243797D01*
X-197533Y-35251180D01*
X-141598Y-35293050D01*
X-117179Y-35358514D01*
X-132029Y-35426787D01*
X-181433Y-35476194D01*
X-201859Y-35485069D01*
X-294119Y-35515641D01*
X-294124Y-35515643D01*
X-443345Y-35607684D01*
X-567315Y-35731654D01*
X-659356Y-35880875D01*
X-659358Y-35880880D01*
X-714505Y-36047302D01*
X-714506Y-36047309D01*
X-724999Y-36150013D01*
X-725000Y-36150026D01*
X-725000Y-36200000D01*
X1380584Y-36200000D01*
X1420213Y-36208234D01*
X1420452Y-36207384D01*
X1468183Y-36220758D01*
X1480213Y-36224803D01*
X1518436Y-36239876D01*
X1536287Y-36241711D01*
X1557052Y-36245657D01*
X1574335Y-36250500D01*
X1615418Y-36250500D01*
X1628098Y-36251150D01*
X1631178Y-36251466D01*
X1668972Y-36255352D01*
X1686656Y-36252303D01*
X1707724Y-36250500D01*
X2413011Y-36250500D01*
X2480050Y-36270185D01*
X2525805Y-36322989D01*
X2526392Y-36324295D01*
X2547794Y-36372765D01*
X2627235Y-36452206D01*
X2730009Y-36497585D01*
X2755135Y-36500500D01*
X3344864Y-36500499D01*
X3344879Y-36500497D01*
X3344882Y-36500497D01*
X3369987Y-36497586D01*
X3369988Y-36497585D01*
X3369991Y-36497585D01*
X3472765Y-36452206D01*
X3552206Y-36372765D01*
X3597585Y-36269991D01*
X3600500Y-36244865D01*
X3600500Y-36244856D01*
X4399500Y-36244856D01*
X4399502Y-36244882D01*
X4402413Y-36269987D01*
X4402415Y-36269991D01*
X4447793Y-36372764D01*
X4447794Y-36372765D01*
X4527235Y-36452206D01*
X4630009Y-36497585D01*
X4655135Y-36500500D01*
X5244864Y-36500499D01*
X5244879Y-36500497D01*
X5244882Y-36500497D01*
X5269987Y-36497586D01*
X5269988Y-36497585D01*
X5269991Y-36497585D01*
X5372765Y-36452206D01*
X5452206Y-36372765D01*
X5497585Y-36269991D01*
X5500500Y-36244865D01*
X5500499Y-36134019D01*
X5520183Y-36066981D01*
X5570036Y-36022621D01*
X5596211Y-36009826D01*
X5596214Y-36009822D01*
X5596216Y-36009822D01*
X5602594Y-36005268D01*
X5608820Y-36000421D01*
X5608826Y-36000419D01*
X5644293Y-35961890D01*
X5647771Y-35958264D01*
X5919219Y-35686816D01*
X5980541Y-35653334D01*
X6006899Y-35650500D01*
X6078985Y-35650500D01*
X6232365Y-35612696D01*
X6257100Y-35599714D01*
X6372240Y-35539283D01*
X6490483Y-35434530D01*
X6580220Y-35304523D01*
X6636237Y-35156818D01*
X6655278Y-35000000D01*
X6644045Y-34907483D01*
X6636237Y-34843181D01*
X6599982Y-34747585D01*
X6580220Y-34695477D01*
X6490483Y-34565470D01*
X6372240Y-34460717D01*
X6372238Y-34460716D01*
X6372237Y-34460715D01*
X6232365Y-34387303D01*
X6078986Y-34349500D01*
X6078985Y-34349500D01*
X5921015Y-34349500D01*
X5921014Y-34349500D01*
X5767634Y-34387303D01*
X5627762Y-34460715D01*
X5509516Y-34565471D01*
X5419781Y-34695474D01*
X5372553Y-34820002D01*
X5330374Y-34875705D01*
X5264776Y-34899761D01*
X5248466Y-34899361D01*
X5248447Y-34899707D01*
X5244867Y-34899500D01*
X5244865Y-34899500D01*
X5244862Y-34899500D01*
X4655143Y-34899500D01*
X4655117Y-34899502D01*
X4630012Y-34902413D01*
X4630008Y-34902415D01*
X4527235Y-34947793D01*
X4447794Y-35027234D01*
X4402415Y-35130006D01*
X4402415Y-35130008D01*
X4399500Y-35155131D01*
X4399500Y-36244856D01*
X3600500Y-36244856D01*
X3600499Y-35723061D01*
X3600788Y-35714599D01*
X3601356Y-35706294D01*
X3604381Y-35662079D01*
X3603093Y-35655880D01*
X3600499Y-35630650D01*
X3600499Y-35155143D01*
X3600499Y-35155136D01*
X3599846Y-35149501D01*
X3597586Y-35130012D01*
X3597585Y-35130010D01*
X3597585Y-35130009D01*
X3552206Y-35027235D01*
X3472765Y-34947794D01*
X3472763Y-34947793D01*
X3369992Y-34902415D01*
X3344865Y-34899500D01*
X2755143Y-34899500D01*
X2755117Y-34899502D01*
X2730012Y-34902413D01*
X2730008Y-34902415D01*
X2627235Y-34947793D01*
X2547795Y-35027233D01*
X2547794Y-35027234D01*
X2547794Y-35027235D01*
X2526443Y-35075588D01*
X2481360Y-35128962D01*
X2414574Y-35149490D01*
X2413011Y-35149500D01*
X1929387Y-35149500D01*
X1862348Y-35129815D01*
X1841706Y-35113181D01*
X1511818Y-34783293D01*
X1478333Y-34721970D01*
X1475499Y-34695612D01*
X1475499Y-34252129D01*
X1475498Y-34252123D01*
X1475323Y-34250499D01*
X1469091Y-34192517D01*
X1463695Y-34178050D01*
X1418797Y-34057671D01*
X1418793Y-34057664D01*
X1332547Y-33942455D01*
X1332544Y-33942452D01*
X1217335Y-33856206D01*
X1217328Y-33856202D01*
X1082482Y-33805908D01*
X1082483Y-33805908D01*
X1022883Y-33799501D01*
X1022881Y-33799500D01*
X1022873Y-33799500D01*
X1022865Y-33799500D01*
X579386Y-33799500D01*
X512347Y-33779815D01*
X491705Y-33763181D01*
X-952593Y-32318880D01*
X-955534Y-32315837D01*
X-999317Y-32268958D01*
X-1034427Y-32247606D01*
X-1044911Y-32240470D01*
X-1077658Y-32215639D01*
X-1077663Y-32215636D01*
X-1094352Y-32209055D01*
X-1113283Y-32199653D01*
X-1128620Y-32190326D01*
X-1161671Y-32181065D01*
X-1220912Y-32144021D01*
X-1250721Y-32080830D01*
X-1241634Y-32011553D01*
X-1235066Y-32000325D01*
X-1235454Y-32000114D01*
X-1231202Y-31992328D01*
X-1180908Y-31857482D01*
X-1174501Y-31797883D01*
X-1174500Y-31797881D01*
X-1174500Y-31797873D01*
X-1174500Y-31413424D01*
X-1174500Y-31002129D01*
X-1174501Y-31002123D01*
X-1180908Y-30942516D01*
X-1231202Y-30807671D01*
X-1231206Y-30807664D01*
X-1317452Y-30692455D01*
X-1317455Y-30692452D01*
X-1432664Y-30606206D01*
X-1432671Y-30606202D01*
X-1567517Y-30555908D01*
X-1567516Y-30555908D01*
X-1627116Y-30549501D01*
X-1627119Y-30549500D01*
X-1627127Y-30549500D01*
X-1627134Y-30549500D01*
X-1627135Y-30549500D01*
X-3022870Y-30549500D01*
X-3022876Y-30549501D01*
X-3082483Y-30555908D01*
X-3217328Y-30606202D01*
X-3217335Y-30606206D01*
X-3332544Y-30692452D01*
X-3332547Y-30692455D01*
X-3418793Y-30807664D01*
X-3418797Y-30807671D01*
X-3459065Y-30915636D01*
X-3469091Y-30942517D01*
X-3475500Y-31002127D01*
X-3475499Y-31797872D01*
X-3471827Y-31832027D01*
X-3469091Y-31857483D01*
X-3422587Y-31982167D01*
X-3417603Y-32051859D01*
X-3451088Y-32113182D01*
X-3512411Y-32146666D01*
X-3538769Y-32149500D01*
X-5120613Y-32149500D01*
X-5187652Y-32129815D01*
X-5208294Y-32113181D01*
X-6302579Y-31018894D01*
X-6305519Y-31015852D01*
X-6349316Y-30968958D01*
X-6384427Y-30947606D01*
X-6394911Y-30940470D01*
X-6427658Y-30915639D01*
X-6427663Y-30915636D01*
X-6444352Y-30909055D01*
X-6463283Y-30899653D01*
X-6464538Y-30898890D01*
X-6466814Y-30897505D01*
X-6478618Y-30890327D01*
X-6478621Y-30890326D01*
X-6483645Y-30888919D01*
X-6506477Y-30880005D01*
X-6537197Y-30864353D01*
X-6608574Y-30853048D01*
X-6622621Y-30849979D01*
X-6624325Y-30849501D01*
X-6624334Y-30849500D01*
X-6624335Y-30849500D01*
X-6624337Y-30849500D01*
X-6665418Y-30849500D01*
X-6678098Y-30848850D01*
X-6718970Y-30844648D01*
X-6718975Y-30844648D01*
X-6736656Y-30847697D01*
X-6757724Y-30849500D01*
X-8168551Y-30849500D01*
X-8235590Y-30829815D01*
X-8281345Y-30777011D01*
X-8291289Y-30707853D01*
X-8290533Y-30703223D01*
X-8290400Y-30702496D01*
X-8290204Y-30700001D01*
X-8290205Y-30700000D01*
X-10609795Y-30700000D01*
X-10609795Y-30700001D01*
X-10609600Y-30702488D01*
X-10609599Y-30702494D01*
X-10589885Y-30770351D01*
X-10590084Y-30840221D01*
X-10628026Y-30898890D01*
X-10659553Y-30918677D01*
X-10674614Y-30925220D01*
X-10674615Y-30925221D01*
X-10674617Y-30925222D01*
X-10688530Y-30936541D01*
X-10706011Y-30948439D01*
X-10721654Y-30957234D01*
X-10721655Y-30957236D01*
X-10750705Y-30986286D01*
X-10760120Y-30994784D01*
X-10792002Y-31020722D01*
X-10802349Y-31035381D01*
X-10815971Y-31051552D01*
X-11131117Y-31366698D01*
X-11134162Y-31369641D01*
X-11181044Y-31413426D01*
X-11202394Y-31448535D01*
X-11209532Y-31459022D01*
X-11234359Y-31491761D01*
X-11234361Y-31491765D01*
X-11240945Y-31508459D01*
X-11250351Y-31527396D01*
X-11259672Y-31542724D01*
X-11261520Y-31549320D01*
X-11270758Y-31582289D01*
X-11274803Y-31594319D01*
X-11289876Y-31632542D01*
X-11291711Y-31650393D01*
X-11295657Y-31671158D01*
X-11300500Y-31688441D01*
X-11300500Y-31688442D01*
X-11300500Y-31729524D01*
X-11301150Y-31742204D01*
X-11305352Y-31783078D01*
X-11302979Y-31796839D01*
X-11302303Y-31800762D01*
X-11300500Y-31821830D01*
X-11300500Y-32171044D01*
X-11320185Y-32238083D01*
X-11372989Y-32283838D01*
X-11442147Y-32293782D01*
X-11460347Y-32289084D01*
X-11460351Y-32289099D01*
X-11621014Y-32249500D01*
X-11621015Y-32249500D01*
X-11778985Y-32249500D01*
X-11778986Y-32249500D01*
X-11932365Y-32287303D01*
X-12072237Y-32360715D01*
X-12072238Y-32360716D01*
X-12072240Y-32360717D01*
X-12190483Y-32465470D01*
X-12280220Y-32595477D01*
X-12311227Y-32677235D01*
X-12336237Y-32743181D01*
X-12354346Y-32892328D01*
X-12355278Y-32900000D01*
X-13449500Y-32900000D01*
X-13449500Y-32179386D01*
X-13429815Y-32112347D01*
X-13413181Y-32091705D01*
X-13153503Y-31832027D01*
X-13092180Y-31798542D01*
X-13022488Y-31803526D01*
X-12966556Y-31845396D01*
X-12914687Y-31914687D01*
X-12805226Y-31996628D01*
X-12677114Y-32044412D01*
X-12620485Y-32050500D01*
X-12079516Y-32050499D01*
X-12040025Y-32046254D01*
X-12022885Y-32044412D01*
X-11959723Y-32020853D01*
X-11894774Y-31996628D01*
X-11785313Y-31914687D01*
X-11717677Y-31824336D01*
X-11703373Y-31805228D01*
X-11701707Y-31800762D01*
X-11655588Y-31677114D01*
X-11655587Y-31677112D01*
X-11655587Y-31677110D01*
X-11649500Y-31620501D01*
X-11649500Y-30779518D01*
X-11649501Y-30779509D01*
X-11655587Y-30722885D01*
X-11703372Y-30594773D01*
X-11785313Y-30485313D01*
X-11894771Y-30403373D01*
X-12021229Y-30356206D01*
X-12022886Y-30355588D01*
X-12022886Y-30355587D01*
X-12022889Y-30355587D01*
X-12079506Y-30349500D01*
X-12620481Y-30349500D01*
X-12620490Y-30349501D01*
X-12677114Y-30355587D01*
X-12805226Y-30403372D01*
X-12914687Y-30485313D01*
X-12968848Y-30557664D01*
X-13000399Y-30599811D01*
X-13056333Y-30641682D01*
X-13099666Y-30649500D01*
X-13288478Y-30649500D01*
X-13292710Y-30649428D01*
X-13307429Y-30648925D01*
X-13356826Y-30647238D01*
X-13356829Y-30647238D01*
X-13396733Y-30656963D01*
X-13409208Y-30659334D01*
X-13449920Y-30664930D01*
X-13466379Y-30672079D01*
X-13486420Y-30678819D01*
X-13503852Y-30683067D01*
X-13539663Y-30703202D01*
X-13551030Y-30708848D01*
X-13588721Y-30725220D01*
X-13602641Y-30736545D01*
X-13620118Y-30748440D01*
X-13635756Y-30757233D01*
X-13635761Y-30757237D01*
X-13664806Y-30786282D01*
X-13674222Y-30794781D01*
X-13706108Y-30820722D01*
X-13716458Y-30835384D01*
X-13730079Y-30851555D01*
X-14381116Y-31502591D01*
X-14384131Y-31505506D01*
X-14431044Y-31549320D01*
X-14452394Y-31584429D01*
X-14459532Y-31594916D01*
X-14484359Y-31627655D01*
X-14484361Y-31627659D01*
X-14490945Y-31644353D01*
X-14500351Y-31663290D01*
X-14509672Y-31678618D01*
X-14515785Y-31700436D01*
X-14520758Y-31718183D01*
X-14524803Y-31730213D01*
X-14539876Y-31768436D01*
X-14541711Y-31786287D01*
X-14545657Y-31807052D01*
X-14550500Y-31824335D01*
X-14550500Y-31824336D01*
X-14550500Y-31865418D01*
X-14551150Y-31878098D01*
X-14555352Y-31918972D01*
X-14555351Y-31918975D01*
X-14552303Y-31936656D01*
X-14550500Y-31957724D01*
X-14550500Y-32040461D01*
X-14570185Y-32107500D01*
X-14622989Y-32153255D01*
X-14687098Y-32163819D01*
X-14700001Y-32162501D01*
X-14700026Y-32162500D01*
X-15043792Y-32162500D01*
X-15110831Y-32142815D01*
X-15156586Y-32090011D01*
X-15166530Y-32020853D01*
X-15137505Y-31957297D01*
X-15118103Y-31939233D01*
X-15085313Y-31914687D01*
X-15017677Y-31824336D01*
X-15003373Y-31805228D01*
X-15001707Y-31800762D01*
X-14955588Y-31677114D01*
X-14955587Y-31677112D01*
X-14955587Y-31677110D01*
X-14949500Y-31620501D01*
X-14949500Y-30779518D01*
X-14949501Y-30779509D01*
X-14955587Y-30722885D01*
X-15003372Y-30594773D01*
X-15085313Y-30485313D01*
X-15194771Y-30403373D01*
X-15321229Y-30356206D01*
X-15322886Y-30355588D01*
X-15322886Y-30355587D01*
X-15322889Y-30355587D01*
X-15379506Y-30349500D01*
X-15920481Y-30349500D01*
X-15920490Y-30349501D01*
X-15977114Y-30355587D01*
X-16105226Y-30403372D01*
X-16214687Y-30485313D01*
X-16268848Y-30557664D01*
X-16282733Y-30576213D01*
X-16296628Y-30594774D01*
X-16305602Y-30618836D01*
X-16347473Y-30674767D01*
X-16412937Y-30699184D01*
X-16421783Y-30699500D01*
X-16442209Y-30699500D01*
X-16509248Y-30679815D01*
X-16555003Y-30627011D01*
X-16558391Y-30618833D01*
X-16581202Y-30557671D01*
X-16581206Y-30557664D01*
X-16667452Y-30442455D01*
X-16667455Y-30442452D01*
X-16782664Y-30356206D01*
X-16782671Y-30356202D01*
X-16917513Y-30305910D01*
X-16917514Y-30305909D01*
X-16917517Y-30305909D01*
X-16977127Y-30299500D01*
X-16977135Y-30299500D01*
X-16977136Y-30299500D01*
X-17597870Y-30299500D01*
X-17597876Y-30299501D01*
X-17657483Y-30305908D01*
X-17792328Y-30356202D01*
X-17792335Y-30356206D01*
X-17907544Y-30442452D01*
X-17907547Y-30442455D01*
X-17953501Y-30503841D01*
X-18009435Y-30545712D01*
X-18079126Y-30550696D01*
X-18140449Y-30517210D01*
X-18161664Y-30486910D01*
X-18161851Y-30487025D01*
X-18163820Y-30483831D01*
X-18165148Y-30481936D01*
X-18165637Y-30480885D01*
X-18257684Y-30331654D01*
X-18381654Y-30207684D01*
X-18394112Y-30200000D01*
X-10609795Y-30200000D01*
X-9700000Y-30200000D01*
X-9700000Y-29650000D01*
X-9200000Y-29650000D01*
X-9200000Y-30200000D01*
X-8290205Y-30200000D01*
X-8290204Y-30199998D01*
X-8290399Y-30197513D01*
X-8336218Y-30039801D01*
X-8419814Y-29898447D01*
X-8419821Y-29898438D01*
X-8535938Y-29782321D01*
X-8535947Y-29782314D01*
X-8677303Y-29698717D01*
X-8677306Y-29698716D01*
X-8835004Y-29652900D01*
X-8835010Y-29652899D01*
X-8871850Y-29650000D01*
X-9200000Y-29650000D01*
X-9700000Y-29650000D01*
X-10028149Y-29650000D01*
X-10064989Y-29652899D01*
X-10064995Y-29652900D01*
X-10222693Y-29698716D01*
X-10222696Y-29698717D01*
X-10364052Y-29782314D01*
X-10364061Y-29782321D01*
X-10480178Y-29898438D01*
X-10480185Y-29898447D01*
X-10563781Y-30039801D01*
X-10609600Y-30197513D01*
X-10609795Y-30199998D01*
X-10609795Y-30200000D01*
X-18394112Y-30200000D01*
X-18530875Y-30115643D01*
X-18530880Y-30115641D01*
X-18697302Y-30060494D01*
X-18697309Y-30060493D01*
X-18800013Y-30050000D01*
X-18862500Y-30050000D01*
X-18862500Y-31376000D01*
X-18882185Y-31443039D01*
X-18934989Y-31488794D01*
X-18986500Y-31500000D01*
X-20124999Y-31500000D01*
X-20124999Y-31749971D01*
X-20124998Y-31749986D01*
X-20114505Y-31852697D01*
X-20059358Y-32019119D01*
X-20059356Y-32019124D01*
X-19967315Y-32168345D01*
X-19843345Y-32292315D01*
X-19798525Y-32319961D01*
X-19751801Y-32371909D01*
X-19740578Y-32440872D01*
X-19768422Y-32504954D01*
X-19826490Y-32543810D01*
X-19863622Y-32549500D01*
X-21170846Y-32549500D01*
X-21237885Y-32529815D01*
X-21283640Y-32477011D01*
X-21293584Y-32407853D01*
X-21264559Y-32344297D01*
X-21235945Y-32319962D01*
X-21231654Y-32317315D01*
X-21107684Y-32193345D01*
X-21015643Y-32044124D01*
X-21015641Y-32044119D01*
X-20960494Y-31877697D01*
X-20960493Y-31877690D01*
X-20950000Y-31774986D01*
X-20950000Y-31500000D01*
X-22076000Y-31500000D01*
X-22143039Y-31480315D01*
X-22188794Y-31427511D01*
X-22200000Y-31376000D01*
X-22200000Y-30025000D01*
X-21700000Y-30025000D01*
X-21700000Y-31000000D01*
X-20950001Y-31000000D01*
X-20125000Y-31000000D01*
X-19362500Y-31000000D01*
X-19362500Y-30049999D01*
X-19424971Y-30050000D01*
X-19424988Y-30050001D01*
X-19527697Y-30060494D01*
X-19694119Y-30115641D01*
X-19694124Y-30115643D01*
X-19843345Y-30207684D01*
X-19967315Y-30331654D01*
X-20059356Y-30480875D01*
X-20059358Y-30480880D01*
X-20114505Y-30647302D01*
X-20114506Y-30647309D01*
X-20124999Y-30750013D01*
X-20125000Y-30750026D01*
X-20125000Y-31000000D01*
X-20950001Y-31000000D01*
X-20950001Y-30725013D01*
X-20960494Y-30622302D01*
X-21015641Y-30455880D01*
X-21015643Y-30455875D01*
X-21107684Y-30306654D01*
X-21231654Y-30182684D01*
X-21380875Y-30090643D01*
X-21380880Y-30090641D01*
X-21547302Y-30035494D01*
X-21547309Y-30035493D01*
X-21650013Y-30025000D01*
X-21700000Y-30025000D01*
X-22200000Y-30025000D01*
X-22200000Y-30024999D01*
X-22249970Y-30025000D01*
X-22249988Y-30025001D01*
X-22352697Y-30035494D01*
X-22519119Y-30090641D01*
X-22519124Y-30090643D01*
X-22668345Y-30182684D01*
X-22792315Y-30306654D01*
X-22884356Y-30455875D01*
X-22884358Y-30455880D01*
X-22914930Y-30548140D01*
X-22954702Y-30605585D01*
X-23019218Y-30632408D01*
X-23087994Y-30620093D01*
X-23139194Y-30572550D01*
X-23148817Y-30552471D01*
X-23156201Y-30532674D01*
X-23156206Y-30532664D01*
X-23242452Y-30417455D01*
X-23242455Y-30417452D01*
X-23357664Y-30331206D01*
X-23357671Y-30331202D01*
X-23492513Y-30280910D01*
X-23492514Y-30280909D01*
X-23492517Y-30280909D01*
X-23552127Y-30274500D01*
X-23552135Y-30274500D01*
X-23552136Y-30274500D01*
X-24147870Y-30274500D01*
X-24147876Y-30274501D01*
X-24207483Y-30280908D01*
X-24342328Y-30331202D01*
X-24342335Y-30331206D01*
X-24457544Y-30417452D01*
X-24457547Y-30417455D01*
X-24526734Y-30509876D01*
X-24582668Y-30551747D01*
X-24652359Y-30556731D01*
X-24713682Y-30523245D01*
X-24747166Y-30461922D01*
X-24750000Y-30435565D01*
X-24750000Y-1008125D01*
X-24748939Y-991939D01*
X-24735093Y-886775D01*
X-24726715Y-855508D01*
X-24689259Y-765081D01*
X-24673074Y-737048D01*
X-24613491Y-659398D01*
X-24590602Y-636509D01*
X-24512951Y-576925D01*
X-24484918Y-560740D01*
X-24394491Y-523284D01*
X-24363223Y-514906D01*
X-24258059Y-501061D01*
X-24241874Y-500000D01*
X-17215233Y-500000D01*
X-17199047Y-501061D01*
G37*
%TD.AperFunction*%
%TA.AperFunction,Conductor*%
G36*
X-8411275Y-38592313D02*
G01*
X-8380298Y-38609229D01*
X-8284384Y-38681030D01*
X-8267331Y-38693796D01*
X-8267326Y-38693798D01*
X-8247533Y-38701180D01*
X-8191598Y-38743050D01*
X-8167179Y-38808514D01*
X-8182029Y-38876787D01*
X-8231433Y-38926194D01*
X-8251859Y-38935069D01*
X-8344119Y-38965641D01*
X-8344124Y-38965643D01*
X-8493345Y-39057684D01*
X-8617315Y-39181654D01*
X-8709356Y-39330875D01*
X-8709358Y-39330880D01*
X-8764505Y-39497302D01*
X-8764506Y-39497309D01*
X-8774999Y-39600013D01*
X-8775000Y-39600026D01*
X-8775000Y-39650000D01*
X-6325001Y-39650000D01*
X-6325001Y-39603616D01*
X-6305316Y-39536577D01*
X-6252512Y-39490822D01*
X-6183354Y-39480878D01*
X-6162953Y-39485623D01*
X-6093236Y-39496664D01*
X-6069019Y-39500500D01*
X-4980982Y-39500499D01*
X-4887196Y-39485646D01*
X-4774158Y-39428050D01*
X-4774156Y-39428048D01*
X-4705489Y-39415153D01*
X-4640748Y-39441429D01*
X-4630191Y-39450844D01*
X-4602146Y-39478889D01*
X-4586022Y-39498746D01*
X-4580084Y-39507836D01*
X-4555114Y-39527270D01*
X-4543580Y-39537456D01*
X-4543518Y-39537519D01*
X-4526553Y-39549630D01*
X-4522534Y-39552627D01*
X-4481189Y-39584809D01*
X-4481186Y-39584809D01*
X-4477011Y-39587069D01*
X-4444959Y-39611960D01*
X-4409795Y-39650000D01*
X-3124000Y-39650000D01*
X-3056961Y-39669685D01*
X-3011206Y-39722489D01*
X-3000000Y-39774000D01*
X-3000000Y-40026000D01*
X-3019685Y-40093039D01*
X-3072489Y-40138794D01*
X-3124000Y-40150000D01*
X-4409795Y-40150000D01*
X-4409795Y-40150001D01*
X-4409600Y-40152486D01*
X-4363781Y-40310197D01*
X-4362197Y-40312877D01*
X-4361593Y-40315253D01*
X-4360685Y-40317354D01*
X-4361023Y-40317500D01*
X-4345013Y-40380601D01*
X-4367172Y-40446864D01*
X-4421637Y-40490628D01*
X-4468928Y-40500000D01*
X-6229154Y-40500000D01*
X-6296193Y-40480315D01*
X-6341948Y-40427511D01*
X-6351892Y-40358353D01*
X-6346860Y-40336997D01*
X-6335495Y-40302700D01*
X-6335493Y-40302690D01*
X-6325000Y-40199986D01*
X-6325000Y-40150000D01*
X-8774999Y-40150000D01*
X-8774999Y-40199971D01*
X-8774998Y-40199986D01*
X-8764506Y-40302695D01*
X-8753140Y-40336995D01*
X-8750738Y-40406823D01*
X-8786469Y-40466866D01*
X-8848989Y-40498059D01*
X-8870846Y-40500000D01*
X-9211417Y-40500000D01*
X-9278456Y-40480315D01*
X-9324211Y-40427511D01*
X-9334155Y-40358353D01*
X-9327599Y-40332667D01*
X-9280908Y-40207482D01*
X-9274501Y-40147883D01*
X-9274500Y-40147881D01*
X-9274500Y-40147873D01*
X-9274500Y-39669685D01*
X-9274500Y-39152129D01*
X-9274501Y-39152123D01*
X-9281421Y-39087753D01*
X-9269014Y-39018994D01*
X-9221403Y-38967857D01*
X-9158131Y-38950500D01*
X-9111522Y-38950500D01*
X-9107290Y-38950572D01*
X-9105390Y-38950636D01*
X-9043174Y-38952762D01*
X-9043170Y-38952761D01*
X-9003260Y-38943035D01*
X-8990784Y-38940664D01*
X-8984223Y-38939762D01*
X-8950080Y-38935070D01*
X-8933622Y-38927921D01*
X-8913578Y-38921180D01*
X-8896148Y-38916933D01*
X-8860334Y-38896796D01*
X-8848964Y-38891149D01*
X-8811280Y-38874781D01*
X-8811279Y-38874780D01*
X-8797363Y-38863458D01*
X-8779876Y-38851557D01*
X-8764244Y-38842768D01*
X-8764241Y-38842766D01*
X-8735188Y-38813713D01*
X-8725761Y-38805205D01*
X-8723247Y-38803160D01*
X-8693892Y-38779278D01*
X-8683540Y-38764612D01*
X-8669919Y-38748443D01*
X-8542290Y-38620814D01*
X-8480967Y-38587329D01*
X-8411275Y-38592313D01*
G37*
%TD.AperFunction*%
%TA.AperFunction,Conductor*%
G36*
X-16295197Y-31820185D02*
G01*
X-16262970Y-31850188D01*
X-16214687Y-31914687D01*
X-16105226Y-31996628D01*
X-16024075Y-32026896D01*
X-15968144Y-32068765D01*
X-15943727Y-32134230D01*
X-15958579Y-32202503D01*
X-16002314Y-32248614D01*
X-16118340Y-32320180D01*
X-16118344Y-32320183D01*
X-16242315Y-32444154D01*
X-16334356Y-32593375D01*
X-16334358Y-32593380D01*
X-16389505Y-32759802D01*
X-16389506Y-32759809D01*
X-16399999Y-32862513D01*
X-16400000Y-32862526D01*
X-16400000Y-32925000D01*
X-15074000Y-32925000D01*
X-15006961Y-32944685D01*
X-14961206Y-32997489D01*
X-14950000Y-33049000D01*
X-14950000Y-33301000D01*
X-14969685Y-33368039D01*
X-15022489Y-33413794D01*
X-15074000Y-33425000D01*
X-16399999Y-33425000D01*
X-16399999Y-33487471D01*
X-16399998Y-33487484D01*
X-16394848Y-33537897D01*
X-16407617Y-33606590D01*
X-16455497Y-33657475D01*
X-16518206Y-33674500D01*
X-16520246Y-33674500D01*
X-16587285Y-33654815D01*
X-16607922Y-33638185D01*
X-16643903Y-33602205D01*
X-16674156Y-33571951D01*
X-16787198Y-33514352D01*
X-16880975Y-33499500D01*
X-18119017Y-33499500D01*
X-18195029Y-33511539D01*
X-18212804Y-33514354D01*
X-18226774Y-33521472D01*
X-18295442Y-33534367D01*
X-18360182Y-33508090D01*
X-18400438Y-33450983D01*
X-18403267Y-33384960D01*
X-18403380Y-33384943D01*
X-18403292Y-33384389D01*
X-18403430Y-33381177D01*
X-18401980Y-33376109D01*
X-18387000Y-33281524D01*
X-18387000Y-33179386D01*
X-18367315Y-33112347D01*
X-18350684Y-33091709D01*
X-17495793Y-32236817D01*
X-17434471Y-32203333D01*
X-17408113Y-32200499D01*
X-16977129Y-32200499D01*
X-16977128Y-32200499D01*
X-16928757Y-32195299D01*
X-16917516Y-32194091D01*
X-16782671Y-32143797D01*
X-16782664Y-32143793D01*
X-16667455Y-32057547D01*
X-16667452Y-32057544D01*
X-16581206Y-31942335D01*
X-16581202Y-31942328D01*
X-16558391Y-31881167D01*
X-16516520Y-31825233D01*
X-16451056Y-31800816D01*
X-16442209Y-31800500D01*
X-16362236Y-31800500D01*
X-16295197Y-31820185D01*
G37*
%TD.AperFunction*%
%TD*%
M02*
